<?xml version="1.0" encoding="UTF-8"?>
<svg id="_レイヤー_2" data-name="レイヤー 2" xmlns="http://www.w3.org/2000/svg" width="338.49" height="217.05" viewBox="0 0 338.49 217.05">
  <defs>
    <style>
      .cls-1 {
        fill: #211815;
      }

      .cls-2 {
        fill: #f5f19b;
      }

      .cls-3 {
        fill: #e0a99c;
      }

      .cls-4 {
        fill: #ecbb6e;
      }

      .cls-5 {
        fill: #93c9ce;
      }

      .cls-6 {
        fill: #5c948d;
      }

      .cls-7, .cls-8 {
        fill: #fff;
      }

      .cls-9 {
        fill: #d3f2c9;
      }

      .cls-10 {
        fill: #fffb9f;
      }

      .cls-11 {
        fill: #ceeaeb;
      }

      .cls-12 {
        fill: #f2d496;
      }

      .cls-8 {
        stroke: #ceeaeb;
        stroke-miterlimit: 10;
        stroke-width: 2.83px;
      }
    </style>
  </defs>
  <g id="_レイヤー_1-2" data-name="レイヤー 1">
    <g>
      <path class="cls-8" d="M9.89,106.43h239.38c4.68,0,8.47,3.79,8.47,8.47v69.68s9.69,9.69,9.69,9.69h-9.69s0,.5,0,.5c0,4.68-3.79,8.47-8.47,8.47H9.89c-4.68,0-8.47-3.79-8.47-8.47v-79.87c0-4.68,3.79-8.47,8.47-8.47Z"/>
      <circle class="cls-9" cx="305.91" cy="187.05" r="30"/>
      <g>
        <path d="M26.64,128.31c-.69,0-1.79.23-2.54.51-1.59.61-2.64,1.74-2.64,2.83,0,.69.45,1.15,1.35,1.38.4.1,1.11.18,1.6.17h.15c.26,0,.35.09.35.29,0,.49-.09,1.18-.17,1.38-.06.12-.13.17-.29.17-.91,0-2.07-.24-2.85-.6-1.15-.51-1.79-1.4-1.79-2.51,0-.71.27-1.42.78-2.07.29-.34.51-.56,1.05-.93-2.73.83-4.09,1.35-5.01,1.95-.12.08-.19.1-.27.1-.16,0-.3-.13-.51-.51-.21-.34-.36-.76-.36-.99,0-.14.06-.18.42-.29.34-.1.58-.25,1.15-.66.69-.51,1.77-1.44,2.7-2.33.77-.73,1.2-1.18,2.1-2.23-.87.11-3.23.51-3.57.6-.21.06-.22.06-.27.06-.14,0-.2-.06-.26-.21-.12-.33-.22-.88-.3-1.51.21.01.32.01.45.01.67,0,2.13-.12,3.93-.34.67-.08,1.06-.17,1.33-.3.18-.09.21-.1.32-.1.18,0,.42.19.84.7.3.35.39.51.39.68s-.06.24-.25.38q-.27.17-1.53,1.33c-1.04.96-2.27,2.01-3.65,3.1,2.12-.63,3.22-.93,5.52-1.44.51-.11,1.01-.24,1.58-.42.07-.03.13-.04.18-.04.12,0,.18.06.26.19.16.34.36,1.08.36,1.35,0,.21-.06.3-.22.3h-.35Z"/>
        <path d="M34.14,126.1c.97-.25,1.62-.34,2.33-.34,2.13,0,3.36,1.26,3.36,3.42,0,1.88-.81,3.39-2.45,4.59-.87.64-2.19,1.29-2.62,1.29-.2,0-.24-.04-.55-.49-.22-.35-.45-.55-.82-.83,1.72-.58,2.44-.96,3.22-1.64.9-.79,1.35-1.75,1.35-2.89,0-1.21-.57-1.9-1.58-1.9-.81,0-1.86.31-3.22.97-.2.09-.3.17-.55.35-.06.03-.12.06-.18.06-.29,0-.77-.84-1.1-1.96.56-.04.84-.12,2.82-.61ZM35.15,122.44c.54.17,1.35.32,2.08.41.3.03.41.04,1.17.07.22,0,.29.06.29.23,0,.5-.11,1.31-.2,1.46-.03.09-.1.12-.21.12-.35,0-1.56-.17-2.27-.31-1.19-.24-2.22-.54-2.43-.71-.04-.04-.07-.11-.07-.17,0-.12.31-.93.46-1.21.07-.12.12-.15.21-.15q.08,0,.96.27Z"/>
        <path d="M45.62,126.45c-.27.02-.43.03-.61.04-.14.02-.15.02-.17.02-.12,0-.18-.04-.22-.2-.08-.24-.18-1.04-.2-1.48.17.01.6.03,1.14.03.16,0,1.35-.07,1.88-.12.25-1.21.34-1.84.34-2.66,1.54.21,2.1.39,2.1.68,0,.11-.01.13-.24.48-.12.18-.17.34-.42,1.27.7-.12,1.12-.23,1.68-.41.1-.03.15-.04.22-.04.11,0,.13.08.22.51.07.38.12.69.12.86,0,.18-.04.21-.43.3-.51.12-1.38.27-2.31.39-.55,1.68-.93,2.58-1.62,3.99-.53,1.05-.83,1.61-1.23,2.23-.12.18-.2.24-.3.24-.15,0-.57-.22-1.09-.62-.24-.16-.3-.24-.3-.34s.06-.19.26-.46c.43-.54,1-1.47,1.5-2.46.42-.82.57-1.17,1-2.36-.58.04-.63.06-1.32.11ZM50.55,135.09c-1.63,0-2.74-.9-2.74-2.24s1.15-2.41,2.7-2.41c.36,0,.53.01,1.14.11-.06-.72-.06-1.01-.12-2.4,0-.29-.03-.68-.06-1.16.77.08,1.35.17,1.64.29.12.04.18.12.18.24,0,.08-.02.14-.03.24-.07.32-.09.54-.09.95,0,.55.04,1.5.09,2.23,1.07.48,1.5.72,2.25,1.31.33.25.45.39.45.51,0,.15-.08.29-.5.96-.18.3-.31.44-.42.44q-.09,0-.51-.39c-.33-.33-.71-.58-1.23-.9,0,1.4-1.02,2.24-2.74,2.24ZM50.52,131.88c-.72,0-1.21.35-1.21.87,0,.5.45.81,1.12.81.79,0,1.21-.4,1.21-1.2,0-.12,0-.24-.02-.24-.3-.15-.71-.24-1.11-.24ZM56.13,127.62c-.18.26-.27.33-.38.33-.08,0-.13-.03-.24-.13-.38-.36-.9-.75-1.46-1.1q-.36-.22-1.02-.52c-.21-.09-.29-.15-.29-.27,0-.1.07-.24.3-.58.36-.53.45-.62.58-.62.29,0,1.39.57,2.19,1.11.65.44.84.62.84.78,0,.12-.24.57-.54,1Z"/>
        <path d="M64.14,131.62c-.72,1.25-1.71,1.93-2.73,1.93-1.56,0-2.67-1.53-2.67-3.66,0-2.37,1.2-4.41,3.26-5.49,1-.54,2.08-.78,3.51-.78,3.13,0,5.46,2.22,5.46,5.19,0,2.62-1.29,4.51-3.78,5.58-.49.21-.88.33-1.08.33-.18,0-.25-.06-.45-.34-.26-.39-.54-.68-.95-.95,3.09-.79,4.48-2.25,4.48-4.68,0-1.25-.53-2.29-1.46-2.96-.53-.36-.95-.51-1.77-.64-.42,3.16-.91,4.89-1.83,6.46ZM61.98,126.31c-1,.88-1.57,2.14-1.57,3.55,0,1.16.38,1.83,1,1.83.75,0,1.52-1.04,2.09-2.82.36-1.12.54-1.98.77-3.64-1.07.22-1.59.48-2.28,1.08Z"/>
        <path d="M77.54,132.94c0,1.41-1.14,2.55-2.54,2.55s-2.53-1.14-2.53-2.55,1.14-2.54,2.53-2.54,2.54,1.14,2.54,2.54ZM73.64,132.94c0,.76.62,1.38,1.36,1.38s1.37-.62,1.37-1.38-.62-1.37-1.37-1.37-1.36.62-1.36,1.37Z"/>
        <path d="M89.85,126.12c-.39.09-.53.13-1.07.33-.19.08-.3.11-.39.11-.33,0-.63-.62-.9-1.91.96-.04,1.3-.09,2.97-.34,1.8-.27,4.08-.62,5.28-.77,1.35-.18,2.43-.36,3-.48.1-.03.15-.03.22-.03.2,0,.27.09.4.46.12.32.21.77.21.97,0,.18-.06.24-.27.24-.32,0-.6.03-.89.08-2.53.42-4.56,2.64-4.56,4.98,0,1.76,1.38,2.91,3.72,3.12.21.01.29.09.29.27,0,.38-.15,1.09-.29,1.42-.07.17-.19.24-.39.24s-.65-.09-1.11-.22c-2.55-.75-3.88-2.37-3.88-4.66,0-1.25.41-2.4,1.19-3.39.42-.54.78-.84,1.63-1.42-1.96.33-4.04.72-5.17,1ZM97.53,126.51c.21,0,1.48,1.42,1.48,1.65,0,.08-.09.17-.36.41-.29.24-.3.24-.42.29q-.08.03-.11.03c-.06,0-.08-.01-.35-.43-.24-.38-.49-.71-.97-1.2-.03-.03-.07-.11-.07-.12.03-.08.04-.12.06-.12.04-.06.3-.27.36-.31.15-.08.24-.13.25-.15.02-.03.04-.03.04-.03h.08ZM100.1,127.54c-.22.16-.36.25-.44.25-.06,0-.09-.03-.16-.15-.45-.67-.68-.96-1.16-1.42-.03-.04-.06-.09-.06-.12,0-.08.09-.17.3-.32.21-.15.39-.24.46-.24.11,0,.29.14.6.45.44.45.84,1,.84,1.14,0,.09-.11.2-.39.41Z"/>
        <path d="M105.86,126.75c-1.06-.21-1.88-.53-2.43-.92-.27-.18-.33-.25-.33-.39,0-.17.12-.46.54-1.3.73.46,1.56.79,2.5.99.21-1.05.3-1.92.31-2.89.77.13,1.44.36,1.82.57.16.09.22.18.21.3,0,.06-.03.12-.11.27-.22.46-.24.51-.55,1.98.15.01.35.01.46.01h.11c.36-.01.63-.01.77-.01h.04c.13,0,.18.06.18.25,0,.66-.04,1.2-.11,1.3-.04.08-.24.11-.87.11-.29,0-.51-.02-.93-.03q-.32,1.54-.45,2.35c.51.04.62.04.87.04h.84c.15-.01.22.02.27.09.06.09.11.57.11,1.11,0,.27-.02.34-.11.39-.07.03-.4.05-.97.05-.27,0-.68-.01-1.2-.05-.01.27-.01.45-.01.57,0,1.38.64,2.01,2.05,2.01,1.57,0,2.52-.76,2.52-2.05,0-.46-.11-.88-.35-1.35-.3-.57-.58-.9-1.3-1.47h.13c.24,0,.75-.07,1.2-.16.24-.04.33-.06.4-.06.22,0,.38.11.68.48.69.84,1.04,1.72,1.04,2.65,0,2.12-1.71,3.51-4.31,3.51-2.43,0-3.64-1.21-3.64-3.67,0-.21,0-.38.03-.63-1.49-.31-2.29-1.05-2.29-2.12,0-.55.16-.96.58-1.38.04-.06.11-.08.17-.08.09,0,.19.08.54.36.27.22.31.27.31.34q0,.06-.09.19c-.06.11-.12.27-.12.36,0,.19.12.36.35.46.21.1.27.12.75.23l.39-2.43Z"/>
        <path d="M116.52,131.44c.27-.24.34-.3.45-.3.2,0,1.1.66,1.76,1.29.75.69,1.59,1.7,1.59,1.91,0,.14-.03.17-.46.56-.57.52-.69.62-.79.62-.09,0-.18-.06-.26-.21-.53-.93-1.72-2.16-2.79-2.85-.12-.09-.18-.15-.18-.24,0-.11.03-.15.69-.76Z"/>
        <path d="M132.92,133.48c0,.88.02,1.35.07,1.66h-1.79c.06-.46.09-.97.09-1.74v-9.41c0-.61-.01-.99-.06-1.39.46.04.84.06,1.62.06h8.73c.78,0,1.23-.02,1.57-.06-.04.41-.06.79-.06,1.58v9.24c0,.74-.18,1.14-.58,1.35-.27.15-.75.21-1.52.21-.53,0-1.35-.03-1.92-.06-.07-.57-.18-.97-.43-1.56.96.1,1.66.17,2.19.17.55,0,.64-.04.64-.39v-3.52h-8.56v3.87ZM136.32,124.2h-3.4v3.9h3.4v-3.9ZM141.48,128.1v-3.9h-3.6v3.9h3.6Z"/>
        <path d="M155.3,128.58c-.54,1.47-.97,2.25-1.83,3.2,1.7.7,2.58,1.12,4.41,2.11l-1.19,1.34c-1.62-1.04-2.8-1.67-4.42-2.37-1.57,1.17-3.27,1.83-6.24,2.42-.22-.6-.43-1.02-.79-1.54,2.45-.3,3.97-.74,5.38-1.54-1.29-.5-1.62-.6-3.85-1.19.85-1.06,1.2-1.56,1.71-2.42h-1.63c-.72,0-1.14.01-1.57.08v-1.62c.43.06.73.08,1.57.08h2.47c.45-.86.72-1.47.86-2.03l1.74.26q-.15.3-.3.62c-.11.21-.29.6-.55,1.15h5.47c.84,0,1.15-.02,1.57-.08v1.62c-.45-.06-.88-.08-1.57-.08h-1.23ZM150.71,123.1c0-.45-.01-.75-.07-1.09h1.75c-.04.3-.06.64-.06,1.08v.25h3.88c.72,0,1.15-.01,1.65-.06-.04.36-.06.69-.06,1.09v1.07c0,.43.01.72.06,1.07h-1.56v-1.72h-9.31v1.72h-1.59c.04-.33.07-.65.07-1.07v-1.07c0-.33-.03-.72-.07-1.09.49.04.93.06,1.65.06h3.66v-.24ZM150.27,128.58c-.44.72-.59.98-1.11,1.71,1.41.41,1.71.51,2.79.9.82-.78,1.26-1.46,1.68-2.61h-3.36Z"/>
        <path d="M165.36,131.62c-.72,1.25-1.71,1.93-2.73,1.93-1.56,0-2.67-1.53-2.67-3.66,0-2.37,1.2-4.41,3.25-5.49,1.01-.54,2.09-.78,3.51-.78,3.14,0,5.46,2.22,5.46,5.19,0,2.62-1.29,4.51-3.78,5.58-.5.21-.89.33-1.08.33-.18,0-.26-.06-.45-.34-.25-.39-.54-.68-.95-.95,3.09-.79,4.49-2.25,4.49-4.68,0-1.25-.53-2.29-1.46-2.96-.53-.36-.95-.51-1.77-.64-.42,3.16-.92,4.89-1.83,6.46ZM163.2,126.31c-1.01.88-1.58,2.14-1.58,3.55,0,1.16.38,1.83,1.01,1.83.75,0,1.52-1.04,2.08-2.82.36-1.12.54-1.98.77-3.64-1.06.22-1.59.48-2.28,1.08Z"/>
        <path d="M178.52,127.02c-.2-.66-.26-1.06-.44-2.91-.06-.72-.12-1.08-.27-1.59.91.02,1.5.06,1.9.17.23.06.33.17.33.33,0,.06-.01.13-.04.25-.1.36-.15.63-.15,1.02,0,.74.15,1.94.32,2.46.09.28.18.39.34.39.36,0,1.68-.69,2.4-1.24.2-.15.22-.17.3-.17.13,0,.27.1.49.39.38.51.68,1.07.68,1.28,0,.17-.11.27-.36.34-.93.25-2.46.85-3.49,1.35-1.83.9-2.65,1.72-2.65,2.65s.76,1.29,2.7,1.29c1.12,0,2.14-.1,3.53-.33.06-.01.16-.03.2-.03.12,0,.19.06.25.18.04.15.15,1.07.15,1.43,0,.21-.06.29-.26.34-.33.08-2.14.18-3.28.18-1.92,0-3.2-.26-3.99-.79-.68-.47-1.04-1.2-1.04-2.1,0-.69.2-1.31.6-1.91.53-.78,1.1-1.27,2.36-2.02-.31-.29-.44-.5-.57-.96Z"/>
        <path d="M194.22,125.53c-1.29.22-2.62.38-3.44.38-.24,0-.34-.05-.38-.18-.06-.23-.12-.67-.15-1.23,1.22,0,2.15-.08,3.48-.29q-.07-.22-.27-.78c-.13-.36-.26-.66-.42-.98.64-.13,1.23-.21,1.77-.21.13,0,.21.09.21.24v.21c0,.27.06.63.21,1.21,1.12-.25,2.09-.57,2.85-.9.12-.04.15-.06.2-.06.07,0,.12.07.26.39.13.34.27.74.27.81s-.03.11-.12.15c-.88.38-1.29.51-3.03.95.21.52.27.66.53,1.2.82-.22,1.23-.36,1.53-.51l1.41-.71s.04-.03.04-.03c.02,0,.04.01.06.01.06,0,.12.09.25.38.18.36.33.77.33.86q0,.11-.31.27c-.82.45-1.47.71-2.55,1.01.6.88,1.46,1.84,1.96,2.21.51.36.52.39.52.54,0,.13-.15.45-.43.95-.26.44-.38.55-.54.55-.09,0-.11,0-.33-.16-.76-.59-2.31-.99-3.79-.99-1.29,0-2.1.45-2.1,1.2,0,.46.36.84,1.01,1.08.58.21,1.88.35,3.27.35.33,0,.62-.02,1.2-.04-.27.39-.4.66-.58,1.29-.09.32-.2.38-.66.38-1.61,0-3.03-.18-3.99-.52-1.28-.45-1.95-1.29-1.95-2.42,0-1.61,1.32-2.58,3.51-2.58,1.35,0,2.21.15,3.15.57-.84-.79-1.29-1.33-1.72-2.04-.72.15-1.08.21-1.56.29-.86.12-2.42.24-3.04.24-.48,0-.5-.01-.63-1.42.33.01.59.01.73.01.96,0,2.79-.2,3.79-.41-.18-.38-.38-.81-.54-1.24Z"/>
        <path d="M206.93,131.19c.04.06.06.11.06.16q0,.09-.25.78c-.32.91-.51,1.66-.57,2.25-.02.19-.08.27-.27.31-.21.06-.61.09-1,.09-.15,0-.22-.03-.27-.12-.13-.28-.38-1.32-.5-2.16-.1-.71-.15-1.44-.15-2.21,0-1.73.2-3.36.74-6.3.09-.48.12-.71.16-1.17.69.09,1.17.23,1.61.44.22.12.31.22.31.36,0,.09-.03.17-.11.29-.61,1.05-1.18,4.29-1.18,6.69,0,.36.01.93.06,1.65.36-.93.52-1.35.85-2.07.11.41.21.6.51,1.01ZM209.45,127.24c-.72,0-.87-.03-.92-.2-.04-.13-.09-.61-.09-.96,0-.12,0-.24.02-.51.4.03.64.04,1.14.04.81,0,1.32-.02,2.1-.08-.02-1.9-.03-2.14-.18-2.85.74.02,1.29.08,1.77.2.22.06.31.13.31.29,0,.06-.02.11-.06.22-.15.35-.22.93-.25,1.98.55-.08,1.03-.18,1.93-.39.08-.03.11-.03.15-.03.09,0,.13.04.17.15.03.14.07.71.07,1.02,0,.38-.02.43-.17.49-.24.12-.9.23-2.17.39,0,1.04.09,2.74.2,3.72.95.41,1.59.75,2.25,1.21.42.3.51.41.51.51,0,.16-.27.67-.59,1.11-.18.25-.27.33-.38.33s-.1,0-.45-.33c-.33-.33-.68-.58-1.34-1.02v.12c0,1.32-1.09,2.19-2.76,2.19s-2.8-.9-2.8-2.25,1.14-2.35,2.66-2.35c.55,0,.84.01,1.24.07q-.06-1.17-.11-3.18c-.64.04-1.66.09-2.26.09ZM210.68,131.65c-.75,0-1.24.34-1.24.87,0,.48.46.78,1.19.78.79,0,1.21-.36,1.21-1.05,0-.21-.02-.38-.02-.38-.39-.15-.73-.22-1.14-.22Z"/>
        <path d="M222.65,125.65c-.66,0-1.04.02-1.39.06v-1.53c.34.06.64.08,1.26.08h1.15c-.36-.84-.53-1.14-1.04-1.85l1.41-.58c.48.71.72,1.11,1.1,1.89l-1.35.54h2.49c.59-.92.84-1.39,1.2-2.4l1.61.39c-.62,1.18-.78,1.47-1.17,2.01h1.15c.73,0,1.05-.02,1.42-.08v1.54c-.39-.06-.76-.08-1.41-.08h-2.39v1.44c0,.69-.03,1.21-.1,1.95h1.77v-1.79c0-.36-.03-.65-.06-.93h1.61c-.03.3-.04.58-.04.99v2.16c0,.42,0,.74.03.99-.31-.03-.6-.04-.96-.04h-2.61c-.21.65-.51,1.16-.96,1.68-.36.42-.72.71-1.71,1.34.43.01,1.02.03,1.62.03,2.14,0,4.17-.1,5.62-.3-.29.81-.33.96-.44,1.71-1.33.04-3.24.08-4.96.08-2.07,0-3.06-.08-3.76-.29-.8-.24-1.29-.6-1.82-1.3-.49.48-.72.67-1.63,1.35-.21.17-.27.21-.46.38l-.71-1.63c.51-.21,1.46-.85,2.09-1.42v-3.11h-.78c-.4,0-.62.02-.97.08v-1.56c.39.06.63.07,1.14.07h1.08c.42,0,.76-.01,1.11-.06-.04.42-.06.79-.06,1.56v3.06c.46.75.83,1.02,1.56,1.21.27.06.57.09,1.32.15-.36-.53-.66-.83-1.26-1.29,1.33-.57,1.81-.93,2.29-1.72h-1.88c-.38,0-.65.02-.95.04.03-.31.04-.63.04-1v-2.15c0-.32-.03-.69-.06-.98h1.61c-.03.2-.04.51-.04.92v1.79h1.71c.08-.74.12-1.21.12-1.82v-1.58h-2.54ZM218.6,122.23c1.02.88,1.82,1.71,2.51,2.6l-1.2,1.17c-.86-1.17-1.35-1.73-2.45-2.7l1.14-1.06Z"/>
        <path d="M235.94,130.9c.04.07.06.13.06.21,0,.1-.02.12-.15.45-.3.69-.66,1.77-.84,2.58-.04.16-.09.25-.15.29-.08.03-.59.1-.75.1h-.06c-.08,0-.18-.01-.3-.01-.2,0-.24-.04-.3-.23-.29-.97-.51-2.99-.51-4.5,0-1.65.1-2.67.52-4.92.15-.81.22-1.26.29-1.76.63.12,1.17.27,1.62.48.25.11.33.18.33.33,0,.11-.02.15-.18.39-.49.79-1.05,3.98-1.05,6.12,0,.34.02.81.06,1.56.42-.94.57-1.23.91-1.96.13.32.22.46.49.87ZM239.19,131.97c.48.26,1.05.35,2.05.35s1.53-.08,2.46-.35c.09-.03.16-.04.21-.04.11,0,.18.06.2.21.07.51.13,1.11.13,1.41,0,.15-.04.2-.26.25-.81.21-1.63.32-2.64.32-1.38,0-2.23-.17-2.94-.58-.66-.41-1.35-1.23-1.35-1.63,0-.21.32-.5,1.12-.99.27.54.53.81,1.01,1.06ZM238.14,124.32c.33.08,1.29.14,2.03.14.99,0,1.98-.08,2.91-.24q.07-.02.13-.02c.11,0,.15.04.18.17.03.15.08.81.08,1.22,0,.22-.04.3-.21.33-.62.12-1.63.19-2.71.19-1.29,0-2.45-.08-2.59-.17-.08-.04-.11-.15-.11-.42,0-.41.04-1,.07-1.12.02-.06.06-.09.15-.09.02,0,.04,0,.07.01Z"/>
        <path d="M16.4,156.29c0-.57.02-.99.03-1.54-.39.48-.62.69-1.12,1.08-.2-.62-.36-.99-.67-1.51,1.05-.72,1.8-1.47,2.58-2.58.24-.36.46-.74.66-1.17l1.28.9c-.12.18-.16.24-.29.43-.33.54-.4.65-.93,1.32v5.91c0,.78.02,1.19.08,1.63h-1.7c.07-.44.09-.82.09-1.53v-2.94ZM19.05,148.27c-.77,1-.86,1.09-1.23,1.5-.66.66-1.38,1.24-2.21,1.77-.25-.58-.46-.88-.84-1.32,1.46-.82,2.45-1.77,3-2.88l1.28.93ZM19.85,156.76c-.6,0-.93.01-1.37.06v-1.45c.39.04.77.06,1.38.06h4.79v-.72h-4.63c-.56,0-.98.01-1.35.06v-1.41c.38.04.6.06,1.37.06h6.44c.67,0,1.04-.02,1.39-.07v1.42c-.38-.04-.78-.06-1.37-.06h-.31v.72h.38c.6,0,1.04-.01,1.41-.06v1.45c-.35-.04-.77-.06-1.37-.06h-.42v2.52c0,1.06-.42,1.35-1.94,1.35-.29,0-.84-.02-1.5-.04-.06-.6-.13-.9-.33-1.44l-.75.67c-.6-1.02-1-1.51-1.86-2.31l1.04-.75h-.99ZM21,152.78c-.58,0-1.08.01-1.33.04.03-.41.04-.78.04-1.41v-2.16c0-.6-.02-.93-.04-1.34.4.04.77.06,1.46.06h4.44c.72,0,1.11-.02,1.48-.06-.04.46-.06.81-.06,1.43v2.07c0,.63.01.99.06,1.41-.31-.03-.82-.04-1.32-.04h-4.73ZM21.17,156.76c.62.57.95.93,1.74,1.95l-.36.31c.74.11,1.23.15,1.56.15.44,0,.54-.06.54-.36v-2.06h-3.48ZM21.2,149.83h4.26v-.63h-4.26v.63ZM21.2,151.63h4.26v-.67h-4.26v.67Z"/>
        <path d="M35.85,151.42c-3.29.21-4.56.34-5.51.6-.06.01-.12.03-.16.03-.11,0-.2-.07-.24-.2-.13-.38-.21-.87-.26-1.62h.36c.48,0,.93-.02,2.37-.11,1.11-.06,2.05-.1,3.4-.15-.01-1.35-.03-1.56-.16-2.23,1.15.03,1.74.08,1.95.17.09.04.13.12.13.27,0,.03-.01.09-.04.16-.13.33-.18.66-.21,1.59,2.19-.06,2.52-.06,4.02-.06.4,0,.46,0,.51.05.06.06.09.28.09.79,0,.69-.02.76-.21.76h-.06c-.64-.06-2.25-.12-3.3-.12q-.34,0-1.09.01l-.03,2.46c.23.5.3.92.3,1.63,0,1.88-.69,3.31-2.14,4.38-.6.45-1.37.84-1.63.84-.13,0-.21-.04-.33-.17-.42-.48-.74-.72-1.28-1.02.9-.25,1.37-.46,1.95-.83.44-.28.83-.6,1.11-.92.19-.24.34-.46.57-.95-.43.45-.79.62-1.35.62-1.26,0-2.08-.96-2.08-2.41,0-1.53.97-2.64,2.32-2.64.44,0,.71.06,1.01.2v-1.15ZM34.04,154.93c0,.63.36,1.06.9,1.06.57,0,.92-.41.92-1.1s-.33-1.11-.9-1.11c-.54,0-.92.46-.92,1.14Z"/>
        <path d="M51.99,152.78c2.12,0,3.62,1.44,3.62,3.48,0,1.39-.73,2.66-1.96,3.39-.86.51-1.9.76-3.09.76-1.9,0-3.02-.76-3.02-2.07,0-1.19.99-2.03,2.4-2.03,1.28,0,2.19.64,2.8,1.96.77-.55,1.08-1.14,1.08-1.95,0-1.29-.91-2.13-2.36-2.13s-3.04.73-4.35,2.04c-.24.24-.46.5-.73.84-.11.15-.18.21-.27.21-.27,0-1.34-1.05-1.34-1.32,0-.13.06-.21.39-.45.35-.27.84-.71,1.47-1.3,1.46-1.38,2.52-2.54,4.09-4.46-1.88.24-3.13.45-3.6.62-.07.01-.12.03-.16.03-.12,0-.2-.07-.29-.3-.18-.45-.27-.94-.32-1.6.41.06.69.07,1.02.07.72,0,1.93-.1,3.51-.29.55-.06.73-.1,1.15-.27.13-.06.21-.08.3-.08.21,0,.42.18.81.78.29.39.38.58.38.71,0,.2-.04.25-.38.46-.27.17-.43.3-.78.63-.75.72-.77.72-1.7,1.67-.66.67-.73.75-1.33,1.35.97-.54,1.74-.76,2.64-.76ZM50.55,157.98c-.22-.15-.48-.23-.77-.23-.46,0-.76.23-.76.58,0,.44.46.71,1.18.71.33,0,.62-.03.99-.13-.18-.5-.33-.72-.64-.93Z"/>
        <path d="M65.43,157.85c1.23,0,2.59-.18,3.94-.52.08-.03.12-.03.17-.03.09,0,.13.06.16.2.04.33.08.81.08,1.3,0,.3-.03.39-.17.45-.45.24-2.47.46-4.21.46-2.26,0-3.55-.38-4.59-1.35-.49-.46-.99-1.27-.99-1.6,0-.22.13-.32,1.37-1.02.54,1.49,1.79,2.12,4.25,2.12ZM65.57,149.23c.87,0,1.38-.03,2.4-.18h.11c.12,0,.17.04.2.13.03.18.06.63.06,1.17,0,.35-.03.47-.12.53-.12.08-1.42.17-2.43.17-1.33,0-2.45-.11-3.69-.35-.86-.17-.9-.21-.9-.73,0-.35.03-.92.08-1.34,1.3.41,2.73.6,4.3.6Z"/>
        <path d="M77.3,152.53c-.19-.66-.25-1.06-.43-2.91-.06-.72-.12-1.08-.27-1.59.91.02,1.5.06,1.9.17.22.06.33.17.33.33,0,.06-.02.13-.04.25-.11.36-.15.63-.15,1.02,0,.74.15,1.94.31,2.46.09.28.18.39.35.39.36,0,1.68-.69,2.4-1.24.19-.15.22-.17.3-.17.13,0,.27.1.5.39.38.51.67,1.07.67,1.28,0,.17-.11.27-.36.34-.93.25-2.46.85-3.49,1.35-1.83.9-2.66,1.72-2.66,2.65s.77,1.29,2.7,1.29c1.12,0,2.14-.1,3.52-.33.06-.01.17-.03.2-.03.12,0,.2.06.26.18.04.15.15,1.07.15,1.43,0,.21-.06.29-.26.34-.33.08-2.14.18-3.29.18-1.92,0-3.2-.26-3.99-.79-.67-.47-1.04-1.2-1.04-2.1,0-.69.2-1.31.6-1.91.52-.78,1.09-1.27,2.35-2.02-.31-.29-.43-.5-.57-.96Z"/>
        <path d="M91.4,152.26c-1.07-.21-1.88-.53-2.43-.92-.27-.18-.33-.25-.33-.39,0-.17.12-.46.54-1.3.73.46,1.56.79,2.51.99.21-1.05.3-1.92.31-2.89.77.13,1.44.36,1.81.57.17.09.22.18.21.3,0,.06-.03.12-.11.27-.22.46-.24.51-.55,1.98.15.01.34.01.46.01h.11c.36-.01.63-.01.76-.01h.04c.13,0,.18.06.18.25,0,.66-.04,1.2-.1,1.3-.04.08-.24.11-.87.11-.29,0-.51-.02-.93-.03q-.31,1.54-.45,2.35c.51.04.62.04.87.04h.84c.15-.01.22.02.27.09.06.09.11.57.11,1.11,0,.27-.02.34-.11.39-.07.03-.4.05-.97.05-.27,0-.67-.01-1.2-.05-.02.27-.02.45-.02.57,0,1.38.64,2.01,2.05,2.01,1.58,0,2.52-.76,2.52-2.05,0-.46-.1-.88-.34-1.35-.3-.57-.59-.9-1.3-1.47h.13c.24,0,.75-.07,1.2-.16.24-.04.33-.06.41-.06.22,0,.38.11.67.48.69.84,1.04,1.72,1.04,2.65,0,2.12-1.71,3.51-4.3,3.51-2.43,0-3.64-1.21-3.64-3.67,0-.21,0-.38.03-.63-1.48-.31-2.29-1.05-2.29-2.12,0-.55.17-.96.59-1.38.04-.06.1-.08.16-.08.09,0,.2.08.54.36.27.22.31.27.31.34q0,.06-.09.19c-.06.11-.12.27-.12.36,0,.19.12.36.35.46.21.1.27.12.75.23l.39-2.43Z"/>
        <path d="M105.9,151.18c-.69.04-1.33.06-1.9.06-.63,0-.68,0-.71-.09-.04-.09-.09-.72-.09-1.16v-.29c.71.03,1,.04,1.38.04s.95-.01,1.4-.03c.07-.87.09-1.17.09-1.47,0-.13,0-.22-.02-.43.72.01,1.28.06,1.71.17.12.03.18.09.18.2,0,.07-.02.13-.09.31-.12.29-.21.68-.27,1.14.96-.08,2.12-.23,2.58-.33.45-.11.77-.17.84-.17.32-.03.54-.09.63-.16.02-.02.03-.02.03-.02.03,0,.04.02.08.02.06,0,.1.06.13.16.03.23.07.75.07,1.08,0,.23-.04.29-.2.32-.88.18-2.71.41-4.29.54-.02.06-.02.09-.02.24-.03.29-.03.31-.04,1.06.66-.15,1.25-.22,1.98-.22.11-.48.12-.6.15-.95,1.15.24,1.72.45,1.72.63,0,.06-.02.1-.13.3-.04.06-.08.11-.11.21,1.94.45,3.16,1.88,3.16,3.72,0,1.64-.88,2.94-2.58,3.84-.63.33-1.51.63-1.84.63-.17,0-.29-.06-.38-.18-.31-.45-.51-.66-.99-1.07,1.56-.29,2.32-.6,3.07-1.21.69-.58,1.02-1.26,1.02-2.1,0-1.2-.71-2.1-1.91-2.44-.9,2.07-1.5,3.04-2.58,4.16.08.25.13.4.27.72.06.12.07.17.07.21,0,.15-.06.2-.4.38-.38.2-.81.34-.96.34-.13,0-.16-.04-.33-.51-.87.61-1.8.94-2.71.94-1.02,0-1.71-.82-1.71-2.02,0-1.88,1.37-3.71,3.63-4.83.02-.78.03-1.44.04-1.74ZM103.79,157.48c0,.38.23.6.6.6.51,0,1.18-.29,1.86-.78-.21-1.02-.3-1.71-.38-2.83-1.32.98-2.09,2.1-2.09,3.01ZM109.04,153.34c-.67.06-1.04.12-1.65.33.03,1.07.06,1.51.18,2.28.63-.79,1.05-1.54,1.47-2.61Z"/>
        <path d="M124.29,152.78c2.12,0,3.62,1.44,3.62,3.48,0,1.39-.74,2.66-1.96,3.39-.86.51-1.91.76-3.09.76-1.91,0-3.02-.76-3.02-2.07,0-1.19.99-2.03,2.4-2.03,1.27,0,2.19.64,2.8,1.96.76-.55,1.08-1.14,1.08-1.95,0-1.29-.92-2.13-2.36-2.13s-3.04.73-4.35,2.04c-.24.24-.46.5-.73.84-.11.15-.18.21-.27.21-.27,0-1.33-1.05-1.33-1.32,0-.13.06-.21.39-.45.34-.27.84-.71,1.47-1.3,1.46-1.38,2.52-2.54,4.1-4.46-1.88.24-3.13.45-3.6.62-.08.01-.12.03-.17.03-.12,0-.2-.07-.29-.3-.18-.45-.27-.94-.31-1.6.4.06.69.07,1.02.07.72,0,1.94-.1,3.51-.29.55-.06.73-.1,1.16-.27.13-.06.21-.08.3-.08.21,0,.42.18.81.78.29.39.38.58.38.71,0,.2-.04.25-.38.46-.27.17-.44.3-.78.63-.75.72-.76.72-1.69,1.67-.66.67-.74.75-1.34,1.35.97-.54,1.74-.76,2.64-.76ZM122.85,157.98c-.23-.15-.48-.23-.77-.23-.46,0-.77.23-.77.58,0,.44.46.71,1.19.71.33,0,.62-.03.99-.13-.18-.5-.33-.72-.64-.93Z"/>
        <path d="M133.68,158.21q0-1.63.01-2.34c-.75.83-1.26,1.49-1.51,1.95-.08.15-.18.24-.27.24-.15,0-.51-.32-.99-.86-.19-.24-.28-.38-.28-.44q0-.1.76-.85c.64-.65,1.52-1.67,2.33-2.75,0-.09,0-.43.01-1.04-.73.13-1.68.39-1.93.53-.15.08-.18.09-.26.09-.26,0-.46-.58-.66-1.75.79-.01,1.79-.12,2.88-.3,0-.54.01-1.3.01-1.72,0-.45-.03-.81-.09-1.11.95.06,1.41.12,1.83.23.22.06.31.15.31.31,0,.08-.03.15-.09.3-.15.3-.16.41-.29,1.59.36.22.71.6.71.79q0,.13-.46.7c-.04.06-.18.25-.4.54q-.02.48-.02.58c1.47-1.25,2.71-1.77,4.19-1.77,2.34,0,3.81,1.49,3.81,3.87,0,1.83-.84,3.19-2.57,4.12-.66.38-1.79.78-2.12.78-.09,0-.19-.03-.24-.09t-.23-.3c-.25-.36-.54-.64-.84-.85,2.99-.81,4.17-1.86,4.17-3.7,0-1.44-.85-2.37-2.21-2.37-.88,0-1.69.29-2.65.92q-.48.31-1.33,1.04.01.12.01.31c0,1.61,0,1.74.09,4.89.02.17.02.29.02.32,0,.29-.21.34-1.3.34-.39,0-.42-.04-.42-.47l.02-1.74Z"/>
        <path d="M152.84,159.25c0,.66-.53,1.18-1.19,1.18s-1.19-.53-1.19-1.18.53-1.18,1.19-1.18,1.19.52,1.19,1.18ZM152.31,157.03h-1.33l-.41-8.98h2.16l-.42,8.98Z"/>
        <path d="M166.65,157.85c1.23,0,2.6-.18,3.95-.52.07-.03.12-.03.16-.03.09,0,.13.06.17.2.04.33.07.81.07,1.3,0,.3-.03.39-.16.45-.45.24-2.47.46-4.21.46-2.27,0-3.55-.38-4.59-1.35-.5-.46-.99-1.27-.99-1.6,0-.22.13-.32,1.37-1.02.54,1.49,1.79,2.12,4.24,2.12ZM166.79,149.23c.87,0,1.38-.03,2.4-.18h.11c.12,0,.16.04.2.13.03.18.06.63.06,1.17,0,.35-.03.47-.12.53-.12.08-1.43.17-2.43.17-1.34,0-2.45-.11-3.69-.35-.85-.17-.9-.21-.9-.73,0-.35.03-.92.07-1.34,1.3.41,2.73.6,4.3.6Z"/>
        <path d="M179.82,157.13c-.72,1.25-1.71,1.93-2.73,1.93-1.56,0-2.67-1.53-2.67-3.66,0-2.37,1.2-4.41,3.26-5.49,1-.54,2.08-.78,3.51-.78,3.13,0,5.46,2.22,5.46,5.19,0,2.62-1.29,4.51-3.78,5.58-.49.21-.88.33-1.08.33-.18,0-.25-.06-.45-.34-.26-.39-.54-.68-.95-.95,3.09-.79,4.48-2.25,4.48-4.68,0-1.25-.53-2.29-1.46-2.96-.53-.36-.95-.51-1.77-.64-.42,3.16-.91,4.89-1.83,6.46ZM177.66,151.82c-1,.88-1.57,2.14-1.57,3.55,0,1.16.38,1.83,1,1.83.75,0,1.52-1.04,2.09-2.82.36-1.12.54-1.98.77-3.64-1.07.22-1.59.48-2.28,1.08Z"/>
        <path d="M198.14,149.77c.63,0,1.02-.02,1.44-.06-.08.36-.12.63-.2,1.07-.04.34-.2,1.09-.3,1.5.46,0,.77-.01,1.12-.04q-.07.33-.15.81c-.06.42-.21,1.1-.34,1.63h.46c.46,0,.78-.01,1.18-.06-.01.21-.01.25-.06.72-.13,2.19-.38,3.67-.69,4.41-.33.79-.87,1.05-2.17,1.05-.39,0-.71-.01-1.23-.06-.04-.6-.15-1.01-.39-1.5.68.09,1.02.12,1.46.12.63,0,.78-.04.92-.31.2-.38.4-1.67.49-3.03h-8.31c-1.16,1.09-1.29,1.22-2.18,1.83-.22-.52-.44-.84-.95-1.38,1.37-.84,2.27-1.59,3.13-2.64.68-.82,1.23-1.69,1.71-2.71h-2.42c-.61,0-1.11.03-1.59.09v-1.51c.42.06.86.09,1.5.09h.96c-.38-.62-.69-1.02-1.32-1.63l1.29-.69c.51.5.9.98,1.38,1.71l-1.08.62h1.83c.31-.88.51-1.72.55-2.29l1.71.24c-.11.24-.13.33-.3.87-.02.04-.13.45-.39,1.19h2.91ZM192.44,156.94c-.53,1.77-.81,2.47-1.52,3.71l-1.39-.89c.77-1.07,1.14-1.88,1.52-3.28l1.39.46ZM198.2,154.67c.07-.27.16-.71.22-1.11h-5.04c-.3.43-.42.58-.83,1.11h5.64ZM194.06,156.62c.26,1.12.36,1.91.46,3.36l-1.44.22c0-1.43-.06-2.14-.27-3.45l1.24-.13ZM194.7,151.1c-.24.51-.32.66-.57,1.17h3.43c.12-.43.15-.58.24-1.17h-3.1ZM196.13,156.41c.48,1.24.62,1.71.83,2.67l-1.34.44c-.13-1.01-.31-1.79-.67-2.82l1.18-.29ZM198,156.15c.5.72.72,1.11,1.06,1.92l-1.12.54c-.27-.79-.52-1.33-.97-2.01l1.04-.45Z"/>
        <path d="M213.44,151.91c.81.97,1.68,1.58,2.78,1.94-.36.48-.55.88-.73,1.44-.6-.33-.92-.53-1.34-.84-.04.45-.06.88-.06,1.51v3.15c0,.78.01,1.21.09,1.62h-1.59v-.6h-6.15v.6h-1.59c.06-.44.09-.9.09-1.62v-3.15c0-.54-.02-.93-.04-1.42-.53.5-.72.63-1.29,1.02-.22-.58-.43-.96-.79-1.38,1.2-.65,1.92-1.32,2.39-2.27h-.75c-.66,0-1.05.02-1.44.08v-1.44c.39.04.78.06,1.47.06h1.12c.07-.38.09-.53.12-.84h-1.05c-.66,0-.9.01-1.25.06v-1.42c.3.04.75.08,1.32.08h1.06v-.34c0-.33-.01-.45-.04-.66h1.59c-.03.13-.04.46-.07,1h.55c.57,0,1.01-.03,1.29-.08v1.42c-.29-.04-.68-.06-1.21-.06h-.74q-.06.55-.11.84h.78c.51,0,.93-.02,1.29-.06v1.43c-.31-.04-.62-.06-1.23-.06h-.6c.53.62,1.12,1.06,1.88,1.43-.4.42-.55.61-.82,1.09h1.57c-.25-.36-.45-.57-.78-.84.97-.55,1.47-.99,1.9-1.68h-.29c-.61,0-.93.02-1.24.06v-1.43c.36.04.79.06,1.32.06h.67c.06-.31.09-.48.13-.84h-.75c-.54,0-.94.01-1.23.06v-1.42c.29.04.82.08,1.35.08h.71c-.02-.75-.02-.78-.06-1.02h1.61c-.03.17-.06.51-.09,1.02h1.11c.53,0,.95-.03,1.3-.08v1.42c-.29-.04-.57-.06-1.21-.06h-1.29c-.04.31-.08.53-.13.84h1.65c.71,0,.98-.02,1.35-.06v1.44c-.39-.06-.81-.08-1.43-.08h-1.1ZM208.17,154.43c-.81-.52-1.29-.99-1.81-1.72-.35.62-.72,1.1-1.32,1.7.34.01.75.03,1.35.03h1.79ZM206.43,156.59h6.15v-.87h-6.15v.87ZM206.43,158.77h6.15v-.93h-6.15v.93ZM212.63,154.43c.66,0,1.02-.01,1.44-.04-.79-.63-1.34-1.21-1.79-1.92-.48.84-.9,1.34-1.71,1.96h2.05Z"/>
        <path d="M223.2,157.13c-.72,1.25-1.71,1.93-2.73,1.93-1.56,0-2.67-1.53-2.67-3.66,0-2.37,1.2-4.41,3.26-5.49,1-.54,2.08-.78,3.51-.78,3.13,0,5.46,2.22,5.46,5.19,0,2.62-1.29,4.51-3.78,5.58-.49.21-.88.33-1.08.33-.18,0-.25-.06-.45-.34-.26-.39-.54-.68-.95-.95,3.09-.79,4.48-2.25,4.48-4.68,0-1.25-.53-2.29-1.46-2.96-.53-.36-.95-.51-1.77-.64-.42,3.16-.91,4.89-1.83,6.46ZM221.04,151.82c-1,.88-1.57,2.14-1.57,3.55,0,1.16.38,1.83,1,1.83.75,0,1.52-1.04,2.09-2.82.36-1.12.54-1.98.77-3.64-1.07.22-1.59.48-2.28,1.08Z"/>
        <path d="M234.98,149.22c-.75.06-1.43.1-2.46.16-.12-.4-.22-.64-.51-1.15,2.79,0,5.28-.3,6.27-.77l.86,1.17c-.07.02-.11.02-.2.03q-.12.01-.34.06s-.12.02-.24.04c-.57.11-1.28.21-1.96.3v.81h1.5c.66,0,1.02-.01,1.32-.06v1.29c-.23-.03-.42-.04-1.04-.04h-1.79v.62h1.41c.64,0,.93-.01,1.21-.03-.03.25-.04.54-.04,1.26v1.95c.01.68.03,1.11.04,1.31-.33-.03-.62-.03-1.3-.03h-1.32v.64h1.26c.72,0,1.02-.01,1.35-.04v1.32c-.27-.04-.45-.06-1-.06h-1.61v.71c.72-.06,1.19-.12,2.58-.31v.62c.63-.95,1.09-2.08,1.35-3.31.22-1.05.31-1.88.39-3.78-.6,0-.83.02-1.2.06v-1.56c.3.04.53.06,1.02.06h.23v-1.05c0-1.2-.02-1.44-.09-1.83h1.66c-.06.31-.07.6-.09,1.18,0,.11,0,.75-.02,1.7h1.25c.62,0,.94-.01,1.35-.06-.06.52-.06.63-.11,2.7-.06,3.71-.25,5.74-.62,6.57-.25.63-.73.85-1.77.85-.22,0-.95-.03-1.17-.04-.04-.64-.11-.93-.33-1.56-.36.74-.58,1.12-1.17,1.89-.29-.43-.66-.81-1.11-1.14-2.09.3-2.99.41-5.66.61-.28.03-.51.04-.85.11l-.26-1.53c.33.03.44.03.77.03.63,0,.87-.01,2.43-.11v-.79h-1.47c-.46,0-.96.02-1.35.06v-1.33c.41.04.71.06,1.35.06h1.47v-.64h-1.24c-.65,0-.95.02-1.4.03.03-.36.04-.66.04-1.35v-1.88c0-.66-.01-.97-.04-1.3.36.03.79.04,1.41.04h1.23v-.62h-1.76c-.6,0-.91.02-1.33.06v-1.32c.39.06.75.08,1.35.08h1.74v-.66ZM233.74,152.75v.62h1.24v-.62h-1.24ZM233.74,154.42v.63h1.24v-.63h-1.24ZM236.39,153.37h1.24v-.62h-1.24v.62ZM236.39,155.05h1.24v-.63h-1.24v.63ZM242.18,151.9c-.15,3.45-.46,5.15-1.35,7.02.64.1.97.13,1.28.13.64,0,.75-.18.91-1.51.11-.75.13-1.37.2-2.97q.03-.51.04-1.69c0-.42.02-.52.02-.98h-1.1Z"/>
        <path d="M20.7,176.56c-1.29.22-2.62.38-3.44.38-.24,0-.34-.05-.38-.18-.06-.23-.12-.67-.15-1.23,1.22,0,2.15-.08,3.48-.29q-.07-.22-.27-.78c-.13-.36-.26-.66-.42-.98.64-.13,1.23-.21,1.77-.21.13,0,.21.09.21.24v.21c0,.27.06.63.21,1.21,1.12-.25,2.09-.57,2.85-.9.12-.04.15-.06.2-.06.07,0,.12.07.26.39.13.34.27.74.27.81s-.03.11-.12.15c-.88.38-1.29.51-3.03.95.21.52.27.66.53,1.2.82-.22,1.23-.36,1.53-.51l1.41-.71s.04-.03.04-.03c.02,0,.04.01.06.01.06,0,.12.09.25.38.18.36.33.77.33.86q0,.11-.31.27c-.82.45-1.47.71-2.55,1.01.6.88,1.46,1.84,1.96,2.21.51.36.52.39.52.54,0,.13-.15.45-.43.95-.26.44-.38.55-.54.55-.09,0-.11,0-.33-.16-.76-.59-2.31-.99-3.79-.99-1.29,0-2.1.45-2.1,1.2,0,.46.36.84,1.01,1.08.58.21,1.88.35,3.27.35.33,0,.62-.02,1.2-.04-.27.39-.4.66-.58,1.29-.09.32-.2.38-.66.38-1.61,0-3.03-.18-3.99-.52-1.28-.45-1.95-1.29-1.95-2.42,0-1.61,1.32-2.58,3.51-2.58,1.35,0,2.21.15,3.15.57-.84-.79-1.29-1.33-1.72-2.04-.72.15-1.08.21-1.56.29-.86.12-2.42.24-3.04.24-.48,0-.5-.01-.63-1.42.33.01.59.01.73.01.96,0,2.79-.2,3.79-.41-.18-.38-.38-.81-.54-1.24Z"/>
        <path d="M35.82,181.64c-1.48.87-1.9,1.3-1.9,1.96,0,.27.11.45.33.58.33.2,1.06.3,2.01.3.81,0,1.94-.07,2.7-.18.32-.04.5-.09,1.1-.24h.07c.11,0,.18.08.23.18.09.32.15.77.15,1.31,0,.23-.07.32-.27.36-.36.07-2.03.16-3.12.16-1.83,0-2.8-.12-3.53-.42-.87-.36-1.3-1.04-1.3-1.98,0-.87.4-1.63,1.21-2.28.64-.51.79-.62,2.18-1.39-.12-.5-.35-.71-.81-.71-.62,0-1.26.24-1.96.71-.44.3-.95.72-1.26,1.04-.45.46-.5.49-.62.49-.15,0-.46-.34-.78-.87-.15-.26-.24-.45-.24-.55,0-.14.03-.17.39-.39,1.23-.82,2.25-1.88,2.87-2.96-1.06.08-1.62.09-2.21.09-.22,0-.27-.04-.34-.3-.05-.2-.12-.99-.14-1.4.51.08.81.09,1.53.09.58,0,1.23-.01,1.9-.04.31-.85.42-1.4.44-2.1,1.33.23,1.95.45,1.95.71,0,.06-.02.09-.06.18-.1.19-.22.43-.42.9q-.03.06-.04.11c.86-.12,1.61-.27,2.13-.39.33-.09.4-.1.48-.1.12,0,.18.04.21.14.06.27.15.96.15,1.17,0,.16-.06.24-.26.28-.48.14-2.13.39-3.51.52-.45.83-.76,1.31-1.23,1.82.67-.32,1.18-.43,1.78-.43.68,0,1.12.39,1.43,1.23,1.48-.81,2.28-1.25,2.37-1.3.69-.41.98-.63,1.31-1,.61.63,1.27,1.57,1.27,1.83,0,.09-.06.15-.25.2-.74.19-2.1.78-4.38,1.89.02.27.04.96.04,1.44v.72c0,.18-.03.27-.1.32-.08.08-.48.12-.93.12-.51,0-.6-.04-.6-.29v-.06c.03-.43.04-1,.04-1.36v-.08Z"/>
        <path d="M53.24,174.16c-.77.39-1.05.75-1.15,1.42.13-.03.27-.04.31-.04.6,0,1.05.48,1.05,1.09,0,.66-.46,1.12-1.11,1.12-.79,0-1.26-.58-1.26-1.59,0-.6.18-1.28.44-1.7.25-.39.58-.67,1.12-.97l.6.66ZM56.13,174.16c-.77.39-1.05.75-1.15,1.42.13-.03.27-.04.31-.04.6,0,1.05.48,1.05,1.09,0,.66-.47,1.12-1.11,1.12-.79,0-1.26-.58-1.26-1.54,0-1.29.46-2.12,1.56-2.71l.6.66Z"/>
        <path d="M67.05,175.28c.63,0,1.02-.02,1.44-.06-.07.36-.12.63-.2,1.07-.04.34-.2,1.09-.3,1.5.46,0,.76-.01,1.12-.04q-.08.33-.15.81c-.06.42-.21,1.1-.35,1.63h.46c.46,0,.78-.01,1.19-.06-.02.21-.02.25-.06.72-.13,2.19-.38,3.67-.69,4.41-.33.79-.87,1.05-2.18,1.05-.39,0-.71-.01-1.23-.06-.04-.6-.15-1.01-.39-1.5.68.09,1.02.12,1.46.12.63,0,.78-.04.91-.31.2-.38.41-1.67.5-3.03h-8.31c-1.15,1.09-1.29,1.22-2.17,1.83-.22-.52-.44-.84-.95-1.38,1.37-.84,2.27-1.59,3.13-2.64.68-.82,1.23-1.69,1.71-2.71h-2.41c-.62,0-1.11.03-1.59.09v-1.51c.42.06.86.09,1.5.09h.96c-.38-.62-.69-1.02-1.32-1.63l1.29-.69c.51.5.9.98,1.38,1.71l-1.08.62h1.83c.31-.88.51-1.72.55-2.29l1.71.24c-.11.24-.13.33-.3.87-.02.04-.14.45-.39,1.19h2.91ZM61.35,182.45c-.53,1.77-.81,2.47-1.52,3.71l-1.39-.89c.76-1.07,1.14-1.88,1.51-3.28l1.4.46ZM67.11,180.19c.07-.27.16-.71.22-1.11h-5.04c-.3.43-.42.58-.82,1.11h5.64ZM62.97,182.14c.25,1.12.36,1.91.46,3.36l-1.44.22c0-1.43-.06-2.14-.27-3.45l1.24-.13ZM63.62,176.62c-.24.51-.31.66-.57,1.17h3.44c.12-.43.15-.58.24-1.17h-3.11ZM65.04,181.93c.48,1.24.62,1.71.82,2.67l-1.33.44c-.14-1.01-.32-1.79-.68-2.82l1.19-.29ZM66.92,181.66c.49.72.72,1.11,1.06,1.92l-1.12.54c-.27-.79-.53-1.33-.97-2.01l1.04-.45Z"/>
        <path d="M82.35,177.43c.81.97,1.68,1.58,2.78,1.94-.36.48-.55.88-.73,1.44-.6-.33-.92-.53-1.34-.84-.04.45-.06.88-.06,1.51v3.15c0,.78.01,1.21.09,1.62h-1.59v-.6h-6.15v.6h-1.59c.06-.44.09-.9.09-1.62v-3.15c0-.54-.02-.93-.04-1.42-.53.5-.72.63-1.29,1.02-.22-.58-.43-.96-.79-1.38,1.2-.65,1.92-1.32,2.39-2.27h-.75c-.66,0-1.05.02-1.44.08v-1.44c.39.04.78.06,1.47.06h1.12c.07-.38.09-.53.12-.84h-1.05c-.66,0-.9.01-1.25.06v-1.42c.3.04.75.08,1.32.08h1.06v-.34c0-.33-.01-.45-.04-.66h1.59c-.03.13-.04.46-.07,1h.55c.57,0,1.01-.03,1.29-.08v1.42c-.29-.04-.68-.06-1.21-.06h-.74q-.06.55-.11.84h.78c.51,0,.93-.02,1.29-.06v1.43c-.31-.04-.62-.06-1.23-.06h-.6c.53.62,1.12,1.06,1.88,1.43-.4.42-.55.61-.82,1.09h1.57c-.25-.36-.45-.57-.78-.84.97-.55,1.47-.99,1.9-1.68h-.29c-.61,0-.93.02-1.24.06v-1.43c.36.04.79.06,1.32.06h.67c.06-.31.09-.48.13-.84h-.75c-.54,0-.94.01-1.23.06v-1.42c.29.04.82.08,1.35.08h.71c-.02-.75-.02-.78-.06-1.02h1.61c-.03.17-.06.51-.09,1.02h1.11c.53,0,.95-.03,1.3-.08v1.42c-.29-.04-.57-.06-1.21-.06h-1.29c-.04.31-.08.53-.13.84h1.65c.71,0,.98-.02,1.35-.06v1.44c-.39-.06-.81-.08-1.43-.08h-1.1ZM77.09,179.95c-.81-.52-1.29-.99-1.81-1.72-.35.62-.72,1.1-1.32,1.7.34.01.75.03,1.35.03h1.79ZM75.35,182.11h6.15v-.87h-6.15v.87ZM75.35,184.28h6.15v-.93h-6.15v.93ZM81.54,179.95c.66,0,1.02-.01,1.44-.04-.79-.63-1.34-1.21-1.79-1.92-.48.84-.9,1.34-1.71,1.96h2.05Z"/>
        <path d="M90.84,178.34c0,.34.02,1.04.03,1.46,0,.15.01.3.01.36,0,.3-.21.36-1.38.36-.45,0-.54-.06-.54-.31v-.3c.06-1.17.09-1.81.09-2.88,0-1.74-.04-2.42-.16-3.2.77.01,1.47.06,1.81.13.21.04.33.15.33.33,0,.08-.02.12-.04.21-.12.3-.15.58-.15,1.31v2.53ZM96.68,176.39c0,2.14-.13,3.54-.42,4.59-.54,1.91-1.74,3.44-3.51,4.41-.38.21-.66.33-.77.33s-.18-.04-.29-.17c-.35-.43-.62-.67-1.14-1.02.96-.36,1.77-.87,2.43-1.51.76-.75,1.26-1.65,1.53-2.73.2-.86.33-2.47.33-4.2,0-1.21-.04-1.82-.15-2.37.9.02,1.44.08,1.9.17.2.04.29.12.29.27,0,.07-.01.13-.06.27-.12.33-.15.63-.15,1.33v.63Z"/>
        <path d="M111.6,182.45c.96.87,1.54,1.5,1.54,1.66,0,.13-.2.38-.66.83-.34.33-.49.43-.6.43-.06,0-.13-.03-.22-.1q-.16-.19-.86-.98c-.82-.93-1.95-1.92-3.25-2.85-.99,1.04-2.33,2.16-3.4,2.9-.86.58-1.67,1.03-1.85,1.03-.15,0-.17-.01-.53-.42-.21-.24-.55-.54-.93-.81,1.72-.79,3-1.65,4.42-2.95,1.54-1.41,2.57-2.71,3.77-4.79q-5.07.03-5.89.12c-.18.02-.21.02-.24.02-.16,0-.25-.08-.29-.24-.07-.48-.11-.93-.11-1.72,1.02.13,2.61.2,4.79.2.88,0,1.81-.03,2.31-.09.2-.02.22-.03.54-.14.06-.03.09-.03.18-.03.25,0,.52.21.88.69.29.41.45.72.45.88,0,.18-.04.24-.44.6-.24.24-.34.36-.81,1.12-.45.75-1.14,1.69-1.71,2.38,1.17.78,1.96,1.38,2.89,2.25Z"/>
        <path d="M121.01,177.05c-1.04,1.38-2.8,3.03-3.24,3.03-.13,0-.2-.03-.49-.28-.23-.2-.62-.47-1.11-.75,1.06-.58,2.16-1.47,2.98-2.46.89-1.04,1.41-1.9,1.94-3.22.73.24,1.12.4,1.62.69.21.12.28.2.28.33,0,.12-.04.2-.18.3-.15.1-.3.3-.69.82l2.23.02c.81,0,.96-.02,1.41-.18.06-.01.11-.03.17-.03.24,0,.49.23.93.78.29.38.36.51.36.67s-.04.24-.25.45c-.12.14-.32.42-.46.67-1.62,2.93-3.18,4.77-5.57,6.55-1.04.78-2.4,1.58-2.68,1.58-.12,0-.23-.06-.36-.21-.25-.27-.66-.55-1.24-.87,2.19-1.05,3.72-2.1,5.22-3.61,1.07-1.08,1.82-2.1,2.48-3.35.13-.25.22-.45.46-.94h-3.79Z"/>
        <path d="M129.6,177.19c.77-.39,1.07-.75,1.16-1.42-.13.03-.26.05-.3.05-.6,0-1.06-.48-1.06-1.1,0-.66.46-1.12,1.11-1.12.79,0,1.26.57,1.26,1.54,0,1.29-.46,2.12-1.56,2.71l-.6-.66ZM132.5,177.19c.76-.39,1.06-.75,1.15-1.42-.13.03-.26.05-.3.05-.6,0-1.06-.48-1.06-1.1,0-.66.46-1.12,1.11-1.12.79,0,1.26.57,1.26,1.54,0,1.29-.47,2.12-1.56,2.71l-.6-.66Z"/>
        <path d="M146.79,178.57c1.89-.53,3.25-.77,4.27-.77,2.12,0,3.42,1.16,3.42,3.03,0,1.12-.46,2.12-1.35,2.87-.58.5-1.46.92-2.61,1.26-.64.18-1.34.32-1.63.32-.18,0-.27-.04-.33-.19-.21-.53-.45-.9-.77-1.21,3.3-.35,4.98-1.4,4.98-3.11,0-.87-.72-1.54-1.65-1.54-1.62,0-3.39.54-5.25,1.57-.15.08-.24.12-.3.12-.25,0-.67-.75-1.02-1.83.74-.11.99-.17,2.24-.51Z"/>
        <path d="M160.26,177.14c-.39.09-.53.13-1.06.33-.2.08-.3.11-.39.11-.33,0-.63-.62-.9-1.91.96-.04,1.31-.09,2.97-.34,1.8-.27,4.08-.62,5.28-.77,1.35-.18,2.43-.36,3-.48.11-.03.15-.03.22-.03.2,0,.27.09.41.46.12.32.21.77.21.97,0,.18-.06.24-.27.24-.31,0-.6.03-.88.08-2.54.42-4.56,2.64-4.56,4.98,0,1.76,1.38,2.91,3.72,3.12.21.01.29.09.29.27,0,.38-.15,1.09-.29,1.42-.08.17-.2.24-.39.24s-.64-.09-1.11-.22c-2.55-.75-3.88-2.37-3.88-4.66,0-1.25.4-2.4,1.19-3.39.42-.54.78-.84,1.63-1.42-1.96.33-4.04.72-5.18,1Z"/>
        <path d="M175.5,173.99c.48,0,.79-.01,1.17-.05q-.03.32-.04,1.41v6.95c0,.81,0,1.09.04,1.57h-1.44v-.88h-1.28v1.5h-1.54c.06-.51.07-.91.07-1.74v-7.33c0-.63-.01-1.11-.06-1.48.39.04.66.06,1.24.06h1.83ZM173.96,181.57h1.28v-6.17h-1.28v6.17ZM180.23,175.22q-1.8.18-2.83.27-.17-.66-.5-1.42c3.06-.11,6.18-.6,7.2-1.16l1.08,1.33c-1.23.38-2.02.55-3.39.77v4.86h2.26c.62,0,1.04-.03,1.43-.08v1.62c-.46-.06-.88-.09-1.57-.09h-2.12v3.22c0,.6-.12.97-.38,1.21-.29.25-.74.34-1.74.34-.33,0-.87-.01-1.47-.06-.07-.5-.18-.92-.4-1.52.86.09,1.23.12,1.76.12.57,0,.67-.06.67-.41v-2.92h-2.08c-.51,0-.84.01-1.2.06v-1.58c.35.04.66.06,1.14.06h2.14v-4.65ZM178.17,179.42c-.33-1.41-.59-2.08-1.15-3.18l1.42-.45c.53,1.11.74,1.68,1.14,3.12l-1.41.51ZM185.19,175.88c-.42,1.37-.86,2.37-1.5,3.53l-1.33-.53c.69-1.28,1.02-2.13,1.33-3.5l1.5.5Z"/>
        <path d="M190.58,182.98c.11.17.13.27.13.36,0,.16-.21.46-.55.75-.48.43-.97.64-1.47.64-.69,0-1.29-.44-1.8-1.32-.2-.33-.34-.71-.34-.85,0-.12.06-.23.24-.39.29-.29.75-.6.89-.6q.12,0,.25.33c.24.57.6.98.88.98.36,0,.9-.42,1.38-1.1.06.44.2.87.39,1.2ZM192.81,183.82c.71,0,1.06-.21,1.06-.63,0-.36-.2-.66-.84-1.28-1.19-1.17-1.58-1.86-1.58-2.82,0-.56.2-1.04.62-1.58.23-.25.33-.33.46-.33.15.02.59.22.93.45.21.15.25.21.25.32s-.03.15-.15.29c-.25.27-.39.57-.39.88,0,.4.22.76.79,1.3,1.08,1.04,1.3,1.3,1.56,1.88.13.3.21.69.21,1.06,0,.75-.35,1.4-.95,1.74-.39.24-1.04.36-1.86.36-.62,0-1.17-.06-1.37-.15-.13-.04-.18-.15-.2-.39-.06-.51-.2-1.02-.44-1.5.79.3,1.25.39,1.86.39ZM195.42,176.66c-.15.25-.24.34-.35.34-.06,0-.12-.03-.21-.09-.99-.68-2.43-1.25-3.57-1.43-.26-.03-.33-.07-.33-.18,0-.15.15-.51.39-.94.21-.38.31-.48.46-.48.63,0,2.12.45,3.21.96.66.32.84.45.84.62,0,.22-.21.81-.45,1.2ZM198.26,183.76c-.34-.77-.42-.9-.76-1.38-.38-.49-.69-.84-1.17-1.23-.09-.09-.13-.15-.13-.21,0-.21.85-.96,1.11-.96.6,0,2.55,2.33,2.55,3.01,0,.15-.1.27-.39.51-.39.3-.77.51-.93.51-.12,0-.18-.06-.27-.25ZM197.28,178.07c-.29-.45-.72-.97-1-1.23-.04-.04-.06-.08-.06-.1,0-.13.62-.6.79-.6.24,0,1.5,1.4,1.5,1.67,0,.04-.04.12-.11.18-.24.24-.64.53-.75.53q-.09,0-.38-.44ZM200,176.75c0,.1-.06.18-.36.41-.22.16-.38.25-.45.25-.09,0-.12-.01-.2-.15-.23-.39-.78-1.05-1.14-1.41-.04-.04-.07-.08-.07-.11,0-.15.58-.57.78-.57.24,0,1.44,1.3,1.44,1.58Z"/>
        <path d="M206.85,182.65c-.72,1.25-1.71,1.93-2.73,1.93-1.56,0-2.67-1.53-2.67-3.66,0-2.37,1.2-4.41,3.25-5.49,1.01-.54,2.09-.78,3.51-.78,3.14,0,5.46,2.22,5.46,5.19,0,2.62-1.29,4.51-3.78,5.58-.5.21-.89.33-1.08.33-.18,0-.26-.06-.45-.34-.25-.39-.54-.68-.95-.95,3.09-.79,4.49-2.25,4.49-4.68,0-1.25-.53-2.29-1.46-2.96-.53-.36-.95-.51-1.77-.64-.42,3.16-.92,4.89-1.83,6.46ZM204.69,177.34c-1.01.88-1.58,2.14-1.58,3.55,0,1.16.38,1.83,1.01,1.83.75,0,1.52-1.04,2.08-2.82.36-1.12.54-1.98.77-3.64-1.06.22-1.59.48-2.28,1.08Z"/>
        <path d="M220.25,183.97c0,1.41-1.14,2.55-2.54,2.55s-2.54-1.14-2.54-2.55,1.14-2.54,2.54-2.54,2.54,1.14,2.54,2.54ZM216.35,183.97c0,.76.62,1.38,1.37,1.38s1.37-.62,1.37-1.38-.62-1.37-1.37-1.37-1.37.62-1.37,1.37Z"/>
      </g>
      <path class="cls-8" d="M328.61,1.42H89.23c-4.68,0-8.47,3.79-8.47,8.47v43.9s-9.69,9.69-9.69,9.69h9.69s0,.5,0,.5c0,4.68,3.79,8.47,8.47,8.47h239.38c4.68,0,8.47-3.79,8.47-8.47V9.89c0-4.68-3.79-8.47-8.47-8.47Z"/>
      <g>
        <path d="M103.34,23.56h2.13c.68,0,1.1-.03,1.54-.09v1.63c-.48-.04-.93-.08-1.56-.08h-1.62c.86,1.5,2.1,2.75,3.58,3.58-.48.48-.69.78-.99,1.5-.61-.43-1.05-.86-1.62-1.5-.74-.85-1.05-1.32-1.53-2.22.03.54.04,1,.04,1.44v1.82c0,.67.03,1.2.09,1.67h-1.67c.06-.46.09-1,.09-1.68v-1.71c0-.4.02-.88.04-1.48-.91,1.65-1.93,2.76-3.39,3.73-.38-.71-.58-1-.9-1.36,1.54-.89,2.8-2.17,3.67-3.78h-.95c-.64,0-1.11.03-1.58.09v-.6c-.25.36-.43.69-.61,1.21-.38-.58-.6-1.05-.89-1.8.03.46.06,1.27.06,1.91v3.69c0,.76.03,1.32.09,1.77h-1.67c.06-.46.09-1.02.09-1.77v-3.1c0-.57.02-.93.11-1.86-.44,1.46-.87,2.43-1.52,3.41-.18-.68-.37-1.11-.67-1.61.72-.92,1.47-2.61,1.92-4.35h-.57c-.44,0-.69.01-.96.06v-1.53c.24.04.51.06.96.06h.72v-1.16c0-.76-.01-1.14-.08-1.5h1.65c-.06.39-.08.8-.08,1.5v1.16h.43c.36,0,.54-.01.78-.06v1.42c.57-1.02,1.05-2.52,1.09-3.5l1.46.38c-.06.17-.1.34-.21.79-.08.27-.1.41-.18.69h1.15v-.99c0-.62-.03-.99-.09-1.37h1.68c-.06.36-.09.77-.09,1.37v.99h1.7c.72,0,1.14-.03,1.54-.09v1.58c-.42-.04-.9-.08-1.54-.08h-1.7v1.82ZM100.2,21.74c-.25.62-.39.9-.81,1.61q-.36-.38-1.17-.95c.12-.17.17-.24.24-.34-.2-.03-.44-.04-.71-.04h-.38c.34.79.71,1.39,1.36,2.28v-.82c.45.06.87.09,1.56.09h1.53v-1.82h-1.63Z"/>
        <path d="M109.49,25.32c0-.57.02-.99.03-1.57-.25.51-.57.99-.95,1.48-.19-.71-.34-1.11-.63-1.72.92-1,1.59-2.16,2.16-3.74.32-.87.45-1.35.54-1.98l1.54.63c-.11.32-.15.43-.27.79q-.28.88-.93,2.37v8.04c0,.79.02,1.23.06,1.67h-1.65c.08-.57.09-.99.09-1.68v-4.29ZM119.93,22.13c.54,0,.98-.02,1.31-.06-.04.38-.06.77-.06,1.35v5.98c0,.72.03,1.21.09,1.8h-1.65v-.79h-6.1v.78h-1.59c.05-.48.08-1.05.08-1.58v-6.17c0-.51-.03-.99-.06-1.38.41.04.72.06,1.3.06h1.37v-1.94h-.72c-.69,0-1.23.03-1.7.08v-1.6c.42.06.92.09,1.7.09h6.03c.79,0,1.32-.03,1.75-.09v1.6c-.42-.04-1.02-.08-1.71-.08h-1.48v1.94h1.45ZM113.45,23.51v5.5h1.16v-5.5h-1.16ZM117.09,20.19h-1.11v1.94h1.11v-1.94ZM115.98,29.02h1.11v-5.5h-1.11v5.5ZM118.47,29.02h1.2v-5.5h-1.2v5.5Z"/>
        <path d="M124.23,23.89c-.12.03-.18.06-.27.1-.08.04-.12.06-.18.06-.33,0-.57-.57-.75-1.68h.29c.63,0,2.24-.19,3.2-.39.31-1.3.48-2.31.48-3.01,0-.06,0-.15-.01-.25.64.06,1.26.19,1.68.38.24.09.36.21.36.36,0,.08-.02.14-.09.26q-.23.39-.69,2.04c.36-.04.76-.07,1.02-.07.62,0,1.1.12,1.44.36.6.44.9,1.32.9,2.69,0,2.23-.41,4.15-1.1,5.1-.48.66-1.11.97-2,.97-.54,0-1.05-.08-1.2-.17q-.12-.08-.17-.63c-.04-.41-.13-.76-.32-1.18.78.27.98.31,1.46.31.72,0,1.02-.34,1.35-1.56.23-.79.35-1.82.35-2.92,0-1.17-.29-1.59-1.08-1.59-.27,0-.71.04-1.05.09-.04.18-.06.19-.12.39-.42,1.54-1.19,3.55-1.95,5.17-.79,1.63-.99,1.96-1.18,1.96-.12,0-.53-.21-.96-.5-.35-.21-.44-.3-.44-.42q0-.07.62-1.05c.83-1.27,1.91-3.76,2.28-5.25-1.11.25-1.73.39-1.86.44ZM133.65,20.81c-.24.18-.41.25-.48.25-.04,0-.09-.03-.13-.1-.32-.51-.84-1.1-1.28-1.47-.03-.03-.04-.06-.04-.09,0-.06.11-.17.36-.36.25-.18.33-.23.43-.23.24,0,1.56,1.33,1.56,1.58,0,.09-.12.2-.42.42ZM132.06,22.4c0-.1.13-.24.57-.58.3-.22.45-.31.57-.31.2,0,.87.72,1.5,1.6.52.75,1.09,1.82,1.09,2.07,0,.15-.04.19-.52.58-.3.24-.65.43-.77.43-.1,0-.15-.04-.25-.3-.29-.72-.54-1.21-.95-1.86-.4-.64-.43-.67-1.15-1.45-.06-.08-.09-.12-.09-.18ZM134.03,17.8c.25,0,1.53,1.27,1.53,1.53,0,.07-.09.16-.39.38-.27.21-.41.28-.46.28q-.08,0-.38-.42c-.25-.34-.74-.85-1-1.08-.04-.04-.08-.07-.08-.12,0-.12.62-.57.78-.57Z"/>
        <path d="M148.19,26.42q-.21.19-.87.82c-.63.63-1.19,1.1-1.83,1.56,1.56.55,2.77.76,5.1.85-.38.55-.62,1.04-.78,1.62-1.68-.22-2.38-.38-3.58-.72-.93-.29-1.38-.45-2.23-.86-1.86.86-3.32,1.21-6.13,1.52-.21-.65-.42-1.04-.78-1.52,2.29-.03,3.58-.24,5.38-.9-.69-.48-.99-.74-1.5-1.25-.73.46-1.29.73-2.21,1.08-.25-.51-.45-.79-.87-1.28,1.14-.34,2.14-.85,3.04-1.54.73-.57,1.17-1.04,1.5-1.59l1.44.58q-.09.12-.27.3s-.08.11-.17.21l-.15.18h2.73c.65,0,1.04-.03,1.26-.09l.92,1.01ZM141.11,21.47c-.41.81-.65,1.2-1.16,1.84-.45.57-.72.84-1.36,1.41-.12-.12-.23-.2-.3-.25q-.36-.32-.55-.46l-.24-.17c-.06-.03-.12-.08-.17-.11.62-.46.89-.71,1.26-1.12.52-.58.79-1,1.12-1.79l1.39.65ZM139.08,20.57c-.73,0-1.09.02-1.59.08v-1.54c.41.06.9.09,1.71.09h3.79v-.29c0-.38-.01-.64-.06-.93h1.79c-.05.29-.08.54-.08.92v.3h3.82c.75,0,1.28-.03,1.73-.09v1.54c-.46-.04-1-.08-1.7-.08h-2.26v2.92c0,.83-.32,1.08-1.4,1.08-.58,0-.73,0-1.08-.03-.05-.56-.17-.95-.45-1.41.46.08.75.1,1.09.1.27,0,.33-.04.33-.27v-2.4h-1.32c-.04,1.31-.21,2.03-.58,2.75-.39.72-.94,1.26-1.89,1.83-.33-.36-.67-.62-1.29-.96,1.12-.58,1.56-.95,1.86-1.62.27-.55.38-1.06.39-2h-2.82ZM142.07,26.75c.48.48,1.09.93,1.88,1.37.75-.45,1.16-.76,1.81-1.37h-3.69ZM147.66,20.96c.99.92,1.7,1.67,2.59,2.76l-1.35,1.02c-.81-1.26-1.26-1.83-2.43-2.98l1.18-.79Z"/>
        <path d="M154.8,28.69q0-1.63.01-2.34c-.75.82-1.26,1.48-1.51,1.95-.08.15-.18.24-.27.24-.15,0-.51-.31-.99-.85-.19-.24-.28-.38-.28-.44q0-.1.76-.85c.64-.65,1.51-1.67,2.33-2.75,0-.09,0-.43.01-1.04-.74.13-1.68.39-1.93.53-.15.08-.18.09-.25.09-.26,0-.47-.58-.66-1.75.79-.01,1.79-.12,2.88-.3,0-.54.01-1.31.01-1.73,0-.45-.03-.81-.09-1.11.95.06,1.41.12,1.83.22.22.06.31.15.31.32,0,.08-.03.15-.09.3-.15.3-.17.41-.29,1.59.36.22.71.6.71.79q0,.13-.46.71c-.04.06-.18.25-.41.54q-.01.48-.01.58c1.47-1.25,2.71-1.77,4.18-1.77,2.34,0,3.81,1.48,3.81,3.87,0,1.83-.84,3.2-2.57,4.12-.66.38-1.79.78-2.12.78-.09,0-.19-.03-.24-.09t-.23-.3c-.25-.36-.54-.64-.84-.85,2.99-.81,4.17-1.86,4.17-3.71,0-1.44-.85-2.37-2.21-2.37-.88,0-1.69.29-2.65.92q-.48.32-1.33,1.04.01.12.01.32c0,1.6,0,1.74.09,4.89.02.17.02.29.02.31,0,.29-.21.35-1.31.35-.39,0-.42-.04-.42-.47l.02-1.74Z"/>
        <path d="M169.8,23.52c1.89-.52,3.25-.76,4.27-.76,2.12,0,3.42,1.16,3.42,3.03,0,1.12-.46,2.12-1.35,2.87-.58.5-1.46.92-2.61,1.26-.64.18-1.33.32-1.63.32-.18,0-.27-.04-.33-.2-.21-.52-.45-.9-.76-1.21,3.3-.34,4.98-1.39,4.98-3.1,0-.87-.72-1.54-1.65-1.54-1.62,0-3.39.54-5.25,1.57-.15.08-.24.12-.3.12-.25,0-.67-.75-1.02-1.83.74-.1.99-.17,2.24-.51Z"/>
        <path d="M183.27,22.1c-.39.09-.53.13-1.07.33-.19.08-.3.1-.39.1-.33,0-.63-.61-.9-1.9.96-.04,1.31-.09,2.97-.34,1.8-.27,4.08-.62,5.28-.77,1.35-.18,2.43-.36,3-.48.1-.03.15-.03.22-.03.2,0,.27.09.41.46.12.32.21.76.21.97,0,.18-.06.24-.27.24-.32,0-.6.03-.89.08-2.53.42-4.56,2.64-4.56,4.98,0,1.75,1.38,2.91,3.72,3.12.21.01.29.09.29.27,0,.38-.15,1.09-.29,1.42-.08.17-.19.24-.39.24s-.65-.09-1.11-.22c-2.55-.75-3.88-2.37-3.88-4.67,0-1.25.41-2.4,1.19-3.39.42-.54.78-.84,1.63-1.42-1.96.33-4.04.72-5.17,1Z"/>
        <path d="M196.88,22.43c-.27.01-.43.03-.61.04-.14.01-.15.01-.17.01-.12,0-.18-.04-.23-.19-.08-.24-.18-1.04-.19-1.49.17.01.6.03,1.14.03.17,0,1.35-.08,1.88-.12.25-1.21.34-1.84.34-2.66,1.54.21,2.1.39,2.1.68,0,.1-.01.13-.24.48-.12.18-.17.34-.42,1.28.7-.12,1.12-.23,1.68-.41.1-.03.15-.04.22-.04.11,0,.13.08.23.51.07.38.12.69.12.85,0,.18-.04.21-.43.3-.51.12-1.38.27-2.31.39-.56,1.68-.93,2.58-1.62,3.99-.53,1.05-.83,1.6-1.23,2.23-.12.18-.19.24-.3.24-.15,0-.57-.22-1.09-.62-.24-.17-.3-.24-.3-.34s.06-.2.25-.46c.43-.54,1-1.47,1.5-2.46.42-.83.57-1.17,1-2.36-.58.04-.63.06-1.32.11ZM201.81,31.07c-1.64,0-2.75-.9-2.75-2.24s1.15-2.41,2.7-2.41c.36,0,.53.01,1.14.1-.06-.72-.06-1-.12-2.4,0-.29-.03-.68-.06-1.16.77.08,1.35.17,1.64.29.12.04.18.12.18.24,0,.08-.01.14-.03.24-.08.32-.09.54-.09.95,0,.55.04,1.5.09,2.23,1.07.48,1.5.72,2.25,1.31.33.25.45.39.45.51,0,.15-.08.29-.5.96-.18.3-.31.43-.42.43q-.09,0-.51-.39c-.33-.33-.71-.58-1.23-.9,0,1.4-1.02,2.24-2.74,2.24ZM201.78,27.86c-.72,0-1.21.34-1.21.87,0,.5.45.81,1.12.81.79,0,1.21-.4,1.21-1.2,0-.12,0-.24-.02-.24-.3-.15-.7-.24-1.11-.24ZM207.39,23.6c-.18.25-.27.33-.38.33-.08,0-.13-.03-.24-.13-.38-.36-.9-.75-1.46-1.1q-.36-.22-1.02-.52c-.21-.09-.29-.15-.29-.27,0-.1.08-.24.3-.58.36-.52.45-.61.58-.61.28,0,1.39.57,2.19,1.11.65.44.84.62.84.78,0,.12-.24.57-.54,1Z"/>
        <path d="M218.82,19.46c0,.13-.06.18-.32.33-.1.06-.24.18-.38.34-.93,1.08-2.26,2.54-3.45,3.73-.25.26-.36.45-.36.63,0,.16.12.34.41.6.88.81,2.32,2.28,3.39,3.5.75.84.94,1.11.94,1.26,0,.17-.25.42-.87.9-.29.23-.47.33-.56.33-.13,0-.19-.06-.34-.3-.64-1.02-2.22-2.92-3.42-4.14-.67-.67-.81-.83-1.02-1.12-.25-.36-.36-.66-.36-1,0-.3.09-.62.27-.92q.17-.27,1.08-1.25c.87-.9,1.8-2.04,2.38-2.88.39-.55.59-.92.78-1.42,1.17.64,1.82,1.14,1.82,1.41Z"/>
        <path d="M226.65,22.1c-.39.09-.53.13-1.07.33-.19.08-.3.1-.39.1-.33,0-.63-.61-.9-1.9.96-.04,1.31-.09,2.97-.34,1.8-.27,4.08-.62,5.28-.77,1.35-.18,2.43-.36,3-.48.1-.03.15-.03.22-.03.2,0,.27.09.41.46.12.32.21.76.21.97,0,.18-.06.24-.27.24-.32,0-.6.03-.89.08-2.53.42-4.56,2.64-4.56,4.98,0,1.75,1.38,2.91,3.72,3.12.21.01.29.09.29.27,0,.38-.15,1.09-.29,1.42-.08.17-.19.24-.39.24s-.65-.09-1.11-.22c-2.55-.75-3.88-2.37-3.88-4.67,0-1.25.41-2.4,1.19-3.39.42-.54.78-.84,1.63-1.42-1.96.33-4.04.72-5.17,1Z"/>
        <path d="M242.66,22.73c-1.07-.21-1.88-.52-2.43-.92-.27-.18-.33-.25-.33-.39,0-.17.12-.46.54-1.3.73.46,1.56.79,2.5.99.21-1.05.3-1.92.31-2.89.77.13,1.44.36,1.82.57.17.09.22.18.21.3,0,.06-.03.12-.11.27-.22.46-.24.51-.55,1.98.15.01.34.01.46.01h.11c.36-.01.63-.01.76-.01h.04c.13,0,.18.06.18.25,0,.66-.04,1.2-.1,1.3-.04.08-.24.11-.87.11-.29,0-.51-.02-.93-.03q-.32,1.54-.45,2.35c.51.04.62.04.87.04h.84c.15-.01.22.02.27.09.06.09.11.57.11,1.11,0,.27-.02.34-.11.39-.07.03-.4.05-.97.05-.27,0-.67-.02-1.2-.05-.01.27-.01.45-.01.57,0,1.38.64,2.01,2.05,2.01,1.58,0,2.52-.76,2.52-2.05,0-.46-.1-.88-.34-1.35-.3-.57-.58-.9-1.3-1.47h.13c.24,0,.75-.07,1.2-.16.24-.05.33-.06.41-.06.22,0,.38.11.67.48.69.84,1.04,1.72,1.04,2.65,0,2.12-1.71,3.51-4.31,3.51-2.43,0-3.64-1.21-3.64-3.67,0-.21,0-.38.03-.63-1.49-.31-2.29-1.05-2.29-2.12,0-.55.17-.96.58-1.38.04-.06.1-.07.17-.07.09,0,.19.07.54.36.27.23.31.27.31.35q0,.06-.09.19c-.06.11-.12.27-.12.36,0,.19.12.36.35.46.21.1.27.12.75.22l.39-2.43Z"/>
        <path d="M253.32,27.43c.27-.24.34-.3.45-.3.19,0,1.09.66,1.75,1.29.75.69,1.59,1.7,1.59,1.91,0,.13-.03.17-.46.55-.57.53-.69.62-.79.62-.09,0-.18-.06-.25-.21-.53-.93-1.73-2.16-2.79-2.85-.12-.09-.18-.15-.18-.24,0-.11.03-.15.69-.76Z"/>
        <path d="M268.61,22.06c-.36,0-.66.01-1.05.08v-1.54c.34.06.6.08,1.08.08h.6v-1.19c0-.72-.02-1.04-.08-1.47h1.67c-.06.41-.08.76-.08,1.46v1.2h.42c.36,0,.5-.02.78-.05v1.49c-.24-.03-.41-.04-.78-.04h-.42v2.13c.33-.13.46-.21,1.05-.45v1.44c-.48.21-.51.22-1.05.43v4.17c0,1.11-.41,1.42-1.77,1.42-.35,0-.74-.01-1.14-.06-.06-.62-.13-.98-.34-1.52.55.09.92.14,1.28.14s.46-.09.46-.45v-3.12c-.93.33-1.46.51-1.56.55l-.22-1.57c.45-.04.87-.15,1.79-.45v-2.67h-.63ZM273.56,28.73c-.6,0-.87.01-1.38.04.02-.38.03-.69.03-1.32v-3.88c0-.66-.01-1.02-.03-1.38.32.03.63.04,1.32.04h5.23c.72,0,1.05-.01,1.32-.04-.03.41-.04.72-.04,1.38v3.88c0,.67.01.93.04,1.32-.51-.03-.79-.04-1.4-.04h-.97c.53.34.58.38.92.52.69.35,1.28.53,2.29.72-.39.52-.57.84-.83,1.36-1.56-.48-2.26-.81-3.54-1.71l1.1-.9h-3.5l1.17.88c-1.14.9-1.88,1.25-3.6,1.7-.24-.53-.5-.92-.84-1.32,1.78-.33,2.26-.53,3.24-1.26h-.54ZM272.61,19.44c0-.43-.02-.69-.04-1.02.34.03.67.04,1.29.04h4.4c.67,0,1.08-.01,1.41-.04-.03.29-.05.54-.05.99v1.25c0,.45.02.61.05.99-.41-.03-.8-.04-1.38-.04h-4.36c-.55,0-.92.02-1.35.04.03-.3.04-.6.04-1.02v-1.19ZM273.66,24.02h4.88v-.64h-4.88v.64ZM273.66,25.76h4.88v-.66h-4.88v.66ZM273.66,27.53h4.88v-.71h-4.88v.71ZM274.08,20.48h4.04v-.79h-4.04v.79Z"/>
        <path d="M288.33,21.89c-3.29.21-4.56.34-5.5.6-.06.02-.12.03-.17.03-.11,0-.2-.08-.24-.2-.13-.38-.21-.87-.25-1.62h.36c.48,0,.93-.02,2.37-.11,1.11-.06,2.05-.1,3.4-.15-.01-1.35-.03-1.56-.17-2.23,1.16.03,1.74.08,1.95.17.09.04.13.12.13.27,0,.03-.01.09-.04.17-.13.33-.18.66-.21,1.59,2.19-.06,2.52-.06,4.02-.06.41,0,.46,0,.51.04.06.06.09.29.09.79,0,.69-.02.76-.21.76h-.06c-.64-.06-2.25-.12-3.3-.12q-.34,0-1.09.01l-.03,2.46c.23.5.3.92.3,1.63,0,1.88-.69,3.31-2.14,4.38-.6.45-1.37.84-1.63.84-.13,0-.21-.04-.33-.17-.42-.48-.74-.72-1.28-1.02.9-.25,1.37-.46,1.95-.83.44-.29.83-.6,1.11-.92.19-.24.34-.46.57-.95-.43.45-.79.62-1.35.62-1.26,0-2.08-.96-2.08-2.42,0-1.53.97-2.64,2.33-2.64.43,0,.71.06,1,.2v-1.16ZM286.52,25.4c0,.63.36,1.07.9,1.07.57,0,.92-.41.92-1.1s-.33-1.11-.9-1.11c-.54,0-.92.46-.92,1.14Z"/>
        <path d="M304.47,23.26c2.12,0,3.62,1.44,3.62,3.48,0,1.39-.74,2.66-1.96,3.39-.86.51-1.91.77-3.09.77-1.91,0-3.02-.77-3.02-2.07,0-1.18.99-2.02,2.4-2.02,1.27,0,2.19.64,2.8,1.96.76-.56,1.08-1.14,1.08-1.95,0-1.29-.92-2.13-2.36-2.13s-3.04.73-4.35,2.04c-.24.24-.46.5-.73.84-.11.15-.18.21-.27.21-.27,0-1.33-1.05-1.33-1.32,0-.13.06-.21.39-.45.34-.27.84-.7,1.47-1.3,1.46-1.38,2.52-2.54,4.09-4.46-1.88.24-3.13.45-3.6.62-.08.02-.12.03-.17.03-.12,0-.2-.08-.29-.3-.18-.45-.27-.95-.32-1.61.41.06.69.08,1.02.08.72,0,1.93-.1,3.51-.29.55-.06.73-.1,1.16-.27.13-.06.21-.08.3-.08.21,0,.42.18.81.78.29.39.38.58.38.71,0,.19-.04.25-.38.46-.27.17-.43.3-.78.63-.75.72-.76.72-1.69,1.67-.66.67-.74.75-1.33,1.35.97-.54,1.74-.76,2.64-.76ZM303.03,28.44c-.23-.15-.48-.22-.77-.22-.46,0-.76.22-.76.58,0,.43.46.71,1.18.71.33,0,.62-.03.99-.14-.18-.5-.33-.72-.64-.93Z"/>
        <path d="M317.91,28.32c1.23,0,2.59-.18,3.94-.52.08-.03.12-.03.17-.03.09,0,.13.06.17.2.04.33.08.81.08,1.3,0,.3-.03.39-.17.45-.45.24-2.47.46-4.21.46-2.26,0-3.55-.38-4.59-1.35-.5-.46-.99-1.27-.99-1.6,0-.22.13-.32,1.37-1.02.54,1.49,1.79,2.12,4.25,2.12ZM318.05,19.7c.87,0,1.38-.03,2.4-.18h.11c.12,0,.17.04.2.13.03.18.06.63.06,1.17,0,.35-.03.47-.12.53-.12.08-1.42.17-2.43.17-1.33,0-2.45-.11-3.69-.34-.85-.17-.9-.21-.9-.74,0-.34.03-.92.08-1.33,1.3.41,2.73.6,4.3.6Z"/>
        <path d="M98.42,48.51c-.19-.66-.25-1.07-.43-2.91-.06-.72-.12-1.08-.27-1.59.91.01,1.5.06,1.9.17.23.06.33.17.33.33,0,.06-.01.13-.04.25-.1.36-.15.63-.15,1.02,0,.74.15,1.94.32,2.46.09.29.18.39.34.39.36,0,1.68-.69,2.4-1.24.19-.15.22-.17.3-.17.13,0,.27.1.5.39.38.51.67,1.07.67,1.28,0,.17-.11.27-.36.34-.93.25-2.46.85-3.49,1.35-1.83.9-2.66,1.73-2.66,2.66s.76,1.29,2.7,1.29c1.12,0,2.14-.11,3.52-.33.06-.02.17-.03.2-.03.12,0,.19.06.25.18.04.15.15,1.07.15,1.43,0,.21-.06.28-.26.34-.33.08-2.14.18-3.28.18-1.92,0-3.2-.25-3.99-.79-.67-.46-1.04-1.2-1.04-2.1,0-.69.2-1.31.6-1.91.52-.78,1.09-1.27,2.35-2.02-.31-.29-.43-.5-.57-.96Z"/>
        <path d="M109.77,49.4c-.12.03-.18.06-.27.1-.08.04-.12.06-.18.06-.33,0-.57-.57-.75-1.68h.29c.63,0,2.24-.19,3.2-.39.31-1.3.48-2.31.48-3.01,0-.06,0-.15-.01-.25.64.06,1.26.19,1.68.38.24.09.36.21.36.36,0,.08-.02.14-.09.26q-.23.39-.69,2.04c.36-.04.76-.07,1.02-.07.62,0,1.1.12,1.44.36.6.44.9,1.32.9,2.69,0,2.23-.41,4.15-1.1,5.1-.48.66-1.11.97-2,.97-.54,0-1.05-.08-1.2-.17q-.12-.08-.17-.63c-.04-.41-.13-.76-.32-1.18.78.27.98.31,1.46.31.72,0,1.02-.34,1.35-1.56.23-.79.35-1.82.35-2.92,0-1.17-.29-1.59-1.08-1.59-.27,0-.71.04-1.05.09-.04.18-.06.19-.12.39-.42,1.54-1.19,3.55-1.95,5.17-.79,1.63-.99,1.96-1.18,1.96-.12,0-.53-.21-.96-.5-.35-.21-.44-.3-.44-.42q0-.07.62-1.05c.83-1.27,1.91-3.76,2.28-5.25-1.11.25-1.73.39-1.86.44ZM119.19,46.32c-.24.18-.41.25-.48.25-.04,0-.09-.03-.13-.1-.32-.51-.84-1.1-1.28-1.47-.03-.03-.04-.06-.04-.09,0-.06.11-.17.36-.36.25-.18.33-.23.43-.23.24,0,1.56,1.33,1.56,1.58,0,.09-.12.2-.42.42ZM117.6,47.91c0-.1.13-.24.57-.58.3-.22.45-.31.57-.31.2,0,.87.72,1.5,1.6.52.75,1.09,1.82,1.09,2.07,0,.15-.04.19-.52.58-.3.24-.65.43-.77.43-.1,0-.15-.04-.25-.3-.29-.72-.54-1.21-.95-1.86-.4-.64-.43-.67-1.15-1.45-.06-.08-.09-.12-.09-.18ZM119.57,43.31c.25,0,1.53,1.27,1.53,1.53,0,.07-.09.16-.39.38-.27.21-.41.28-.46.28q-.08,0-.38-.42c-.25-.34-.74-.85-1-1.08-.04-.04-.08-.07-.08-.12,0-.12.62-.57.78-.57Z"/>
        <path d="M127.02,47.16c-.69.04-1.33.06-1.91.06-.63,0-.67,0-.71-.09-.04-.09-.09-.72-.09-1.16v-.29c.71.03,1,.04,1.38.04s.95-.01,1.4-.03c.07-.87.09-1.17.09-1.47,0-.13,0-.22-.02-.43.72.01,1.28.06,1.71.17.12.03.18.09.18.19,0,.08-.02.14-.09.32-.12.29-.21.67-.27,1.14.96-.08,2.12-.22,2.58-.33.45-.1.76-.17.84-.17.32-.03.54-.09.63-.17.02-.01.03-.01.03-.01.03,0,.04.01.08.01.06,0,.1.06.13.17.03.23.08.75.08,1.08,0,.23-.04.29-.2.32-.88.18-2.71.4-4.29.54-.01.06-.01.09-.01.24-.03.29-.03.32-.04,1.07.66-.15,1.25-.22,1.98-.22.11-.48.12-.6.15-.95,1.16.24,1.72.45,1.72.63,0,.06-.01.11-.13.3-.04.06-.08.11-.11.21,1.94.45,3.17,1.88,3.17,3.72,0,1.64-.88,2.94-2.58,3.84-.63.33-1.51.63-1.84.63-.17,0-.29-.06-.38-.18-.31-.45-.51-.66-.99-1.06,1.56-.29,2.32-.6,3.07-1.21.69-.58,1.02-1.26,1.02-2.1,0-1.2-.71-2.1-1.91-2.44-.9,2.07-1.5,3.04-2.58,4.15.08.25.13.41.27.72.06.12.07.17.07.21,0,.15-.06.2-.4.38-.38.2-.81.35-.96.35-.13,0-.17-.04-.33-.51-.87.61-1.8.94-2.71.94-1.02,0-1.71-.83-1.71-2.02,0-1.88,1.37-3.71,3.63-4.83.01-.78.03-1.44.04-1.74ZM124.91,53.46c0,.38.23.6.6.6.51,0,1.18-.29,1.86-.78-.21-1.02-.3-1.71-.38-2.83-1.32.97-2.08,2.1-2.08,3.01ZM130.16,49.32c-.67.06-1.04.12-1.65.33.03,1.06.06,1.51.18,2.28.63-.8,1.05-1.54,1.47-2.61Z"/>
        <path d="M145.41,48.77c2.12,0,3.62,1.44,3.62,3.48,0,1.39-.74,2.66-1.96,3.39-.86.51-1.91.77-3.09.77-1.91,0-3.02-.77-3.02-2.07,0-1.18.99-2.02,2.4-2.02,1.27,0,2.19.64,2.8,1.96.76-.56,1.08-1.14,1.08-1.95,0-1.29-.92-2.13-2.36-2.13s-3.04.73-4.35,2.04c-.24.24-.46.5-.73.84-.11.15-.18.21-.27.21-.27,0-1.33-1.05-1.33-1.32,0-.13.06-.21.39-.45.34-.27.84-.7,1.47-1.3,1.46-1.38,2.52-2.54,4.09-4.46-1.88.24-3.13.45-3.6.62-.08.02-.12.03-.17.03-.12,0-.2-.08-.29-.3-.18-.45-.27-.95-.32-1.61.41.06.69.08,1.02.08.72,0,1.93-.1,3.51-.29.55-.06.73-.1,1.16-.27.13-.06.21-.08.3-.08.21,0,.42.18.81.78.29.39.38.58.38.71,0,.19-.04.25-.38.46-.27.17-.43.3-.78.63-.75.72-.76.72-1.69,1.67-.66.67-.74.75-1.33,1.35.97-.54,1.74-.76,2.64-.76ZM143.97,53.96c-.23-.15-.48-.22-.77-.22-.46,0-.76.22-.76.58,0,.43.46.71,1.18.71.33,0,.62-.03.99-.14-.18-.5-.33-.72-.64-.93Z"/>
        <path d="M158.79,44.48c.18.12.25.21.25.31s-.01.12-.24.38c-.08.09-.3.42-.54.83q-.75,1.25-1.16,1.96c-.42.71-.69,1.19-.84,1.41q-.04.08-.25.45c-.2.34-.32.52-.53.81.97-.85,1.5-1.08,2.49-1.08.66,0,1.25.29,1.62.78.31.42.4.81.54,2.28.07.88.15,1.27.25,1.5.1.21.31.33.58.33,1.03,0,2.26-1.25,2.86-2.88.15.63.27.93.58,1.48.11.18.14.3.14.45,0,.17-.08.38-.26.66-.78,1.26-2.05,2.01-3.42,2.01-.86,0-1.58-.3-1.95-.79-.3-.42-.44-.98-.56-2.45-.07-.96-.15-1.29-.36-1.53-.17-.18-.41-.27-.74-.27-.99,0-2.29,1.33-3.06,3.11-.22.51-.38.97-.54,1.54-.06.22-.13.31-.24.31-.31,0-1.04-.3-1.42-.58-.1-.09-.15-.15-.15-.24,0-.07.03-.15.22-.57.12-.27.17-.35.27-.62q1.11-2.59,4.19-8.82c.34-.69.51-1.12.61-1.58.78.29,1.14.46,1.62.79Z"/>
        <path d="M167.21,48.5h-.09c-.08.02-.13.02-.17.02-.13,0-.21-.06-.25-.26-.09-.38-.15-.82-.18-1.41.21.01.38.01.48.01.81,0,1.75-.06,2.55-.17.15-.99.23-1.74.23-2.37v-.34c1.74.24,2.07.33,2.05.6,0,.08-.03.12-.09.26-.18.34-.2.39-.44,1.57.58-.1,1.33-.3,1.64-.4.06-.03.07-.03.12-.03.13,0,.16.06.28.58.06.3.12.72.12.84,0,.11-.04.17-.18.2q-.27.09-2.33.45c-.69,3.06-1.41,5.29-2.56,8-.08.2-.15.27-.24.27-.2,0-.72-.21-1.23-.49-.26-.14-.33-.2-.33-.29,0-.06.04-.17.12-.32,1.14-2.16,1.96-4.46,2.53-6.91-.66.07-1.12.12-2.04.19ZM173.61,54.2c.43.29,1.06.42,1.95.42.97,0,1.81-.09,2.29-.24.12-.03.15-.04.21-.04.13,0,.19.04.24.18.11.32.18.93.18,1.4,0,.19-.06.27-.25.31-.5.11-1.33.17-2.22.17-1.88,0-2.92-.3-3.61-1.02-.25-.27-.46-.6-.58-.98-.09-.22-.15-.48-.15-.57,0-.25.45-.53,1.23-.78.17.63.34.92.72,1.16ZM177.83,49.83c-.3-.04-.93-.08-1.46-.08-1.11,0-1.58.04-2.89.27-.03.01-.08.01-.11.01-.09,0-.13-.03-.17-.12-.04-.1-.1-.84-.1-1.15,0-.2.03-.29.15-.33.06-.03.15-.04.46-.11,1.02-.18,1.88-.25,2.92-.25.87,0,1.32.03,1.43.11.07.06.09.18.09.67,0,.43-.03.83-.06.92-.01.04-.08.08-.15.08-.03,0-.08,0-.12-.02ZM176.18,44.55c.2,0,1.47,1.42,1.47,1.65,0,.06-.1.2-.22.29-.06.04-.15.12-.25.21-.13.12-.18.15-.33.21t-.08.03c-.06,0-.06-.02-.34-.45-.25-.39-.74-.99-.99-1.21-.03-.03-.08-.09-.08-.11.03-.06.05-.09.05-.09.07-.09.33-.3.39-.34.15-.08.24-.13.25-.15.01-.03.03-.03.04-.03h.09ZM178.71,45.6c-.21.15-.36.24-.43.24-.06,0-.09-.03-.17-.15-.33-.54-.65-.93-1.14-1.42-.04-.04-.06-.08-.06-.12,0-.13.57-.55.76-.55.11,0,.29.15.62.5.48.49.83.94.83,1.09,0,.09-.11.19-.41.42Z"/>
        <path d="M183.54,50.1c0,.72-.58,1.3-1.3,1.3s-1.3-.58-1.3-1.3.58-1.31,1.3-1.31,1.3.58,1.3,1.31ZM188.54,50.1c0,.72-.58,1.3-1.3,1.3s-1.31-.58-1.31-1.3.58-1.31,1.31-1.31,1.3.58,1.3,1.31ZM193.55,50.1c0,.72-.58,1.3-1.3,1.3s-1.31-.58-1.31-1.3.58-1.31,1.31-1.31,1.3.58,1.3,1.31Z"/>
      </g>
      <circle class="cls-11" cx="30.25" cy="60.58" r="30"/>
      <g>
        <path class="cls-7" d="M39.77,50.26c5.99-4.82,10.66-4.4,11.63-2.77.89,1.5-.2,9.39-9.12,4.98"/>
        <path class="cls-5" d="M44.01,52.84c2.15-3.7,6.52-2.97,7.65-2.44-1.95,3.62-3.96,4.96-7.65,2.44Z"/>
        <path class="cls-1" d="M47,54.41c-1.31,0-2.95-.38-4.99-1.39-.3-.15-.43-.52-.28-.82.15-.3.52-.42.82-.28,3.32,1.64,5.84,1.68,7.3.12,1.3-1.4,1.35-3.69,1.02-4.24-.21-.35-.72-.62-1.4-.75-.91-.17-4.28-.39-9.33,3.68-.26.21-.65.17-.86-.09-.21-.26-.17-.65.09-.86,3.68-2.96,7.54-4.43,10.31-3.93,1.04.19,1.83.66,2.23,1.32.64,1.09.43,3.95-1.18,5.69-.75.81-1.93,1.54-3.74,1.54Z"/>
        <path class="cls-7" d="M45.25,64.49c1.64-16.83-17.12-22.81-25.65-13.47-2.98,3.26-5.19,9.03-4.06,15.78-3.29,3.25-2.73,7.92,2.42,10.47,3.1,1.53,6.2,2.2,13.34,2.2,6.63,0,14.3-2.8,16.45-6.94,1.2-2.31.78-5.73-2.5-8.03Z"/>
        <path class="cls-2" d="M35.03,46.85c-.6-4.19-4.15-6.53-4.34-.47"/>
        <path class="cls-2" d="M23.34,47.92c-.51-4.21,2.31-7.38,4.07-1.58"/>
        <path class="cls-7" d="M18.88,50.98c-6.66-3.83-11.22-2.69-11.92-.92-.65,1.62,2.36,9.82,10.47,4.08"/>
        <path class="cls-5" d="M15.61,54.8c-2.15-3.7-7.04-2.78-8.16-2.25,1.95,3.62,4.48,4.77,8.16,2.25Z"/>
        <path class="cls-5" d="M28.44,46.37c1.23,7.47-2.33,14.46-12.54,14.46,0-11.43,12.54-14.46,12.54-14.46Z"/>
        <path class="cls-5" d="M30.69,46.38c0,8.41,6.81,12.73,13.85,13.26,0-11.43-13.85-13.26-13.85-13.26Z"/>
        <path class="cls-5" d="M14.46,73.26c13.82-6.39,25.47-3.61,33.3-.74-3.13,7.58-29.27,10.16-33.3.74Z"/>
        <path class="cls-1" d="M31.3,80.07c-7.6,0-10.65-.79-13.61-2.26-2.69-1.33-4.37-3.31-4.74-5.59-.32-1.98.37-3.97,1.94-5.63-1.1-7.14,1.47-12.92,4.26-15.98,4.25-4.65,11.26-5.93,17.43-3.18,3.01,1.34,5.47,3.51,7.11,6.28,1.79,3.02,2.53,6.55,2.2,10.5,3.38,2.57,3.64,6.23,2.4,8.6-2.36,4.55-10.5,7.26-17,7.26ZM29.92,47.21c-3.76,0-7.35,1.46-9.87,4.22-2.64,2.89-5.06,8.42-3.91,15.27.03.2-.03.39-.17.53-1.44,1.42-2.08,3.13-1.81,4.8.3,1.88,1.75,3.55,4.07,4.69,2.8,1.38,5.72,2.13,13.07,2.13,6.88,0,14.02-2.96,15.91-6.61,1.03-1.99.75-5.1-2.31-7.25-.18-.13-.28-.34-.26-.56.71-7.25-2.5-13.19-8.57-15.9-2.01-.89-4.11-1.33-6.16-1.33Z"/>
        <path class="cls-1" d="M12.22,56.77c-1.46,0-2.58-.54-3.4-1.18-2.09-1.64-2.9-4.58-2.44-5.76.29-.72.99-1.31,1.99-1.65,2.66-.93,6.7-.08,10.8,2.27.29.17.39.54.23.83-.17.29-.54.39-.83.23-5.62-3.23-8.91-2.49-9.79-2.18-.65.23-1.11.57-1.26.95-.21.53.31,2.97,2.06,4.35,1.89,1.49,4.48,1.14,7.5-.99.27-.19.65-.13.85.15.19.27.13.66-.15.85-2.23,1.58-4.07,2.14-5.56,2.14Z"/>
        <path class="cls-1" d="M35.03,47.46c-.3,0-.56-.22-.6-.52-.32-2.23-1.49-3.66-2.13-3.63-.31.02-.93.69-1,3.09-.01.34-.3.6-.63.59-.34-.01-.6-.29-.59-.63.11-3.62,1.4-4.23,2.15-4.27.03,0,.06,0,.09,0,1.46,0,2.94,2.06,3.31,4.67.05.33-.18.64-.52.69-.03,0-.06,0-.09,0Z"/>
        <path class="cls-1" d="M23.34,48.53c-.3,0-.57-.23-.6-.54-.32-2.67.61-5.08,2.07-5.39.74-.15,2.14.1,3.19,3.56.1.32-.08.66-.41.76-.32.1-.66-.08-.76-.41-.7-2.3-1.46-2.79-1.77-2.72-.62.13-1.38,1.81-1.11,4.05.04.33-.2.64-.53.68-.02,0-.05,0-.07,0Z"/>
        <path class="cls-1" d="M36.27,58.37c-.65-1.09-1.64-1.26-2.42-.7-.18.13-.11.42.12.44.71.07,1.33.3,1.99.61.22.1.44-.14.31-.35Z"/>
        <path class="cls-1" d="M25.3,58.57c.65-1.09,1.64-1.26,2.42-.7.18.13.11.42-.12.44-.71.07-1.33.3-1.99.61-.22.1-.44-.14-.31-.35Z"/>
        <circle class="cls-1" cx="32.15" cy="72.38" r=".57"/>
        <circle class="cls-1" cx="30.37" cy="72.38" r=".57"/>
        <path class="cls-1" d="M28.67,68.12c-.08,0-.16-.02-.24-.06l-2.97-1.77c-.22-.13-.29-.41-.16-.63.13-.22.41-.29.63-.16l2.97,1.77c.22.13.29.41.16.63-.09.15-.24.23-.4.23Z"/>
        <path class="cls-1" d="M25.84,68.32c-.14,0-.27-.06-.36-.17-.16-.2-.13-.49.07-.65l2.7-2.16c.2-.16.49-.13.65.07.16.2.13.49-.07.65l-2.7,2.16c-.09.07-.19.1-.29.1Z"/>
        <path class="cls-1" d="M36.38,68.34c-.1,0-.21-.03-.29-.11l-2.66-2.21c-.2-.16-.22-.45-.06-.65.16-.2.45-.22.65-.06l2.66,2.21c.2.16.22.45.06.65-.09.11-.22.17-.36.17Z"/>
        <path class="cls-1" d="M33.55,68.09c-.16,0-.32-.08-.4-.23-.13-.22-.05-.5.17-.63l3-1.72c.22-.13.5-.05.63.17.13.22.05.5-.17.63l-3,1.72c-.07.04-.15.06-.23.06Z"/>
        <ellipse class="cls-3" cx="30.37" cy="75.47" rx="1.19" ry="1.28" transform="translate(-48.41 95.77) rotate(-82.53)"/>
        <path class="cls-1" d="M30.39,77.09c-.08,0-.16,0-.24-.02-.94-.12-1.61-.94-1.49-1.83.12-.88.97-1.5,1.91-1.38h0c.94.12,1.61.94,1.49,1.83-.11.81-.83,1.4-1.67,1.4ZM30.34,74.72c-.41,0-.77.27-.82.64-.05.41.28.8.75.86.47.06.89-.22.94-.64.05-.41-.28-.8-.75-.86-.04,0-.08,0-.13,0Z"/>
      </g>
      <g>
        <g>
          <path class="cls-1" d="M323.37,179.6c1.96.16,1.33,2.32.37,3.57-.2.26-.59.3-.84.08-1.7-1.45-1.11-3.78.47-3.66Z"/>
          <path class="cls-1" d="M323.27,180.46c-.34,0-.62-.28-.62-.62v-3.88l-.98-1.36c-.2-.28-.13-.66.14-.86.28-.2.66-.13.86.14l1.09,1.52c.08.1.12.23.12.36v4.08c0,.34-.28.62-.62.62Z"/>
          <polygon class="cls-6" points="320.33 169.88 314.01 169.29 316.83 174.97 323.27 175.66 320.33 169.88"/>
          <rect class="cls-6" x="313.41" y="173.08" width="6.88" height="2.99" transform="translate(177.29 -159.18) rotate(38.45)"/>
          <path class="cls-1" d="M318.64,178.98c-.13,0-.27-.04-.38-.13-.27-.21-.31-.6-.1-.87l2.32-2.95c.13-.17.34-.25.55-.23l1.17.13-2.27-4.46-4.88-.46.69,1.4c.1.21.08.46-.06.65l-1.87,2.48c-.21.27-.59.33-.86.12-.27-.21-.33-.59-.12-.86l1.64-2.18-1.02-2.05c-.1-.2-.08-.44.04-.62s.34-.29.57-.26l6.32.59c.21.02.4.15.49.34l2.93,5.78c.1.2.09.44-.04.63-.13.19-.35.29-.57.26l-1.97-.21-2.11,2.68c-.12.15-.3.24-.49.24Z"/>
        </g>
        <path class="cls-10" d="M313.81,204.59l1.71-.86,4.59-2.84,2.64-4.39.28-4.79-2.34-9.89-4.79-6.82-5.62-3.02-6.16-.11-6.16,2.16-3.41,3.79-4.85,9.67-1.63,4.07-.28,5.61,3.62,4.23c4.39,3.17,12.82,4.62,22.39,3.2Z"/>
        <path class="cls-12" d="M322.66,193.25c-5.95-1.44-12.03,4.39-11.11,11.55,6.59-1.14,10.95-4.52,11.11-11.55Z"/>
        <ellipse class="cls-1" cx="298.41" cy="191.89" rx="1.91" ry="1.76" transform="translate(61.03 455.56) rotate(-80.75)"/>
        <ellipse class="cls-1" cx="308.95" cy="193.04" rx="1.76" ry="1.91" transform="translate(-8.41 14.17) rotate(-2.59)"/>
        <path class="cls-12" d="M288.64,190.56c5.2.87,7.66,6.71,5.13,12.44-4.82-3.29-7.39-6.4-5.13-12.44Z"/>
        <path class="cls-1" d="M309.16,205.42c-.33,0-.6-.25-.62-.58-.02-.34.24-.63.58-.65,4.82-.27,12.9-2.05,12.92-10.94,0-1.93-.17-6.91-1.92-11.46-2.11-5.46-5.73-8.5-10.79-9.04-12.14-1.29-14.96,5.89-16.82,10.64-.23.59-.45,1.14-.67,1.63-.21.47-.48,1.01-.76,1.58-1.47,2.98-3.7,7.49-2.19,11.05.9,2.11,3.06,3.71,6.43,4.77,1.39.44,3.2.96,4.76,1.11.34.03.59.33.55.67-.03.34-.34.59-.67.55-1.68-.16-3.56-.71-5.01-1.16-3.72-1.17-6.14-3.01-7.19-5.46-1.74-4.08.64-8.89,2.21-12.08.28-.56.54-1.09.74-1.54.21-.46.42-1,.64-1.58,1.88-4.79,5.03-12.8,18.1-11.41,5.55.59,9.52,3.89,11.81,9.82,1.83,4.74,2.01,9.91,2.01,11.91,0,2.06-.47,5.05-2.62,7.56-2.37,2.76-6.23,4.31-11.47,4.61-.01,0-.02,0-.04,0Z"/>
        <path class="cls-1" d="M297.16,191.25c-.07,0-.13-.02-.19-.07-.78-.62-1.18-1.25-1.48-2.35-.04-.16.05-.33.22-.38.16-.04.33.05.38.22.3,1.1.68,1.56,1.27,2.03.13.11.16.3.05.43-.06.08-.15.12-.24.12Z"/>
        <path class="cls-1" d="M296.96,191.86c-.83,0-1.72-.48-2.42-1.31-.11-.13-.09-.32.03-.44.13-.11.32-.1.44.03.63.74,1.44,1.15,2.12,1.08.17-.02.32.1.34.27.02.17-.1.32-.27.34-.08,0-.15.01-.23.01Z"/>
        <path class="cls-1" d="M309.8,192.47c-.15,0-.28-.11-.31-.27-.02-.17.1-.32.26-.35.68-.09,1.47-.68,1.91-1.43.09-.15.28-.19.42-.11.15.09.2.28.11.42-.54.92-1.49,1.61-2.36,1.73-.01,0-.03,0-.04,0Z"/>
        <path class="cls-1" d="M310.92,193.76c-.38,0-.78-.07-1.16-.25-.16-.07-.22-.25-.15-.41.07-.16.25-.22.41-.15.88.4,1.88.09,2.56-.25.15-.07.34-.01.41.14.08.15.01.34-.14.41-.52.26-1.21.5-1.92.5Z"/>
        <g>
          <path class="cls-4" d="M307.95,198.22c-.69-1.89-3.76-3.93-5.32-3.7-1.56.22-4.86,2.12-5.88,2.06-1.03-.06-1.74-.75-1.86,1.64s1.75,3.62,4.26,2.74c3.48,1.98,9.99.5,8.8-2.74Z"/>
          <path class="cls-4" d="M307.95,200.37c-.77,3.01-5.09,4.77-6.39,4.32s-4.02-1.68-2.59-4.29c2.58.43,8.21.42,8.33-.81s.65.78.65.78Z"/>
          <path class="cls-1" d="M302.87,202.48c-1.1,0-2.27-.34-3.48-1.02-2.37.67-3.69.04-4.39-.63-.88-.84-1.21-2.18-.86-3.5.35-1.34.95-1.45,1.88-1.47.67-.02,1.67-.04,3.32-.9,3.65-1.92,5.78-.82,7.87,1.43.2.22.19.56-.03.76-.22.2-.56.19-.76-.03-1.84-1.98-3.51-2.82-6.57-1.21-1.87.98-3.07,1.01-3.79,1.02q-.69.02-.86.67c-.24.93-.02,1.89.56,2.45.73.7,1.95.8,3.55.31.15-.05.3-.03.43.05,1.98,1.16,4.81,1.86,7.06-1.42.14-.21.41-.29.65-.19,0,0,.74.3,1.4.44.29.06.47.35.41.64-.06.29-.35.48-.64.41-.42-.09-.86-.24-1.17-.35-1.27,1.68-2.82,2.53-4.56,2.53Z"/>
          <path class="cls-1" d="M302.11,205.24c-.58,0-1.15-.1-1.66-.3-2.67-1.04-2.67-3.69-2.66-3.81,0-.3.25-.53.54-.53h0c.3,0,.54.25.53.55,0,.08.02,2.02,1.98,2.79,1.15.45,2.63.23,3.97-.59,1.48-.9,2.46-2.33,2.61-3.82.03-.3.29-.51.59-.48.3.03.51.3.48.59-.19,1.82-1.36,3.55-3.12,4.63-1.05.64-2.19.97-3.26.97Z"/>
        </g>
        <path class="cls-1" d="M298.48,183.55c1.71-.7,3.25-.04,3.97,1.3.17.31-.15.58-.48.41-1.07-.54-2.13-.81-3.29-1.03-.39-.07-.53-.55-.2-.68Z"/>
        <path class="cls-1" d="M312.06,186.16c-1.26-1.34-2.94-1.38-4.15-.47-.28.21-.11.59.27.58,1.2-.05,2.27.15,3.42.43.38.09.71-.28.47-.54Z"/>
      </g>
    </g>
  </g>
</svg>