<?xml version="1.0" encoding="UTF-8"?>
<svg id="_レイヤー_2" data-name="レイヤー 2" xmlns="http://www.w3.org/2000/svg" width="338.49" height="217.05" viewBox="0 0 338.49 217.05">
  <defs>
    <style>
      .cls-1 {
        fill: #211815;
      }

      .cls-2 {
        fill: #f5f19b;
      }

      .cls-3 {
        fill: #ecbb6e;
      }

      .cls-4 {
        fill: #93c9ce;
      }

      .cls-5 {
        fill: #5c948d;
      }

      .cls-6 {
        fill: #fffba1;
      }

      .cls-7, .cls-8 {
        fill: #fff;
      }

      .cls-9 {
        fill: #d3f2c9;
      }

      .cls-10 {
        fill: #de8a4c;
      }

      .cls-11 {
        fill: #ceeaeb;
      }

      .cls-12 {
        fill: #f2d496;
      }

      .cls-8 {
        stroke: #ceeaeb;
        stroke-miterlimit: 10;
        stroke-width: 2.83px;
      }
    </style>
  </defs>
  <g id="_レイヤー_1-2" data-name="レイヤー 1">
    <g>
      <path class="cls-8" d="M9.89,106.43h239.38c4.68,0,8.47,3.79,8.47,8.47v69.68s9.69,9.69,9.69,9.69h-9.69s0,.5,0,.5c0,4.68-3.79,8.47-8.47,8.47H9.89c-4.68,0-8.47-3.79-8.47-8.47v-79.87c0-4.68,3.79-8.47,8.47-8.47Z"/>
      <circle class="cls-9" cx="305.91" cy="187.05" r="30"/>
      <g>
        <path d="M26.64,128.31c-.69,0-1.79.22-2.54.51-1.59.62-2.64,1.74-2.64,2.83,0,.69.45,1.16,1.35,1.38.4.11,1.11.18,1.6.17h.15c.26,0,.35.09.35.29,0,.5-.09,1.18-.17,1.38-.06.12-.13.17-.29.17-.91,0-2.07-.24-2.85-.6-1.15-.51-1.79-1.4-1.79-2.5,0-.71.27-1.43.78-2.07.29-.34.51-.55,1.05-.93-2.73.83-4.09,1.35-5.01,1.95-.12.08-.19.11-.27.11-.16,0-.3-.13-.51-.51-.21-.35-.36-.77-.36-.99,0-.13.06-.18.42-.29.34-.1.58-.25,1.15-.66.69-.51,1.77-1.44,2.7-2.32.77-.74,1.2-1.19,2.1-2.24-.87.11-3.23.51-3.57.6-.21.06-.22.06-.27.06-.14,0-.2-.06-.26-.21-.12-.33-.22-.88-.3-1.51.21.01.32.01.45.01.67,0,2.13-.12,3.93-.34.67-.08,1.06-.17,1.33-.3.18-.09.21-.11.32-.11.18,0,.42.2.84.71.3.34.39.51.39.67s-.06.24-.25.38q-.27.17-1.53,1.33c-1.04.96-2.27,2.01-3.65,3.1,2.12-.63,3.22-.93,5.52-1.44.51-.11,1.01-.24,1.58-.42.07-.03.13-.04.18-.04.12,0,.18.06.26.19.16.35.36,1.08.36,1.35,0,.21-.06.3-.22.3h-.35Z"/>
        <path d="M34.14,126.1c.97-.25,1.62-.34,2.33-.34,2.13,0,3.36,1.26,3.36,3.42,0,1.88-.81,3.39-2.45,4.59-.87.64-2.19,1.29-2.62,1.29-.2,0-.24-.04-.55-.5-.22-.34-.45-.55-.82-.83,1.72-.58,2.44-.96,3.22-1.63.9-.79,1.35-1.75,1.35-2.89,0-1.22-.57-1.91-1.58-1.91-.81,0-1.86.31-3.22.97-.2.09-.3.17-.55.35-.06.03-.12.06-.18.06-.29,0-.77-.84-1.1-1.96.56-.04.84-.12,2.82-.62ZM35.15,122.44c.54.17,1.35.32,2.08.41.3.03.41.04,1.17.08.22,0,.29.06.29.22,0,.5-.11,1.31-.2,1.46-.03.09-.1.12-.21.12-.35,0-1.56-.17-2.27-.31-1.19-.24-2.22-.54-2.43-.71-.04-.04-.07-.11-.07-.17,0-.12.31-.93.46-1.21.07-.12.12-.15.21-.15q.08,0,.96.27Z"/>
        <path d="M46.62,126.6c-1.06.18-1.3.22-1.56.3-.15.04-.27.06-.36.06-.27,0-.4-.48-.46-1.65.87,0,1.35-.04,2.41-.24,0-.48.02-1.03.02-1.23,0-.58-.03-1.09-.09-1.47,1.57.07,2.04.18,2.04.46q0,.08-.13.39t-.2,1.62c.48.38.74.67.72.87,0,.04-.03.08-.09.13-.22.2-.26.22-.53.62q-.06.08-.15.19l-.06.09c0,.22,0,.25-.02.54.45-.51.87-.93,1.28-1.26,1.32-1.08,2.31-1.53,3.39-1.53s1.77.43,2.29,1.33c.45.78.69,1.88.69,3.17,0,.78-.06,1.38-.23,2.5.72.51,1.5,1.3,1.5,1.51,0,.24-.84,1.08-1.09,1.08-.11,0-.12-.02-.32-.32-.12-.17-.28-.36-.61-.72-.21.39-.33.55-.54.75-.55.51-1.3.78-2.19.78-1.56,0-2.56-.79-2.56-2,0-1.28,1.04-2.24,2.4-2.24.78,0,1.35.11,1.86.33.06-.55.07-.83.07-1.3,0-2.37-.45-3.3-1.59-3.3-.81,0-1.89.57-3.03,1.59-.41.38-.72.69-1.37,1.39v.87c0,2,.04,4,.11,4.53v.06c0,.27-.21.34-.93.34-.66,0-.79-.06-.79-.34v-.12c.03-.43.04-.96.04-1.62q0-.99.01-2.17s-.03.04-.06.08c-.33.41-.87,1.14-1.22,1.63-.16.24-.25.32-.36.32-.15,0-.42-.27-.88-.87-.18-.22-.29-.42-.29-.5s.08-.17.45-.5c.27-.25,1.29-1.5,1.81-2.19.27-.38.46-.65.58-.84l.02-1.16ZM52.37,131.74c-.69,0-1.11.29-1.11.75s.31.69.88.69c.5,0,.9-.15,1.17-.45.13-.13.35-.51.35-.57h0c-.51-.33-.81-.42-1.29-.42Z"/>
        <path d="M66.08,133.74c0,.66-.53,1.18-1.19,1.18s-1.19-.52-1.19-1.18.53-1.18,1.19-1.18,1.19.52,1.19,1.18ZM65.55,131.52h-1.33l-.41-8.98h2.16l-.42,8.98Z"/>
        <path d="M75.39,126.12c-.39.09-.53.13-1.06.33-.2.08-.3.11-.39.11-.33,0-.63-.62-.9-1.91.96-.04,1.31-.09,2.97-.34,1.8-.27,4.08-.62,5.28-.76,1.35-.18,2.43-.36,3-.48.11-.03.15-.03.22-.03.2,0,.27.09.41.46.12.31.21.76.21.97,0,.18-.06.24-.27.24-.31,0-.6.03-.88.08-2.54.42-4.56,2.64-4.56,4.98,0,1.75,1.38,2.91,3.72,3.12.21.01.29.09.29.27,0,.38-.15,1.09-.29,1.42-.08.17-.2.24-.39.24s-.64-.09-1.11-.22c-2.55-.75-3.88-2.37-3.88-4.67,0-1.25.4-2.4,1.19-3.39.42-.54.78-.84,1.63-1.43-1.96.33-4.04.72-5.18,1.01ZM83.07,126.51c.21,0,1.48,1.42,1.48,1.65,0,.08-.09.17-.36.41-.29.24-.3.24-.42.29q-.07.03-.11.03c-.06,0-.07-.02-.34-.44-.24-.38-.5-.71-.97-1.2-.03-.03-.08-.1-.08-.12.03-.08.04-.12.06-.12.04-.06.3-.27.36-.32.15-.08.24-.13.26-.15.01-.03.04-.03.04-.03h.07ZM85.64,127.54c-.22.17-.36.25-.43.25-.06,0-.09-.03-.17-.15-.45-.67-.67-.96-1.15-1.42-.03-.04-.06-.09-.06-.12,0-.08.09-.17.3-.31.21-.15.39-.24.46-.24.11,0,.29.13.6.45.44.45.84,1,.84,1.14,0,.09-.11.2-.39.41Z"/>
        <path d="M91.4,126.75c-1.07-.21-1.88-.53-2.43-.92-.27-.18-.33-.25-.33-.39,0-.17.12-.46.54-1.3.73.46,1.56.79,2.51.99.21-1.05.3-1.92.31-2.9.77.14,1.44.36,1.81.57.17.09.22.18.21.3,0,.06-.03.12-.11.27-.22.46-.24.51-.55,1.98.15.02.34.02.46.02h.11c.36-.02.63-.02.76-.02h.04c.13,0,.18.06.18.25,0,.66-.04,1.2-.1,1.31-.04.07-.24.1-.87.1-.29,0-.51-.01-.93-.03q-.31,1.54-.45,2.36c.51.04.62.04.87.04h.84c.15-.01.22.01.27.09.06.09.11.57.11,1.11,0,.27-.02.34-.11.39-.07.03-.4.04-.97.04-.27,0-.67-.01-1.2-.04-.02.27-.02.45-.02.57,0,1.38.64,2.01,2.05,2.01,1.58,0,2.52-.77,2.52-2.05,0-.47-.1-.89-.34-1.35-.3-.57-.59-.9-1.3-1.47h.13c.24,0,.75-.08,1.2-.17.24-.04.33-.06.41-.06.22,0,.38.1.67.48.69.84,1.04,1.72,1.04,2.66,0,2.11-1.71,3.51-4.3,3.51-2.43,0-3.64-1.21-3.64-3.67,0-.21,0-.38.03-.63-1.48-.32-2.29-1.05-2.29-2.12,0-.55.17-.96.59-1.38.04-.06.1-.08.16-.08.09,0,.2.08.54.36.27.22.31.27.31.34q0,.06-.09.2c-.06.1-.12.27-.12.36,0,.2.12.36.35.46.21.11.27.12.75.23l.39-2.43Z"/>
        <path d="M102.06,131.44c.27-.24.35-.3.45-.3.19,0,1.09.66,1.75,1.29.75.69,1.59,1.69,1.59,1.9,0,.14-.03.17-.46.56-.57.52-.69.62-.79.62-.09,0-.18-.06-.25-.21-.53-.93-1.73-2.16-2.79-2.85-.12-.09-.18-.15-.18-.24,0-.1.03-.15.69-.76Z"/>
        <path d="M116.87,125.73c1.01.63,1.56,1.07,2.33,1.82l-1.02,1.18c-.79-.87-1.27-1.26-2.31-1.92l1-1.08ZM119.24,130.75c-.42,1.32-.69,2.05-1.25,3.31l-.55,1.18-1.37-1.14c.09-.09.18-.2.29-.39.55-.9,1.1-2.27,1.59-3.96l1.29.99ZM117.54,122.1c.9.63,1.5,1.12,2.21,1.88l-1.11,1.16c-.79-.92-1.35-1.42-2.18-1.98l1.08-1.05ZM127.11,123.25c1.06,0,1.53-.01,2.05-.09v1.54c-.39-.04-.86-.06-1.89-.06h-5.4c-.25.44-.38.62-.64,1.02h5.55c.69,0,1.12-.02,1.51-.04-.03.21-.04.34-.07.81-.02.39-.03.67-.04,1.51q-.02.47-.03.6c.72,0,.86-.02,1.28-.08v1.53c-.43-.06-.78-.08-1.2-.08h-.15c-.03.57-.09,1.37-.13,1.79.57,0,.78-.02,1.08-.08v1.51c-.35-.04-.62-.06-1.1-.06h-.16c-.29,1.77-.63,2.11-2.14,2.11-.24,0-.41-.01-1.29-.07-.02-.62-.09-.96-.31-1.47.57.09,1.05.14,1.47.14.53,0,.6-.08.77-.71h-4.88c-.11.46-.13.6-.27,1.12l-1.61-.15c.39-1.17.71-2.54.95-4.14h-.21c-.46,0-.74.01-1.12.08v-1.53c.39.06.71.08,1.35.08h.15c.1-.95.15-1.68.15-2.25-.25.31-.4.48-.87.94-.3-.48-.62-.82-1.08-1.17.91-.82,1.35-1.33,1.85-2.19.4-.71.72-1.49.81-2.05l1.65.3c-.06.17-.11.27-.15.36-.13.33-.15.36-.33.76h4.49ZM123.29,131.71c.11-.71.13-.89.22-1.79h-1.62c-.11.76-.13.96-.27,1.79h1.66ZM123.65,128.55q.03-.51.07-1.56h-1.56c-.04.77-.06.99-.12,1.56h1.61ZM126.47,131.71c.06-.57.12-1.11.17-1.79h-1.74c-.06.6-.13,1.18-.21,1.79h1.79ZM126.69,128.55q.03-.99.04-1.56h-1.62c-.03.54-.06,1.05-.11,1.56h1.68Z"/>
        <path d="M133.98,127.15c.69.56,1.01.84,1.58,1.47.43-1.08.64-1.89.91-3.42h-2.1c-.64,1.65-1.53,3.07-2.76,4.44-.3-.63-.44-.83-.96-1.38,1.16-1.18,2.05-2.7,2.64-4.47.18-.57.38-1.46.4-1.88l1.67.29c-.11.25-.17.46-.27.83-.09.33-.12.46-.22.81h2.07c.53,0,.84-.01,1.17-.04-.06.31-.07.38-.13.97.39.84.63,1.21,1.41,2.08v-3.18c0-.74-.02-1.12-.09-1.67h1.75c-.07.55-.09.93-.09,1.67v4.67c.39.29.68.48,1.38.88,1.04.62,1.2.69,1.93.96-.31.45-.58.95-.84,1.58-1.17-.62-1.54-.86-2.47-1.53v3.12c0,.84.02,1.26.11,1.9h-1.79c.07-.6.11-1.12.11-1.9v-4.44c-.86-.85-1.25-1.3-1.74-2.08-.4,1.91-1.04,3.46-1.92,4.8-.88,1.31-2.13,2.55-3.6,3.6-.35-.56-.71-.98-1.15-1.31.75-.45,1.02-.64,1.71-1.27,1.05-.95,1.59-1.61,2.19-2.62-.53-.64-1.02-1.11-1.75-1.7l.87-1.17Z"/>
        <path d="M154.52,127.57h2.13c.68,0,1.1-.03,1.54-.09v1.63c-.48-.04-.93-.07-1.56-.07h-1.62c.86,1.5,2.1,2.74,3.59,3.58-.48.48-.69.78-.99,1.5-.62-.43-1.05-.85-1.62-1.5-.74-.86-1.05-1.32-1.53-2.22.03.54.04,1,.04,1.44v1.81c0,.67.03,1.2.09,1.67h-1.66c.06-.46.09-1,.09-1.68v-1.71c0-.41.02-.88.04-1.49-.91,1.65-1.94,2.76-3.39,3.74-.38-.71-.58-1-.9-1.37,1.54-.88,2.8-2.17,3.67-3.78h-.95c-.64,0-1.11.03-1.57.09v-.6c-.26.36-.44.69-.62,1.22-.38-.59-.6-1.05-.88-1.8.03.47.06,1.28.06,1.91v3.69c0,.77.03,1.32.09,1.77h-1.67c.06-.46.09-1.02.09-1.77v-3.1c0-.57.02-.93.11-1.86-.44,1.46-.87,2.43-1.51,3.41-.18-.67-.38-1.11-.68-1.6.72-.92,1.47-2.61,1.92-4.35h-.57c-.44,0-.69.02-.96.06v-1.53c.24.04.51.06.96.06h.72v-1.16c0-.76-.02-1.14-.08-1.5h1.65c-.06.39-.07.79-.07,1.5v1.16h.43c.36,0,.54-.02.78-.06v1.42c.57-1.02,1.05-2.52,1.09-3.49l1.46.38c-.06.17-.1.34-.21.79-.08.27-.11.4-.18.69h1.15v-.99c0-.61-.03-.99-.09-1.36h1.68c-.06.36-.09.76-.09,1.36v.99h1.7c.72,0,1.14-.03,1.54-.09v1.58c-.42-.04-.9-.08-1.54-.08h-1.7v1.81ZM151.38,125.76c-.26.62-.39.9-.81,1.6q-.36-.38-1.17-.94c.12-.17.17-.24.24-.35-.2-.03-.44-.04-.71-.04h-.38c.35.79.71,1.4,1.37,2.28v-.83c.45.06.87.09,1.56.09h1.53v-1.81h-1.63Z"/>
        <path d="M163.64,130.9c.04.08.06.13.06.21,0,.11-.02.12-.15.45-.3.69-.66,1.77-.84,2.58-.04.17-.09.25-.15.29-.08.03-.59.1-.75.1h-.06c-.08,0-.18-.01-.3-.01-.2,0-.24-.04-.3-.23-.29-.97-.51-2.98-.51-4.5,0-1.65.1-2.67.52-4.92.15-.81.22-1.26.29-1.75.63.12,1.17.27,1.62.48.25.11.33.18.33.33,0,.11-.02.15-.18.39-.49.79-1.05,3.98-1.05,6.12,0,.34.02.81.06,1.56.42-.94.57-1.23.91-1.96.13.32.22.46.49.87ZM166.89,131.97c.48.25,1.05.34,2.05.34s1.53-.08,2.46-.34c.09-.03.16-.04.21-.04.11,0,.18.06.2.21.07.51.13,1.11.13,1.41,0,.15-.04.2-.26.26-.81.21-1.63.31-2.64.31-1.38,0-2.23-.17-2.94-.58-.66-.41-1.35-1.23-1.35-1.63,0-.21.32-.5,1.12-.99.27.54.53.81,1.01,1.07ZM165.84,124.32c.33.08,1.29.14,2.03.14.99,0,1.98-.08,2.91-.24q.07-.01.13-.01c.11,0,.15.04.18.16.03.15.08.81.08,1.22,0,.22-.04.3-.21.33-.62.12-1.63.19-2.71.19-1.29,0-2.45-.08-2.59-.17-.08-.04-.11-.15-.11-.42,0-.41.04-1,.07-1.12.02-.06.06-.09.15-.09.02,0,.04,0,.07.01Z"/>
        <path d="M178.01,131.19c.04.06.06.11.06.17q0,.09-.26.78c-.31.92-.51,1.67-.57,2.25-.01.19-.07.27-.27.31-.21.06-.62.09-1.01.09-.15,0-.22-.03-.27-.12-.13-.28-.38-1.32-.49-2.16-.11-.71-.15-1.44-.15-2.21,0-1.73.2-3.36.73-6.3.09-.48.12-.71.17-1.17.69.09,1.17.22,1.6.43.23.12.32.23.32.36,0,.09-.03.17-.11.29-.62,1.05-1.19,4.29-1.19,6.69,0,.36.02.93.06,1.65.36-.93.53-1.35.86-2.07.11.41.21.6.51,1ZM180.53,127.24c-.72,0-.87-.03-.91-.19-.04-.13-.09-.62-.09-.96,0-.12,0-.24.01-.51.41.03.64.04,1.14.04.81,0,1.32-.02,2.1-.08-.02-1.91-.03-2.15-.18-2.85.73.01,1.29.07,1.77.19.22.06.31.14.31.29,0,.06-.01.11-.06.22-.15.35-.23.93-.26,1.98.55-.08,1.04-.18,1.94-.39.07-.03.1-.03.15-.03.09,0,.13.04.16.15.03.14.07.71.07,1.02,0,.38-.01.43-.16.5-.24.12-.9.22-2.18.39,0,1.04.09,2.75.2,3.72.95.41,1.59.75,2.25,1.21.42.3.51.41.51.51,0,.17-.27.67-.58,1.11-.18.25-.27.33-.38.33s-.11,0-.45-.33c-.33-.33-.67-.58-1.33-1.02v.12c0,1.32-1.1,2.19-2.76,2.19s-2.8-.9-2.8-2.25,1.14-2.35,2.65-2.35c.55,0,.84.01,1.24.08q-.06-1.17-.1-3.18c-.65.04-1.67.09-2.27.09ZM181.76,131.65c-.75,0-1.25.34-1.25.87,0,.48.46.78,1.19.78.79,0,1.21-.36,1.21-1.05,0-.21-.02-.38-.02-.38-.39-.15-.73-.23-1.14-.23Z"/>
        <path d="M197.84,123.13c-.77.39-1.05.75-1.15,1.42.13-.03.27-.04.31-.04.6,0,1.05.48,1.05,1.09,0,.66-.46,1.12-1.11,1.12-.79,0-1.26-.58-1.26-1.59,0-.6.18-1.27.44-1.69.25-.39.58-.68,1.12-.98l.6.66ZM200.73,123.13c-.77.39-1.05.75-1.15,1.42.13-.03.27-.04.31-.04.6,0,1.05.48,1.05,1.09,0,.66-.47,1.12-1.11,1.12-.79,0-1.26-.58-1.26-1.54,0-1.29.46-2.11,1.56-2.71l.6.66Z"/>
        <path d="M211.65,124.26c.63,0,1.02-.01,1.44-.06-.08.36-.12.63-.2,1.06-.04.34-.2,1.09-.3,1.5.46,0,.77-.01,1.12-.04q-.07.33-.15.81c-.06.42-.21,1.1-.34,1.63h.46c.46,0,.78-.01,1.18-.06-.01.21-.01.25-.06.72-.13,2.19-.38,3.67-.69,4.41-.33.79-.87,1.05-2.17,1.05-.39,0-.71-.01-1.23-.06-.04-.6-.15-1-.39-1.5.68.09,1.02.12,1.46.12.63,0,.78-.04.92-.32.2-.38.4-1.67.49-3.03h-8.31c-1.16,1.1-1.29,1.22-2.18,1.83-.22-.52-.44-.84-.95-1.38,1.37-.84,2.27-1.59,3.13-2.64.68-.83,1.23-1.7,1.71-2.71h-2.42c-.61,0-1.11.03-1.59.09v-1.51c.42.06.86.09,1.5.09h.96c-.38-.62-.69-1.02-1.32-1.63l1.29-.69c.51.5.9.98,1.38,1.71l-1.08.62h1.83c.31-.88.51-1.72.55-2.29l1.71.24c-.11.24-.13.33-.3.87-.02.04-.13.45-.39,1.18h2.91ZM205.95,131.43c-.53,1.77-.81,2.47-1.52,3.71l-1.39-.89c.77-1.06,1.14-1.88,1.52-3.28l1.39.46ZM211.71,129.16c.07-.27.16-.7.22-1.11h-5.04c-.3.43-.42.58-.83,1.11h5.64ZM207.57,131.11c.26,1.12.36,1.91.46,3.36l-1.44.22c0-1.42-.06-2.14-.27-3.45l1.24-.13ZM208.22,125.59c-.24.51-.32.66-.57,1.17h3.43c.12-.43.15-.58.24-1.17h-3.1ZM209.64,130.9c.48,1.25.62,1.71.83,2.67l-1.34.44c-.13-1.01-.31-1.79-.67-2.82l1.18-.29ZM211.52,130.63c.5.72.72,1.11,1.06,1.92l-1.12.54c-.27-.79-.52-1.33-.97-2.01l1.04-.45Z"/>
        <path d="M226.95,126.4c.81.98,1.68,1.58,2.78,1.94-.36.48-.56.88-.74,1.44-.6-.33-.91-.52-1.33-.84-.04.45-.06.88-.06,1.51v3.15c0,.78.02,1.21.09,1.62h-1.59v-.6h-6.15v.6h-1.59c.06-.44.09-.9.09-1.62v-3.15c0-.54-.01-.93-.04-1.42-.52.5-.72.63-1.29,1.02-.22-.58-.44-.96-.79-1.38,1.2-.65,1.92-1.32,2.38-2.27h-.75c-.66,0-1.05.02-1.44.08v-1.44c.39.04.78.06,1.47.06h1.12c.08-.38.09-.52.12-.84h-1.05c-.66,0-.9.01-1.24.06v-1.42c.3.04.75.08,1.32.08h1.06v-.34c0-.33-.02-.45-.04-.66h1.59c-.03.13-.04.46-.07,1h.55c.57,0,1-.03,1.29-.08v1.42c-.29-.04-.67-.06-1.21-.06h-.73q-.06.55-.11.84h.78c.51,0,.93-.01,1.29-.06v1.42c-.31-.04-.62-.06-1.23-.06h-.6c.53.62,1.12,1.07,1.88,1.43-.41.42-.55.61-.83,1.09h1.58c-.26-.36-.45-.57-.78-.84.98-.56,1.47-.99,1.91-1.68h-.29c-.62,0-.93.02-1.25.06v-1.42c.36.04.79.06,1.32.06h.68c.06-.31.09-.48.13-.84h-.75c-.54,0-.95.01-1.23.06v-1.42c.29.04.83.08,1.35.08h.71c-.01-.75-.01-.78-.06-1.02h1.6c-.03.17-.06.51-.09,1.02h1.11c.52,0,.94-.03,1.3-.08v1.42c-.29-.04-.57-.06-1.21-.06h-1.29c-.04.32-.07.53-.13.84h1.65c.71,0,.97-.01,1.35-.06v1.44c-.39-.06-.81-.08-1.43-.08h-1.09ZM221.69,128.92c-.81-.53-1.29-.99-1.81-1.73-.35.62-.72,1.1-1.32,1.7.35.01.75.03,1.35.03h1.79ZM219.95,131.08h6.15v-.87h-6.15v.87ZM219.95,133.26h6.15v-.93h-6.15v.93ZM226.14,128.92c.66,0,1.02-.02,1.44-.04-.79-.63-1.33-1.21-1.78-1.92-.48.84-.9,1.33-1.71,1.96h2.05Z"/>
        <path d="M236.72,131.62c-.72,1.25-1.71,1.94-2.73,1.94-1.56,0-2.67-1.53-2.67-3.66,0-2.37,1.2-4.41,3.25-5.49,1.01-.54,2.09-.78,3.51-.78,3.14,0,5.46,2.22,5.46,5.19,0,2.62-1.29,4.51-3.78,5.58-.5.21-.89.33-1.08.33-.18,0-.26-.06-.45-.34-.25-.39-.54-.68-.95-.95,3.09-.79,4.49-2.25,4.49-4.68,0-1.25-.53-2.29-1.46-2.96-.53-.36-.95-.51-1.77-.64-.42,3.16-.92,4.89-1.83,6.46ZM234.56,126.31c-1.01.88-1.58,2.15-1.58,3.55,0,1.16.38,1.83,1.01,1.83.75,0,1.52-1.04,2.08-2.82.36-1.12.54-1.98.77-3.65-1.06.23-1.59.48-2.28,1.08Z"/>
        <path d="M25.85,155.95q-.21.2-.87.83c-.63.63-1.19,1.09-1.83,1.56,1.56.55,2.77.77,5.1.86-.38.55-.62,1.03-.78,1.62-1.68-.22-2.38-.38-3.58-.72-.93-.29-1.38-.45-2.23-.85-1.86.85-3.31,1.21-6.13,1.51-.21-.64-.42-1.04-.78-1.51,2.29-.03,3.59-.24,5.38-.9-.69-.48-.99-.73-1.5-1.25-.73.46-1.29.74-2.2,1.08-.26-.51-.45-.79-.87-1.27,1.14-.35,2.14-.86,3.04-1.54.73-.57,1.17-1.04,1.5-1.59l1.44.58q-.09.12-.27.3s-.07.1-.16.21l-.15.18h2.73c.65,0,1.04-.03,1.26-.09l.91,1ZM18.77,151c-.4.81-.64,1.2-1.15,1.85-.45.57-.72.84-1.37,1.41-.12-.12-.22-.19-.3-.25q-.36-.31-.55-.46l-.24-.17c-.06-.03-.12-.08-.16-.1.62-.46.88-.71,1.26-1.12.53-.58.79-1,1.12-1.79l1.39.64ZM16.74,150.1c-.73,0-1.09.01-1.59.08v-1.54c.41.06.9.09,1.71.09h3.79v-.29c0-.38-.02-.64-.06-.93h1.79c-.04.29-.07.54-.07.92v.3h3.82c.75,0,1.28-.03,1.72-.09v1.54c-.46-.04-1-.08-1.7-.08h-2.26v2.92c0,.83-.32,1.08-1.4,1.08-.58,0-.73,0-1.08-.03-.05-.55-.17-.95-.45-1.41.46.08.75.11,1.1.11.27,0,.33-.04.33-.27v-2.4h-1.32c-.04,1.3-.21,2.02-.59,2.75-.39.72-.94,1.26-1.89,1.83-.33-.36-.68-.61-1.29-.96,1.12-.58,1.56-.94,1.86-1.62.27-.56.38-1.07.39-2h-2.82ZM19.73,156.28c.48.48,1.09.93,1.88,1.37.75-.45,1.15-.77,1.81-1.37h-3.69ZM25.32,150.49c.99.92,1.7,1.67,2.6,2.76l-1.35,1.02c-.81-1.26-1.26-1.83-2.43-2.99l1.18-.79Z"/>
        <path d="M32.54,149.22c-.75.06-1.42.1-2.46.17-.12-.41-.22-.65-.51-1.16,2.79,0,5.28-.3,6.27-.76l.86,1.17c-.08.01-.11.01-.2.03q-.12.02-.35.06s-.12.01-.24.04c-.57.1-1.27.21-1.96.3v.81h1.5c.66,0,1.02-.01,1.32-.06v1.29c-.22-.03-.42-.04-1.04-.04h-1.79v.62h1.41c.64,0,.93-.02,1.21-.03-.03.25-.04.54-.04,1.26v1.95c.02.67.03,1.11.04,1.3-.33-.03-.62-.03-1.3-.03h-1.32v.65h1.26c.72,0,1.02-.02,1.35-.04v1.32c-.27-.04-.45-.06-1.01-.06h-1.61v.71c.72-.06,1.19-.12,2.58-.32v.62c.63-.95,1.1-2.08,1.35-3.31.23-1.05.32-1.88.39-3.78-.6,0-.82.01-1.2.06v-1.56c.3.04.53.06,1.02.06h.22v-1.05c0-1.2-.02-1.44-.09-1.83h1.66c-.06.31-.07.6-.09,1.18,0,.1,0,.75-.01,1.7h1.24c.62,0,.95-.02,1.35-.06-.06.53-.06.63-.1,2.7-.06,3.71-.26,5.74-.62,6.57-.26.63-.74.86-1.77.86-.22,0-.94-.03-1.17-.04-.04-.65-.1-.93-.33-1.56-.36.74-.59,1.12-1.17,1.89-.29-.43-.66-.81-1.11-1.14-2.08.3-2.98.41-5.65.62-.29.03-.51.04-.86.1l-.25-1.53c.33.03.43.03.76.03.63,0,.87-.01,2.43-.1v-.79h-1.47c-.46,0-.96.01-1.35.06v-1.33c.4.04.71.06,1.35.06h1.47v-.65h-1.24c-.64,0-.95.02-1.39.03.03-.36.04-.66.04-1.35v-1.88c0-.66-.02-.98-.04-1.3.36.03.79.04,1.41.04h1.23v-.62h-1.75c-.6,0-.92.01-1.34.06v-1.32c.39.06.75.07,1.35.07h1.74v-.66ZM31.29,152.75v.62h1.24v-.62h-1.24ZM31.29,154.42v.63h1.24v-.63h-1.24ZM33.95,153.37h1.25v-.62h-1.25v.62ZM33.95,155.05h1.25v-.63h-1.25v.63ZM39.74,151.9c-.15,3.45-.46,5.14-1.35,7.02.64.11.97.13,1.27.13.65,0,.75-.18.92-1.51.11-.75.13-1.37.2-2.97q.03-.51.04-1.7c0-.42.01-.52.01-.97h-1.09Z"/>
        <path d="M43.79,151.68c.77-.39,1.07-.75,1.16-1.43-.13.03-.26.05-.3.05-.6,0-1.06-.48-1.06-1.1,0-.66.46-1.12,1.11-1.12.79,0,1.26.57,1.26,1.54,0,1.29-.46,2.12-1.56,2.71l-.6-.66ZM46.68,151.68c.76-.39,1.06-.75,1.15-1.43-.13.03-.26.05-.3.05-.6,0-1.06-.48-1.06-1.1,0-.66.46-1.12,1.11-1.12.79,0,1.26.57,1.26,1.54,0,1.29-.47,2.12-1.56,2.71l-.6-.66Z"/>
        <path d="M61.47,156.41c.04.08.06.13.06.21,0,.11-.02.12-.15.45-.3.69-.66,1.77-.84,2.58-.04.17-.09.25-.15.29-.07.03-.58.1-.75.1h-.06c-.07,0-.18-.01-.3-.01-.2,0-.24-.04-.3-.23-.29-.97-.51-2.98-.51-4.5,0-1.65.11-2.67.53-4.92.15-.81.22-1.26.29-1.75.63.12,1.17.27,1.62.48.26.11.33.18.33.33,0,.11-.02.15-.18.39-.5.79-1.05,3.98-1.05,6.12,0,.34.02.81.06,1.56.42-.94.57-1.23.92-1.96.13.32.22.46.49.87ZM64.73,157.48c.48.25,1.05.34,2.06.34s1.53-.08,2.46-.34c.09-.03.17-.04.21-.04.1,0,.18.06.19.21.08.51.13,1.11.13,1.41,0,.15-.04.2-.25.26-.81.21-1.63.31-2.64.31-1.38,0-2.23-.17-2.94-.58-.66-.41-1.35-1.23-1.35-1.63,0-.21.31-.5,1.12-.99.27.54.53.81,1,1.07ZM63.68,149.83c.33.08,1.29.14,2.03.14.99,0,1.98-.08,2.91-.24q.08-.01.14-.01c.1,0,.15.04.18.16.03.15.07.81.07,1.22,0,.22-.04.3-.21.33-.62.12-1.63.19-2.71.19-1.29,0-2.45-.08-2.6-.17-.07-.04-.11-.15-.11-.42,0-.41.04-1,.08-1.12.01-.06.06-.09.15-.09.02,0,.05,0,.08.01Z"/>
        <path d="M78.93,152.8c.03,1.12.06,1.71.21,3.21,1.26.41,1.86.66,2.74,1.14,1.19.67,1.79,1.12,1.79,1.33,0,.18-.2.52-.54,1.02-.22.33-.39.48-.51.48-.08,0-.14-.03-.24-.14-1.07-1.02-1.92-1.57-3.18-2.08-.03.91-.2,1.39-.63,1.84-.53.52-1.44.81-2.62.81-1.96,0-3.16-.87-3.16-2.29,0-1.51,1.32-2.47,3.38-2.47.49,0,.93.03,1.3.08-.15-2.46-.2-3.65-.21-5.85-.01-.87-.04-1.39-.13-2.1.69.02,1.38.09,1.79.2.24.08.33.15.33.31,0,.08-.02.12-.06.24-.16.39-.22.96-.25,2.62q.12,0,.58-.03c.72-.04,1.74-.22,2.88-.54.04-.01.07-.01.12-.01.09,0,.12.03.18.18.15.36.32,1.1.32,1.35,0,.12-.06.17-.2.21-1.16.27-2.78.5-3.66.5h-.21ZM75.99,157.12c-1.02,0-1.63.34-1.63.92,0,.53.51.79,1.46.79,1.15,0,1.66-.41,1.66-1.35v-.12c-.49-.18-.91-.24-1.48-.24Z"/>
        <path d="M94.43,152.78c2.12,0,3.62,1.44,3.62,3.48,0,1.39-.74,2.65-1.96,3.39-.86.51-1.91.76-3.09.76-1.91,0-3.02-.76-3.02-2.07,0-1.19.99-2.03,2.4-2.03,1.27,0,2.19.64,2.8,1.96.76-.55,1.08-1.14,1.08-1.95,0-1.29-.92-2.13-2.36-2.13s-3.04.74-4.35,2.04c-.24.24-.46.5-.73.84-.11.15-.18.21-.27.21-.27,0-1.33-1.05-1.33-1.32,0-.13.06-.21.39-.45.34-.27.84-.71,1.47-1.3,1.46-1.38,2.52-2.54,4.1-4.46-1.88.24-3.13.45-3.6.62-.08.01-.12.03-.17.03-.12,0-.2-.07-.29-.3-.18-.45-.27-.94-.31-1.6.4.06.69.08,1.02.08.72,0,1.94-.11,3.51-.29.55-.06.73-.11,1.16-.27.13-.06.21-.08.3-.08.21,0,.42.18.81.78.29.39.38.58.38.71,0,.2-.04.25-.38.46-.27.17-.44.3-.78.63-.75.72-.76.72-1.69,1.67-.66.67-.74.75-1.34,1.35.97-.54,1.74-.77,2.64-.77ZM92.99,157.97c-.23-.15-.48-.23-.77-.23-.46,0-.77.23-.77.58,0,.44.46.71,1.19.71.33,0,.62-.03.99-.13-.18-.5-.33-.72-.64-.93Z"/>
        <path d="M105.3,152.83c0,.35.02,1.04.03,1.46,0,.15.02.3.02.36,0,.3-.21.36-1.38.36-.45,0-.54-.06-.54-.31v-.3c.06-1.17.09-1.82.09-2.88,0-1.74-.04-2.42-.17-3.2.77.01,1.47.06,1.82.13.21.04.33.15.33.33,0,.08-.02.12-.04.21-.12.3-.15.58-.15,1.31v2.53ZM111.14,150.88c0,2.14-.13,3.54-.42,4.59-.54,1.9-1.74,3.43-3.51,4.41-.38.21-.66.33-.77.33s-.18-.04-.28-.17c-.35-.43-.62-.67-1.14-1.02.96-.36,1.77-.87,2.43-1.52.77-.75,1.26-1.65,1.53-2.73.2-.85.33-2.47.33-4.2,0-1.21-.04-1.81-.15-2.37.9.01,1.44.07,1.9.17.2.04.29.12.29.27,0,.08-.02.13-.06.27-.12.33-.15.63-.15,1.33v.63Z"/>
        <path d="M126.06,156.94c.96.87,1.54,1.5,1.54,1.67,0,.13-.2.38-.66.82-.35.33-.5.44-.6.44-.06,0-.13-.03-.22-.11q-.17-.19-.86-.97c-.83-.93-1.95-1.92-3.26-2.85-.99,1.03-2.32,2.16-3.4,2.89-.86.58-1.66,1.04-1.85,1.04-.15,0-.16-.02-.52-.42-.21-.24-.56-.54-.93-.81,1.73-.79,3-1.65,4.43-2.95,1.54-1.41,2.56-2.71,3.77-4.79q-5.07.03-5.9.12c-.18.01-.21.01-.24.01-.17,0-.26-.08-.29-.24-.08-.48-.11-.93-.11-1.72,1.02.13,2.61.2,4.79.2.88,0,1.81-.03,2.31-.09.2-.02.23-.03.54-.14.06-.03.09-.03.18-.03.26,0,.53.21.88.69.29.41.45.72.45.88,0,.18-.05.24-.44.6-.24.24-.35.36-.81,1.12-.45.75-1.14,1.69-1.71,2.38,1.17.78,1.96,1.38,2.89,2.25Z"/>
        <path d="M135.47,151.54c-1.04,1.38-2.8,3.03-3.24,3.03-.13,0-.19-.03-.49-.29-.22-.2-.62-.46-1.11-.75,1.06-.58,2.16-1.47,2.98-2.46.88-1.04,1.41-1.9,1.94-3.22.73.24,1.12.41,1.62.69.21.12.29.19.29.33,0,.12-.04.2-.18.3-.15.1-.3.3-.69.82l2.23.02c.81,0,.96-.02,1.41-.18.06-.01.1-.03.16-.03.24,0,.5.22.93.78.29.38.36.51.36.68s-.04.24-.26.45c-.12.14-.31.42-.46.68-1.62,2.92-3.18,4.77-5.56,6.55-1.04.78-2.4,1.57-2.69,1.57-.12,0-.22-.06-.36-.21-.26-.27-.66-.55-1.25-.87,2.19-1.05,3.72-2.1,5.22-3.61,1.06-1.08,1.81-2.1,2.47-3.34.13-.25.22-.45.46-.95h-3.79Z"/>
        <path d="M148.29,152.26c-1.07-.21-1.88-.53-2.43-.92-.27-.18-.33-.25-.33-.39,0-.17.12-.46.54-1.3.73.46,1.56.79,2.51.99.21-1.05.3-1.92.31-2.9.77.14,1.44.36,1.81.57.17.09.22.18.21.3,0,.06-.03.12-.11.27-.22.46-.24.51-.55,1.98.15.02.34.02.46.02h.11c.36-.02.63-.02.76-.02h.04c.13,0,.18.06.18.25,0,.66-.04,1.2-.1,1.31-.04.07-.24.1-.87.1-.29,0-.51-.01-.93-.03q-.31,1.54-.45,2.36c.51.04.62.04.87.04h.84c.15-.01.22.01.27.09.06.09.11.57.11,1.11,0,.27-.02.34-.11.39-.07.03-.4.04-.97.04-.27,0-.67-.01-1.2-.04-.02.27-.02.45-.02.57,0,1.38.64,2.01,2.05,2.01,1.58,0,2.52-.77,2.52-2.05,0-.47-.1-.89-.34-1.35-.3-.57-.59-.9-1.3-1.47h.13c.24,0,.75-.08,1.2-.17.24-.04.33-.06.41-.06.22,0,.38.1.67.48.69.84,1.04,1.72,1.04,2.66,0,2.11-1.71,3.51-4.3,3.51-2.43,0-3.64-1.21-3.64-3.67,0-.21,0-.38.03-.63-1.48-.32-2.29-1.05-2.29-2.12,0-.55.17-.96.59-1.38.04-.06.1-.08.16-.08.09,0,.2.08.54.36.27.22.31.27.31.34q0,.06-.09.2c-.06.1-.12.27-.12.36,0,.2.12.36.35.46.21.11.27.12.75.23l.39-2.43Z"/>
        <path d="M162.8,151.18c-.69.04-1.33.06-1.9.06-.63,0-.68,0-.71-.09-.04-.09-.09-.72-.09-1.16v-.28c.71.03,1,.04,1.38.04s.95-.02,1.4-.03c.07-.87.09-1.17.09-1.47,0-.14,0-.23-.02-.44.72.02,1.28.06,1.71.17.12.03.18.09.18.2,0,.08-.02.13-.09.31-.12.29-.21.68-.27,1.14.96-.08,2.12-.23,2.58-.33.45-.11.77-.17.84-.17.32-.03.54-.09.63-.17.02-.01.03-.01.03-.01.03,0,.04.01.08.01.06,0,.1.06.13.17.03.22.07.75.07,1.08,0,.22-.04.29-.2.31-.88.18-2.71.41-4.29.54-.02.06-.02.09-.02.24-.03.29-.03.32-.04,1.07.66-.15,1.25-.23,1.98-.23.11-.48.12-.6.15-.95,1.15.24,1.72.45,1.72.63,0,.06-.02.1-.13.3-.04.06-.08.1-.11.21,1.94.45,3.16,1.88,3.16,3.72,0,1.63-.88,2.94-2.58,3.84-.63.33-1.51.63-1.84.63-.17,0-.29-.06-.38-.18-.31-.45-.51-.66-.99-1.07,1.56-.29,2.32-.6,3.07-1.21.69-.58,1.02-1.26,1.02-2.1,0-1.2-.71-2.1-1.91-2.45-.9,2.07-1.5,3.04-2.58,4.16.08.25.13.4.27.72.06.12.07.17.07.21,0,.15-.06.2-.4.38-.38.2-.81.34-.96.34-.13,0-.16-.04-.33-.51-.87.62-1.8.95-2.71.95-1.02,0-1.71-.83-1.71-2.03,0-1.88,1.37-3.71,3.63-4.83.02-.78.03-1.44.04-1.74ZM160.68,157.48c0,.38.23.6.6.6.51,0,1.18-.29,1.86-.78-.21-1.02-.3-1.71-.38-2.83-1.32.98-2.09,2.1-2.09,3.02ZM165.93,153.34c-.67.06-1.04.12-1.65.33.03,1.07.06,1.52.18,2.28.63-.79,1.05-1.54,1.47-2.61Z"/>
        <path d="M181.19,152.78c2.12,0,3.62,1.44,3.62,3.48,0,1.39-.74,2.65-1.96,3.39-.86.51-1.91.76-3.09.76-1.91,0-3.02-.76-3.02-2.07,0-1.19.99-2.03,2.4-2.03,1.27,0,2.19.64,2.8,1.96.76-.55,1.08-1.14,1.08-1.95,0-1.29-.92-2.13-2.36-2.13s-3.04.74-4.35,2.04c-.24.24-.46.5-.73.84-.11.15-.18.21-.27.21-.27,0-1.33-1.05-1.33-1.32,0-.13.06-.21.39-.45.34-.27.84-.71,1.47-1.3,1.46-1.38,2.52-2.54,4.1-4.46-1.88.24-3.13.45-3.6.62-.08.01-.12.03-.17.03-.12,0-.2-.07-.29-.3-.18-.45-.27-.94-.31-1.6.4.06.69.08,1.02.08.72,0,1.94-.11,3.51-.29.55-.06.73-.11,1.16-.27.13-.06.21-.08.3-.08.21,0,.42.18.81.78.29.39.38.58.38.71,0,.2-.04.25-.38.46-.27.17-.44.3-.78.63-.75.72-.76.72-1.69,1.67-.66.67-.74.75-1.34,1.35.97-.54,1.74-.77,2.64-.77ZM179.75,157.97c-.23-.15-.48-.23-.77-.23-.46,0-.77.23-.77.58,0,.44.46.71,1.19.71.33,0,.62-.03.99-.13-.18-.5-.33-.72-.64-.93Z"/>
        <path d="M189.14,153.08c-.12.03-.18.06-.27.11-.07.04-.12.06-.2.06-.31,0-.55-.58-.73-1.69.12.01.22.01.29.01.63,0,2.23-.2,3.2-.39.31-1.32.48-2.31.48-3.03,0-.06,0-.13-.01-.25.64.08,1.26.21,1.68.38.24.09.36.22.36.38,0,.08-.02.12-.09.24q-.22.4-.69,2.05c.36-.04.76-.08,1.02-.08.62,0,1.1.12,1.44.36.6.43.9,1.32.9,2.68,0,2.24-.4,4.14-1.1,5.08-.48.66-1.11.97-1.99.97-.54,0-1.05-.07-1.2-.17q-.12-.07-.17-.63c-.04-.4-.13-.75-.31-1.17.78.25.97.3,1.46.3.72,0,1.02-.34,1.35-1.54.22-.79.35-1.83.35-2.92,0-1.17-.29-1.59-1.08-1.59-.27,0-.71.03-1.05.09-.04.17-.06.18-.12.39-.42,1.53-1.19,3.55-1.95,5.17-.79,1.63-.99,1.96-1.18,1.96-.12,0-.53-.21-.96-.5-.35-.21-.44-.3-.44-.42q0-.08.62-1.05c.83-1.28,1.91-3.78,2.28-5.25-1.11.24-1.73.39-1.86.43ZM196.79,151.4c0-.1.13-.24.57-.58.3-.22.45-.31.55-.31.09,0,.16.04.36.24.88.86,1.71,2,2.19,2.99.15.33.24.54.24.63,0,.15-.04.2-.52.58-.3.24-.65.43-.77.43-.11,0-.15-.04-.26-.3-.3-.73-.58-1.3-.94-1.86-.39-.6-.47-.69-1.35-1.64-.06-.09-.07-.13-.07-.18Z"/>
        <path d="M210.41,153.11c2.05,0,3.39,1.21,3.39,3.06s-1.12,3.02-3.37,3.74c-.81.25-2.15.5-2.75.5-.31,0-.39-.08-.6-.51-.16-.35-.35-.56-.79-.87,3.77-.3,5.62-1.26,5.62-2.9,0-.92-.64-1.46-1.72-1.46-1.37,0-2.78.71-3.93,1.95-.21.21-.41.46-.54.69-.13.22-.22.3-.36.3-.22,0-.75-.22-1.11-.5-.18-.13-.24-.24-.24-.48q0-.12.04-.48s0-.15.01-.31c.08-.96.12-1.37.3-2.72q.03-.16.13-.87s.04-.33.12-.89c.01-.13.03-.25.03-.49.72.1,1.39.27,1.68.43.12.06.18.13.16.22,0,.06-.03.11-.07.2-.16.25-.21.39-.35.96-.13.57-.34,1.89-.38,2.38,1.53-1.41,2.87-1.96,4.71-1.96ZM210.14,148.84c.58.34.76.51.76.67,0,.13-.24.58-.49.96-.24.34-.33.42-.45.42-.07,0-.12-.03-.3-.17-1.01-.76-1.8-1.2-2.93-1.59-.22-.09-.27-.12-.27-.24,0-.15.12-.41.39-.79.24-.36.34-.45.51-.45.36,0,1.83.63,2.78,1.19Z"/>
        <path d="M216.8,156.95c.27-.24.34-.3.45-.3.2,0,1.1.66,1.76,1.29.75.69,1.59,1.69,1.59,1.9,0,.14-.03.17-.46.56-.57.52-.69.62-.79.62-.09,0-.18-.06-.26-.21-.53-.93-1.72-2.16-2.79-2.85-.12-.09-.18-.15-.18-.24,0-.1.03-.15.69-.76Z"/>
        <path d="M242.6,153.82c-.69,0-1.79.22-2.54.51-1.59.62-2.64,1.74-2.64,2.83,0,.69.45,1.16,1.35,1.38.4.11,1.11.18,1.6.17h.15c.26,0,.35.09.35.29,0,.5-.09,1.18-.17,1.38-.06.12-.13.17-.29.17-.91,0-2.07-.24-2.85-.6-1.15-.51-1.79-1.4-1.79-2.5,0-.71.27-1.43.78-2.07.29-.34.51-.55,1.05-.93-2.73.83-4.09,1.35-5.01,1.95-.12.08-.19.11-.27.11-.16,0-.3-.13-.51-.51-.21-.35-.36-.77-.36-.99,0-.13.06-.18.42-.29.34-.1.58-.25,1.15-.66.69-.51,1.77-1.44,2.7-2.32.77-.74,1.2-1.19,2.1-2.24-.87.11-3.23.51-3.57.6-.21.06-.22.06-.27.06-.14,0-.2-.06-.26-.21-.12-.33-.22-.88-.3-1.51.21.01.32.01.45.01.67,0,2.13-.12,3.93-.34.67-.08,1.06-.17,1.33-.3.18-.09.21-.11.32-.11.18,0,.42.2.84.71.3.34.39.51.39.67s-.06.24-.25.38q-.27.17-1.53,1.33c-1.04.96-2.27,2.01-3.65,3.1,2.12-.63,3.22-.93,5.52-1.44.51-.11,1.01-.24,1.58-.42.07-.03.13-.04.18-.04.12,0,.18.06.26.19.16.35.36,1.08.36,1.35,0,.21-.06.3-.22.3h-.35Z"/>
        <path d="M22.05,183.37c1.23,0,2.6-.18,3.95-.53.07-.03.12-.03.16-.03.09,0,.13.06.17.2.04.33.07.81.07,1.3,0,.3-.03.39-.16.45-.45.24-2.47.46-4.21.46-2.27,0-3.55-.38-4.59-1.35-.5-.46-.99-1.28-.99-1.61,0-.22.13-.31,1.37-1.02.54,1.49,1.79,2.12,4.24,2.12ZM22.19,174.74c.87,0,1.38-.03,2.4-.18h.11c.12,0,.16.04.2.13.03.18.06.63.06,1.17,0,.34-.03.46-.12.53-.12.07-1.43.17-2.43.17-1.34,0-2.45-.11-3.69-.35-.85-.17-.9-.21-.9-.73,0-.35.03-.92.07-1.33,1.3.4,2.73.6,4.3.6Z"/>
        <path d="M33.56,177.77c-1.07-.21-1.88-.53-2.43-.92-.27-.18-.33-.25-.33-.39,0-.17.12-.46.54-1.3.73.46,1.56.79,2.51.99.21-1.05.3-1.92.31-2.9.77.14,1.44.36,1.81.57.17.09.22.18.21.3,0,.06-.03.12-.11.27-.22.46-.24.51-.55,1.98.15.02.34.02.46.02h.11c.36-.02.63-.02.76-.02h.04c.13,0,.18.06.18.25,0,.66-.04,1.2-.1,1.31-.04.07-.24.1-.87.1-.29,0-.51-.01-.93-.03q-.31,1.54-.45,2.36c.51.04.62.04.87.04h.84c.15-.01.22.01.27.09.06.09.11.57.11,1.11,0,.27-.02.34-.11.39-.07.03-.4.04-.97.04-.27,0-.67-.01-1.2-.04-.02.27-.02.45-.02.57,0,1.38.64,2.01,2.05,2.01,1.58,0,2.52-.77,2.52-2.05,0-.47-.1-.89-.34-1.35-.3-.57-.59-.9-1.3-1.47h.13c.24,0,.75-.08,1.2-.17.24-.04.33-.06.41-.06.22,0,.38.1.67.48.69.84,1.04,1.72,1.04,2.66,0,2.11-1.71,3.51-4.3,3.51-2.43,0-3.64-1.21-3.64-3.67,0-.21,0-.38.03-.63-1.48-.32-2.29-1.05-2.29-2.12,0-.55.17-.96.59-1.38.04-.06.1-.08.16-.08.09,0,.2.08.54.36.27.22.31.27.31.34q0,.06-.09.2c-.06.1-.12.27-.12.36,0,.2.12.36.35.46.21.11.27.12.75.23l.39-2.43Z"/>
        <path d="M44.91,175.1c-.46,0-.72.01-1.08.06v-1.53c.34.05.73.08,1.32.08h2.04c.55,0,.9-.01,1.26-.08v1.53c-.36-.04-.64-.06-1.05-.06h-.43v2.82h.33c.38,0,.6-.01.91-.06v1.46c-.3-.03-.57-.04-.91-.04h-.33v2.83c.67-.28.81-.36,1.41-.64l.03,1.51c-1.21.6-1.85.89-4.04,1.77-.07.03-.15.06-.29.12l-.39-1.64c.53-.1.83-.19,1.77-.54v-3.42h-.46c-.42,0-.68.01-.99.06v-1.47c.34.04.55.06,1.02.06h.44v-2.82h-.56ZM51.89,182.93h-1.61c-.81,0-1.12.02-1.5.06v-1.47c.36.05.64.06,1.48.06h1.62v-1.16h-1.37c-.95,0-1.35.02-1.74.04.04-.34.06-.9.06-1.78v-3.25c0-1.01-.02-1.44-.08-1.94.54.06,1.04.08,1.95.08h3.96c1.06,0,1.5-.01,1.86-.08-.03.42-.06,1.11-.06,1.96v3.08c0,.99.01,1.51.06,1.93-.53-.04-.69-.04-1.56-.04h-1.65v1.16h1.83c.79,0,1.11-.01,1.53-.08v1.5c-.42-.06-.79-.08-1.52-.08h-1.84v1.5h2.31c.75,0,1.14-.01,1.52-.08v1.54c-.49-.06-.84-.07-1.62-.07h-6.04c-.79,0-1.11.01-1.65.07v-1.54c.39.06.72.08,1.47.08h2.58v-1.5ZM50.28,174.97v1.44h1.61v-1.44h-1.61ZM50.28,177.61v1.47h1.61v-1.47h-1.61ZM53.33,176.41h1.65v-1.44h-1.65v1.44ZM53.33,179.08h1.65v-1.47h-1.65v1.47Z"/>
        <path d="M64.16,174.58c-.13.21-.18.29-.44.81-.13.24-.4.74-.6,1.05.64,0,.97-.02,1.37-.06-.03.21-.03.36-.04.74.72-.34,1.02-.55,1.38-.95.35-.36.5-.69.63-1.32h-.41c-.58,0-.97.03-1.29.07v-1.5c.44.06.81.08,1.52.08h3.54c.55,0,.93-.01,1.29-.06-.03.31-.07.72-.13,1.54-.09,1.2-.29,2.08-.52,2.44-.24.38-.59.48-1.47.48-.26,0-.29,0-1.05-.03-.06-.67-.1-.92-.33-1.44.5.1.86.17,1.1.17.38,0,.51-.08.59-.3.1-.3.16-.76.22-1.45h-1.53c-.21,1.02-.38,1.44-.81,2.04-.41.56-.93,1.01-1.59,1.37l1.35.3-.18.81h.78v-.12c0-.41-.03-.72-.07-1.05h1.6c-.03.36-.04.69-.04,1.05v.12h.92c.63,0,.99-.03,1.28-.08v1.5c-.36-.04-.74-.06-1.28-.06h-.92v1.29h1.12c.65,0,.95-.01,1.38-.07v1.53c-.39-.04-.69-.06-1.35-.06h-1.16v1.44c0,.63.02.99.09,1.41h-1.66c.07-.43.09-.79.09-1.41v-1.44h-1.44c-.59,0-.88.01-1.3.08v-1.54c.42.06.72.07,1.32.07h1.43v-1.29h-1.17c-.12.38-.21.58-.46,1.11-.63-.39-.88-.53-1.28-.66.42-.75.59-1.17.77-1.9.07-.33.15-.81.15-.95v-.04l-.18.09c-.19-.41-.45-.75-.9-1.18v7.6c0,1.02-.41,1.29-1.86,1.29-.13,0-.38,0-.88-.02-.06-.55-.13-.92-.33-1.42.65.08.95.09,1.28.09.4,0,.53-.07.53-.3v-1.74h-2.96c-.2,1.8-.33,2.37-.87,3.51-.57-.65-.74-.79-1.19-1.11.69-1.26.86-2.55.86-6.71v-.79c-.23-.31-.44-.54-.95-.99.67-.57,1.15-1.23,1.62-2.22.3-.63.45-1.05.54-1.56l1.54.29q-.09.15-.32.78h1.31c.39,0,.55-.02.73-.05l.66.74ZM61.67,176.44c.31-.54.45-.79.68-1.28h-1.43c-.26.48-.48.86-.77,1.28h1.52ZM61.17,181.45v-1.31h-.86c-.02.24-.02.44-.02.56,0,.42,0,.51-.02.75h.89ZM60.35,177.73l-.02.85v.36h.84v-1.21h-.83ZM63.17,177.73h-.82v1.21h.82v-1.21ZM63.17,180.14h-.82v1.31h.82v-1.31Z"/>
        <path d="M77.72,173.69c.38.1.48.18.48.34,0,.11-.01.15-.09.36-.16.43-.29,1.2-.34,2.25-.12,2.42-.18,4.29-.18,5.77,0,.48.04.84.12,1.08.16.5.69.75,1.53.75,1.35,0,2.62-.55,3.79-1.65.54-.51.87-.92,1.43-1.74.09.48.21.79.54,1.47.04.12.08.21.08.34,0,.27-.29.63-1.04,1.3-1.49,1.33-3.13,2.03-4.86,2.03-1.14,0-1.98-.29-2.52-.83-.57-.6-.79-1.38-.79-2.86,0-1.17.02-2.07.13-5.57.02-.52.03-.84.03-.97,0-1.28-.02-1.65-.11-2.29.77.03,1.35.09,1.8.21Z"/>
        <path d="M89.85,177.14c-.39.09-.53.13-1.07.33-.19.08-.3.11-.39.11-.33,0-.63-.62-.9-1.91.96-.04,1.3-.09,2.97-.34,1.8-.27,4.08-.62,5.28-.76,1.35-.18,2.43-.36,3-.48.1-.03.15-.03.22-.03.2,0,.27.09.4.46.12.31.21.76.21.97,0,.18-.06.24-.27.24-.32,0-.6.03-.89.08-2.53.42-4.56,2.64-4.56,4.98,0,1.75,1.38,2.91,3.72,3.12.21.01.29.09.29.27,0,.38-.15,1.09-.29,1.42-.07.17-.19.24-.39.24s-.65-.09-1.11-.22c-2.55-.75-3.88-2.37-3.88-4.67,0-1.25.41-2.4,1.19-3.39.42-.54.78-.84,1.63-1.43-1.96.33-4.04.72-5.17,1.01Z"/>
        <path d="M105.14,178.09c-1.19.12-1.49.13-2.16.13-.46,0-.54-.19-.65-1.53h.59c.73,0,1.39-.04,2.22-.13v-.32c0-.97-.06-1.74-.21-2.55,1.14.06,1.59.12,1.9.21.15.04.21.12.21.27,0,.09-.02.15-.09.3-.13.28-.21.82-.22,1.84.49-.09,1.29-.29,1.89-.46.04-.02.08-.02.11-.02.12,0,.2.06.22.17.08.3.17.9.17,1.12,0,.12-.08.23-.2.27-.18.07-1.28.3-2.23.46v1.93c1.48-.5,2.64-.73,3.63-.73,1.92,0,3.16,1.23,3.16,3.13,0,1.23-.49,2.22-1.38,2.74-.46.27-1.12.44-1.85.44s-1.37-.06-1.53-.17c-.16-.09-.18-.13-.21-.5-.03-.42-.12-.78-.3-1.21.62.22,1.12.31,1.71.31,1.17,0,1.83-.6,1.83-1.66s-.63-1.67-1.63-1.67c-.95,0-2.14.3-3.43.85q0,.06.01.65.02.99.02,1.2c.02.27.02.54.02.68,0,1.21-.46,1.8-1.46,1.8s-1.94-.51-2.54-1.29c-.24-.33-.36-.67-.36-1.08,0-.97.87-1.86,2.76-2.83v-2.37ZM105.14,182.11c-.87.53-1.23.87-1.23,1.19,0,.34.49.72.95.72.21,0,.29-.13.29-.48v-1.43ZM113.51,178.7c-.77-.81-1.81-1.49-2.8-1.8-.12-.04-.18-.11-.18-.18,0-.09.15-.33.57-.9.17-.22.18-.24.33-.24.15.02.72.21,1.11.39.94.43,2.17,1.36,2.17,1.65,0,.27-.75,1.21-.97,1.21-.07,0-.13-.03-.22-.13Z"/>
        <path d="M125.4,174.5c0,.14-.06.18-.31.33-.11.06-.24.18-.38.34-.93,1.08-2.27,2.54-3.45,3.74-.25.25-.36.45-.36.63,0,.17.12.34.41.6.88.81,2.32,2.28,3.39,3.5.75.84.95,1.11.95,1.26,0,.17-.26.42-.87.9-.29.22-.47.33-.56.33-.13,0-.19-.06-.34-.3-.64-1.02-2.22-2.92-3.42-4.14-.68-.67-.81-.82-1.02-1.12-.26-.36-.36-.66-.36-1,0-.3.09-.61.27-.92q.17-.27,1.08-1.24c.87-.9,1.8-2.04,2.38-2.88.39-.56.59-.92.78-1.42,1.17.64,1.81,1.14,1.81,1.41Z"/>
        <path d="M133.31,177.71c-.36,2.42-.63,3.43-1.41,5.46l-1.5-.76c.78-1.77,1.06-2.82,1.38-4.98l1.53.29ZM134.1,184.36c-1.02.72-1.5,1-2.6,1.59-.36-.6-.6-.91-1.1-1.36,1.4-.63,2.45-1.23,3.69-2.16v-4.83c0-.57-.02-.85-.09-1.47h1.74c-.06.44-.09.9-.09,1.42v3.55c1.07-.99,2.22-2.4,3.08-3.76.76-1.21,1.42-2.62,1.62-3.51l1.65.66q-.17.31-.55,1.12c-1.02,2.07-2.18,3.81-3.62,5.46-.66.76-1.25,1.32-2.18,2.08v1c0,.34.38.45,1.74.45,1.28,0,1.77-.11,1.94-.41.21-.36.33-1.26.36-2.71.62.3.95.42,1.52.55-.3,3.76-.53,4-3.9,4-2.62,0-3.21-.29-3.21-1.53v-.17ZM134.94,172.9c1.9.75,2.67,1.12,4.2,2.05l-.96,1.38c-1.09-.81-2.31-1.46-4.21-2.21l.98-1.23ZM141.78,177.58c.94,1.8,1.5,3.12,2.23,5.42l-1.53.81c-.68-2.54-1.08-3.58-2.1-5.54l1.4-.69Z"/>
        <path d="M149.52,180.47c.24-.38.31-.5.52-.92h-2.17c-.73,0-1.26.02-1.67.06.04-.42.06-.76.06-1.4v-.99c0-.65-.02-1.04-.06-1.46.5.04.9.06,1.61.06h1.54v-.92h-2.37c-.68,0-1.21.03-1.67.08v-1.53c.42.06.97.09,1.79.09h9.13c.84,0,1.39-.03,1.79-.09v1.53c-.46-.04-.99-.08-1.66-.08h-2.57v.92h1.67c.75,0,1.17-.01,1.62-.06-.04.38-.06.75-.06,1.44v.99c0,.72,0,1.05.04,1.41-.33-.04-.82-.06-1.63-.06h-3.64c-.3.56-.31.57-.53.92h5.09c.86,0,1.26-.01,1.66-.07v1.5c-.46-.04-.97-.07-1.66-.07h-1.29c-.38.76-.75,1.3-1.3,1.86,1.79.56,2.36.77,3.95,1.41l-1.01,1.32c-.36-.15-.66-.29-.84-.38q-1.21-.56-3.43-1.35c-1.67.96-3.64,1.44-6.48,1.58-.18-.58-.29-.84-.66-1.47h.32c1.99,0,3.52-.23,4.83-.71-1.53-.42-1.72-.46-3.34-.84.66-.58.93-.86,1.41-1.42h-1.53c-.69,0-1.2.03-1.66.07v-1.5c.4.06.86.07,1.66.07h2.57ZM147.8,176.99v1.38h1.56v-1.38h-1.56ZM150.29,181.82c-.21.24-.33.38-.71.75q.51.13,1.65.39c.17.04.36.1.86.24.54-.39.93-.81,1.26-1.38h-3.06ZM150.78,175.84h1.59v-.92h-1.59v.92ZM150.78,178.37h1.59v-1.38h-1.59v1.38ZM153.8,178.37h1.68v-1.38h-1.68v1.38Z"/>
        <path d="M160.95,178.93c-.12.03-.18.06-.27.11-.08.04-.12.06-.18.06-.33,0-.57-.57-.75-1.68h.29c.63,0,2.24-.2,3.2-.39.31-1.31.48-2.31.48-3.02,0-.06,0-.15-.02-.25.64.06,1.26.2,1.68.38.24.09.36.21.36.36,0,.08-.02.13-.09.25q-.23.39-.69,2.04c.36-.04.77-.08,1.02-.08.62,0,1.1.12,1.44.36.6.43.9,1.32.9,2.68,0,2.24-.41,4.16-1.1,5.1-.48.66-1.11.98-2,.98-.54,0-1.05-.08-1.2-.17q-.12-.08-.16-.63c-.04-.41-.13-.77-.32-1.19.78.27.98.32,1.46.32.72,0,1.02-.35,1.35-1.56.23-.79.35-1.81.35-2.92,0-1.17-.29-1.59-1.08-1.59-.27,0-.71.04-1.05.09-.04.18-.06.2-.12.39-.42,1.54-1.19,3.55-1.95,5.17-.79,1.63-.99,1.96-1.19,1.96-.12,0-.53-.21-.96-.5-.35-.21-.44-.3-.44-.42q0-.08.62-1.05c.82-1.28,1.9-3.77,2.28-5.25-1.11.25-1.72.39-1.86.43ZM170.37,175.85c-.24.18-.41.25-.48.25-.04,0-.09-.03-.13-.11-.32-.51-.84-1.09-1.28-1.47-.03-.03-.04-.06-.04-.09,0-.06.11-.17.36-.36.26-.18.33-.22.44-.22.24,0,1.56,1.33,1.56,1.58,0,.09-.12.19-.42.42ZM168.78,177.44c0-.11.13-.24.57-.58.3-.23.45-.32.57-.32.2,0,.87.72,1.5,1.61.53.75,1.1,1.81,1.1,2.07,0,.15-.04.2-.53.58-.3.24-.64.44-.77.44-.1,0-.15-.04-.25-.3-.29-.72-.54-1.21-.95-1.86-.4-.65-.44-.67-1.15-1.46-.06-.08-.09-.12-.09-.18ZM170.75,172.84c.25,0,1.53,1.28,1.53,1.53,0,.08-.09.17-.39.38-.27.21-.4.29-.46.29q-.07,0-.38-.42c-.25-.34-.73-.86-1-1.08-.04-.04-.08-.08-.08-.12,0-.12.62-.57.78-.57Z"/>
        <path d="M178.2,176.69c-.69.04-1.34.06-1.91.06-.63,0-.67,0-.71-.09-.04-.09-.09-.72-.09-1.16v-.28c.71.03,1.01.04,1.38.04s.95-.02,1.39-.03c.08-.87.09-1.17.09-1.47,0-.14,0-.23-.01-.44.72.02,1.27.06,1.71.17.12.03.18.09.18.2,0,.08-.02.13-.09.31-.12.29-.21.68-.27,1.14.96-.08,2.12-.23,2.58-.33.45-.11.76-.17.84-.17.31-.03.54-.09.63-.17.02-.01.03-.01.03-.01.03,0,.04.01.07.01.06,0,.11.06.13.17.03.22.08.75.08,1.08,0,.22-.04.29-.2.31-.88.18-2.71.41-4.29.54-.01.06-.01.09-.01.24-.03.29-.03.32-.04,1.07.66-.15,1.24-.23,1.98-.23.11-.48.12-.6.15-.95,1.16.24,1.72.45,1.72.63,0,.06-.01.1-.13.3-.04.06-.07.1-.11.21,1.94.45,3.17,1.88,3.17,3.72,0,1.63-.88,2.94-2.58,3.84-.63.33-1.52.63-1.85.63-.16,0-.29-.06-.38-.18-.31-.45-.51-.66-.99-1.07,1.56-.29,2.32-.6,3.07-1.21.69-.58,1.02-1.26,1.02-2.1,0-1.2-.71-2.1-1.9-2.45-.9,2.07-1.5,3.04-2.58,4.16.07.25.13.4.27.72.06.12.07.17.07.21,0,.15-.06.2-.4.38-.38.2-.81.34-.96.34-.13,0-.17-.04-.33-.51-.87.62-1.8.95-2.71.95-1.02,0-1.71-.83-1.71-2.03,0-1.88,1.37-3.71,3.63-4.83.01-.78.03-1.44.04-1.74ZM176.09,182.99c0,.38.22.6.6.6.51,0,1.19-.29,1.86-.78-.21-1.02-.3-1.71-.38-2.83-1.32.98-2.08,2.1-2.08,3.02ZM181.34,178.85c-.68.06-1.04.12-1.65.33.03,1.07.06,1.52.18,2.28.63-.79,1.05-1.54,1.47-2.61Z"/>
        <path d="M196.59,178.3c2.12,0,3.62,1.44,3.62,3.48,0,1.39-.73,2.65-1.96,3.39-.86.51-1.9.76-3.09.76-1.9,0-3.02-.76-3.02-2.07,0-1.19.99-2.03,2.4-2.03,1.28,0,2.19.64,2.8,1.96.77-.55,1.08-1.14,1.08-1.95,0-1.29-.91-2.13-2.36-2.13s-3.04.74-4.35,2.04c-.24.24-.46.5-.73.84-.11.15-.18.21-.27.21-.27,0-1.34-1.05-1.34-1.32,0-.13.06-.21.39-.45.35-.27.84-.71,1.47-1.3,1.46-1.38,2.52-2.54,4.09-4.46-1.88.24-3.13.45-3.6.62-.07.01-.12.03-.16.03-.12,0-.2-.07-.29-.3-.18-.45-.27-.94-.32-1.6.41.06.69.08,1.02.08.72,0,1.93-.11,3.51-.29.55-.06.73-.11,1.15-.27.13-.06.21-.08.3-.08.21,0,.42.18.81.78.29.39.38.58.38.71,0,.2-.04.25-.38.46-.27.17-.43.3-.78.63-.75.72-.77.72-1.7,1.67-.66.67-.73.75-1.33,1.35.97-.54,1.74-.77,2.64-.77ZM195.15,183.49c-.22-.15-.48-.23-.77-.23-.46,0-.76.23-.76.58,0,.44.46.71,1.18.71.33,0,.62-.03.99-.13-.18-.5-.33-.72-.64-.93Z"/>
        <path d="M205.99,183.73q0-1.63.01-2.34c-.75.83-1.26,1.49-1.51,1.95-.08.15-.18.24-.27.24-.15,0-.51-.32-.99-.86-.19-.24-.28-.38-.28-.43q0-.11.76-.86c.64-.64,1.52-1.67,2.33-2.74,0-.09,0-.44.01-1.04-.73.13-1.68.39-1.93.52-.15.08-.18.09-.26.09-.26,0-.46-.58-.66-1.75.79-.01,1.79-.12,2.88-.3,0-.54.01-1.3.01-1.72,0-.45-.03-.81-.09-1.11.95.06,1.41.12,1.83.23.22.06.31.15.31.31,0,.08-.03.15-.09.3-.15.3-.16.41-.29,1.59.36.22.71.6.71.79q0,.13-.46.7c-.04.06-.18.26-.4.54q-.02.48-.02.58c1.47-1.24,2.71-1.77,4.19-1.77,2.34,0,3.81,1.49,3.81,3.87,0,1.83-.84,3.19-2.57,4.12-.66.38-1.79.78-2.12.78-.09,0-.19-.03-.24-.09t-.23-.3c-.25-.36-.54-.65-.84-.86,2.99-.81,4.17-1.86,4.17-3.7,0-1.44-.85-2.37-2.21-2.37-.88,0-1.69.29-2.65.92q-.48.31-1.33,1.04.01.12.01.31c0,1.61,0,1.74.09,4.89.02.17.02.29.02.32,0,.29-.21.34-1.3.34-.39,0-.42-.04-.42-.46l.02-1.74Z"/>
        <path d="M222.14,183.97c0,1.41-1.14,2.55-2.54,2.55s-2.54-1.14-2.54-2.55,1.14-2.54,2.54-2.54,2.54,1.14,2.54,2.54ZM218.24,183.97c0,.76.62,1.38,1.37,1.38s1.37-.62,1.37-1.38-.62-1.37-1.37-1.37-1.37.62-1.37,1.37Z"/>
      </g>
      <path class="cls-8" d="M328.61,1.42H89.23c-4.68,0-8.47,3.79-8.47,8.47v43.9s-9.69,9.69-9.69,9.69h9.69s0,.5,0,.5c0,4.68,3.79,8.47,8.47,8.47h239.38c4.68,0,8.47-3.79,8.47-8.47V9.89c0-4.68-3.79-8.47-8.47-8.47Z"/>
      <g>
        <path d="M95.48,20.12c0-.55-.03-1.06-.08-1.54.44.06.92.07,1.61.07h6.97c.69,0,1.12-.01,1.54-.07-.06.54-.08.97-.08,1.48v9.29c0,.73.01,1.21.08,1.75h-1.73v-.87h-6.69v.87h-1.72c.06-.52.09-1.07.09-1.75v-9.22ZM97.11,23.52h6.69v-3.34h-6.69v3.34ZM97.11,28.72h6.69v-3.67h-6.69v3.67Z"/>
        <path d="M110.31,21.91c-.62,0-1.16.03-1.71.09v-1.77c.58.07,1.02.1,1.71.1h3.71v-1.02c0-.57-.03-.91-.09-1.33h1.8c-.06.4-.09.78-.09,1.32v1.04h3.9c.72,0,1.23-.03,1.74-.1v1.77c-.62-.06-1.1-.09-1.74-.09h-3.09c.67,1.21,1.35,2.17,2.16,3.01.97,1.03,2.01,1.82,3.15,2.42-.45.54-.69.91-.99,1.57-.91-.63-1.59-1.17-2.41-1.99v1.62c-.44-.06-.84-.07-1.44-.07h-1.27v.99c0,.69.03,1.27.1,1.78h-1.83c.08-.54.11-1.11.11-1.8v-.97h-1.14c-.61,0-1,.01-1.44.07v-1.6c-.83.85-1.42,1.38-2.34,2.01-.29-.65-.5-.97-.97-1.5,2.14-1.33,3.9-3.28,5.01-5.53h-2.82ZM114.02,24.65c0-.43.04-1.04.1-1.6-.75,1.54-1.44,2.53-2.61,3.81.34.04.6.06,1.29.06h1.21v-2.27ZM117.02,26.92c.67,0,.92-.02,1.27-.06-1.14-1.14-1.75-1.99-2.79-3.82.09.6.14,1.18.14,1.6v2.28h1.38Z"/>
        <path d="M128.64,27.6c-.72,1.25-1.71,1.94-2.73,1.94-1.56,0-2.67-1.53-2.67-3.66,0-2.37,1.2-4.41,3.25-5.49,1-.54,2.08-.78,3.51-.78,3.14,0,5.46,2.22,5.46,5.19,0,2.62-1.29,4.51-3.78,5.58-.5.21-.89.33-1.08.33-.18,0-.25-.06-.45-.35-.25-.39-.54-.67-.95-.95,3.09-.79,4.49-2.25,4.49-4.68,0-1.24-.53-2.29-1.46-2.96-.53-.36-.95-.51-1.77-.64-.42,3.17-.92,4.89-1.83,6.46ZM126.48,22.3c-1,.88-1.58,2.15-1.58,3.55,0,1.16.38,1.83,1,1.83.75,0,1.52-1.04,2.08-2.82.36-1.12.54-1.98.77-3.65-1.07.23-1.59.48-2.28,1.08Z"/>
        <path d="M141.86,28.66c-1,1.05-2.1,1.81-3.51,2.47-.27-.5-.62-.9-1-1.23,1.39-.49,2.38-1.09,3.25-1.99l1.26.75ZM140.19,22.77c-.63,0-1.02.02-1.49.04.04-.38.06-.72.06-1.23v-2.04c0-.54-.02-.86-.06-1.24.44.04.79.06,1.54.06h7.21c.67,0,1.08-.01,1.53-.06-.04.38-.06.66-.06,1.24v2.03c0,.58.01.87.06,1.24-.39-.03-.79-.04-1.33-.04h-3.13v.6h4.33c.61,0,1.09-.03,1.53-.08v1.32c-.45-.04-.96-.08-1.53-.08h-9.96c-.57,0-1.06.03-1.53.08v-1.32c.47.04.96.08,1.53.08h4.08v-.6h-2.79ZM140.6,27.89c-.58,0-1.02.02-1.53.04.04-.33.06-.62.06-1.08v-.78c0-.44-.01-.74-.06-1.08.46.03.92.04,1.53.04h6.54c.62,0,1.07-.02,1.53-.04-.04.33-.06.62-.06,1.08v.82c0,.46.01.74.06,1.04-.53-.03-.95-.04-1.53-.04h-2.41v2.01c0,1.05-.38,1.29-2.06,1.29-.18,0-.61-.01-1.14-.01-.03-.53-.11-.9-.32-1.41.53.07.96.11,1.41.11s.54-.08.54-.41v-1.57h-2.56ZM140.25,20.09h7.2v-.63h-7.2v.63ZM140.25,21.73h7.2v-.65h-7.2v.65ZM140.61,26.1v.69h6.5v-.69h-6.5ZM147,27.91c1.09.96,1.86,1.41,3.38,1.95-.46.46-.72.79-.99,1.3-1.5-.71-2.34-1.29-3.51-2.41l1.12-.84Z"/>
        <path d="M154.89,20.5c-.58.88-1.28,1.68-2.15,2.5-.38-.48-.67-.76-1.12-1.12,1.22-1.08,2.01-2.06,2.61-3.25.18-.36.27-.6.31-.9l1.73.26c-.04.07-.21.4-.51,1h6.64c.79,0,1.3-.03,1.8-.09v1.68c-.46-.04-1.05-.07-1.8-.07h-7.51ZM159.71,30.87c-.87-.85-1.5-1.42-2.49-2.22-1.14.96-2.1,1.56-4.17,2.59-.29-.51-.5-.78-1.08-1.36,1.95-.83,2.94-1.37,3.99-2.19-.84-.62-1.38-.96-2.5-1.63l1.05-.96c1.07.6,1.4.81,2.55,1.59.67-.71,1.08-1.31,1.24-1.85l1.54.73c-.15.18-.3.38-.61.81-.35.48-.57.78-.95,1.2.87.66,1.6,1.27,2.5,2.08l-1.08,1.2ZM154.13,24.68c-.73,0-1.23.03-1.65.08v-1.5c.3.06.66.07,1.25.07h7.32c.97,0,1.21-.01,1.67-.06-.04.45-.06.85-.06,1.33,0,1.49.13,2.76.4,3.68.17.55.25.75.5.97.2-.27.32-.95.34-2.13.48.44.75.63,1.23.87-.23,2.26-.66,3.18-1.54,3.18-.65,0-1.38-.77-1.79-1.85-.45-1.18-.63-2.5-.66-4.65h-7ZM154.47,21.16c.18.03.64.04,1.08.04h6.03c.74,0,1.2-.03,1.53-.08v1.44c-.41-.06-.79-.08-1.53-.08h-5.73c-.6,0-.99.02-1.38.06v-1.39Z"/>
        <path d="M167.61,23.89c-.12.03-.18.06-.27.1-.08.04-.12.06-.18.06-.33,0-.57-.57-.75-1.68h.29c.63,0,2.24-.2,3.2-.39.31-1.3.48-2.31.48-3.01,0-.06,0-.15-.01-.25.64.06,1.26.2,1.68.38.24.09.36.21.36.36,0,.08-.02.14-.09.26q-.23.39-.69,2.04c.36-.04.76-.07,1.02-.07.62,0,1.1.12,1.44.36.6.44.9,1.32.9,2.69,0,2.23-.41,4.15-1.1,5.1-.48.66-1.11.97-2,.97-.54,0-1.05-.07-1.2-.16q-.12-.08-.17-.63c-.04-.4-.13-.76-.32-1.18.78.27.98.32,1.46.32.72,0,1.02-.35,1.35-1.56.23-.79.35-1.81.35-2.92,0-1.17-.29-1.59-1.08-1.59-.27,0-.71.04-1.05.09-.04.18-.06.19-.12.39-.42,1.54-1.19,3.55-1.95,5.18-.79,1.63-.99,1.96-1.18,1.96-.12,0-.53-.21-.96-.5-.35-.21-.44-.3-.44-.42q0-.07.62-1.05c.83-1.28,1.91-3.77,2.28-5.25-1.11.25-1.73.39-1.86.43ZM177.03,20.81c-.24.18-.41.26-.48.26-.04,0-.09-.03-.13-.11-.32-.51-.84-1.1-1.28-1.47-.03-.03-.04-.06-.04-.09,0-.06.11-.16.36-.36.25-.18.33-.22.43-.22.24,0,1.56,1.33,1.56,1.57,0,.09-.12.2-.42.42ZM175.44,22.4c0-.1.13-.24.57-.58.3-.23.45-.32.57-.32.2,0,.87.72,1.5,1.6.52.75,1.09,1.82,1.09,2.07,0,.15-.04.2-.52.58-.3.24-.65.43-.77.43-.1,0-.15-.04-.25-.3-.29-.72-.54-1.21-.95-1.86-.4-.64-.43-.67-1.15-1.45-.06-.08-.09-.12-.09-.18ZM177.41,17.8c.25,0,1.53,1.27,1.53,1.53,0,.07-.09.16-.39.38-.27.21-.41.29-.46.29q-.08,0-.38-.42c-.25-.35-.74-.86-1-1.08-.04-.04-.08-.08-.08-.12,0-.12.62-.57.78-.57Z"/>
        <path d="M180.54,29.93c.84-1.07,1.25-1.79,1.7-3.12l1.35.6c-.6,1.68-.93,2.33-1.77,3.46l-1.28-.94ZM182.63,19.68c-.6,0-1.09.03-1.57.08v-1.47c.43.06.94.09,1.62.09h9.13c.71,0,1.2-.03,1.63-.09v1.47c-.43-.04-.97-.08-1.57-.08h-2.48v.88h1.77c.79,0,1.16-.01,1.51-.04-.04.33-.06.65-.06,1.17v1.4c0,.43.01.83.06,1.14-.41-.03-.79-.04-1.48-.04h-1.8v.87h2.73c.69,0,1.14-.03,1.56-.09v1.49c-.48-.06-.93-.09-1.56-.09h-9.79c-.64,0-1.09.03-1.58.09v-1.49c.45.06.9.09,1.58.09h2.62v-.87h-1.7c-.75,0-1.06.02-1.5.04.04-.38.06-.69.06-1.14v-1.41c0-.45-.01-.78-.06-1.16.38.03.69.04,1.5.04h1.7v-.88h-2.33ZM183.29,21.77v1.21h1.67v-1.21h-1.67ZM185.75,29.27c0,.46.17.54,1.35.54,1.73,0,2.01-.03,2.22-.25.18-.2.27-.62.34-1.56.54.27.85.38,1.48.49-.18,1.28-.33,1.79-.64,2.12-.42.42-1.05.51-3.41.51-1.26,0-1.96-.07-2.38-.25-.36-.17-.5-.48-.5-1.11v-1.63c0-.57-.01-.82-.07-1.23h1.68c-.06.36-.08.63-.08,1.2v1.18ZM186.38,20.57h1.59v-.88h-1.59v.88ZM186.38,22.99h1.59v-1.21h-1.59v1.21ZM186.38,25.05h1.59v-.87h-1.59v.87ZM187.97,29.08c-.54-.87-.81-1.23-1.48-1.95l1.17-.63c.63.57,1.12,1.12,1.62,1.81l-1.31.77ZM189.39,22.99h1.77v-1.21h-1.77v1.21ZM192.62,30.77c-.69-1.63-1.08-2.29-1.95-3.38l1.21-.67c.88,1.05,1.3,1.71,2.07,3.21l-1.33.84Z"/>
        <path d="M204.36,19.46c0,.13-.06.18-.32.33-.1.06-.24.18-.38.34-.93,1.08-2.26,2.54-3.45,3.74-.25.25-.36.45-.36.63,0,.17.12.34.41.6.88.81,2.32,2.28,3.39,3.5.75.84.94,1.11.94,1.26,0,.17-.25.42-.87.9-.29.22-.47.33-.56.33-.13,0-.19-.06-.34-.3-.64-1.02-2.22-2.92-3.42-4.14-.67-.67-.81-.83-1.02-1.12-.25-.36-.36-.66-.36-1,0-.3.09-.62.27-.92q.17-.27,1.08-1.25c.87-.9,1.8-2.04,2.38-2.88.39-.56.58-.92.78-1.43,1.17.64,1.82,1.14,1.82,1.41Z"/>
        <path d="M212.19,22.1c-.39.09-.53.13-1.07.33-.19.08-.3.1-.39.1-.33,0-.63-.61-.9-1.9.96-.04,1.31-.09,2.97-.34,1.8-.27,4.08-.62,5.28-.76,1.35-.18,2.43-.36,3-.48.1-.03.15-.03.22-.03.2,0,.27.09.41.46.12.31.21.76.21.97,0,.18-.06.24-.27.24-.32,0-.6.03-.89.07-2.53.42-4.56,2.64-4.56,4.98,0,1.75,1.38,2.91,3.72,3.12.21.02.29.09.29.27,0,.38-.15,1.09-.29,1.42-.08.17-.19.24-.39.24s-.65-.09-1.11-.22c-2.55-.75-3.88-2.37-3.88-4.67,0-1.24.41-2.4,1.19-3.39.42-.54.78-.84,1.63-1.43-1.96.33-4.04.72-5.17,1.01Z"/>
        <path d="M228.2,22.73c-1.07-.21-1.88-.52-2.43-.91-.27-.18-.33-.26-.33-.39,0-.17.12-.46.54-1.3.73.46,1.56.79,2.5.99.21-1.05.3-1.92.31-2.9.77.14,1.44.36,1.82.57.17.09.22.18.21.3,0,.06-.03.12-.11.27-.22.46-.24.51-.55,1.98.15.02.34.02.46.02h.11c.36-.02.63-.02.76-.02h.04c.13,0,.18.06.18.25,0,.66-.04,1.2-.1,1.31-.04.07-.24.1-.87.1-.29,0-.51-.01-.93-.03q-.32,1.54-.45,2.36c.51.04.62.04.87.04l.84-.02c.15,0,.22.03.27.11.06.09.11.57.11,1.11,0,.27-.02.35-.11.39-.08.03-.4.04-.97.04-.27,0-.67-.02-1.2-.04-.01.27-.01.45-.01.57,0,1.38.64,2.01,2.05,2.01,1.58,0,2.52-.77,2.52-2.05,0-.47-.1-.89-.34-1.35-.3-.57-.58-.9-1.3-1.47h.13c.24,0,.75-.08,1.2-.17.24-.05.33-.06.41-.06.22,0,.38.1.67.48.69.84,1.04,1.72,1.04,2.66,0,2.11-1.71,3.51-4.31,3.51-2.43,0-3.64-1.21-3.64-3.68,0-.21,0-.38.03-.63-1.49-.32-2.29-1.05-2.29-2.12,0-.55.17-.96.58-1.38.04-.06.1-.07.17-.07.09,0,.19.07.54.36.27.23.31.27.31.35q0,.06-.09.2c-.06.1-.12.27-.12.36,0,.2.12.36.35.46.21.11.27.12.75.22l.39-2.43Z"/>
        <path d="M238.86,27.43c.27-.24.34-.3.45-.3.19,0,1.09.66,1.75,1.29.75.69,1.59,1.69,1.59,1.9,0,.13-.03.17-.46.55-.57.53-.69.62-.79.62-.09,0-.18-.06-.25-.21-.53-.93-1.73-2.16-2.79-2.85-.12-.09-.18-.15-.18-.24,0-.1.03-.15.69-.76Z"/>
        <path d="M253.67,21.71c1,.63,1.56,1.06,2.33,1.81l-1.02,1.19c-.79-.87-1.27-1.26-2.31-1.92l1-1.08ZM256.04,26.74c-.42,1.32-.69,2.05-1.25,3.31l-.55,1.18-1.37-1.14c.09-.09.18-.2.29-.39.55-.9,1.09-2.26,1.59-3.96l1.29.99ZM254.34,18.08c.9.63,1.5,1.12,2.21,1.88l-1.11,1.16c-.79-.92-1.35-1.43-2.18-1.98l1.08-1.05ZM263.91,19.24c1.06,0,1.53-.02,2.05-.09v1.54c-.39-.04-.86-.06-1.89-.06h-5.4c-.25.44-.38.62-.64,1.02h5.55c.69,0,1.12-.01,1.51-.04-.03.21-.04.35-.08.81-.01.39-.03.67-.04,1.51q-.01.47-.03.6c.72,0,.86-.02,1.28-.08v1.53c-.43-.06-.78-.08-1.2-.08h-.15c-.03.57-.09,1.37-.14,1.79.57,0,.78-.01,1.08-.07v1.51c-.34-.05-.61-.06-1.09-.06h-.17c-.29,1.77-.63,2.11-2.14,2.11-.24,0-.41-.01-1.29-.08-.02-.62-.09-.96-.32-1.47.57.09,1.05.14,1.47.14.53,0,.6-.08.77-.71h-4.88c-.11.46-.13.6-.27,1.12l-1.61-.15c.39-1.17.71-2.54.95-4.14h-.21c-.46,0-.74.02-1.12.08v-1.53c.39.06.71.08,1.35.08h.15c.1-.95.15-1.68.15-2.25-.25.31-.4.48-.87.94-.3-.48-.61-.83-1.08-1.17.91-.83,1.35-1.33,1.84-2.19.4-.7.72-1.48.81-2.05l1.65.3c-.06.16-.11.27-.15.36-.13.33-.15.36-.33.77h4.49ZM260.09,27.69c.1-.71.13-.88.22-1.79h-1.62c-.11.77-.14.96-.27,1.79h1.67ZM260.45,24.53q.03-.51.07-1.56h-1.56c-.04.77-.06.99-.12,1.56h1.61ZM263.27,27.69c.06-.57.12-1.11.17-1.79h-1.74c-.06.6-.13,1.19-.21,1.79h1.79ZM263.49,24.53q.03-.99.04-1.56h-1.62c-.03.54-.06,1.05-.11,1.56h1.68Z"/>
        <path d="M270.78,23.14c.69.56,1,.84,1.58,1.47.43-1.08.64-1.89.91-3.42h-2.1c-.64,1.65-1.53,3.08-2.76,4.44-.3-.63-.43-.82-.96-1.38,1.16-1.19,2.05-2.7,2.64-4.47.18-.57.38-1.46.41-1.88l1.67.29c-.11.26-.17.46-.27.83-.09.33-.12.46-.22.81h2.07c.52,0,.84-.01,1.17-.04-.06.32-.08.38-.14.98.39.84.63,1.21,1.41,2.08v-3.18c0-.74-.01-1.12-.09-1.67h1.75c-.08.55-.09.93-.09,1.67v4.66c.39.29.67.48,1.38.88,1.04.62,1.2.69,1.93.96-.31.45-.58.95-.84,1.57-1.17-.62-1.54-.85-2.47-1.53v3.12c0,.84.01,1.26.1,1.91h-1.78c.07-.6.1-1.12.1-1.91v-4.44c-.85-.86-1.25-1.3-1.74-2.08-.4,1.91-1.03,3.46-1.92,4.8-.88,1.3-2.13,2.55-3.6,3.6-.34-.55-.71-.97-1.15-1.3.75-.45,1.02-.64,1.71-1.28,1.05-.94,1.59-1.6,2.19-2.62-.53-.64-1.02-1.11-1.75-1.69l.87-1.17Z"/>
        <path d="M291.32,23.55h2.13c.68,0,1.1-.03,1.54-.09v1.63c-.48-.04-.93-.08-1.56-.08h-1.62c.86,1.5,2.1,2.75,3.58,3.59-.48.48-.69.78-.99,1.5-.61-.43-1.05-.85-1.62-1.5-.74-.86-1.05-1.32-1.53-2.22.03.54.04,1,.04,1.44v1.82c0,.67.03,1.2.09,1.67h-1.67c.06-.46.09-1,.09-1.68v-1.71c0-.4.02-.88.04-1.48-.91,1.65-1.93,2.76-3.39,3.73-.38-.71-.58-1-.9-1.36,1.54-.89,2.8-2.17,3.67-3.78h-.95c-.64,0-1.11.03-1.58.09v-.6c-.25.36-.43.69-.61,1.21-.38-.58-.6-1.05-.89-1.8.03.47.06,1.27.06,1.91v3.69c0,.77.03,1.32.09,1.77h-1.67c.06-.46.09-1.02.09-1.77v-3.1c0-.57.02-.93.11-1.86-.44,1.46-.87,2.43-1.52,3.41-.18-.67-.37-1.11-.67-1.6.72-.92,1.47-2.61,1.92-4.35h-.57c-.44,0-.69.01-.96.06v-1.53c.24.04.51.06.96.06h.72v-1.16c0-.76-.01-1.14-.08-1.5h1.65c-.06.39-.08.8-.08,1.5v1.16h.43c.36,0,.54-.02.78-.06v1.42c.57-1.02,1.05-2.52,1.09-3.5l1.46.38c-.06.17-.1.35-.21.79-.08.27-.1.41-.18.69h1.15v-.99c0-.61-.03-.99-.09-1.36h1.68c-.06.36-.09.76-.09,1.36v.99h1.7c.72,0,1.14-.03,1.54-.09v1.58c-.42-.04-.9-.08-1.54-.08h-1.7v1.82ZM288.18,21.74c-.25.62-.39.9-.81,1.61q-.36-.38-1.17-.95c.12-.16.17-.24.24-.34-.2-.03-.44-.04-.71-.04h-.38c.34.79.71,1.4,1.36,2.28v-.83c.45.06.87.09,1.56.09h1.53v-1.82h-1.63Z"/>
        <path d="M298.1,22.43c-.27.01-.43.03-.61.05-.14.01-.15.01-.17.01-.12,0-.18-.04-.23-.19-.08-.24-.18-1.04-.19-1.49.17.02.6.03,1.14.03.17,0,1.35-.08,1.88-.12.25-1.21.34-1.84.34-2.65,1.54.21,2.1.39,2.1.67,0,.1-.01.13-.24.48-.12.18-.17.35-.42,1.28.7-.12,1.12-.22,1.68-.41.1-.03.15-.04.22-.04.11,0,.13.08.23.51.07.38.12.69.12.85,0,.18-.04.21-.43.3-.51.12-1.38.27-2.31.39-.56,1.68-.93,2.58-1.62,3.99-.53,1.05-.83,1.6-1.23,2.24-.12.18-.19.24-.3.24-.15,0-.57-.22-1.09-.61-.24-.17-.3-.24-.3-.35s.06-.2.25-.46c.43-.54,1-1.47,1.5-2.46.42-.83.57-1.17,1-2.35-.58.04-.63.06-1.32.1ZM303.03,31.07c-1.64,0-2.75-.9-2.75-2.23s1.15-2.42,2.7-2.42c.36,0,.53.01,1.14.1-.06-.72-.06-1-.12-2.4,0-.29-.03-.67-.06-1.16.77.08,1.35.17,1.64.29.12.04.18.12.18.24,0,.07-.01.13-.03.24-.08.31-.09.54-.09.94,0,.56.04,1.5.09,2.24,1.07.48,1.5.72,2.25,1.3.33.25.45.39.45.51,0,.15-.08.29-.5.96-.18.3-.31.43-.42.43q-.09,0-.51-.39c-.33-.33-.71-.58-1.23-.9,0,1.39-1.02,2.23-2.74,2.23ZM303,27.86c-.72,0-1.21.34-1.21.87,0,.5.45.81,1.12.81.79,0,1.21-.41,1.21-1.2,0-.12,0-.24-.02-.24-.3-.15-.7-.24-1.11-.24ZM308.61,23.6c-.18.25-.27.33-.38.33-.08,0-.13-.03-.24-.13-.38-.36-.9-.75-1.46-1.09q-.36-.22-1.02-.53c-.21-.09-.29-.15-.29-.27,0-.11.08-.24.3-.59.36-.52.45-.61.58-.61.28,0,1.39.57,2.19,1.11.65.43.84.61.84.78,0,.12-.24.57-.54,1Z"/>
        <path d="M319.23,23.59c2.05,0,3.39,1.21,3.39,3.06s-1.12,3.01-3.37,3.74c-.81.25-2.15.49-2.75.49-.32,0-.39-.07-.6-.51-.16-.34-.34-.55-.79-.87,3.77-.3,5.62-1.26,5.62-2.9,0-.92-.64-1.46-1.72-1.46-1.37,0-2.78.71-3.93,1.95-.21.21-.41.46-.54.69-.13.23-.23.3-.36.3-.22,0-.75-.22-1.11-.5-.18-.14-.24-.24-.24-.48q0-.12.04-.48s0-.15.01-.31c.08-.96.12-1.37.3-2.72q.03-.17.14-.87s.04-.33.12-.88c.01-.13.03-.25.03-.49.72.1,1.4.27,1.68.43.12.06.18.14.17.23,0,.06-.03.1-.07.2-.17.25-.21.39-.35.96-.13.57-.34,1.89-.38,2.38,1.53-1.41,2.87-1.96,4.71-1.96ZM318.96,19.31c.58.35.76.51.76.68,0,.13-.24.58-.5.96-.24.35-.33.42-.45.42-.07,0-.12-.03-.3-.16-1-.77-1.8-1.2-2.92-1.59-.22-.09-.27-.12-.27-.24,0-.15.12-.41.39-.79.24-.36.34-.45.51-.45.36,0,1.83.63,2.78,1.18Z"/>
        <path d="M99.93,49.04c.01-.34.01-.55.01-1.11,0-.13,0-.54-.01-1.23-1.08.22-2.96.51-3.32.51-.15,0-.25-.07-.33-.25-.09-.23-.31-.62-.46-.84,0-.02-.12-.15-.36-.44,1.99-.02,3.93-.31,5.8-.9.85-.27,1.36-.51,2.07-.93.66.58,1.2,1.28,1.2,1.53,0,.14-.09.2-.29.23-.29.03-.46.08-.84.2-.78.25-.92.3-1.68.5.01.58.01.67.01,1.47v1.26c2.24-.03,3.88-.08,4.37-.12.06-.01.1-.01.15-.01.2,0,.24.15.24.79,0,.96-.01.99-.24.99-.03,0-.51-.03-.67-.04-.63-.04-1.51-.06-3.94-.06-.18,1.5-.62,2.76-1.31,3.81-.43.66-1.17,1.47-1.74,1.92-.09.06-.15.09-.23.09q-.13,0-.63-.3c-.3-.2-.67-.35-1.23-.54,1.09-.64,1.81-1.33,2.4-2.32.44-.75.78-1.72.9-2.62-2.79.03-3.93.07-4.63.2-.17.01-.23.03-.27.03-.13,0-.19-.04-.22-.15-.11-.34-.18-1-.21-1.72.64.08,1.6.11,3.54.11h.42l1.5-.02Z"/>
        <path d="M117.92,48.08c.15-.09.21-.11.32-.11.36,0,1.33.99,1.33,1.35,0,.11-.04.17-.15.26-.21.18-.29.25-.48.58-.39.65-.95,1.37-1.53,1.98-.24.25-.38.34-.5.34-.09,0-.18-.04-.29-.12-.4-.31-.61-.42-1.26-.64.84-.55,1.41-1.1,2.07-2.01q-1.95.46-3.12.76c.63,2.49.85,3.3,1.41,5.16.03.14.04.2.04.26,0,.13-.15.22-.55.33-.26.07-.77.16-.9.16-.18,0-.21-.06-.29-.49-.13-.79-.67-2.97-1.23-5.03-1.11.32-1.29.36-1.86.63-.17.07-.25.1-.33.1-.29,0-.62-.67-.87-1.73.75-.03,1.11-.09,2.67-.43-.31-1.17-.46-1.59-.82-2.25.81-.13,1.41-.19,1.8-.19.25,0,.36.07.36.24,0,.04,0,.07-.01.16-.03.09-.03.15-.03.22,0,.3.06.6.27,1.49,2.88-.64,3.58-.83,3.94-1.03Z"/>
        <path d="M135.12,48c.08.15.1.26.1.35,0,.15-.06.25-.25.53-.82,1.08-1.71,1.95-3.04,2.98-1.5,1.17-2.77,1.95-4.57,2.8-1.16.54-1.21.57-1.4.74-.12.12-.18.15-.27.15-.13,0-.25-.12-.48-.45-.3-.45-.58-1.07-.75-1.59,1.52-.35,3.33-1.16,5.08-2.27,2.31-1.46,3.76-2.89,4.89-4.86.17.55.3.86.69,1.62ZM125.13,45.48c.25-.29.36-.36.49-.36.29.01,1.41.73,2.34,1.48.57.46.75.66.75.81,0,.1-.27.51-.63.91-.33.38-.49.51-.61.51q-.11,0-.72-.58c-.39-.38-1.17-1.01-1.56-1.25q-.53-.34-.63-.41c-.06-.04-.09-.09-.09-.13,0-.13.29-.55.66-.99Z"/>
        <path d="M148.13,52.92c.96.87,1.54,1.5,1.54,1.67,0,.13-.2.38-.66.82-.34.33-.5.44-.6.44-.06,0-.13-.03-.22-.11q-.17-.2-.86-.97c-.83-.93-1.95-1.92-3.25-2.85-.99,1.03-2.33,2.16-3.41,2.89-.85.58-1.66,1.04-1.84,1.04-.15,0-.17-.02-.52-.42-.21-.24-.56-.54-.93-.81,1.73-.79,3-1.65,4.42-2.96,1.54-1.41,2.57-2.71,3.77-4.79q-5.07.03-5.9.12c-.18.01-.21.01-.24.01-.17,0-.25-.08-.29-.24-.08-.48-.11-.93-.11-1.72,1.02.13,2.61.19,4.79.19.88,0,1.81-.03,2.31-.09.2-.01.23-.03.54-.13.06-.03.09-.03.18-.03.25,0,.52.21.88.69.29.4.45.72.45.88,0,.18-.05.24-.44.6-.24.24-.34.36-.81,1.12-.45.75-1.14,1.7-1.71,2.38,1.17.78,1.96,1.38,2.89,2.25Z"/>
        <path d="M153.15,49.4c-.12.03-.18.06-.27.1-.08.04-.12.06-.18.06-.33,0-.57-.57-.75-1.68h.29c.63,0,2.24-.2,3.2-.39.31-1.3.48-2.31.48-3.01,0-.06,0-.15-.01-.25.64.06,1.26.2,1.68.38.24.09.36.21.36.36,0,.08-.02.14-.09.26q-.23.39-.69,2.04c.36-.04.76-.07,1.02-.07.62,0,1.1.12,1.44.36.6.44.9,1.32.9,2.69,0,2.23-.41,4.15-1.1,5.1-.48.66-1.11.97-2,.97-.54,0-1.05-.07-1.2-.16q-.12-.08-.17-.63c-.04-.4-.13-.76-.32-1.18.78.27.98.32,1.46.32.72,0,1.02-.35,1.35-1.56.23-.79.35-1.81.35-2.92,0-1.17-.29-1.59-1.08-1.59-.27,0-.71.04-1.05.09-.04.18-.06.19-.12.39-.42,1.54-1.19,3.55-1.95,5.18-.79,1.63-.99,1.96-1.18,1.96-.12,0-.53-.21-.96-.5-.35-.21-.44-.3-.44-.42q0-.07.62-1.05c.83-1.28,1.91-3.77,2.28-5.25-1.11.25-1.73.39-1.86.43ZM162.57,46.32c-.24.18-.41.26-.48.26-.04,0-.09-.03-.13-.11-.32-.51-.84-1.1-1.28-1.47-.03-.03-.04-.06-.04-.09,0-.06.11-.16.36-.36.25-.18.33-.22.43-.22.24,0,1.56,1.33,1.56,1.57,0,.09-.12.2-.42.42ZM160.98,47.91c0-.1.13-.24.57-.58.3-.23.45-.32.57-.32.2,0,.87.72,1.5,1.6.52.75,1.09,1.82,1.09,2.07,0,.15-.04.2-.52.58-.3.24-.65.43-.77.43-.1,0-.15-.04-.25-.3-.29-.72-.54-1.21-.95-1.86-.4-.64-.43-.67-1.15-1.45-.06-.08-.09-.12-.09-.18ZM162.95,43.31c.25,0,1.53,1.27,1.53,1.53,0,.07-.09.16-.39.38-.27.21-.41.29-.46.29q-.08,0-.38-.42c-.25-.35-.74-.86-1-1.08-.04-.04-.08-.08-.08-.12,0-.12.62-.57.78-.57Z"/>
        <path d="M170.4,47.16c-.69.04-1.33.06-1.91.06-.63,0-.67,0-.71-.09-.04-.09-.09-.72-.09-1.16v-.28c.71.03,1,.04,1.38.04s.95-.02,1.4-.03c.08-.87.09-1.17.09-1.47,0-.14,0-.23-.01-.44.72.02,1.27.06,1.71.17.12.03.18.09.18.19,0,.08-.02.14-.09.32-.12.29-.21.67-.27,1.14.96-.07,2.12-.22,2.58-.33.45-.1.76-.16.84-.16.32-.03.54-.09.63-.17.02-.01.03-.01.03-.01.03,0,.04.01.08.01.06,0,.1.06.13.17.03.22.08.75.08,1.08,0,.22-.04.29-.2.31-.88.18-2.71.4-4.29.54-.01.06-.01.09-.01.24-.03.29-.03.32-.04,1.07.66-.15,1.25-.23,1.98-.23.11-.48.12-.6.15-.95,1.16.24,1.72.45,1.72.63,0,.06-.01.11-.13.3-.04.06-.08.1-.11.21,1.94.45,3.17,1.88,3.17,3.72,0,1.63-.88,2.94-2.58,3.84-.63.33-1.51.63-1.84.63-.17,0-.29-.06-.38-.18-.31-.45-.51-.66-.99-1.06,1.56-.29,2.32-.6,3.07-1.21.69-.58,1.02-1.26,1.02-2.1,0-1.2-.71-2.1-1.91-2.45-.9,2.07-1.5,3.04-2.58,4.15.08.26.13.41.27.72.06.12.07.16.07.21,0,.15-.06.2-.4.38-.38.2-.81.35-.96.35-.13,0-.17-.04-.33-.51-.87.62-1.8.95-2.71.95-1.02,0-1.71-.83-1.71-2.03,0-1.88,1.37-3.71,3.63-4.83.01-.78.03-1.44.04-1.74ZM168.29,53.46c0,.38.23.6.6.6.51,0,1.18-.29,1.86-.78-.21-1.02-.3-1.71-.38-2.83-1.32.97-2.08,2.1-2.08,3.02ZM173.54,49.32c-.67.06-1.04.12-1.65.33.03,1.06.06,1.52.18,2.28.63-.8,1.05-1.54,1.47-2.61Z"/>
        <path d="M188.79,48.77c2.12,0,3.62,1.44,3.62,3.48,0,1.39-.74,2.65-1.96,3.39-.86.51-1.91.77-3.09.77-1.91,0-3.02-.77-3.02-2.07,0-1.18.99-2.02,2.4-2.02,1.27,0,2.19.64,2.8,1.96.76-.56,1.08-1.14,1.08-1.95,0-1.29-.92-2.13-2.36-2.13s-3.04.74-4.35,2.04c-.24.24-.46.5-.73.84-.11.15-.18.21-.27.21-.27,0-1.33-1.05-1.33-1.32,0-.13.06-.21.39-.45.34-.27.84-.7,1.47-1.3,1.46-1.38,2.52-2.54,4.09-4.46-1.88.24-3.13.45-3.6.62-.08.02-.12.03-.17.03-.12,0-.2-.08-.29-.3-.18-.45-.27-.95-.32-1.61.41.06.69.08,1.02.08.72,0,1.93-.11,3.51-.29.55-.06.73-.11,1.15-.27.14-.06.21-.08.3-.08.21,0,.42.18.81.78.29.39.38.58.38.71,0,.19-.04.25-.38.46-.27.17-.43.3-.78.63-.75.72-.76.72-1.69,1.67-.66.67-.74.75-1.33,1.35.97-.54,1.74-.77,2.64-.77ZM187.35,53.96c-.23-.15-.48-.22-.77-.22-.46,0-.76.22-.76.58,0,.43.46.71,1.18.71.33,0,.62-.03.99-.14-.18-.49-.33-.72-.64-.93Z"/>
        <path d="M202.17,44.48c.18.12.25.21.25.32s-.01.12-.24.38c-.08.09-.3.42-.54.82q-.75,1.25-1.16,1.96c-.42.71-.69,1.19-.84,1.41q-.04.08-.25.45c-.2.34-.32.52-.53.81.97-.85,1.5-1.08,2.49-1.08.66,0,1.25.29,1.62.78.31.42.4.81.54,2.28.07.88.15,1.28.25,1.5.1.21.31.33.58.33,1.03,0,2.26-1.25,2.86-2.88.15.63.27.93.58,1.49.11.18.14.3.14.45,0,.17-.08.38-.26.66-.78,1.26-2.05,2.01-3.42,2.01-.85,0-1.57-.3-1.95-.79-.3-.42-.44-.97-.56-2.45-.07-.96-.15-1.29-.36-1.53-.17-.18-.41-.27-.74-.27-.99,0-2.29,1.33-3.06,3.1-.22.51-.38.97-.54,1.54-.06.22-.13.32-.24.32-.31,0-1.04-.3-1.42-.59-.1-.09-.15-.15-.15-.24,0-.07.03-.15.22-.57.12-.27.17-.34.27-.62q1.11-2.59,4.19-8.82c.34-.69.51-1.12.61-1.58.78.29,1.14.47,1.62.79Z"/>
        <path d="M210.59,48.5h-.09c-.08.01-.13.01-.17.01-.13,0-.21-.06-.25-.25-.09-.38-.15-.83-.18-1.41.21.02.38.02.48.02.81,0,1.75-.06,2.55-.17.15-.99.23-1.74.23-2.37v-.35c1.74.24,2.07.33,2.05.6,0,.08-.03.12-.09.26-.18.34-.2.39-.44,1.57.58-.1,1.33-.3,1.64-.4.06-.03.07-.03.12-.03.13,0,.16.06.28.58.06.3.12.72.12.84,0,.11-.04.17-.18.2q-.27.09-2.33.45c-.69,3.06-1.41,5.29-2.56,8-.08.19-.15.27-.24.27-.2,0-.72-.21-1.23-.5-.26-.14-.33-.2-.33-.29,0-.06.04-.17.12-.32,1.14-2.16,1.97-4.46,2.54-6.91-.66.07-1.12.12-2.04.2ZM216.99,54.2c.43.29,1.06.42,1.95.42.97,0,1.81-.09,2.29-.24.12-.03.15-.04.21-.04.13,0,.19.04.24.18.11.32.18.93.18,1.4,0,.19-.06.27-.26.32-.49.1-1.33.16-2.22.16-1.88,0-2.92-.3-3.61-1.02-.25-.27-.46-.6-.58-.97-.09-.22-.15-.48-.15-.57,0-.25.45-.53,1.23-.78.17.63.34.91.72,1.15ZM221.21,49.83c-.3-.04-.93-.07-1.46-.07-1.11,0-1.58.04-2.89.27-.03.02-.08.02-.11.02-.09,0-.13-.03-.17-.12-.04-.1-.1-.84-.1-1.15,0-.2.03-.29.15-.33.06-.03.15-.04.46-.11,1.02-.18,1.88-.25,2.92-.25.87,0,1.32.03,1.43.1.07.06.09.18.09.67,0,.44-.03.83-.06.92-.01.04-.08.08-.15.08-.03,0-.08,0-.12-.02ZM219.56,44.55c.2,0,1.47,1.42,1.47,1.65,0,.06-.1.19-.22.29-.06.04-.15.12-.25.21-.13.12-.18.15-.33.21t-.08.03c-.06,0-.06-.02-.34-.45-.25-.39-.74-.99-.99-1.22-.03-.03-.07-.09-.07-.1.03-.06.04-.09.04-.09.07-.09.33-.3.39-.35.15-.07.24-.13.25-.15.01-.03.03-.03.04-.03h.09ZM222.09,45.6c-.21.15-.36.24-.43.24-.06,0-.09-.03-.17-.15-.33-.54-.65-.93-1.14-1.43-.04-.04-.06-.07-.06-.12,0-.14.57-.56.76-.56.11,0,.29.15.62.5.48.49.83.95.83,1.09,0,.09-.11.19-.41.42Z"/>
        <path d="M226.8,48.09c-1.06.18-1.3.22-1.56.3-.15.04-.27.06-.36.06-.27,0-.4-.48-.46-1.65.87,0,1.35-.04,2.42-.24,0-.48.01-1.04.01-1.23,0-.58-.03-1.09-.09-1.47,1.58.07,2.04.18,2.04.46q0,.07-.13.39t-.2,1.62c.48.38.74.67.72.87,0,.04-.03.08-.09.14-.22.19-.25.22-.52.61q-.06.08-.15.2l-.06.09c0,.23,0,.26-.02.54.45-.51.87-.93,1.28-1.26,1.32-1.08,2.31-1.53,3.39-1.53s1.77.44,2.29,1.34c.45.78.69,1.88.69,3.16,0,.78-.06,1.38-.23,2.51.72.51,1.5,1.3,1.5,1.51,0,.24-.84,1.08-1.09,1.08-.1,0-.12-.01-.32-.31-.12-.17-.28-.36-.61-.72-.21.39-.33.56-.54.75-.55.51-1.3.78-2.19.78-1.56,0-2.56-.79-2.56-2,0-1.27,1.04-2.23,2.4-2.23.78,0,1.35.11,1.86.33.06-.55.08-.83.08-1.3,0-2.37-.45-3.3-1.59-3.3-.81,0-1.89.57-3.03,1.59-.41.38-.72.69-1.37,1.4v.87c0,1.99.04,4,.11,4.53v.06c0,.27-.21.34-.93.34-.66,0-.79-.06-.79-.34v-.12c.03-.43.04-.96.04-1.62q0-.99.01-2.17s-.03.04-.06.08c-.33.4-.87,1.14-1.22,1.63-.17.24-.25.31-.36.31-.15,0-.42-.27-.88-.87-.18-.22-.29-.42-.29-.5s.08-.17.45-.5c.27-.25,1.29-1.5,1.81-2.19.27-.38.46-.65.58-.84v-1.16ZM232.55,53.24c-.69,0-1.11.29-1.11.75s.32.69.89.69c.5,0,.9-.15,1.17-.45.13-.14.34-.51.34-.57h0c-.51-.33-.81-.42-1.29-.42Z"/>
        <path d="M246.26,55.23c0,.66-.52,1.18-1.18,1.18s-1.19-.52-1.19-1.18.53-1.19,1.19-1.19,1.18.53,1.18,1.19ZM245.73,53.01h-1.33l-.41-8.98h2.16l-.42,8.98Z"/>
      </g>
      <circle class="cls-11" cx="30.25" cy="60.58" r="30"/>
      <g>
        <path class="cls-7" d="M39.81,50.88c5.99-4.82,10.66-4.4,11.63-2.77.89,1.5-.2,9.39-9.12,4.98"/>
        <path class="cls-4" d="M44.05,53.46c2.15-3.7,6.52-2.97,7.65-2.44-1.95,3.62-3.96,4.96-7.65,2.44Z"/>
        <path class="cls-1" d="M47.05,55.03c-1.31,0-2.95-.38-4.99-1.39-.3-.15-.43-.52-.28-.82.15-.3.52-.42.82-.28,3.32,1.64,5.84,1.68,7.3.12,1.3-1.4,1.35-3.69,1.02-4.24-.21-.35-.72-.62-1.4-.75-.91-.17-4.28-.39-9.33,3.68-.26.21-.65.17-.86-.09-.21-.26-.17-.65.09-.86,3.68-2.96,7.54-4.43,10.31-3.93,1.04.19,1.83.66,2.23,1.32.64,1.09.43,3.95-1.18,5.69-.75.81-1.93,1.54-3.74,1.54Z"/>
        <path class="cls-7" d="M45.3,65.11c1.64-16.83-17.12-22.81-25.65-13.47-2.98,3.26-5.19,9.03-4.06,15.78-3.29,3.25-2.73,7.92,2.42,10.47,3.1,1.53,6.2,2.2,13.34,2.2,6.63,0,14.3-2.8,16.45-6.94,1.2-2.31.78-5.73-2.5-8.03Z"/>
        <path class="cls-2" d="M35.07,47.47c-.6-4.19-4.15-6.53-4.34-.47"/>
        <path class="cls-2" d="M23.38,48.54c-.51-4.21,2.31-7.38,4.07-1.58"/>
        <path class="cls-7" d="M18.92,51.6c-6.66-3.83-11.22-2.69-11.92-.92-.65,1.62,2.36,9.82,10.47,4.08"/>
        <path class="cls-4" d="M15.65,55.41c-2.15-3.7-7.04-2.78-8.16-2.25,1.95,3.62,4.48,4.77,8.16,2.25Z"/>
        <path class="cls-4" d="M28.48,46.99c1.23,7.47-2.33,14.46-12.54,14.46,0-11.43,12.54-14.46,12.54-14.46Z"/>
        <path class="cls-4" d="M30.73,47c0,8.41,6.81,12.73,13.85,13.26,0-11.43-13.85-13.26-13.85-13.26Z"/>
        <path class="cls-4" d="M14.5,73.88c13.82-6.39,25.47-3.61,33.3-.74-3.13,7.58-29.27,10.16-33.3.74Z"/>
        <path class="cls-1" d="M31.34,80.69c-7.6,0-10.65-.79-13.61-2.26-2.69-1.33-4.37-3.31-4.74-5.59-.32-1.98.37-3.97,1.94-5.63-1.1-7.14,1.47-12.92,4.26-15.98,4.25-4.65,11.26-5.93,17.43-3.18,3.01,1.34,5.47,3.51,7.11,6.28,1.79,3.02,2.53,6.55,2.2,10.5,3.38,2.57,3.64,6.23,2.4,8.6-2.36,4.55-10.5,7.26-17,7.26ZM29.97,47.83c-3.76,0-7.35,1.46-9.87,4.22-2.64,2.89-5.06,8.42-3.91,15.27.03.2-.03.39-.17.53-1.44,1.42-2.08,3.13-1.81,4.8.3,1.88,1.75,3.55,4.07,4.69,2.8,1.38,5.72,2.13,13.07,2.13,6.88,0,14.02-2.96,15.91-6.61,1.03-1.99.75-5.1-2.31-7.25-.18-.13-.28-.34-.26-.56.71-7.25-2.5-13.19-8.57-15.9-2.01-.89-4.11-1.33-6.16-1.33Z"/>
        <path class="cls-1" d="M12.27,57.39c-1.46,0-2.58-.54-3.4-1.18-2.09-1.64-2.9-4.58-2.44-5.76.29-.72.99-1.31,1.99-1.65,2.66-.93,6.7-.08,10.8,2.27.29.17.39.54.23.83-.17.29-.54.39-.83.23-5.62-3.23-8.91-2.49-9.79-2.18-.65.23-1.11.57-1.26.95-.21.53.31,2.97,2.06,4.35,1.89,1.49,4.48,1.14,7.5-.99.27-.19.65-.13.85.15.19.27.13.66-.15.85-2.23,1.58-4.07,2.14-5.56,2.14Z"/>
        <path class="cls-1" d="M35.07,48.08c-.3,0-.56-.22-.6-.52-.32-2.23-1.49-3.66-2.13-3.63-.31.02-.93.69-1,3.09-.01.34-.3.6-.63.59-.34-.01-.6-.29-.59-.63.11-3.62,1.4-4.23,2.15-4.27.03,0,.06,0,.09,0,1.46,0,2.94,2.06,3.31,4.67.05.33-.18.64-.52.69-.03,0-.06,0-.09,0Z"/>
        <path class="cls-1" d="M23.38,49.15c-.3,0-.57-.23-.6-.54-.32-2.67.61-5.08,2.07-5.39.74-.15,2.14.1,3.19,3.56.1.32-.08.66-.41.76-.32.1-.66-.08-.76-.41-.7-2.3-1.46-2.79-1.77-2.72-.62.13-1.38,1.81-1.11,4.05.04.33-.2.64-.53.68-.02,0-.05,0-.07,0Z"/>
        <path class="cls-1" d="M36.31,58.99c-.65-1.09-1.64-1.26-2.42-.7-.18.13-.11.42.12.44.71.07,1.33.3,1.99.61.22.1.44-.14.31-.35Z"/>
        <path class="cls-1" d="M25.35,59.19c.65-1.09,1.64-1.26,2.42-.7.18.13.11.42-.12.44-.71.07-1.33.3-1.99.61-.22.1-.44-.14-.31-.35Z"/>
        <circle class="cls-1" cx="32.19" cy="73" r=".57"/>
        <circle class="cls-1" cx="30.41" cy="73" r=".57"/>
        <path class="cls-1" d="M31.07,77.33c-.21,0-.41-.01-.6-.04-1.65-.22-2.98-1.29-3.43-2.66l-.43.02c-.33.01-.63-.25-.64-.59-.01-.34.25-.63.59-.64l.94-.04c.31,0,.59.22.63.53.16,1.1,1.18,1.99,2.5,2.16,1.47.2,2.73-.55,3.36-2,.12-.27.4-.42.69-.36l.78.16c.33.07.55.4.48.73s-.4.55-.73.48l-.31-.06c-.93,1.71-2.48,2.32-3.84,2.32Z"/>
        <path class="cls-1" d="M33.73,68.52c-.11,0-.22-.03-.32-.11-.24-.18-.29-.52-.11-.75.44-.59,1.04-.92,1.7-.93.69,0,1.35.32,1.82.92.19.23.15.57-.09.76-.23.19-.57.15-.76-.08-.26-.33-.61-.51-.95-.51,0,0-.01,0-.02,0-.32,0-.62.18-.85.5-.11.14-.27.22-.43.22Z"/>
        <path class="cls-1" d="M28.53,68.52c-.16,0-.33-.08-.43-.22-.24-.32-.53-.49-.85-.5,0,0-.01,0-.02,0-.34,0-.68.19-.95.51-.19.23-.53.27-.76.08-.23-.19-.27-.53-.09-.76.48-.6,1.14-.94,1.82-.92.66.01,1.26.34,1.7.93.18.24.13.58-.11.75-.1.07-.21.11-.32.11Z"/>
      </g>
      <g>
        <path class="cls-1" d="M323.48,179.73c1.81.14,1.23,2.13.34,3.29-.19.24-.54.27-.77.08-1.57-1.34-1.02-3.48.43-3.36Z"/>
        <path class="cls-1" d="M323.38,180.52c-.31,0-.57-.25-.57-.57v-3.57l-.9-1.25c-.18-.25-.12-.61.13-.79.25-.18.61-.12.79.13l1,1.4c.07.1.11.21.11.33v3.75c0,.31-.25.57-.57.57Z"/>
        <polygon class="cls-5" points="320.54 170.79 314.41 170.22 317.14 175.73 323.38 176.39 320.54 170.79"/>
        <rect class="cls-5" x="313.83" y="173.9" width="6.67" height="2.9" transform="translate(177.84 -159.21) rotate(38.45)"/>
        <path class="cls-1" d="M318.9,179.58c-.12,0-.25-.04-.35-.12-.25-.19-.29-.55-.09-.8l2.25-2.85c.12-.15.31-.23.51-.21l1.19.13-2.23-4.39-4.8-.45.7,1.41c.1.19.07.42-.06.59l-1.81,2.4c-.19.25-.54.3-.79.11-.25-.19-.3-.54-.11-.79l1.6-2.12-.99-2.01c-.09-.18-.08-.4.04-.57.12-.17.31-.27.52-.24l6.12.57c.19.02.37.13.45.31l2.84,5.6c.09.19.08.41-.04.58-.12.17-.32.26-.53.24l-1.92-.2-2.06,2.61c-.11.14-.28.22-.45.22Z"/>
        <path class="cls-6" d="M314.86,202.53l4.18-1.62,2.02-5.47-.29-8.15-2.24-7.54-3.74-4.67-5.59-1.9-5.52-.3-7.14,3.84-3.23,5.74-3.98,4.71-1.8,4.98,1.36,4.52,9.81,4.92c2.84,1.15,12.97,1.45,16.17.94Z"/>
        <path class="cls-12" d="M287.95,188.88c4.88.32,7.71,5.48,5.9,11.02-4.77-2.59-7.43-5.23-5.9-11.02Z"/>
        <path class="cls-12" d="M321.13,192.64c-5.64-.78-9.96,4.07-9.08,10.38,5.99-1.67,9.58-3.87,9.08-10.38Z"/>
        <path class="cls-1" d="M299.43,181.78c1.6-.65,3.04-.03,3.72,1.21.16.29-.14.55-.45.39-1.01-.51-1.99-.76-3.07-.96-.36-.07-.49-.51-.19-.64Z"/>
        <path class="cls-1" d="M312.14,184.21c-1.18-1.26-2.75-1.29-3.88-.44-.27.2-.1.55.25.54,1.13-.04,2.13.14,3.2.4.36.09.66-.26.44-.5Z"/>
        <path class="cls-1" d="M308.14,193.26c-.14,0-.27-.05-.39-.14-.25-.21-.29-.59-.07-.85.68-.81,1.51-1.23,2.34-1.19.75.04,1.43.46,1.93,1.18.19.27.12.65-.15.84-.27.19-.65.12-.84-.15-.2-.29-.53-.64-1-.66-.44-.02-.92.25-1.36.77-.12.14-.29.21-.46.21Z"/>
        <path class="cls-1" d="M300.69,191.99c-.19,0-.37-.09-.49-.25-.37-.52-.72-.8-1-.81,0,0,0,0-.02,0-.33,0-.68.34-.92.64-.21.26-.59.29-.85.08-.26-.21-.29-.59-.08-.85.6-.74,1.23-1.1,1.9-1.08.7.02,1.33.45,1.94,1.31.19.27.13.65-.14.84-.11.08-.23.11-.35.11Z"/>
        <path class="cls-1" d="M310.91,203.58c-.31,0-.56-.25-.57-.56,0-.31.24-.57.56-.58,3.72-.08,6.39-.95,7.93-2.58,1.98-2.1,1.87-5.19,1.79-7.45l-.02-.46c-.13-4.27-1.4-18.26-12.21-18.99-9.16-.62-12.59,5.21-14.85,9.07-.46.78-.86,1.46-1.24,1.98-.11.15-.23.31-.37.48-1.58,2.06-4.51,5.88-3.4,9.55.8,2.64,3.61,4.79,8.34,6.41,1.43.49,2.87.87,4.3,1.14.31.06.51.35.45.66s-.36.51-.66.45c-1.48-.28-2.97-.67-4.45-1.18-5.1-1.74-8.15-4.15-9.07-7.16-1.28-4.23,2.01-8.51,3.59-10.57.13-.17.25-.33.36-.47.35-.47.73-1.12,1.17-1.87,2.26-3.85,6.04-10.29,15.91-9.63,5.1.34,8.83,3.35,11.1,8.93,1.72,4.24,2.1,8.81,2.17,11.16l.02.46c.09,2.46.21,5.83-2.1,8.27-1.78,1.89-4.64,2.85-8.73,2.94,0,0,0,0-.01,0Z"/>
        <path class="cls-1" d="M299.03,190.69c-.06,0-.12-.02-.18-.06-.75-.6-1.14-1.21-1.43-2.27-.04-.15.05-.31.2-.35.15-.04.31.05.35.2.29,1.07.66,1.52,1.23,1.97.12.1.14.28.05.4-.06.07-.14.11-.22.11Z"/>
        <path class="cls-1" d="M311.02,192.22c-.14,0-.26-.1-.28-.25-.02-.16.09-.3.24-.32.67-.09,1.43-.66,1.87-1.39.08-.13.25-.18.39-.1.13.08.18.25.1.39-.52.88-1.44,1.55-2.28,1.67-.01,0-.03,0-.04,0Z"/>
        <path class="cls-1" d="M312.36,192.76c-.37,0-.75-.07-1.12-.24-.14-.07-.21-.23-.14-.38.07-.14.23-.2.38-.14.86.39,1.83.09,2.49-.24.14-.07.31-.01.38.13.07.14.01.31-.13.38-.5.25-1.16.48-1.86.48Z"/>
        <path class="cls-1" d="M298.16,190.69c-.8,0-1.66-.46-2.34-1.26-.1-.12-.09-.3.03-.4.12-.1.3-.09.4.03.62.73,1.4,1.13,2.07,1.05.16-.02.3.09.31.25.02.16-.09.3-.25.31-.07,0-.15.01-.22.01Z"/>
        <g>
          <path class="cls-3" d="M308.33,196.42c-.67-1.83-3.64-3.8-5.16-3.59-1.51.21-4.7,2.06-5.7,2-.99-.06-1.68-.73-1.8,1.59s1.7,3.51,4.13,2.66c3.37,1.92,9.68.49,8.53-2.66Z"/>
          <path class="cls-3" d="M308.33,198.79c-.75,3.68-4.93,5.84-6.2,5.3-1.26-.54-2.85-1.42-1.47-4.62,2.5.53,6.91-.12,7.03-1.63s.63.96.63.96Z"/>
          <path class="cls-10" d="M301.91,199.79c-.73,1.35-.38,3.07,1.83,1.99,2.21-1.08,2.21-2.29,2.21-2.29,0,0,1.45-.73-.48,0-1.94.73-3.55.3-3.55.3Z"/>
          <path class="cls-1" d="M303.41,200.51c-1.06,0-2.19-.33-3.37-.99-2.29.66-3.56.04-4.23-.6-.84-.81-1.16-2.1-.83-3.37.34-1.28.9-1.38,1.8-1.41.65-.02,1.63-.04,3.22-.88,3.52-1.85,5.58-.79,7.59,1.38.19.2.18.52-.03.7-.2.19-.52.18-.7-.03-1.79-1.93-3.42-2.74-6.4-1.17-1.8.95-2.92.97-3.66.99-.69.02-.69.03-.86.67-.24.91-.02,1.85.55,2.4.71.68,1.91.79,3.46.3.13-.04.28-.02.4.05,1.93,1.13,4.69,1.81,6.88-1.38.13-.19.38-.27.6-.18,0,0,.72.29,1.36.43.27.06.44.32.38.59-.06.27-.33.44-.59.38-.42-.09-.85-.24-1.15-.34-1.22,1.63-2.73,2.45-4.41,2.45Z"/>
          <path class="cls-1" d="M302.71,204.65c-.6,0-1.18-.14-1.7-.42-.85-.46-1.39-1.1-1.6-1.92-.43-1.62.6-3.29.65-3.36.15-.23.45-.3.68-.16.23.15.3.45.16.68,0,.01-.85,1.39-.53,2.59.15.55.51.97,1.11,1.3.86.46,1.92.39,3-.19,1.51-.82,3.14-2.8,3.35-5.36.02-.27.26-.48.54-.45.27.02.48.26.45.54-.21,2.58-1.73,4.99-3.86,6.15-.76.41-1.52.62-2.25.62Z"/>
        </g>
      </g>
    </g>
  </g>
</svg>