<?xml version="1.0" encoding="UTF-8"?>
<svg id="_レイヤー_2" data-name="レイヤー 2" xmlns="http://www.w3.org/2000/svg" width="340.4" height="263.31" viewBox="0 0 340.4 263.31">
  <defs>
    <style>
      .cls-1 {
        fill: #211815;
      }

      .cls-2 {
        fill: #f5f19b;
      }

      .cls-3 {
        fill: #e0a99c;
      }

      .cls-4 {
        fill: #ecbb6e;
      }

      .cls-5 {
        fill: #93c9ce;
      }

      .cls-6 {
        fill: #5c948d;
      }

      .cls-7 {
        fill: #fffba1;
      }

      .cls-8, .cls-9 {
        fill: #fff;
      }

      .cls-10 {
        fill: #d3f2c9;
      }

      .cls-11 {
        fill: #de8a4c;
      }

      .cls-12 {
        fill: #ceeaeb;
      }

      .cls-13 {
        fill: #f2d496;
      }

      .cls-9 {
        stroke: #ceeaeb;
        stroke-miterlimit: 10;
        stroke-width: 2.83px;
      }
    </style>
  </defs>
  <g id="_レイヤー_1-2" data-name="レイヤー 1">
    <g>
      <path class="cls-9" d="M328.35,1.42H88.98c-4.68,0-8.47,3.79-8.47,8.47v66.5s-9.69,9.69-9.69,9.69h9.69s0,.5,0,.5c0,4.68,3.79,8.47,8.47,8.47h239.38c4.68,0,8.47-3.79,8.47-8.47V9.89c0-4.68-3.79-8.47-8.47-8.47Z"/>
      <g>
        <path d="M100.76,26.84c1.23,0,2.59-.18,3.94-.52.08-.03.12-.03.17-.03.09,0,.13.06.17.2.04.33.08.81.08,1.3,0,.3-.03.39-.17.45-.45.24-2.47.46-4.21.46-2.26,0-3.55-.38-4.59-1.35-.5-.46-.99-1.27-.99-1.6,0-.22.13-.31,1.37-1.02.54,1.48,1.79,2.11,4.25,2.11ZM100.9,18.22c.87,0,1.38-.03,2.4-.18h.11c.12,0,.17.04.2.13.03.18.06.63.06,1.17,0,.35-.03.47-.12.53-.12.07-1.42.17-2.43.17-1.33,0-2.45-.1-3.69-.35-.85-.17-.9-.21-.9-.73,0-.35.03-.92.08-1.33,1.3.4,2.73.6,4.3.6Z"/>
        <path d="M113.93,26.12c-.72,1.25-1.71,1.94-2.73,1.94-1.56,0-2.67-1.53-2.67-3.66,0-2.37,1.2-4.41,3.25-5.49,1-.54,2.08-.78,3.51-.78,3.14,0,5.46,2.22,5.46,5.19,0,2.62-1.29,4.51-3.78,5.58-.5.21-.89.33-1.08.33-.18,0-.25-.06-.45-.34-.25-.39-.54-.68-.95-.95,3.09-.79,4.49-2.25,4.49-4.68,0-1.25-.53-2.29-1.46-2.96-.53-.36-.95-.51-1.77-.64-.42,3.16-.92,4.89-1.83,6.46ZM111.77,20.81c-1,.88-1.58,2.15-1.58,3.55,0,1.16.38,1.83,1,1.83.75,0,1.52-1.04,2.08-2.82.36-1.12.54-1.98.77-3.65-1.07.23-1.59.48-2.28,1.08Z"/>
        <path d="M126.4,18.32c-.34-.6-.57-.9-1.16-1.58l1.56-.45c.72.94.93,1.26,1.33,2.02h1.95c.54-.65.9-1.22,1.26-2.01l1.63.44c-.39.62-.79,1.15-1.16,1.58h2.22c.69,0,1.12-.03,1.53-.09v1.54c-.45-.06-.79-.07-1.53-.07h-9.78c-.72,0-1.08.01-1.54.07v-1.54c.55.08.81.09,1.54.09h2.13ZM125.02,28.15c0,.74.01,1.12.08,1.54h-1.65c.06-.48.08-.91.08-1.65v-6.19c0-.71-.01-.92-.04-1.29.41.03.76.04,1.35.04h2.79c.75,0,.99-.02,1.29-.04-.03.33-.04.67-.04,1.44v6.18c0,1.12-.33,1.4-1.65,1.4-.21,0-.38,0-.9-.03-.11-.65-.15-.84-.36-1.41.46.07.75.1,1.02.1.33,0,.4-.06.4-.33v-1.23h-2.35v1.47ZM127.37,22.96v-.99h-2.35v.99h2.35ZM127.37,25.33v-1.02h-2.35v1.02h2.35ZM131.8,20.8c-.04.42-.06.65-.06,1.38v3.08c0,.9.01,1.14.06,1.54h-1.63c.04-.42.06-.68.06-1.54v-3.09c0-.68-.02-.93-.06-1.37h1.63ZM134.87,20.41c-.06.41-.08.83-.08,1.53v6.06c0,1.31-.39,1.64-1.95,1.64-.34,0-.64-.02-1.54-.06-.1-.6-.19-.93-.45-1.53.78.1,1.32.15,1.75.15.58,0,.66-.06.66-.45v-5.85c0-.81-.02-1.06-.08-1.49h1.68Z"/>
        <path d="M137.39,25.94c.27-.24.34-.3.45-.3.19,0,1.09.66,1.75,1.29.75.69,1.59,1.69,1.59,1.9,0,.14-.03.17-.46.56-.57.52-.69.61-.79.61-.09,0-.18-.06-.25-.21-.53-.93-1.73-2.16-2.79-2.85-.12-.09-.18-.15-.18-.24,0-.1.03-.15.69-.76Z"/>
        <path d="M161.17,18.76c.63,0,1.02-.01,1.44-.06-.08.36-.12.63-.2,1.06-.04.34-.2,1.09-.3,1.5.46,0,.76-.01,1.12-.04q-.08.33-.15.81c-.06.42-.21,1.1-.34,1.63h.46c.46,0,.78-.01,1.18-.06-.01.21-.01.25-.06.72-.13,2.19-.38,3.67-.69,4.41-.33.8-.87,1.05-2.17,1.05-.39,0-.71-.02-1.23-.06-.04-.6-.15-1-.39-1.5.68.09,1.02.12,1.46.12.63,0,.78-.04.92-.31.2-.38.41-1.67.5-3.03h-8.31c-1.16,1.1-1.29,1.22-2.17,1.83-.22-.52-.44-.84-.95-1.38,1.37-.84,2.27-1.59,3.13-2.64.68-.83,1.23-1.7,1.71-2.72h-2.42c-.61,0-1.11.03-1.59.09v-1.52c.42.06.86.09,1.5.09h.96c-.38-.61-.69-1.02-1.32-1.63l1.29-.69c.51.5.9.98,1.38,1.71l-1.08.61h1.83c.31-.88.51-1.72.55-2.29l1.71.24c-.11.24-.13.33-.3.87-.02.04-.14.45-.39,1.18h2.91ZM155.47,25.93c-.53,1.77-.81,2.48-1.52,3.71l-1.39-.89c.76-1.06,1.14-1.88,1.51-3.28l1.4.46ZM161.23,23.66c.07-.27.16-.7.22-1.11h-5.04c-.3.44-.42.58-.83,1.11h5.64ZM157.09,25.61c.25,1.12.36,1.9.46,3.36l-1.44.23c0-1.43-.06-2.15-.27-3.45l1.24-.13ZM157.73,20.09c-.24.51-.32.66-.57,1.17h3.43c.12-.43.15-.58.24-1.17h-3.1ZM159.16,25.4c.48,1.25.62,1.71.83,2.67l-1.33.44c-.14-1.01-.32-1.79-.67-2.82l1.18-.29ZM161.03,25.13c.5.72.72,1.11,1.06,1.92l-1.12.54c-.27-.79-.52-1.33-.97-2.01l1.04-.45Z"/>
        <path d="M176.47,20.9c.81.98,1.68,1.58,2.78,1.94-.36.48-.56.88-.74,1.44-.6-.33-.92-.52-1.33-.84-.04.45-.06.88-.06,1.51v3.15c0,.78.01,1.21.09,1.62h-1.59v-.6h-6.15v.6h-1.59c.06-.44.09-.9.09-1.62v-3.15c0-.54-.01-.93-.04-1.42-.52.5-.72.63-1.29,1.02-.22-.58-.43-.96-.79-1.38,1.2-.65,1.92-1.32,2.39-2.27h-.75c-.66,0-1.05.02-1.44.08v-1.44c.39.04.78.06,1.47.06h1.12c.08-.38.09-.52.12-.84h-1.05c-.66,0-.9.02-1.25.06v-1.42c.3.04.75.08,1.32.08h1.06v-.35c0-.33-.01-.45-.04-.66h1.59c-.03.14-.04.47-.08,1.01h.56c.57,0,1-.03,1.29-.08v1.42c-.29-.04-.67-.06-1.21-.06h-.74q-.06.56-.11.84h.78c.51,0,.93-.02,1.29-.06v1.42c-.31-.04-.62-.06-1.23-.06h-.6c.53.62,1.12,1.06,1.88,1.42-.41.42-.55.62-.83,1.1h1.58c-.25-.36-.45-.57-.78-.84.98-.56,1.47-.99,1.91-1.68h-.29c-.61,0-.93.02-1.25.06v-1.42c.36.04.79.06,1.32.06h.67c.06-.31.09-.48.13-.84h-.75c-.54,0-.94.02-1.23.06v-1.42c.29.04.83.08,1.35.08h.71c-.01-.75-.01-.78-.06-1.02h1.6c-.03.17-.06.51-.09,1.02h1.11c.52,0,.94-.03,1.3-.08v1.42c-.29-.04-.57-.06-1.21-.06h-1.29c-.04.32-.08.53-.13.84h1.65c.71,0,.98-.02,1.35-.06v1.44c-.39-.06-.81-.08-1.43-.08h-1.09ZM171.2,23.42c-.81-.52-1.29-.99-1.81-1.73-.35.62-.72,1.1-1.32,1.7.34.01.75.03,1.35.03h1.79ZM169.46,25.58h6.15v-.87h-6.15v.87ZM169.46,27.76h6.15v-.93h-6.15v.93ZM175.66,23.42c.66,0,1.02-.02,1.44-.04-.79-.63-1.33-1.21-1.78-1.92-.48.84-.9,1.33-1.71,1.96h2.05Z"/>
        <path d="M190.06,18.83c2.03,0,3.3,1.21,3.3,3.17s-1.41,3.09-3.75,3.09c-.51,0-1.04-.06-1.23-.14-.12-.04-.18-.12-.21-.25-.1-.5-.3-.98-.66-1.57.93.22,1.5.31,2.13.31,1.21,0,1.94-.56,1.94-1.52,0-.38-.11-.75-.25-.96-.27-.38-.86-.61-1.53-.61-.86,0-2.04.38-4.51,1.44q.94,2.35,1.47,3.79c.63,1.7,1.16,3.23,1.16,3.36,0,.12-.09.2-.39.33-.43.2-.99.38-1.18.38-.15,0-.17-.03-.32-.58-.69-2.52-1.3-4.35-2.22-6.58-1.14.52-1.68.82-2,1.12-.09.07-.18.12-.28.12-.2,0-.38-.15-.66-.55-.3-.42-.42-.65-.67-1.12.96-.27,1.57-.48,2.98-1.06-.78-1.79-.88-2-1.47-2.75.96-.38,1.5-.54,1.84-.54.32,0,.39.09.43.5.05.42.08.57.26.99.01.03.15.34.46,1.15,1.32-.54,1.78-.72,2.77-1.04-.06-.03-.08-.04-.12-.1-.51-.66-.82-.99-1.48-1.54-.03-.06-.04-.09-.04-.13q0-.09.51-.54c.2-.18.5-.36.58-.36.08,0,.15.03.24.09.92.69,1.54,1.32,1.54,1.57,0,.12-.45.62-.81.89.83-.23,1.54-.33,2.17-.33Z"/>
        <path d="M196.58,18.34c0-.63-.03-1.12-.09-1.72h1.77c-.06.46-.09,1-.09,1.72v1.41h2.34v-1.58c0-.6-.03-1.05-.09-1.57h1.73c-.06.5-.09.98-.09,1.54v1.6h2.43v-1.6c0-.66-.02-1.05-.09-1.54h1.74c-.06.51-.09.96-.09,1.54v1.6h.51c.66,0,1.14-.03,1.58-.09v1.62c-.46-.06-.93-.09-1.58-.09h-.51v3.17c0,.45.01.85.06,1.3-.36-.03-.72-.04-1.2-.04h-3.2c-.5,0-.85.02-1.25.04.03-.33.04-.73.04-1.21v-3.25h-2.34v6.4h7.51c.78,0,1.23-.02,1.82-.09v1.67c-.6-.06-1.14-.09-1.82-.09h-7.51v.77h-1.68c.06-.62.09-1.23.09-2.02v-6.63h-.29c-.64,0-1.14.03-1.59.09v-1.62c.46.06.93.09,1.59.09h.29v-1.41ZM202.06,21.19v3.03h2.43v-3.03h-2.43Z"/>
        <path d="M212,22.85c-.6,0-1.05.01-1.51.06.06-.45.08-.81.08-1.49v-3c0-.72-.02-1.08-.08-1.53.48.04.85.06,1.56.06h7.72c.69,0,1.07-.02,1.54-.06-.06.41-.07.81-.07,1.53v3c0,.68.01,1.08.07,1.49-.46-.05-.9-.06-1.53-.06h-1.28c.95.93,2.42,1.68,4.21,2.16-.34.54-.51.85-.76,1.56-1.28-.48-2.33-1.02-3.13-1.59v3.18c0,.63.03,1.11.09,1.59h-1.74c.06-.45.09-.92.09-1.59v-2.69c0-.54-.01-.82-.06-1.14h.83c-.69-.58-.9-.81-1.42-1.48h-1.5c-.41.58-.72.93-1.35,1.5h1.08c-.03.15-.04.34-.06.66-.09,2.67-1.17,3.94-4.11,4.88-.3-.54-.4-.69-.96-1.33,1.37-.36,2.03-.66,2.64-1.19.58-.5.87-1.27.87-2.38v-.18c-.99.75-1.84,1.2-3.33,1.77-.3-.72-.42-.96-.79-1.48,1.83-.5,3.21-1.26,4.09-2.23h-1.19ZM212.11,19.36h2.98v-1.09h-2.98v1.09ZM212.11,21.65h2.98v-1.06h-2.98v1.06ZM216.58,19.36h3.12v-1.09h-3.12v1.09ZM216.58,21.65h3.12v-1.06h-3.12v1.06Z"/>
        <path d="M229.61,26.12c-.72,1.25-1.71,1.94-2.73,1.94-1.56,0-2.67-1.53-2.67-3.66,0-2.37,1.2-4.41,3.25-5.49,1-.54,2.08-.78,3.51-.78,3.14,0,5.46,2.22,5.46,5.19,0,2.62-1.29,4.51-3.78,5.58-.5.21-.89.33-1.08.33-.18,0-.25-.06-.45-.34-.25-.39-.54-.68-.95-.95,3.09-.79,4.49-2.25,4.49-4.68,0-1.25-.53-2.29-1.46-2.96-.53-.36-.95-.51-1.77-.64-.42,3.16-.92,4.89-1.83,6.46ZM227.45,20.81c-1,.88-1.58,2.15-1.58,3.55,0,1.16.38,1.83,1,1.83.75,0,1.52-1.04,2.08-2.82.36-1.12.54-1.98.77-3.65-1.07.23-1.59.48-2.28,1.08Z"/>
        <path d="M244.03,25.48c2.73,0,5.01-.04,6.09-.13.17-.02.27-.02.33-.02.09,0,.14.02.18.03.1.06.13.31.13,1.14,0,.77-.03.84-.29.84t-.25-.02c-.79-.08-1.71-.09-3.64-.09-4.14,0-6.11.04-7.02.18-.15.03-.21.03-.27.03-.34,0-.41-.27-.52-2.07,1.21.08,2.68.1,5.26.1ZM244.49,19.03c2.01,0,3.17-.04,4.02-.15.09-.02.11-.02.17-.02.17,0,.22.05.25.26.02.12.03.65.03,1.06,0,.51-.04.63-.24.63-.06,0-.13,0-.25-.02-.3-.02-2.49-.03-4.23-.03-1.16,0-1.94.01-2.76.07-.2.02-.44.03-.47.03-.18,0-.28-.08-.34-.23-.08-.21-.15-1.09-.15-1.8.91.13,1.87.18,3.97.18Z"/>
        <path d="M257.84,23.03c-.54,0-.9.03-1.23.08-.04.02-.08.02-.11.02-.13,0-.22-.08-.25-.24-.08-.33-.12-.81-.12-1.47.51.1,1.42.15,3.08.15,1.37,0,1.5-.02,1.77-.14.06-.01.12-.03.17-.03.25,0,.5.13.86.45.31.28.52.58.52.73,0,.06-.03.13-.12.25q-.18.24-.42,1.67c-.18,1.19-.27,1.66-.38,2.16t-.01.09c1.33,0,1.59-.02,2.24-.06h.09c.21,0,.25.15.25.93,0,.62-.03.71-.23.71-.07,0-.1,0-.72-.03-.5-.03-2.1-.05-3.52-.05-2.33,0-4.07.05-4.7.12h-.13c-.21,0-.3-.04-.36-.17-.06-.18-.12-.61-.18-1.54,1.05.09,1.47.1,5.58.1.03-.12.03-.13.04-.25.2-.94.38-2.21.51-3.48h-2.62Z"/>
        <path d="M273.17,22.24c2.75,0,4.32-.03,5.83-.13h.2c.45,0,.45.01.45,1.21,0,.61-.04.72-.3.72h-.06c-.99-.04-1.54-.04-5.88-.04-1.59,0-2.38.02-3.76.06h-.44c-.48,0-.55.02-.84.06-.08,0-.13.02-.17.02-.17,0-.27-.08-.3-.21-.09-.38-.15-1.14-.15-1.83,1.21.12,2.28.15,5.42.15Z"/>
        <path d="M292.48,25.93c.96.87,1.54,1.5,1.54,1.67,0,.13-.2.38-.66.82-.34.33-.5.44-.6.44-.06,0-.13-.03-.22-.1q-.17-.19-.86-.98c-.83-.93-1.95-1.92-3.25-2.85-.99,1.03-2.33,2.16-3.41,2.9-.85.58-1.66,1.03-1.84,1.03-.15,0-.17-.02-.52-.42-.21-.24-.56-.54-.93-.81,1.73-.79,3-1.65,4.42-2.95,1.54-1.41,2.57-2.71,3.77-4.79q-5.07.03-5.9.12c-.18.02-.21.02-.24.02-.17,0-.25-.08-.29-.24-.08-.48-.11-.93-.11-1.72,1.02.13,2.61.19,4.79.19.88,0,1.81-.03,2.31-.09.2-.02.23-.03.54-.14.06-.03.09-.03.18-.03.25,0,.52.21.88.69.29.4.45.72.45.88,0,.18-.05.24-.44.6-.24.24-.34.36-.81,1.12-.45.75-1.14,1.69-1.71,2.38,1.17.78,1.96,1.38,2.89,2.25Z"/>
        <path d="M302.51,25.12c-1.48.87-1.91,1.31-1.91,1.96,0,.27.11.45.33.58.33.2,1.07.3,2.01.3.81,0,1.93-.08,2.7-.18.32-.04.5-.09,1.09-.24h.08c.11,0,.18.07.23.18.09.31.15.77.15,1.31,0,.23-.08.31-.27.36-.36.08-2.03.17-3.12.17-1.83,0-2.8-.12-3.52-.42-.87-.36-1.31-1.04-1.31-1.98,0-.87.41-1.63,1.21-2.28.65-.51.79-.62,2.17-1.4-.12-.5-.34-.71-.81-.71-.62,0-1.26.24-1.96.71-.43.3-.95.72-1.26,1.03-.45.47-.5.5-.62.5-.15,0-.46-.34-.78-.87-.15-.25-.24-.45-.24-.55,0-.14.03-.17.39-.39,1.23-.82,2.25-1.88,2.87-2.95-1.07.07-1.62.09-2.21.09-.23,0-.27-.04-.34-.3-.05-.2-.12-.99-.14-1.4.51.07.81.09,1.53.09.58,0,1.23-.02,1.91-.04.31-.85.42-1.4.43-2.1,1.33.23,1.95.45,1.95.71,0,.06-.02.09-.06.18-.1.19-.22.43-.42.9q-.03.06-.04.1c.86-.12,1.61-.27,2.13-.39.33-.09.41-.1.48-.1.12,0,.18.04.21.14.06.27.15.96.15,1.17,0,.16-.06.24-.25.28-.48.14-2.13.39-3.51.52-.45.83-.76,1.31-1.23,1.81.67-.31,1.18-.43,1.78-.43.68,0,1.12.39,1.43,1.23,1.48-.81,2.28-1.24,2.37-1.3.69-.4.98-.63,1.31-1,.61.63,1.27,1.57,1.27,1.83,0,.09-.06.15-.25.2-.74.19-2.1.78-4.38,1.89.01.27.04.96.04,1.44v.72c0,.18-.03.27-.1.31-.08.08-.48.12-.93.12-.51,0-.6-.04-.6-.29v-.06c.03-.44.04-1,.04-1.36v-.08Z"/>
        <path d="M313.87,25.52c-.67,0-1.2.01-1.56.04.04-.42.08-.89.08-1.53v-5.25c0-.78-.03-1.42-.08-1.79.42.05.87.06,1.52.06h6.64c.63,0,1.09-.01,1.51-.06-.04.31-.08.98-.08,1.79v5.25c0,.72.02,1.11.08,1.53-.38-.03-.96-.04-1.53-.04h-1.24v2.22c0,.4.12.45,1.29.45,1.08,0,1.36-.06,1.53-.3.15-.21.23-.78.25-1.84.6.31.96.46,1.5.6-.15,1.6-.29,2.14-.66,2.49-.4.36-1.02.48-2.62.48-2.42,0-2.85-.2-2.85-1.27v-2.82h-1.29c-.17,1.09-.63,1.99-1.36,2.67-.92.84-2,1.36-3.65,1.74-.24-.6-.42-.9-.84-1.42,1.37-.24,2.12-.5,2.82-.96.76-.5,1.18-1.12,1.36-2.02h-.82ZM313.9,19.45h6.5v-.94h-6.5v.94ZM313.9,21.74h6.5v-.94h-6.5v.94ZM313.9,24.13h6.5v-1.04h-6.5v1.04Z"/>
        <path d="M101.78,48.02c2.12,0,3.62,1.44,3.62,3.48,0,1.4-.74,2.65-1.96,3.39-.86.51-1.91.77-3.09.77-1.91,0-3.02-.77-3.02-2.07,0-1.19.99-2.02,2.4-2.02,1.27,0,2.19.64,2.8,1.96.76-.56,1.08-1.14,1.08-1.95,0-1.29-.92-2.13-2.36-2.13s-3.04.73-4.35,2.04c-.24.24-.46.5-.73.84-.11.15-.18.21-.27.21-.27,0-1.33-1.05-1.33-1.32,0-.13.06-.21.39-.45.34-.27.84-.7,1.47-1.3,1.46-1.38,2.52-2.54,4.09-4.46-1.88.24-3.13.45-3.6.62-.08.02-.12.03-.17.03-.12,0-.2-.07-.29-.3-.18-.45-.27-.94-.32-1.6.41.06.69.08,1.02.08.72,0,1.93-.1,3.51-.29.55-.06.73-.1,1.16-.27.13-.06.21-.08.3-.08.21,0,.42.18.81.78.29.39.38.58.38.71,0,.19-.04.25-.38.46-.27.17-.43.3-.78.63-.75.72-.76.72-1.69,1.67-.66.67-.74.75-1.33,1.35.97-.54,1.74-.77,2.64-.77ZM100.34,53.21c-.23-.15-.48-.23-.77-.23-.46,0-.76.23-.76.58,0,.44.46.71,1.18.71.33,0,.62-.03.99-.14-.18-.5-.33-.72-.64-.93Z"/>
        <path d="M115.49,47.74c.34,1.29,1.11,2.69,2.07,3.77,1.06,1.23,2.26,2.04,3.97,2.74-.5.57-.69.89-1.05,1.65-2.85-1.45-4.65-3.37-5.73-6.12-.43,1.47-1.2,2.73-2.35,3.85-.97.97-2.01,1.65-3.43,2.28-.24-.56-.54-1-1-1.52,1.75-.7,3-1.56,3.93-2.68.9-1.1,1.38-2.25,1.63-3.98h-3.39c-.92,0-1.33.02-1.82.09v-1.8c.45.06.98.09,1.82.09h3.54c.03-.66.04-1.01.04-1.58,0-.72-.03-1.15-.11-1.57h1.91c-.08.51-.09.7-.11,1.69,0,.61-.01.94-.03,1.46h3.81c.81,0,1.33-.03,1.81-.09v1.8c-.55-.06-1-.09-1.8-.09h-3.72Z"/>
        <path d="M123.49,48.19c-.43.09-.73.17-1.11.27l-.12-1.56c.3,0,.61-.04,1.08-.15l.57-.12v-2.37c0-.69-.01-.99-.08-1.38h1.68c-.04.35-.06.63-.06,1.27v2.16l2.01-.42c.41-.09.77-.18,1.01-.27l.1,1.56c-.27.03-.63.07-1.05.17l-2.07.43v3.63c0,.31.06.36.44.36.48,0,.73-.1.84-.33.1-.25.18-1,.21-2.15.42.24.94.44,1.41.56-.11,1.84-.3,2.49-.83,2.92-.39.33-1,.46-2.07.46-1.23,0-1.54-.27-1.54-1.33v-3.81l-.42.09ZM128.68,45.08c-.53,0-.89.02-1.19.06v-1.58c.42.05,1.08.08,1.86.08h4.68c.67,0,1.06-.02,1.48-.06-.06.87-.06.9-.17,4.21-.12,3.3-.4,5.7-.81,6.75-.3.75-.96,1.09-2.13,1.09-.32,0-1.05-.03-1.44-.04-.06-.66-.15-1.06-.36-1.6.69.1,1.21.17,1.56.17.86,0,.98-.15,1.21-1.48.17-.93.29-2.13.38-3.51q.06-1.17.11-4.08h-2.13c-.11,3.03-.3,4.33-.83,5.94-.41,1.26-.99,2.29-1.88,3.33-.54.63-.97,1-1.89,1.6-.42-.52-.58-.67-1.28-1.19,1.2-.65,2-1.33,2.64-2.29.84-1.26,1.3-2.77,1.5-4.8.07-.81.09-1.08.13-2.59h-1.47Z"/>
        <path d="M143.92,43.39c0,.38.18,1.08.54,2.02,1.16-.29,1.83-.52,3.41-1.2.09-.03.13-.04.18-.04.15,0,.25.27.48,1.25.01.07.01.09.03.15.02.03.02.04.02.06,0,.1-.06.17-.21.23-.77.33-1.64.6-3.24,1.02.78,1.45,1.89,2.71,2.97,3.34.08.04.12.1.12.18,0,.18-.33.89-.58,1.25-.13.19-.22.27-.36.27-.1,0-.13-.02-.33-.17-.31-.23-1.06-.57-1.6-.72-.64-.18-1.23-.26-1.92-.26-1.77,0-2.67.5-2.67,1.46,0,.54.29.92.9,1.21.71.35,1.99.54,3.51.54.45,0,.75-.01,1.2-.07-.24.46-.31.66-.6,1.59-.08.23-.2.29-.6.29-1,0-2.27-.14-3.03-.32-2-.49-3.13-1.62-3.13-3.12,0-.72.29-1.42.78-1.94.69-.67,1.8-1.05,3.22-1.05.93,0,1.53.1,2.33.42-.87-.93-1.31-1.53-1.83-2.55-.92.17-1.68.27-2.57.36-.52.04-1.68.12-1.9.12-.21,0-.27-.04-.35-.3-.09-.28-.16-.76-.24-1.42.5.02.73.03,1,.03.9,0,2.38-.12,3.36-.27-.13-.3-.39-.95-.54-1.35-.24-.66-.34-.9-.54-1.23.71-.12,1.47-.19,1.82-.19.29,0,.39.07.39.25v.17Z"/>
        <path d="M155.59,51.65c.04.07.06.13.06.21,0,.1-.02.12-.15.45-.3.69-.66,1.77-.84,2.58-.04.17-.09.25-.15.29-.08.03-.58.1-.75.1h-.06c-.08,0-.18-.02-.3-.02-.2,0-.24-.04-.3-.23-.29-.97-.51-2.98-.51-4.5,0-1.65.1-2.67.52-4.92.15-.81.22-1.26.29-1.75.63.12,1.17.27,1.62.48.25.1.33.18.33.33,0,.1-.02.15-.18.39-.5.79-1.05,3.98-1.05,6.12,0,.34.02.81.06,1.56.42-.94.57-1.23.92-1.96.13.31.22.46.49.87ZM158.84,52.72c.48.25,1.05.34,2.06.34s1.53-.07,2.46-.34c.09-.03.17-.04.21-.04.1,0,.18.06.19.21.08.51.13,1.11.13,1.41,0,.15-.04.2-.25.26-.81.21-1.63.31-2.64.31-1.38,0-2.23-.17-2.94-.58-.66-.41-1.35-1.23-1.35-1.64,0-.21.32-.49,1.12-.99.27.54.53.81,1,1.06ZM157.79,45.07c.33.08,1.29.14,2.03.14.99,0,1.98-.08,2.91-.24q.08-.01.14-.01c.1,0,.15.04.18.16.03.15.08.81.08,1.22,0,.22-.04.3-.21.33-.62.12-1.63.2-2.71.2-1.29,0-2.45-.08-2.59-.17-.08-.04-.11-.15-.11-.42,0-.41.04-1,.08-1.12.01-.06.06-.09.15-.09.02,0,.05,0,.08.01Z"/>
        <path d="M168.94,46.04c2.49-.71,3.78-.93,5.19-.93,1.51,0,2.7.41,3.5,1.19.66.68,1.02,1.6,1.02,2.7,0,1.92-1.03,3.54-2.83,4.47-.96.48-1.93.81-3.27,1.06-.58.12-.88.17-1.11.17-.18,0-.27-.06-.36-.23-.34-.69-.48-.9-.93-1.36,2.23-.27,3.45-.57,4.62-1.16,1.28-.63,1.98-1.67,1.98-2.92,0-1.41-.96-2.32-2.43-2.32-1.78,0-3.76.51-6.04,1.56-.41.18-.62.29-.77.38-.27.15-.34.18-.43.18-.29,0-.79-.92-1.14-2.07.69-.09,1.38-.25,3.01-.71Z"/>
        <path d="M181.39,45.92c0-.44-.02-1.02-.04-1.35.69.07,1.2.18,1.6.33.36.14.48.23.48.39q0,.09-.06.24c-.2.51-.25,1.08-.25,2.44,0,1.92.12,3.12.42,4.03.22.71.57,1.11.97,1.11.62,0,1.12-.72,1.68-2.38.28.77.39.99.81,1.53.08.1.12.21.12.31,0,.24-.22.75-.53,1.19-.58.85-1.33,1.32-2.13,1.32-1.15,0-2.02-.93-2.56-2.77-.34-1.2-.51-2.71-.51-4.81v-1.58ZM190.31,46.16c.09,0,.17.04.29.15.75.72,1.53,1.92,2.03,3.09.33.79.64,1.86.64,2.17,0,.15-.08.23-.39.39-.34.18-1.05.42-1.23.42-.13,0-.19-.08-.24-.34-.2-1.16-.46-2-.93-2.97-.42-.87-.45-.92-1.47-2.17.63-.46,1.12-.73,1.3-.73Z"/>
        <path d="M197.48,46.87c-.39.09-.53.13-1.07.33-.19.08-.3.1-.39.1-.33,0-.63-.61-.9-1.9.96-.04,1.31-.09,2.97-.34,1.8-.27,4.08-.62,5.28-.77,1.35-.18,2.43-.36,3-.48.1-.03.15-.03.22-.03.2,0,.27.09.41.47.12.31.21.76.21.98,0,.18-.06.24-.27.24-.32,0-.6.03-.89.08-2.53.42-4.56,2.64-4.56,4.98,0,1.75,1.38,2.91,3.72,3.12.21.01.29.09.29.27,0,.38-.15,1.09-.29,1.42-.08.17-.19.24-.39.24s-.65-.09-1.11-.22c-2.55-.75-3.88-2.37-3.88-4.67,0-1.25.41-2.4,1.19-3.39.42-.54.78-.84,1.63-1.43-1.96.33-4.04.72-5.17,1.01Z"/>
        <path d="M211.27,52.04c-.75,0-1.31.03-1.75.09v-1.59c.51.06,1.08.09,1.74.09h3.93v-.1c0-.29-.01-.52-.04-.78h.63c.62-.32,1.08-.65,1.7-1.17h-3.96c-.6,0-1.04.02-1.46.06v-1.42c.42.04.86.06,1.47.06h4.75c.56,0,.86-.02,1.1-.06l.79.87q-.21.18-.53.44c-1.02.87-1.75,1.42-2.86,2.1v.02h3.73c.69,0,1.35-.03,1.77-.09v1.59c-.4-.06-1.02-.09-1.78-.09h-3.72v2.52c0,.73-.15,1.05-.56,1.2-.36.13-.81.18-1.67.18-.18,0-.64-.01-1.42-.04-.15-.78-.22-1.02-.48-1.53.71.09,1.35.13,1.78.13.65,0,.75-.04.75-.33v-2.13h-3.91ZM212.02,44.93c-.35-.65-.53-.93-1.08-1.62l1.44-.44c.53.63.81,1.08,1.32,2.06h1.51c-.25-.73-.46-1.17-.87-1.81l1.5-.42c.58,1.09.67,1.3.99,2.23h1.21c.43-.56.93-1.48,1.18-2.16l1.56.44c-.33.6-.76,1.29-1.09,1.73h.66c.99,0,1.25-.02,1.77-.06-.04.38-.06.66-.06,1.2v1.33c0,.39.03.75.08,1.1h-1.58v-2.23h-9.37v2.23h-1.58c.06-.33.08-.66.08-1.11v-1.32c0-.51-.01-.85-.06-1.2.66.06.74.06,1.71.06h.68Z"/>
        <path d="M230.84,43.73c.18.12.25.21.25.31s-.01.12-.24.38c-.08.09-.3.42-.54.83q-.75,1.25-1.16,1.96c-.42.71-.69,1.19-.84,1.41q-.04.07-.25.45c-.2.35-.32.52-.53.81.97-.85,1.5-1.08,2.49-1.08.66,0,1.25.29,1.62.78.31.42.4.81.54,2.28.07.88.15,1.27.25,1.5.1.21.31.33.58.33,1.03,0,2.26-1.25,2.86-2.88.15.63.27.93.58,1.48.11.18.14.3.14.45,0,.17-.08.38-.26.66-.78,1.26-2.05,2.01-3.42,2.01-.86,0-1.58-.3-1.95-.79-.3-.42-.44-.98-.56-2.44-.07-.96-.15-1.29-.36-1.53-.17-.18-.41-.27-.74-.27-.99,0-2.29,1.33-3.06,3.1-.22.51-.38.97-.54,1.54-.06.22-.13.31-.24.31-.31,0-1.04-.3-1.42-.58-.1-.09-.15-.15-.15-.24,0-.07.03-.15.22-.57.12-.27.17-.35.27-.62q1.11-2.59,4.19-8.82c.34-.69.51-1.12.61-1.58.78.29,1.14.47,1.62.79Z"/>
        <path d="M239.26,47.75h-.09c-.08.02-.13.02-.17.02-.13,0-.21-.06-.25-.26-.09-.37-.15-.82-.18-1.41.21.02.38.02.48.02.81,0,1.75-.06,2.55-.17.15-.99.23-1.74.23-2.37v-.34c1.74.24,2.07.33,2.05.6,0,.08-.03.12-.09.26-.18.34-.2.39-.44,1.57.58-.1,1.33-.3,1.64-.4.06-.03.07-.03.12-.03.13,0,.16.06.28.58.06.3.12.72.12.84,0,.11-.04.17-.18.2q-.27.09-2.33.45c-.69,3.06-1.41,5.29-2.56,7.99-.08.2-.15.27-.24.27-.2,0-.72-.21-1.23-.49-.26-.14-.33-.2-.33-.29,0-.06.04-.17.12-.31,1.14-2.16,1.96-4.45,2.53-6.91-.66.07-1.12.12-2.04.19ZM245.66,53.45c.43.29,1.06.42,1.95.42.97,0,1.81-.09,2.29-.24.12-.03.15-.04.21-.04.13,0,.19.04.24.18.11.31.18.93.18,1.4,0,.19-.06.27-.25.31-.5.1-1.33.17-2.22.17-1.88,0-2.92-.3-3.61-1.02-.25-.27-.46-.6-.58-.98-.09-.22-.15-.48-.15-.57,0-.25.45-.52,1.23-.78.17.63.34.92.72,1.15ZM249.88,49.09c-.3-.04-.93-.08-1.46-.08-1.11,0-1.58.05-2.89.27-.03.02-.08.02-.11.02-.09,0-.13-.03-.17-.12-.04-.1-.1-.84-.1-1.15,0-.19.03-.29.15-.33.06-.03.15-.04.46-.1,1.02-.18,1.88-.25,2.92-.25.87,0,1.32.03,1.43.1.07.06.09.18.09.67,0,.44-.03.83-.06.92-.01.04-.08.08-.15.08-.03,0-.08,0-.12-.02ZM248.23,43.81c.2,0,1.47,1.42,1.47,1.65,0,.06-.1.19-.22.29-.06.04-.15.12-.25.21-.13.12-.18.15-.33.21t-.08.03c-.06,0-.06-.01-.34-.45-.25-.39-.74-.99-.99-1.22-.03-.03-.08-.09-.08-.1.03-.06.05-.09.05-.09.07-.09.33-.3.39-.34.15-.08.24-.14.25-.15.01-.03.03-.03.04-.03h.09ZM250.76,44.86c-.21.15-.36.24-.43.24-.06,0-.09-.03-.17-.15-.33-.54-.65-.93-1.14-1.43-.04-.04-.06-.07-.06-.12,0-.14.57-.56.76-.56.11,0,.29.15.62.5.48.49.83.94.83,1.09,0,.09-.11.19-.41.42Z"/>
        <path d="M254.6,43.7v-.21c.94.17,1.42.3,1.81.5.11.04.13.1.13.21,0,.06-.03.13-.09.24-.13.24-.18.42-.41,1.41-.28,1.29-.43,2.73-.43,4.3,0,.84.03,1.3.12,2.1l.79-1.6c.09.31.21.57.39.78.12.15.13.19.13.31s0,.12-.28.75c-.32.67-.5,1.26-.66,2.02-.04.24-.09.31-.17.35-.12.06-.63.13-.93.13-.21,0-.29-.04-.33-.18-.36-1.02-.66-3.12-.66-4.62,0-1.29.17-3.07.43-4.95.09-.62.14-1.06.14-1.38v-.17ZM259.72,47.95c-.84,0-1.08-.03-1.16-.13-.1-.14-.19-.75-.19-1.31v-.22c.6.06,1.08.09,1.84.09.58,0,.92-.02,1.51-.06-.04-1.56-.13-2.49-.31-2.97h.4c.53,0,1.17.04,1.5.12.15.03.23.12.23.24,0,.06-.02.12-.04.23-.08.21-.12.54-.12.93,0,.23.01.93.01,1.11v.15c.75-.12,1.11-.2,1.74-.41.06-.02.12-.03.18-.03.09,0,.13.04.17.13.06.17.12.75.12,1.08,0,.24-.04.35-.17.39-.2.07-1.11.25-2,.38.02.42.02.65.02.88,0,2.21-.27,3.78-.87,4.96-.54,1.06-1.71,2.31-2.19,2.31-.13,0-.19-.03-.36-.18-.5-.44-.58-.51-1.17-.78,1.05-.58,1.72-1.22,2.19-2.07.5-.91.76-2.17.76-3.55,0-.1,0-.36-.01-.72-.01-.15-.01-.38-.03-.68-.54.04-1.75.1-2.05.1Z"/>
        <path d="M271.69,47.77c-.19-.66-.25-1.06-.43-2.91-.06-.72-.12-1.08-.27-1.59.91.02,1.5.06,1.9.17.23.06.33.17.33.33,0,.06-.01.13-.04.25-.1.36-.15.63-.15,1.02,0,.73.15,1.94.32,2.46.09.28.18.39.34.39.36,0,1.68-.69,2.4-1.24.19-.15.22-.17.3-.17.13,0,.27.1.5.39.38.51.67,1.06.67,1.27,0,.17-.11.27-.36.34-.93.25-2.46.85-3.49,1.35-1.83.9-2.66,1.73-2.66,2.65s.76,1.29,2.7,1.29c1.12,0,2.14-.1,3.52-.33.06-.02.17-.03.2-.03.12,0,.19.06.25.18.04.15.15,1.06.15,1.43,0,.21-.06.28-.26.34-.33.08-2.14.18-3.28.18-1.92,0-3.2-.26-3.99-.79-.67-.47-1.04-1.2-1.04-2.1,0-.69.2-1.31.6-1.9.52-.78,1.09-1.27,2.35-2.02-.31-.29-.43-.5-.57-.96ZM277.13,44.41c.12-.09.2-.12.29-.12.21,0,1.51,1.38,1.51,1.6,0,.09-.12.23-.41.46-.3.25-.33.27-.4.27-.09,0-.11,0-.39-.42-.3-.42-.72-.9-1.04-1.17-.04-.04-.07-.09-.07-.14,0-.07.13-.21.51-.49ZM280.39,44.81c0,.09-.04.15-.23.3-.21.18-.49.38-.55.38-.09,0-.12-.04-.3-.28-.34-.5-.55-.73-1.09-1.23-.06-.06-.08-.09-.08-.14,0-.13.57-.57.75-.57.25,0,1.5,1.27,1.5,1.54Z"/>
        <path d="M281.99,52.19c.27-.24.34-.3.45-.3.19,0,1.09.66,1.75,1.29.75.69,1.59,1.69,1.59,1.9,0,.14-.03.17-.46.56-.57.52-.69.61-.79.61-.09,0-.18-.06-.25-.21-.53-.93-1.73-2.16-2.79-2.85-.12-.09-.18-.15-.18-.24,0-.1.03-.15.69-.76Z"/>
        <path d="M296.8,46.48c1,.63,1.56,1.06,2.33,1.81l-1.02,1.19c-.79-.87-1.27-1.26-2.31-1.92l1-1.08ZM299.17,51.5c-.42,1.32-.69,2.05-1.25,3.31l-.55,1.18-1.37-1.14c.09-.09.18-.2.29-.39.55-.9,1.09-2.27,1.59-3.96l1.29.99ZM297.47,42.85c.9.63,1.5,1.12,2.21,1.88l-1.11,1.15c-.79-.92-1.35-1.42-2.18-1.98l1.08-1.05ZM307.04,44c1.06,0,1.53-.01,2.05-.09v1.54c-.39-.04-.86-.06-1.89-.06h-5.4c-.25.44-.38.62-.64,1.02h5.55c.69,0,1.12-.02,1.51-.04-.03.21-.04.34-.08.81-.01.39-.03.67-.04,1.51q-.01.47-.03.6c.72,0,.86-.02,1.28-.08v1.53c-.43-.06-.78-.08-1.2-.08h-.15c-.03.57-.09,1.37-.14,1.79.57,0,.78-.02,1.08-.08v1.52c-.34-.04-.61-.06-1.09-.06h-.17c-.29,1.77-.63,2.11-2.14,2.11-.24,0-.41-.02-1.29-.07-.02-.62-.09-.96-.32-1.47.57.09,1.05.14,1.47.14.53,0,.6-.08.77-.71h-4.88c-.11.46-.13.6-.27,1.12l-1.61-.15c.39-1.17.71-2.54.95-4.14h-.21c-.46,0-.74.02-1.12.08v-1.53c.39.06.71.08,1.35.08h.15c.1-.94.15-1.68.15-2.25-.25.31-.4.48-.87.94-.3-.48-.61-.82-1.08-1.17.91-.82,1.35-1.33,1.84-2.19.4-.7.72-1.48.81-2.05l1.65.3c-.06.17-.11.27-.15.36-.13.33-.15.36-.33.76h4.49ZM303.22,52.46c.11-.71.13-.89.22-1.79h-1.62c-.11.77-.14.96-.27,1.79h1.67ZM303.58,49.3q.03-.51.07-1.56h-1.56c-.04.77-.06.99-.12,1.56h1.61ZM306.4,52.46c.06-.57.12-1.11.17-1.79h-1.74c-.06.6-.13,1.19-.21,1.79h1.79ZM306.62,49.3q.03-.99.04-1.56h-1.62c-.03.54-.06,1.05-.11,1.56h1.68Z"/>
        <path d="M313.91,47.9c.69.56,1,.84,1.58,1.47.43-1.08.64-1.89.91-3.42h-2.1c-.64,1.65-1.53,3.07-2.76,4.44-.3-.63-.43-.82-.96-1.38,1.16-1.18,2.05-2.7,2.64-4.47.18-.57.38-1.46.41-1.88l1.67.29c-.11.25-.17.46-.27.82-.09.33-.12.47-.22.81h2.07c.52,0,.84-.01,1.17-.04-.06.31-.08.38-.14.98.39.84.63,1.21,1.41,2.08v-3.18c0-.73-.01-1.12-.09-1.66h1.75c-.08.55-.09.93-.09,1.66v4.67c.39.29.67.48,1.38.88,1.04.62,1.2.69,1.93.96-.31.45-.58.95-.84,1.58-1.17-.62-1.54-.85-2.47-1.53v3.12c0,.84.01,1.26.1,1.9h-1.78c.07-.6.1-1.12.1-1.9v-4.44c-.85-.85-1.25-1.3-1.74-2.08-.4,1.91-1.03,3.46-1.92,4.8-.88,1.31-2.13,2.55-3.6,3.6-.34-.56-.71-.98-1.15-1.31.75-.45,1.02-.65,1.71-1.27,1.05-.94,1.59-1.6,2.19-2.62-.53-.64-1.02-1.11-1.75-1.69l.87-1.17Z"/>
        <path d="M99.47,78.62c-.72,1.25-1.71,1.94-2.73,1.94-1.56,0-2.67-1.53-2.67-3.66,0-2.37,1.2-4.41,3.25-5.49,1-.54,2.08-.78,3.51-.78,3.14,0,5.46,2.22,5.46,5.19,0,2.62-1.29,4.51-3.78,5.58-.5.21-.89.33-1.08.33-.18,0-.25-.06-.45-.34-.25-.39-.54-.68-.95-.95,3.09-.79,4.49-2.25,4.49-4.68,0-1.25-.53-2.29-1.46-2.96-.53-.36-.95-.51-1.77-.64-.42,3.16-.92,4.89-1.83,6.46ZM97.31,73.31c-1,.88-1.58,2.15-1.58,3.55,0,1.16.38,1.83,1,1.83.75,0,1.52-1.04,2.08-2.82.36-1.12.54-1.98.77-3.65-1.07.23-1.59.48-2.28,1.08Z"/>
        <path d="M117.55,74.57h2.13c.68,0,1.1-.03,1.54-.09v1.63c-.48-.04-.93-.07-1.56-.07h-1.62c.86,1.5,2.1,2.74,3.58,3.58-.48.48-.69.78-.99,1.5-.61-.43-1.05-.85-1.62-1.5-.74-.85-1.05-1.32-1.53-2.22.03.54.04,1,.04,1.44v1.81c0,.67.03,1.2.09,1.67h-1.67c.06-.46.09-1,.09-1.68v-1.71c0-.4.02-.88.04-1.48-.91,1.65-1.93,2.76-3.39,3.73-.38-.71-.58-1-.9-1.36,1.54-.89,2.8-2.17,3.67-3.78h-.95c-.64,0-1.11.03-1.58.09v-.6c-.25.36-.43.69-.61,1.21-.38-.58-.6-1.05-.89-1.8.03.47.06,1.27.06,1.91v3.69c0,.77.03,1.32.09,1.77h-1.67c.06-.46.09-1.02.09-1.77v-3.1c0-.57.02-.93.11-1.86-.44,1.46-.87,2.43-1.52,3.41-.18-.68-.37-1.11-.67-1.6.72-.92,1.47-2.61,1.92-4.35h-.57c-.44,0-.69.02-.96.06v-1.53c.24.04.51.06.96.06h.72v-1.16c0-.76-.01-1.14-.08-1.5h1.65c-.06.39-.08.8-.08,1.5v1.16h.43c.36,0,.54-.02.78-.06v1.42c.57-1.02,1.05-2.52,1.09-3.49l1.46.38c-.06.16-.1.34-.21.79-.08.27-.1.4-.18.69h1.15v-.99c0-.61-.03-.99-.09-1.36h1.68c-.06.36-.09.77-.09,1.36v.99h1.7c.72,0,1.14-.03,1.54-.09v1.58c-.42-.04-.9-.08-1.54-.08h-1.7v1.81ZM114.41,72.76c-.25.62-.39.9-.81,1.6q-.36-.38-1.17-.94c.12-.17.17-.24.24-.35-.2-.03-.44-.04-.71-.04h-.38c.34.79.71,1.4,1.36,2.28v-.83c.45.06.87.09,1.56.09h1.53v-1.81h-1.63Z"/>
        <path d="M126.58,78.19c.04.06.06.1.06.16q0,.09-.25.78c-.32.92-.51,1.67-.57,2.25-.01.19-.08.27-.27.31-.21.06-.61.09-1,.09-.15,0-.22-.03-.27-.12-.13-.28-.38-1.32-.5-2.16-.1-.71-.15-1.44-.15-2.21,0-1.73.2-3.36.74-6.3.09-.48.12-.71.17-1.17.69.09,1.17.23,1.6.44.23.12.32.23.32.36,0,.09-.03.17-.11.29-.61,1.05-1.18,4.29-1.18,6.69,0,.36.01.93.06,1.65.36-.93.52-1.35.85-2.07.11.41.21.6.51,1.01ZM129.1,74.24c-.72,0-.87-.03-.92-.19-.04-.13-.09-.61-.09-.96,0-.12,0-.24.01-.51.41.03.64.04,1.14.04.81,0,1.32-.02,2.1-.08-.02-1.9-.03-2.15-.18-2.85.74.01,1.29.07,1.77.19.22.06.31.13.31.29,0,.06-.01.1-.06.22-.15.35-.23.93-.25,1.98.55-.07,1.03-.18,1.93-.39.08-.03.1-.03.15-.03.09,0,.13.04.17.15.03.14.07.71.07,1.02,0,.38-.01.44-.17.5-.24.12-.9.23-2.17.39,0,1.03.09,2.74.2,3.72.95.4,1.59.75,2.25,1.21.42.3.51.41.51.51,0,.16-.27.67-.58,1.11-.18.25-.27.33-.38.33s-.1,0-.45-.33c-.33-.33-.67-.58-1.33-1.02v.12c0,1.32-1.09,2.19-2.76,2.19s-2.8-.9-2.8-2.25,1.14-2.35,2.66-2.35c.55,0,.84.02,1.24.08q-.06-1.17-.1-3.18c-.65.04-1.67.09-2.26.09ZM130.33,78.65c-.75,0-1.25.34-1.25.87,0,.48.46.78,1.19.78.79,0,1.21-.36,1.21-1.05,0-.21-.02-.38-.02-.38-.39-.15-.73-.23-1.14-.23Z"/>
        <path d="M141.55,74.02c-.19-.66-.25-1.06-.43-2.91-.06-.72-.12-1.08-.27-1.59.91.02,1.5.06,1.9.17.23.06.33.17.33.33,0,.06-.01.13-.04.25-.1.36-.15.63-.15,1.02,0,.73.15,1.94.32,2.46.09.28.18.39.34.39.36,0,1.68-.69,2.4-1.24.19-.15.22-.17.3-.17.13,0,.27.1.5.39.38.51.67,1.06.67,1.27,0,.17-.11.27-.36.34-.93.25-2.46.85-3.49,1.35-1.83.9-2.66,1.73-2.66,2.65s.76,1.29,2.7,1.29c1.12,0,2.14-.1,3.52-.33.06-.02.17-.03.2-.03.12,0,.19.06.25.18.04.15.15,1.06.15,1.43,0,.21-.06.28-.26.34-.33.08-2.14.18-3.28.18-1.92,0-3.2-.26-3.99-.79-.67-.47-1.04-1.2-1.04-2.1,0-.69.2-1.31.6-1.9.52-.78,1.09-1.27,2.35-2.02-.31-.29-.43-.5-.57-.96ZM146.99,70.66c.12-.09.2-.12.29-.12.21,0,1.51,1.38,1.51,1.6,0,.09-.12.23-.41.46-.3.25-.33.27-.4.27-.09,0-.11,0-.39-.42-.3-.42-.72-.9-1.04-1.17-.04-.04-.07-.09-.07-.14,0-.07.13-.21.51-.49ZM150.25,71.06c0,.09-.04.15-.22.3-.21.18-.5.38-.56.38-.09,0-.12-.04-.3-.28-.34-.5-.55-.73-1.09-1.23-.06-.06-.08-.09-.08-.14,0-.13.57-.57.75-.57.25,0,1.5,1.27,1.5,1.54Z"/>
        <path d="M156.23,73.1c.97-.25,1.62-.35,2.33-.35,2.13,0,3.36,1.26,3.36,3.42,0,1.88-.81,3.39-2.45,4.59-.87.65-2.19,1.29-2.62,1.29-.2,0-.24-.04-.56-.5-.22-.34-.45-.55-.82-.82,1.72-.58,2.44-.96,3.22-1.64.9-.79,1.35-1.75,1.35-2.89,0-1.22-.57-1.91-1.58-1.91-.81,0-1.86.31-3.22.98-.2.09-.3.17-.55.35-.06.03-.12.06-.18.06-.29,0-.77-.84-1.1-1.96.56-.04.84-.12,2.82-.61ZM157.24,69.44c.54.17,1.35.32,2.08.41.3.03.41.04,1.17.07.22,0,.29.06.29.23,0,.5-.11,1.31-.2,1.46-.03.09-.1.12-.21.12-.34,0-1.56-.17-2.26-.31-1.19-.24-2.22-.54-2.43-.71-.05-.04-.08-.1-.08-.17,0-.12.31-.93.46-1.21.08-.12.12-.15.21-.15q.08,0,.96.27Z"/>
        <path d="M168.88,79.88c-.6,0-1.05.01-1.54.06.04-.41.06-.9.06-1.7v-3.31c0-.71-.02-1.19-.06-1.62.45.03.77.04,1.5.04h7.3c.84,0,1.17-.02,1.59-.04-.04.46-.06.87-.06,1.63v3.35c0,.79.01,1.32.06,1.65-.46-.05-.92-.06-1.53-.06h-1.07c1.02.57,2.37.93,4.12,1.12-.33.43-.51.75-.78,1.41-1.29-.19-1.92-.36-2.83-.72-.87-.36-1.35-.6-2.11-1.11l.85-.7h-4.03l.9.7c-.71.53-1.16.78-1.96,1.11-.92.38-1.54.55-2.64.76-.18-.51-.41-.84-.87-1.32,1.84-.29,3.13-.71,3.94-1.26h-.84ZM178.54,71.69c0,.54.01.81.06,1.16-.36-.03-.72-.05-1.48-.05h-9.2c-.72,0-1.18.02-1.5.05.04-.36.06-.62.06-1.16v-1.12c0-.55-.02-.81-.06-1.21.41.04.81.06,1.62.06h8.94c.81,0,1.22-.02,1.62-.06-.04.39-.06.66-.06,1.21v1.12ZM169.96,70.64h-2v.93h2v-.93ZM168.95,75.19h7.16v-.63h-7.16v.63ZM168.95,76.9h7.16v-.62h-7.16v.62ZM168.95,78.67h7.16v-.67h-7.16v.67ZM173.41,70.64h-2v.93h2v-.93ZM177.01,71.57v-.93h-2.14v.93h2.14Z"/>
        <path d="M186.31,76.84c.34-.1.6-.15.85-.15,1.04,0,1.51.61,1.71,2.16.1.89.15,1.05.36,1.23.18.18.46.24.99.24.71,0,1.05-.06,2.28-.39.04-.02.08-.02.1-.02.09,0,.14.03.2.14.11.24.23,1.03.23,1.47,0,.14-.03.19-.17.23-.41.1-1.83.23-2.7.23-1.3,0-2-.24-2.4-.85-.25-.41-.38-.85-.46-1.79-.1-1.15-.29-1.44-.88-1.44-.54,0-.96.27-1.84,1.15-.86.85-1.59,1.76-2.08,2.54-.09.15-.2.24-.29.24-.1,0-.21-.09-.67-.58-.45-.49-.62-.69-.62-.78,0-.1.03-.13.3-.38q.36-.3,5.94-6.24c-2.42.44-3.95.75-4.3.88-.17.06-.23.08-.3.08-.13,0-.17-.04-.25-.34-.15-.5-.22-.89-.29-1.49.32.02.42.02.53.02.66,0,2.5-.18,4.17-.42,1.26-.17,1.46-.21,1.79-.38.09-.04.18-.08.24-.08.38,0,1.23.98,1.23,1.41,0,.18-.06.25-.25.36-.23.09-.54.3-.81.52-.15.12-.6.54-.81.74l-1.77,1.69ZM184.52,69.34c.06-.18.1-.25.18-.24s.12.02.15.03c.61.21,1.18.35,1.83.47.93.18,1.06.19,2.67.27.18.01.2.06.2.42,0,.45-.06,1-.13,1.12-.04.09-.11.13-.18.13s-1.7-.18-1.94-.21c-1.08-.17-2.02-.39-2.86-.69-.14-.06-.18-.1-.18-.21,0-.14.11-.58.27-1.1Z"/>
        <path d="M198.58,78.23c.04.06.06.1.06.17q0,.09-.25.78c-.31.92-.51,1.67-.57,2.25-.02.19-.08.27-.27.31-.21.06-.61.09-1,.09-.15,0-.22-.03-.27-.12-.14-.28-.38-1.32-.5-2.16-.11-.71-.15-1.44-.15-2.21,0-1.72.2-3.36.74-6.3.09-.48.12-.7.17-1.17.69.09,1.17.23,1.6.45.23.12.32.21.32.36,0,.08-.03.15-.11.27-.61,1.05-1.18,4.29-1.18,6.69,0,.36.01.93.06,1.65.36-.93.53-1.35.86-2.07.1.4.21.6.51,1ZM201.1,74.29c-.72,0-.87-.03-.91-.2-.05-.13-.09-.61-.09-.96,0-.12,0-.24.02-.51.4.03.64.04,1.14.04.81,0,1.32-.02,2.1-.06-.01-1.9-.03-2.15-.18-2.86.74.02,1.29.07,1.77.19.23.06.32.14.32.29,0,.07-.01.1-.06.23-.15.36-.23.94-.26,1.98.56-.08,1.04-.17,1.94-.38.08-.03.1-.03.15-.03.09,0,.14.04.17.15.03.14.08.71.08,1.02,0,.36-.01.44-.17.5-.24.1-.9.23-2.17.38,0,1.03.09,2.74.2,3.72.94.41,1.59.75,2.25,1.21.42.31.51.41.51.52,0,.15-.27.66-.58,1.1-.18.25-.27.33-.38.33s-.11,0-.45-.33c-.33-.33-.67-.57-1.33-1.02v.12c0,1.33-1.09,2.19-2.76,2.19s-2.8-.9-2.8-2.25,1.14-2.35,2.65-2.35c.56,0,.84.02,1.25.08q-.06-1.17-.1-3.17c-.65.04-1.67.08-2.27.08ZM202.33,78.7c-.75,0-1.25.34-1.25.87,0,.48.46.78,1.18.78.79,0,1.22-.36,1.22-1.04,0-.22-.02-.38-.02-.39-.39-.15-.73-.23-1.14-.23ZM206.33,70.91c-.21-.45-.34-.67-.81-1.31-.03-.04-.04-.07-.04-.1,0-.12.5-.46.68-.46.09,0,.19.1.49.48.38.5.79,1.19.79,1.33,0,.09-.04.15-.27.29-.22.17-.42.25-.51.25q-.11,0-.33-.48ZM207.14,68.57c.21-.12.35-.18.44-.18.1,0,.18.06.39.33.46.6.85,1.25.85,1.41,0,.09-.06.16-.3.3-.18.12-.39.23-.46.23-.06,0-.1-.04-.15-.15-.26-.57-.66-1.25-.95-1.58-.04-.04-.06-.09-.06-.12,0-.06.06-.13.24-.24Z"/>
        <path d="M210.31,72.17c0-.44-.02-1.02-.04-1.35.69.07,1.2.18,1.6.33.36.14.48.23.48.39q0,.09-.06.24c-.2.51-.25,1.08-.25,2.44,0,1.92.12,3.12.42,4.03.22.71.57,1.11.97,1.11.62,0,1.12-.72,1.68-2.38.28.77.39.99.81,1.53.08.1.12.21.12.31,0,.24-.22.75-.53,1.19-.58.85-1.33,1.32-2.13,1.32-1.15,0-2.02-.93-2.56-2.77-.34-1.2-.51-2.71-.51-4.81v-1.58ZM219.23,72.41c.09,0,.17.04.29.15.75.72,1.53,1.92,2.03,3.09.33.79.64,1.86.64,2.17,0,.15-.08.23-.39.39-.34.18-1.05.42-1.23.42-.13,0-.19-.08-.24-.34-.2-1.16-.46-2-.93-2.97-.42-.87-.45-.92-1.47-2.17.63-.46,1.12-.73,1.3-.73Z"/>
        <path d="M224.77,72.17c0-.44-.02-1.02-.04-1.35.69.07,1.2.18,1.6.33.36.14.48.23.48.39q0,.09-.06.24c-.2.51-.25,1.08-.25,2.44,0,1.92.12,3.12.42,4.03.22.71.57,1.11.97,1.11.62,0,1.12-.72,1.68-2.38.28.77.39.99.81,1.53.08.1.12.21.12.31,0,.24-.22.75-.53,1.19-.58.85-1.33,1.32-2.13,1.32-1.15,0-2.02-.93-2.56-2.77-.34-1.2-.51-2.71-.51-4.81v-1.58ZM233.69,72.41c.09,0,.17.04.29.15.75.72,1.53,1.92,2.03,3.09.33.79.64,1.86.64,2.17,0,.15-.08.23-.39.39-.34.18-1.05.42-1.23.42-.13,0-.19-.08-.24-.34-.2-1.16-.46-2-.93-2.97-.42-.87-.45-.92-1.47-2.17.63-.46,1.12-.73,1.3-.73Z"/>
        <path d="M244.07,78.62c-.72,1.25-1.71,1.94-2.73,1.94-1.56,0-2.67-1.53-2.67-3.66,0-2.37,1.2-4.41,3.25-5.49,1-.54,2.08-.78,3.51-.78,3.14,0,5.46,2.22,5.46,5.19,0,2.62-1.29,4.51-3.78,5.58-.5.21-.89.33-1.08.33-.18,0-.25-.06-.45-.34-.25-.39-.54-.68-.95-.95,3.09-.79,4.49-2.25,4.49-4.68,0-1.25-.53-2.29-1.46-2.96-.53-.36-.95-.51-1.77-.64-.42,3.16-.92,4.89-1.83,6.46ZM241.91,73.31c-1,.88-1.58,2.15-1.58,3.55,0,1.16.38,1.83,1,1.83.75,0,1.52-1.04,2.08-2.82.36-1.12.54-1.98.77-3.65-1.07.23-1.59.48-2.28,1.08Z"/>
        <path d="M254.33,74.57c-.12.03-.18.06-.27.1-.08.04-.12.06-.2.06-.32,0-.55-.58-.74-1.69.12.02.23.02.29.02.63,0,2.24-.2,3.2-.39.31-1.32.48-2.31.48-3.03,0-.06,0-.14-.01-.25.64.07,1.26.21,1.68.38.24.09.36.22.36.38,0,.07-.02.12-.09.24q-.23.4-.69,2.06c.36-.05.76-.08,1.02-.08.62,0,1.1.12,1.44.36.6.44.9,1.32.9,2.69,0,2.23-.41,4.14-1.1,5.08-.48.66-1.11.98-1.99.98-.54,0-1.05-.07-1.2-.17q-.12-.07-.17-.63c-.04-.4-.13-.75-.32-1.17.78.25.98.3,1.46.3.72,0,1.02-.34,1.35-1.54.23-.79.35-1.83.35-2.92,0-1.17-.29-1.59-1.08-1.59-.27,0-.71.03-1.05.09-.04.17-.06.18-.12.39-.42,1.53-1.19,3.55-1.95,5.17-.79,1.63-.99,1.96-1.18,1.96-.12,0-.53-.21-.96-.5-.35-.21-.44-.3-.44-.42q0-.07.62-1.05c.83-1.27,1.91-3.78,2.28-5.25-1.11.24-1.73.39-1.86.44ZM261.98,72.89c0-.1.14-.24.57-.58.3-.23.45-.31.55-.31.09,0,.17.04.36.24.88.85,1.71,2,2.19,2.98.15.33.24.54.24.63,0,.15-.04.2-.52.58-.3.24-.65.44-.77.44-.1,0-.15-.04-.25-.3-.3-.73-.58-1.31-.94-1.86-.39-.6-.47-.69-1.35-1.64-.06-.09-.08-.13-.08-.18Z"/>
        <path d="M268.93,73.45c-.27.02-.43.03-.61.05-.14.01-.15.01-.17.01-.12,0-.18-.04-.23-.19-.08-.24-.18-1.04-.19-1.48.17.01.6.03,1.14.03.17,0,1.35-.07,1.88-.12.25-1.21.34-1.84.34-2.65,1.54.21,2.1.39,2.1.68,0,.1-.01.13-.24.48-.12.18-.17.34-.42,1.27.7-.12,1.12-.23,1.68-.41.1-.03.15-.04.22-.04.11,0,.13.08.23.51.07.37.12.69.12.85,0,.18-.04.21-.43.3-.51.12-1.38.27-2.31.39-.56,1.68-.93,2.58-1.62,3.99-.53,1.05-.83,1.6-1.23,2.23-.12.18-.19.24-.3.24-.15,0-.57-.22-1.09-.61-.24-.17-.3-.24-.3-.35s.06-.19.25-.46c.43-.54,1-1.47,1.5-2.46.42-.82.57-1.17,1-2.35-.58.05-.63.06-1.32.1ZM273.86,82.09c-1.64,0-2.75-.9-2.75-2.23s1.15-2.41,2.7-2.41c.36,0,.53.01,1.14.1-.06-.72-.06-1.01-.12-2.4,0-.29-.03-.68-.06-1.16.77.08,1.35.17,1.64.29.12.04.18.12.18.24,0,.08-.01.14-.03.24-.08.31-.09.54-.09.94,0,.56.04,1.5.09,2.23,1.07.48,1.5.72,2.25,1.31.33.25.45.39.45.51,0,.15-.08.29-.5.96-.18.3-.31.44-.42.44q-.09,0-.51-.39c-.33-.33-.71-.58-1.23-.9,0,1.4-1.02,2.23-2.74,2.23ZM273.83,78.88c-.72,0-1.21.34-1.21.87,0,.5.45.81,1.12.81.79,0,1.21-.4,1.21-1.2,0-.12,0-.24-.02-.24-.3-.15-.7-.24-1.11-.24ZM279.44,74.62c-.18.26-.27.33-.38.33-.08,0-.13-.03-.24-.13-.38-.36-.9-.75-1.46-1.1q-.36-.22-1.02-.52c-.21-.09-.29-.15-.29-.27,0-.1.08-.24.3-.58.36-.52.45-.61.58-.61.28,0,1.39.57,2.19,1.11.65.44.84.61.84.78,0,.12-.24.57-.54,1Z"/>
        <path d="M284.38,71.99c.34-.9.67-1.38,1.25-1.86.69-.57,1.51-.84,2.56-.84,2.25,0,3.69,1.23,3.69,3.15,0,.65-.18,1.26-.53,1.75-.27.39-.39.51-1.23,1.27-1.17,1.05-1.42,1.46-1.42,2.25v.79h-1.53v-.84c0-.67.13-1.27.41-1.75.21-.38.43-.63,1.03-1.23.63-.61.83-.84.99-1.11.21-.3.33-.72.33-1.12,0-1-.67-1.63-1.74-1.63s-1.69.55-2.14,1.86l-1.67-.69ZM289.16,80.74c0,.66-.53,1.18-1.19,1.18s-1.18-.52-1.18-1.18.52-1.19,1.18-1.19,1.19.52,1.19,1.19Z"/>
      </g>
      <circle class="cls-12" cx="30" cy="83.49" r="30"/>
      <path class="cls-9" d="M12.04,129.45h239.38c4.68,0,8.47,3.79,8.47,8.47v92.05s9.69,9.69,9.69,9.69h-9.69s0,.5,0,.5c0,4.68-3.79,8.47-8.47,8.47H12.04c-4.68,0-8.47-3.79-8.47-8.47v-102.24c0-4.68,3.79-8.47,8.47-8.47Z"/>
      <circle class="cls-10" cx="310.4" cy="233.31" r="30"/>
      <g>
        <path d="M15.49,146.53c0-.43-.02-1.02-.04-1.35.69.08,1.2.18,1.6.33.36.13.48.22.48.39q0,.09-.06.24c-.2.51-.25,1.08-.25,2.45,0,1.92.12,3.12.42,4.03.22.71.57,1.11.97,1.11.62,0,1.12-.72,1.68-2.38.28.76.39.99.81,1.53.08.11.12.21.12.32,0,.24-.22.75-.53,1.18-.58.86-1.33,1.32-2.13,1.32-1.15,0-2.02-.93-2.56-2.78-.34-1.2-.51-2.71-.51-4.81v-1.58ZM24.41,146.77c.09,0,.17.04.29.15.75.72,1.53,1.92,2.03,3.09.33.79.64,1.86.64,2.17,0,.15-.08.22-.39.39-.34.18-1.05.42-1.23.42-.13,0-.19-.08-.24-.34-.2-1.16-.46-2-.93-2.97-.42-.87-.45-.92-1.47-2.17.63-.46,1.12-.74,1.3-.74Z"/>
        <path d="M29.95,146.53c0-.43-.02-1.02-.04-1.35.69.08,1.2.18,1.6.33.36.13.48.22.48.39q0,.09-.06.24c-.2.51-.25,1.08-.25,2.45,0,1.92.12,3.12.42,4.03.22.71.57,1.11.97,1.11.62,0,1.12-.72,1.68-2.38.28.76.39.99.81,1.53.08.11.12.21.12.32,0,.24-.22.75-.53,1.18-.58.86-1.33,1.32-2.13,1.32-1.15,0-2.02-.93-2.56-2.78-.34-1.2-.51-2.71-.51-4.81v-1.58ZM38.87,146.77c.09,0,.17.04.29.15.75.72,1.53,1.92,2.03,3.09.33.79.64,1.86.64,2.17,0,.15-.08.22-.39.39-.34.18-1.05.42-1.23.42-.13,0-.19-.08-.24-.34-.2-1.16-.46-2-.93-2.97-.42-.87-.45-.92-1.47-2.17.63-.46,1.12-.74,1.3-.74Z"/>
        <path d="M55.32,145.34c.45,0,.77-.01,1.11-.06v1.41c-.36-.06-.65-.07-1.09-.07h-.95v1.24c.29-.01.34-.01.57-.03-.04.42-.06.84-.06,1.92v2.94c0,.84.02,1.33.06,1.65-.36-.04-.84-.06-1.53-.06h-1.04c.57.25.99.42,1.23.5.88.29,1.56.41,2.91.53-.34.54-.38.6-.72,1.47-2.19-.38-3.17-.71-4.79-1.63l1.17-.86h-4.52l1.16.9c-1.77.96-2.64,1.26-4.68,1.57-.25-.61-.36-.82-.78-1.45,2.19-.24,2.88-.41,4.02-1.02h-.83c-.67,0-1.17.02-1.54.06.04-.44.06-.9.06-1.7v-2.89c0-.72,0-.9-.03-1.4-.15.34-.28.53-.69,1.02-.45-.56-.69-.79-1.2-1.23.84-.84,1.16-1.86,1.16-3.72,0-.13-.03-.51-.06-.67.11,0,.2.01.24.01h.3c.77,0,1.95-.1,2.66-.24.57-.12.97-.23,1.42-.44l.9,1.21c-1.35.38-1.92.46-3.98.58,0,.23,0,.29-.01.44h2.85c.46,0,.81-.02,1.07-.06v1.41c-.34-.04-.63-.06-1.04-.06h-.38v1.26h1.84c-.25-.25-.39-.36-.69-.6.58-.73.83-1.62.83-3.01,0-.2-.02-.31-.05-.52.26.03.35.03.47.03.46,0,1.8-.1,2.35-.18.79-.11,1.32-.22,2-.46l.93,1.2c-2.34.45-2.5.46-4.21.55-.01.22-.01.33-.03.46h3.58ZM46.87,147.88v-1.26h-1.19c-.09.48-.19.78-.38,1.23.45.03.72.03,1.23.03h.33ZM46.63,149.69h6.75v-.62h-6.75v.62ZM46.63,151.36h6.75v-.6h-6.75v.6ZM46.63,153.07h6.75v-.63h-6.75v.63ZM51.55,146.62c-.17.57-.29.85-.5,1.26h1.89v-1.26h-1.39Z"/>
        <path d="M59.98,154.79c0,.87.03,1.4.09,1.77h-1.69c.06-.45.09-.87.09-1.79v-9.43c0-.76-.01-1.14-.06-1.62.46.04.78.06,1.47.06h2.53c.75,0,1.07-.02,1.49-.06-.04.44-.04.75-.04,1.33v2.38c0,.67,0,.96.03,1.29-.41-.01-.83-.03-1.32-.03h-2.58v6.09ZM59.98,145.7h2.46v-.75h-2.46v.75ZM59.98,147.58h2.46v-.77h-2.46v.77ZM67.25,153.28c0,.44.01.72.04.99-.33-.03-.62-.04-1.02-.04h-3.21v.96h-1.53c.04-.39.07-.86.07-1.4v-3.09c0-.39-.01-.73-.04-1.02.33.03.65.04,1.07.04h3.55c.45,0,.78-.01,1.11-.04-.03.27-.04.57-.04.99v2.61ZM63.06,152.9h2.73v-1.89h-2.73v1.89ZM70.49,154.81c0,1.32-.36,1.6-2.01,1.6-.22,0-.39,0-1.37-.04-.09-.71-.17-1-.39-1.53.58.08,1.3.12,1.75.12.42,0,.5-.06.5-.36v-5.9h-2.79c-.45,0-1.02.02-1.32.03.03-.34.04-.69.04-1.29v-2.38c0-.51-.01-.92-.04-1.33.45.04.75.06,1.47.06h2.73c.71,0,1.02-.02,1.49-.06-.04.46-.06.93-.06,1.61v9.48ZM66.34,145.7h2.64v-.75h-2.64v.75ZM66.34,147.58h2.64v-.77h-2.64v.77Z"/>
        <path d="M75.11,147.95c-1.06.18-1.3.22-1.56.3-.15.04-.27.06-.36.06-.27,0-.4-.48-.46-1.65.87,0,1.35-.04,2.42-.24,0-.48.01-1.04.01-1.23,0-.58-.03-1.09-.09-1.47,1.58.08,2.04.18,2.04.46q0,.08-.13.39t-.2,1.62c.48.38.74.68.72.87,0,.04-.03.08-.09.14-.22.19-.25.22-.52.61q-.06.08-.15.2l-.06.09c0,.23,0,.25-.02.54.45-.51.87-.93,1.28-1.26,1.32-1.08,2.31-1.53,3.39-1.53s1.77.44,2.29,1.33c.45.78.69,1.88.69,3.17,0,.78-.06,1.38-.23,2.5.72.51,1.5,1.3,1.5,1.51,0,.24-.84,1.08-1.09,1.08-.11,0-.12-.01-.32-.31-.12-.17-.28-.36-.61-.72-.21.39-.33.56-.54.75-.56.51-1.3.78-2.19.78-1.56,0-2.56-.79-2.56-2,0-1.27,1.04-2.23,2.4-2.23.78,0,1.35.1,1.86.33.06-.56.08-.83.08-1.31,0-2.37-.45-3.3-1.59-3.3-.81,0-1.89.57-3.03,1.59-.41.38-.72.69-1.37,1.4v.87c0,1.99.04,4,.11,4.53v.06c0,.27-.21.34-.93.34-.66,0-.79-.06-.79-.34v-.12c.03-.44.04-.96.04-1.62q0-.99.01-2.17s-.03.04-.06.08c-.33.4-.87,1.14-1.22,1.63-.17.24-.25.31-.36.31-.15,0-.42-.27-.88-.87-.18-.23-.29-.42-.29-.5s.08-.17.45-.5c.27-.25,1.29-1.5,1.81-2.19.27-.38.46-.64.58-.84v-1.15ZM80.85,153.1c-.69,0-1.11.29-1.11.75s.32.69.89.69c.5,0,.9-.15,1.17-.45.13-.14.34-.51.34-.57v-.02c-.51-.31-.81-.4-1.29-.4Z"/>
        <path d="M94.56,155.09c0,.66-.53,1.18-1.18,1.18s-1.19-.53-1.19-1.18.53-1.19,1.19-1.19,1.18.53,1.18,1.19ZM94.04,152.87h-1.33l-.41-8.98h2.16l-.42,8.98Z"/>
        <path d="M104.29,148.4c-.66,0-1.04.02-1.35.06v-.77h-1.33c.04-.33.06-.58.06-1.06v-1.07c0-.39-.02-.71-.06-1.08.46.04.88.06,1.59.06h3.75v-.33c0-.34-.01-.58-.08-.9h1.75c-.06.29-.07.53-.07.9v.33h3.96c.71,0,1.11-.01,1.59-.06-.05.36-.06.66-.06,1.05v1.09c0,.43.01.74.06,1.06h-1.32v.77c-.36-.04-.71-.06-1.37-.06h-2.91c0,.27,0,.3-.02.78h2.68c.72,0,.95-.01,1.29-.06v1.38c-.34-.04-.61-.06-1.29-.06h-2.79c-.03.34-.04.46-.11.78h4.5c.75,0,1.06-.01,1.49-.08v1.51c-.51-.06-.93-.09-1.56-.09h-3.67c.5.6.79.87,1.35,1.2.62.39,1.52.74,2.54.99.36.09.81.19,1.59.33-.34.51-.55.96-.75,1.54-1.33-.32-1.92-.5-2.7-.83-1.53-.69-2.5-1.47-3.41-2.73-.5.96-1.12,1.64-2.1,2.25-1,.65-1.92.98-3.51,1.29-.27-.72-.35-.87-.77-1.48,1.49-.21,2.24-.42,3.11-.89.84-.42,1.39-.93,1.84-1.68h-3.17c-.57,0-1.05.03-1.56.09v-1.51c.42.06.72.08,1.47.08h3.76c.06-.25.09-.42.13-.78h-2.44c-.67,0-.96.02-1.29.06v-1.38c.34.04.58.06,1.29.06h2.53c0-.2.02-.46.02-.78h-2.68ZM106.98,147.13c-.01-.45-.03-.66-.06-.93h1.67c-.04.18-.04.35-.06.93h2.88c.56,0,.75,0,1.12-.04v-1.19h-9.37v1.19c.31.03.57.04,1.12.04h2.7Z"/>
        <path d="M119.73,152.54c.04.06.06.11.06.17q0,.09-.25.78c-.32.92-.51,1.67-.57,2.25-.01.2-.08.27-.27.32-.21.06-.61.09-1,.09-.15,0-.22-.03-.27-.12-.13-.29-.38-1.32-.5-2.16-.1-.71-.15-1.44-.15-2.21,0-1.72.2-3.36.74-6.3.09-.48.12-.71.17-1.17.69.09,1.17.23,1.6.44.23.12.32.22.32.36,0,.09-.03.17-.11.29-.61,1.05-1.18,4.29-1.18,6.69,0,.36.01.93.06,1.65.36-.93.52-1.35.85-2.07.11.41.21.6.51,1ZM122.26,148.6c-.72,0-.87-.03-.92-.2-.04-.13-.09-.61-.09-.96,0-.12,0-.24.01-.51.41.03.64.04,1.14.04.81,0,1.32-.01,2.1-.08-.02-1.9-.03-2.14-.18-2.85.74.01,1.29.08,1.77.2.22.06.31.13.31.29,0,.06-.01.1-.06.22-.15.34-.23.93-.25,1.98.55-.07,1.03-.18,1.93-.39.08-.03.1-.03.15-.03.09,0,.13.04.17.15.03.13.07.71.07,1.02,0,.38-.01.44-.17.5-.24.12-.9.23-2.17.39,0,1.03.09,2.74.2,3.72.95.4,1.59.75,2.25,1.21.42.3.51.41.51.51,0,.17-.27.67-.58,1.11-.18.25-.27.33-.38.33s-.1,0-.45-.33c-.33-.33-.67-.58-1.33-1.02v.12c0,1.32-1.09,2.19-2.76,2.19s-2.8-.9-2.8-2.25,1.14-2.36,2.66-2.36c.55,0,.84.02,1.24.08q-.06-1.17-.1-3.18c-.65.04-1.67.09-2.26.09ZM123.48,153.01c-.75,0-1.25.34-1.25.87,0,.48.46.78,1.19.78.79,0,1.21-.36,1.21-1.05,0-.21-.02-.38-.02-.38-.39-.15-.73-.22-1.14-.22Z"/>
        <path d="M130.55,152.8c.27-.24.34-.3.45-.3.19,0,1.09.66,1.75,1.29.75.69,1.59,1.7,1.59,1.91,0,.13-.03.17-.46.55-.57.53-.69.62-.79.62-.09,0-.18-.06-.25-.21-.53-.93-1.73-2.16-2.79-2.85-.12-.09-.18-.15-.18-.24,0-.11.03-.15.69-.76Z"/>
        <path d="M150.32,144.83c1.25,0,2.19-.02,4.04-.06.66-.03.88-.04,1.09-.1.15-.04.2-.04.25-.04.29,0,.55.22.99.81.38.5.52.79.52,1.02,0,.17-.07.27-.24.38-.24.15-.29.19-.58.6-.54.75-1.2,1.46-2.16,2.34-.39.36-.53.45-.67.45-.11,0-.18-.03-.25-.12-.36-.42-.69-.67-1.23-.96,1.16-.71,1.94-1.46,2.85-2.76q-7.72.06-8.61.21c-.12.03-.17.03-.2.03-.22,0-.36-.14-.43-.44-.1-.41-.17-.88-.2-1.53.75.14,2.03.18,4.83.18ZM151.53,147.7c.3.08.42.17.42.32q0,.06-.09.25c-.08.2-.15.53-.22,1.04-.3,2.04-.77,3.39-1.54,4.48-.63.87-1.62,1.73-2.49,2.15-.1.06-.22.09-.29.09-.13,0-.22-.04-.33-.18-.3-.36-.66-.63-1.17-.93.86-.4,1.33-.71,1.86-1.15,1.44-1.25,2.16-3.08,2.16-5.49,0-.34,0-.55-.03-.83.72.04,1.23.12,1.72.25Z"/>
        <path d="M167.7,145.42c.17-.45.24-.77.33-1.3,1.3.46,2.1.91,2.1,1.2,0,.08-.03.12-.13.24-.29.3-.51.64-.75,1.16-.75,1.54-1.15,2.28-1.86,3.38.67.55,1.35,1.21,1.86,1.77.13.15.2.25.2.38,0,.15-.18.42-.6.87-.32.34-.5.5-.63.5-.07,0-.15-.04-.27-.18-.9-1.02-.99-1.12-1.65-1.78-1.27,1.6-2.73,2.97-4.14,3.9-.45.32-.72.43-.88.43-.15,0-.17,0-.54-.36-.25-.23-.63-.5-1.08-.75,2.07-1.02,3.78-2.45,5.28-4.46-.71-.58-1.07-.84-2.34-1.67-.3-.18-.33-.21-.33-.31,0-.17.18-.42.66-.98.17-.19.28-.27.4-.27.2,0,1.2.67,2.62,1.74.78-1.26,1.32-2.34,1.75-3.5Z"/>
        <path d="M178.11,148.67c0,.34.02,1.04.03,1.46,0,.15.01.3.01.36,0,.3-.21.36-1.38.36-.45,0-.54-.06-.54-.32v-.3c.06-1.17.09-1.81.09-2.88,0-1.74-.04-2.42-.17-3.19.77.01,1.47.06,1.82.13.21.04.33.15.33.33,0,.08-.02.12-.04.21-.12.3-.15.58-.15,1.3v2.54ZM183.95,146.72c0,2.14-.13,3.54-.42,4.59-.54,1.91-1.74,3.43-3.51,4.41-.38.21-.66.33-.77.33s-.18-.04-.28-.17c-.35-.44-.62-.68-1.14-1.02.96-.36,1.77-.87,2.43-1.51.76-.75,1.26-1.65,1.53-2.73.2-.85.33-2.47.33-4.2,0-1.21-.04-1.82-.15-2.37.9.01,1.44.08,1.9.17.2.04.29.12.29.27,0,.07-.01.13-.06.27-.12.33-.15.63-.15,1.33v.63Z"/>
        <path d="M194.67,148.22c-.48,3.17-1.74,5.5-3.75,6.99-.57.42-1.02.68-1.17.68-.11,0-.17-.04-.29-.18-.38-.42-.74-.73-1.23-1.02,1.73-.79,2.85-1.82,3.63-3.27.51-.95.83-1.95.99-3.2-.32,0-.54.01-.71.01-1.33,0-2,.03-2.59.15-.15.01-.21.03-.24.03-.17,0-.27-.08-.31-.24-.06-.21-.18-1.3-.2-1.68,1.16.13,1.91.17,3.69.17h.53c.03-.6.04-.96.04-1.44,0-.58-.01-.88-.08-1.26,1.74.08,2.19.18,2.19.45q0,.06-.09.27c-.11.27-.17.62-.21,1.32-.02.25-.03.39-.05.66h2.24q.67-.03.79-.04t.5-.2s.13-.03.2-.03c.24,0,.45.13.85.54s.57.65.57.84c0,.15,0,.17-.2.57-.04.09-.1.46-.12.76-.15,2.69-.45,4.67-.81,5.46-.24.54-.58.85-1.17,1.07-.39.15-.78.19-1.52.19-.99,0-1.12-.04-1.18-.39-.08-.48-.2-.83-.48-1.44.63.12,1,.15,1.5.15.87,0,1.12-.12,1.32-.63.34-.93.62-3.13.65-5.31h-3.3Z"/>
        <path d="M208.31,152.98c-.72,1.25-1.71,1.93-2.73,1.93-1.56,0-2.67-1.53-2.67-3.66,0-2.37,1.2-4.41,3.25-5.49,1-.54,2.08-.78,3.51-.78,3.14,0,5.46,2.22,5.46,5.19,0,2.62-1.29,4.51-3.78,5.58-.5.21-.89.33-1.08.33-.18,0-.25-.06-.45-.34-.25-.39-.54-.67-.95-.95,3.09-.79,4.49-2.25,4.49-4.68,0-1.25-.53-2.29-1.46-2.96-.53-.36-.95-.51-1.77-.64-.42,3.17-.92,4.89-1.83,6.46ZM206.15,147.67c-1,.88-1.58,2.14-1.58,3.55,0,1.16.38,1.83,1,1.83.75,0,1.52-1.04,2.08-2.82.36-1.12.54-1.98.77-3.64-1.07.22-1.59.48-2.28,1.08Z"/>
        <path d="M15.79,181.96h-1.95l3.63-11.68h2.28l3.63,11.68h-1.98l-.99-3.42h-3.62l-1,3.42ZM19.97,176.89l-.57-2.04c-.09-.3-.3-1.14-.39-1.54q-.22-.88-.33-1.32h-.15c-.36,1.49-.56,2.27-.69,2.75l-.62,2.16h2.75Z"/>
        <path d="M23.94,184.82v-11.28h1.8v.94c.4-.46.61-.66.96-.84.38-.19.82-.3,1.32-.3,2,0,3.23,1.63,3.23,4.3,0,2.8-1.28,4.5-3.36,4.5-.83,0-1.47-.3-2.14-.99v3.66h-1.8ZM25.75,179.3c.49.92,1.06,1.32,1.8,1.32,1.18,0,1.84-1.05,1.84-2.89s-.65-2.82-1.82-2.82c-.78,0-1.3.36-1.83,1.29v3.11Z"/>
        <path d="M32.03,184.82v-11.28h1.8v.94c.4-.46.61-.66.96-.84.38-.19.82-.3,1.32-.3,2,0,3.22,1.63,3.22,4.3,0,2.8-1.27,4.5-3.36,4.5-.83,0-1.47-.3-2.14-.99v3.66h-1.8ZM33.83,179.3c.49.92,1.06,1.32,1.8,1.32,1.18,0,1.84-1.05,1.84-2.89s-.65-2.82-1.82-2.82c-.78,0-1.3.36-1.83,1.29v3.11Z"/>
        <path d="M42.05,181.96h-1.83v-11.68h1.83v11.68Z"/>
        <path d="M44.71,178.15c.04.74.15,1.16.43,1.6.38.6.99.95,1.7.95.54,0,1-.21,1.35-.63.17-.21.27-.39.46-.87l1.53.77c-.41.73-.69,1.11-1.12,1.47-.57.46-1.38.72-2.29.72s-1.73-.25-2.36-.75c-.94-.76-1.47-2.02-1.47-3.57,0-1.33.38-2.49,1.08-3.33.66-.77,1.51-1.16,2.59-1.16,1.35,0,2.4.66,3.01,1.88.35.71.5,1.49.54,2.92h-5.46ZM48.35,176.78c-.17-1.35-.75-2.01-1.77-2.01s-1.66.71-1.84,2.01h3.62Z"/>
        <path d="M64.34,171.94c2.03,0,3.3,1.21,3.3,3.17s-1.41,3.09-3.75,3.09c-.51,0-1.04-.06-1.23-.13-.12-.04-.18-.12-.21-.25-.1-.5-.3-.98-.66-1.58.93.22,1.5.32,2.13.32,1.21,0,1.94-.56,1.94-1.52,0-.38-.11-.75-.25-.96-.27-.38-.86-.61-1.53-.61-.86,0-2.04.38-4.51,1.44q.94,2.35,1.47,3.79c.63,1.7,1.16,3.22,1.16,3.36,0,.12-.09.2-.39.33-.43.2-.99.38-1.18.38-.15,0-.17-.03-.32-.58-.69-2.52-1.3-4.35-2.22-6.58-1.14.52-1.68.82-2,1.12-.09.07-.18.12-.28.12-.2,0-.38-.15-.66-.55-.3-.42-.42-.64-.67-1.12.96-.27,1.57-.48,2.98-1.06-.78-1.79-.88-2-1.47-2.75.96-.38,1.5-.54,1.84-.54.32,0,.39.09.43.5.05.42.08.57.26.99.01.03.15.34.46,1.15,1.32-.54,1.78-.72,2.77-1.04-.06-.03-.08-.04-.12-.1-.51-.66-.82-.99-1.48-1.54-.03-.06-.04-.09-.04-.13q0-.09.51-.54c.2-.18.5-.36.58-.36.08,0,.15.03.24.09.92.69,1.54,1.32,1.54,1.58,0,.12-.45.62-.81.88.83-.22,1.54-.33,2.17-.33Z"/>
        <path d="M79.65,174.19c-.17-.71-.32-1.11-.55-1.48-.39-.58-1.02-.92-1.75-.92-.86,0-1.44.27-1.92.87-.6.76-.87,1.84-.87,3.43,0,2.88.97,4.36,2.86,4.36.84,0,1.44-.25,1.89-.82.3-.38.52-.89.52-1.19v-.99h-2.56v-1.53h4.36v6.03h-1.75v-.43c0-.09.02-.36.03-.79-.34.55-.64.83-1.16,1.08-.42.22-1.03.34-1.65.34-2.79,0-4.54-2.33-4.54-6.01s1.75-6.06,4.79-6.06c1.36,0,2.44.43,3.19,1.32.51.58.79,1.21,1.05,2.31l-1.93.48Z"/>
        <path d="M85.98,182.15c-2.28,0-3.69-1.68-3.69-4.42,0-1.32.36-2.43,1.04-3.22.64-.78,1.49-1.14,2.61-1.14,1.29,0,2.25.47,2.91,1.4.53.75.81,1.79.81,2.97,0,2.71-1.41,4.42-3.67,4.42ZM85.95,174.85c-1.17,0-1.8,1.02-1.8,2.91s.64,2.91,1.83,2.91,1.83-1.08,1.83-2.94-.64-2.88-1.86-2.88Z"/>
        <path d="M93.74,182.15c-2.28,0-3.69-1.68-3.69-4.42,0-1.32.36-2.43,1.04-3.22.64-.78,1.49-1.14,2.61-1.14,1.29,0,2.25.47,2.91,1.4.53.75.81,1.79.81,2.97,0,2.71-1.41,4.42-3.67,4.42ZM93.71,174.85c-1.17,0-1.8,1.02-1.8,2.91s.64,2.91,1.83,2.91,1.83-1.08,1.83-2.94-.64-2.88-1.86-2.88Z"/>
        <path d="M105.47,174.49c-.17-.01-.32-.01-.41-.01-.43,0-.75.09-1.08.29.3.46.41.84.41,1.42,0,1.72-1.18,2.79-3.09,2.79-.27,0-.62-.04-.93-.12-.44.27-.58.42-.58.64,0,.35.24.41,1.86.58,1.54.15,2.24.3,2.75.56.67.34.96.85.96,1.69,0,1.52-1.44,2.49-3.69,2.49-.9,0-1.69-.13-2.38-.38-1-.38-1.5-.93-1.5-1.7,0-.45.2-.84.58-1.15.23-.2.44-.32.92-.5-.78-.33-1.09-.69-1.09-1.25s.29-.95,1.14-1.51c-.3-.21-.43-.33-.58-.51-.33-.42-.51-.99-.51-1.65,0-1.74,1.2-2.83,3.09-2.83.83,0,1.35.17,1.95.58.5-.48.84-.69,1.35-.81.24-.04.38-.06.86-.06v1.42ZM100.82,181.48c-.15,0-.75.18-.92.29-.36.21-.55.48-.55.76,0,.67.9,1.14,2.24,1.14,1.44,0,2.25-.4,2.25-1.15,0-.41-.23-.6-.83-.74-.24-.06-.45-.09-1.11-.17-.87-.1-1.02-.13-1.06-.13h-.02ZM101.31,174.58c-.85,0-1.42.63-1.42,1.57s.58,1.58,1.44,1.58,1.41-.64,1.41-1.6-.57-1.54-1.42-1.54Z"/>
        <path d="M107.91,181.96h-1.83v-11.68h1.83v11.68Z"/>
        <path d="M110.57,178.15c.04.74.15,1.16.43,1.6.38.6.99.95,1.7.95.54,0,1-.21,1.35-.63.17-.21.27-.39.46-.87l1.53.77c-.41.73-.69,1.11-1.12,1.47-.57.46-1.38.72-2.29.72s-1.73-.25-2.36-.75c-.94-.76-1.47-2.02-1.47-3.57,0-1.33.38-2.49,1.08-3.33.66-.77,1.51-1.16,2.59-1.16,1.35,0,2.4.66,3.01,1.88.35.71.5,1.49.54,2.92h-5.46ZM114.21,176.78c-.17-1.35-.75-2.01-1.77-2.01s-1.66.71-1.84,2.01h3.62Z"/>
        <path d="M117.17,179.05c.27-.24.34-.3.45-.3.19,0,1.09.66,1.75,1.29.75.69,1.59,1.7,1.59,1.91,0,.13-.03.17-.46.55-.57.53-.69.62-.79.62-.09,0-.18-.06-.25-.21-.53-.93-1.73-2.16-2.79-2.85-.12-.09-.18-.15-.18-.24,0-.11.03-.15.69-.76Z"/>
        <path d="M140.84,176.74h-1.59c-2.85,0-4.59.06-5.37.18h-.11c-.13,0-.18-.05-.22-.21-.08-.3-.13-.99-.18-1.74.97.09,2.11.12,4.35.12.64,0,2.4-.02,3.12-.03v-2.19h-1.32c-2.33,0-3.25.01-5.29.09-.36.01-.51.03-.83.09h-.06c-.13,0-.2-.06-.23-.18q-.09-.5-.16-1.74c.88.1,1.95.15,4.03.15,3.86,0,4.07,0,5.68-.07-.04,1.51-.04,2.26-.04,4.69,0,1.86.04,4.5.08,5.25.01.22.01.24.01.31,0,.39-.13.44-1.17.44-.72,0-.73-.01-.73-.34v-.27c0-.09,0-.24.01-.43h-1.32c-3.44,0-5.55.06-6.29.18-.04.01-.09.01-.12.01-.15,0-.2-.06-.24-.33-.06-.3-.12-.94-.17-1.6,1,.09,2,.12,4.37.12q1.59,0,3.78-.03v-2.46Z"/>
        <path d="M151.73,175.34c2.75,0,4.32-.03,5.83-.13h.2c.45,0,.45.01.45,1.21,0,.61-.04.72-.3.72h-.06c-.99-.04-1.54-.04-5.88-.04-1.59,0-2.38.01-3.76.06h-.44c-.48,0-.55.02-.84.06-.08,0-.13.01-.17.01-.17,0-.27-.08-.3-.21-.09-.38-.15-1.14-.15-1.83,1.21.12,2.28.15,5.42.15Z"/>
        <path d="M163.68,180.98c0,.17-.04.27-.13.32-.12.04-.66.09-1.23.09-.51,0-.55-.03-.55-.39,0-.07,0-.24.01-.48.04-.79.12-5.62.12-7.53,0-.39,0-1.11-.01-1.54,1.3.08,3.36.12,5.59.12,1.83,0,3.27-.01,4.18-.06-.03.62-.04,2.97-.04,4.92,0,1.14.03,2.53.09,4.36v.21c0,.18-.03.27-.12.3-.09.06-.69.1-1.18.1-.57,0-.6-.01-.6-.33v-.76h-6.12v.67ZM169.81,173.26h-6.12v5.34h6.12v-5.34Z"/>
        <path d="M177.86,177.28c-.24-.55-.73-1.5-.93-1.79-.3-.43-.34-.51-.34-.6,0-.12.17-.27.57-.5.46-.27.53-.3.62-.29.13.02.33.24.69.81.49.75.94,1.6.94,1.79,0,.1-.1.21-.4.39-.35.21-.83.43-.92.43s-.15-.06-.23-.25ZM186.02,174.73c0,.06-.03.12-.09.2-.15.19-.24.34-.44.76-1.08,2.4-1.79,3.51-2.98,4.72-.89.89-2.28,1.92-2.6,1.92-.09,0-.17-.03-.25-.12-.27-.28-.69-.6-1.17-.87,2.27-1.2,3.53-2.42,4.58-4.37.58-1.11.97-2.28,1.04-3.15,1.25.34,1.92.67,1.92.9ZM182.16,176.05c0,.09-.69.51-1.11.67-.09.03-.15.04-.15.06-.04.02-.08.03-.09.03-.08,0-.15-.08-.2-.22-.21-.63-.63-1.5-1.09-2.27t-.04-.15c0-.11.12-.2.57-.44.55-.3.58-.31.67-.31.08,0,.1.03.21.13.21.29.85,1.42.97,1.75.09.25.15.44.2.5.04.04.06.09.06.1v.09s0,.04,0,.04Z"/>
        <path d="M194.36,173.05c0,.06-.03.13-.1.27-.17.27-.23.5-.42,1.35-.48,2.11-1.26,3.94-2.28,5.34-.44.6-.75.92-.93.92-.06,0-.12-.03-.23-.09-.5-.27-.92-.45-1.5-.58,1.38-1.2,2.43-3.12,2.99-5.43.18-.79.29-1.54.29-2.22v-.25c1.3.13,2.19.42,2.19.71ZM199.98,180.55c-.78-2.75-1.91-5.29-3.13-7.12-.18-.25-.2-.3-.2-.38,0-.12.13-.23.57-.48.45-.28.69-.39.82-.39.17,0,.21.06.78.95.67,1.05,1.33,2.38,2.12,4.32.52,1.29.84,2.26.84,2.54,0,.18-.08.24-.45.42-.36.18-.96.39-1.09.39-.12,0-.21-.09-.25-.24ZM202.22,171.4c0,.9-.71,1.61-1.6,1.61s-1.61-.71-1.61-1.61.71-1.6,1.61-1.6,1.6.71,1.6,1.6ZM199.82,171.4c0,.44.36.79.79.79s.79-.36.79-.79-.36-.79-.79-.79-.79.36-.79.79Z"/>
        <path d="M209.39,179.23c-.72,1.25-1.71,1.93-2.73,1.93-1.56,0-2.67-1.53-2.67-3.66,0-2.37,1.2-4.41,3.25-5.49,1-.54,2.08-.78,3.51-.78,3.14,0,5.46,2.22,5.46,5.19,0,2.62-1.29,4.51-3.78,5.58-.5.21-.89.33-1.08.33-.18,0-.25-.06-.45-.34-.25-.39-.54-.67-.95-.95,3.09-.79,4.49-2.25,4.49-4.68,0-1.25-.53-2.29-1.46-2.96-.53-.36-.95-.51-1.77-.64-.42,3.17-.92,4.89-1.83,6.46ZM207.23,173.92c-1,.88-1.58,2.14-1.58,3.55,0,1.16.38,1.83,1,1.83.75,0,1.52-1.04,2.08-2.82.36-1.12.54-1.98.77-3.64-1.07.22-1.59.48-2.28,1.08Z"/>
        <path d="M225.41,174.59c.34,1.29,1.11,2.68,2.07,3.76,1.06,1.23,2.26,2.04,3.97,2.75-.5.57-.69.88-1.05,1.65-2.85-1.45-4.65-3.37-5.73-6.12-.43,1.47-1.2,2.73-2.35,3.85-.97.97-2.01,1.65-3.43,2.28-.24-.56-.54-1-1-1.52,1.75-.7,3-1.56,3.93-2.68.9-1.09,1.38-2.25,1.63-3.97h-3.39c-.92,0-1.33.01-1.82.09v-1.8c.45.06.98.09,1.82.09h3.54c.03-.66.04-1,.04-1.58,0-.72-.03-1.15-.11-1.57h1.91c-.08.51-.09.7-.11,1.69,0,.62-.01.95-.03,1.46h3.81c.81,0,1.33-.03,1.81-.09v1.8c-.55-.06-1-.09-1.8-.09h-3.72Z"/>
        <path d="M239.88,169.72c.62.96,1.33,1.71,2.45,2.57,1.11.84,2.31,1.51,3.63,2.05-.33.46-.54.88-.79,1.59-1.23-.55-2.54-1.35-3.54-2.17-1.14-.92-1.74-1.53-2.54-2.58-.78,1.06-1.33,1.63-2.37,2.52-1.11.95-2.29,1.73-3.58,2.36-.25-.66-.42-.98-.81-1.53,1.25-.54,2.45-1.27,3.54-2.19,1-.81,1.74-1.64,2.36-2.61h1.66ZM240.2,180.88h3.58c.79,0,1.37-.03,1.81-.09v1.71c-.46-.06-1.05-.09-1.81-.09h-9.36c-.81,0-1.4.03-1.86.09v-1.71c.39.06.93.09,1.71.09h.65v-3.45c0-.67-.02-1.12-.08-1.65h1.75c-.06.44-.09.93-.09,1.65v3.45h2.08v-5.86c0-.72-.02-1.11-.09-1.61h1.79c-.06.44-.09.84-.09,1.56v1.42h2.38c.67,0,1.17-.03,1.58-.08v1.68c-.45-.06-.88-.07-1.56-.07h-2.4v2.95Z"/>
        <path d="M16.61,201.61c-.68,0-.99.02-1.47.06v-1.37c.41.04.77.06,1.47.06h1.75c-.24-.54-.38-.79-.54-1.08h-1.54c-.69,0-1.26.03-1.71.08v-1.44c.45.06.9.09,1.63.09h.46c-.27-.5-.45-.74-.97-1.33l1.44-.54c.48.66.67.99,1.11,1.88h.81v-1c0-.44-.03-.84-.08-1.12h1.56c-.03.27-.04.58-.04,1.06v1.07h1.06v-1.07c0-.45-.01-.76-.06-1.06h1.57c-.04.27-.07.67-.07,1.12v1h.9c.5-.69.78-1.21,1.04-1.91l1.47.54c-.31.54-.58.96-.88,1.37h.41c.75,0,1.2-.03,1.63-.09v1.44c-.45-.04-1.02-.08-1.71-.08h-1.46c-.24.54-.34.77-.52,1.08h1.66c.71,0,1.07-.01,1.49-.06v1.37c-.46-.04-.79-.06-1.49-.06h-3.76v.69h3.03c.63,0,1.08-.02,1.47-.06v1.26c-.38-.04-.84-.06-1.47-.06h-3.03v.72h4.04c.81,0,1.32-.03,1.72-.09v1.44c-.52-.06-1.05-.09-1.71-.09h-2.89c.48.42,1.14.8,1.95,1.16.92.38,1.69.6,3,.83-.4.54-.58.85-.82,1.47-2.42-.66-4.05-1.53-5.33-2.87.03.51.03.69.03,1.02v.72c0,.62.03,1.05.09,1.46h-1.7c.06-.42.09-.88.09-1.47v-.69c0-.33,0-.45.03-.99-.66.7-1.18,1.11-2.07,1.59-.92.51-1.82.88-2.94,1.21-.21-.5-.5-.93-.87-1.4,2.08-.43,3.54-1.06,4.71-2.04h-2.67c-.71,0-1.21.03-1.75.09v-1.44c.45.06.95.09,1.74.09h3.81v-.72h-2.85c-.63,0-1.09.01-1.47.06v-1.26c.39.04.82.06,1.47.06h2.85v-.69h-3.61ZM22.27,200.36c.21-.39.34-.69.48-1.08h-3.29c.2.42.3.69.43,1.08h2.37Z"/>
        <path d="M30.73,200.3c-.27.01-.43.03-.61.04-.14.01-.15.01-.17.01-.12,0-.18-.04-.23-.19-.08-.24-.18-1.04-.19-1.49.17.01.6.03,1.14.03.17,0,1.35-.08,1.88-.12.25-1.21.34-1.84.34-2.66,1.54.21,2.1.39,2.1.68,0,.1-.01.13-.24.48-.12.18-.17.34-.42,1.28.7-.12,1.12-.23,1.68-.41.1-.03.15-.04.22-.04.11,0,.13.08.23.51.07.38.12.69.12.85,0,.18-.04.21-.43.3-.51.12-1.38.27-2.31.39-.56,1.68-.93,2.58-1.62,3.99-.53,1.05-.83,1.6-1.23,2.23-.12.18-.19.24-.3.24-.15,0-.57-.22-1.09-.62-.24-.17-.3-.24-.3-.34s.06-.2.25-.46c.43-.54,1-1.47,1.5-2.46.42-.83.57-1.17,1-2.36-.58.04-.63.06-1.32.11ZM35.66,208.94c-1.64,0-2.75-.9-2.75-2.24s1.15-2.41,2.7-2.41c.36,0,.53.01,1.14.1-.06-.72-.06-1-.12-2.4,0-.29-.03-.68-.06-1.16.77.08,1.35.17,1.64.29.12.04.18.12.18.24,0,.08-.01.14-.03.24-.08.32-.09.54-.09.95,0,.55.04,1.5.09,2.23,1.07.48,1.5.72,2.25,1.31.33.25.45.39.45.51,0,.15-.08.29-.5.96-.18.3-.31.43-.42.43q-.09,0-.51-.39c-.33-.33-.71-.58-1.23-.9,0,1.4-1.02,2.24-2.74,2.24ZM35.63,205.73c-.72,0-1.21.34-1.21.87,0,.5.45.81,1.12.81.79,0,1.21-.4,1.21-1.2,0-.12,0-.24-.02-.24-.3-.15-.7-.24-1.11-.24ZM41.24,201.47c-.18.25-.27.33-.38.33-.08,0-.13-.03-.24-.13-.38-.36-.9-.75-1.46-1.1q-.36-.22-1.02-.52c-.21-.09-.29-.15-.29-.27,0-.1.08-.24.3-.58.36-.52.45-.61.58-.61.28,0,1.39.57,2.19,1.11.65.44.84.62.84.78,0,.12-.24.57-.54,1Z"/>
        <path d="M47.94,200.87c-.19-.66-.25-1.07-.43-2.91-.06-.72-.12-1.08-.27-1.59.91.01,1.5.06,1.9.17.23.06.33.17.33.33,0,.06-.01.13-.04.25-.1.36-.15.63-.15,1.02,0,.74.15,1.94.32,2.46.09.29.18.39.34.39.36,0,1.68-.69,2.4-1.24.19-.15.22-.17.3-.17.13,0,.27.1.5.39.38.51.67,1.07.67,1.28,0,.17-.11.27-.36.34-.93.25-2.46.85-3.49,1.35-1.83.9-2.66,1.73-2.66,2.66s.76,1.29,2.7,1.29c1.12,0,2.14-.11,3.52-.33.06-.02.17-.03.2-.03.12,0,.19.06.25.18.04.15.15,1.07.15,1.43,0,.21-.06.28-.26.34-.33.08-2.14.18-3.28.18-1.92,0-3.2-.25-3.99-.79-.67-.46-1.04-1.2-1.04-2.1,0-.69.2-1.31.6-1.91.52-.78,1.09-1.27,2.35-2.02-.31-.29-.43-.5-.57-.96ZM53.39,197.51c.12-.09.2-.12.29-.12.21,0,1.51,1.38,1.51,1.61,0,.09-.12.22-.41.46-.3.25-.33.27-.4.27-.09,0-.11,0-.39-.42-.3-.42-.72-.9-1.04-1.17-.04-.04-.07-.09-.07-.13,0-.08.13-.21.51-.5ZM56.64,197.92c0,.09-.04.15-.22.3-.21.18-.5.38-.56.38-.09,0-.12-.04-.3-.29-.34-.5-.55-.73-1.09-1.23-.06-.06-.08-.09-.08-.14,0-.13.57-.57.75-.57.25,0,1.5,1.27,1.5,1.54Z"/>
        <path d="M58.25,205.3c.27-.24.34-.3.45-.3.19,0,1.09.66,1.75,1.29.75.69,1.59,1.7,1.59,1.91,0,.13-.03.17-.46.55-.57.53-.69.62-.79.62-.09,0-.18-.06-.25-.21-.53-.93-1.73-2.16-2.79-2.85-.12-.09-.18-.15-.18-.24,0-.11.03-.15.69-.76Z"/>
        <path d="M73.93,197.99c0-.56-.03-1.07-.08-1.54.44.06.92.07,1.61.07h6.97c.69,0,1.12-.01,1.54-.07-.06.54-.08.97-.08,1.48v9.29c0,.73.01,1.21.08,1.75h-1.73v-.87h-6.69v.87h-1.72c.06-.53.09-1.07.09-1.75v-9.22ZM75.56,201.4h6.69v-3.34h-6.69v3.34ZM75.56,206.59h6.69v-3.68h-6.69v3.68Z"/>
        <path d="M88.76,199.78c-.62,0-1.16.03-1.71.09v-1.77c.58.08,1.02.11,1.71.11h3.71v-1.02c0-.57-.03-.92-.09-1.33h1.8c-.06.41-.09.78-.09,1.32v1.04h3.9c.72,0,1.23-.03,1.74-.11v1.77c-.62-.06-1.1-.09-1.74-.09h-3.09c.67,1.21,1.35,2.17,2.16,3.02.97,1.03,2.01,1.81,3.15,2.41-.45.54-.69.92-.99,1.58-.91-.63-1.59-1.17-2.41-2v1.62c-.44-.06-.84-.08-1.44-.08h-1.27v.99c0,.69.03,1.28.1,1.79h-1.83c.08-.54.11-1.11.11-1.8v-.98h-1.14c-.61,0-1,.02-1.44.08v-1.6c-.83.85-1.42,1.38-2.34,2.01-.29-.65-.5-.97-.97-1.5,2.14-1.33,3.9-3.29,5.01-5.54h-2.82ZM92.47,202.52c0-.43.04-1.04.1-1.6-.75,1.54-1.44,2.53-2.61,3.81.34.04.6.06,1.29.06h1.21v-2.26ZM95.47,204.79c.67,0,.92-.01,1.27-.06-1.14-1.14-1.75-2-2.79-3.83.09.6.14,1.19.14,1.61v2.28h1.38Z"/>
        <path d="M102.89,201.43c-.12.03-.18.06-.27.1-.08.04-.12.06-.2.06-.32,0-.55-.58-.74-1.7.12.02.23.02.29.02.63,0,2.24-.2,3.2-.39.31-1.32.48-2.31.48-3.03,0-.06,0-.14-.01-.25.64.07,1.26.21,1.68.38.24.09.36.22.36.38,0,.07-.02.12-.09.24q-.23.41-.69,2.05c.36-.04.76-.07,1.02-.07.62,0,1.1.12,1.44.36.6.44.9,1.32.9,2.69,0,2.23-.41,4.14-1.1,5.08-.48.66-1.11.98-1.99.98-.54,0-1.05-.08-1.2-.17q-.12-.08-.17-.63c-.04-.41-.13-.75-.32-1.17.78.25.98.3,1.46.3.72,0,1.02-.34,1.35-1.54.23-.79.35-1.83.35-2.92,0-1.17-.29-1.59-1.08-1.59-.27,0-.71.03-1.05.09-.04.17-.06.18-.12.39-.42,1.53-1.19,3.55-1.95,5.17-.79,1.63-.99,1.96-1.18,1.96-.12,0-.53-.21-.96-.5-.35-.21-.44-.3-.44-.42q0-.07.62-1.05c.83-1.27,1.91-3.78,2.28-5.25-1.11.24-1.73.39-1.86.44ZM110.54,199.75c0-.11.14-.24.57-.58.3-.23.45-.32.55-.32.09,0,.17.04.36.24.88.85,1.71,2,2.19,2.98.15.33.24.54.24.63,0,.15-.04.2-.52.58-.3.24-.65.44-.77.44-.1,0-.15-.04-.25-.3-.3-.74-.58-1.31-.94-1.86-.39-.6-.47-.69-1.35-1.63-.06-.09-.08-.13-.08-.18Z"/>
        <path d="M124.16,201.46c2.05,0,3.39,1.21,3.39,3.06s-1.12,3.01-3.37,3.73c-.81.26-2.15.5-2.75.5-.32,0-.39-.08-.6-.51-.16-.34-.34-.55-.79-.87,3.77-.3,5.62-1.26,5.62-2.89,0-.92-.64-1.46-1.72-1.46-1.37,0-2.78.71-3.93,1.95-.21.21-.41.46-.54.69-.13.23-.23.3-.36.3-.22,0-.75-.22-1.11-.49-.18-.14-.24-.24-.24-.48q0-.12.04-.48s0-.15.01-.32c.08-.96.12-1.37.3-2.71q.03-.17.14-.87s.04-.33.12-.88c.01-.13.03-.25.03-.5.72.11,1.4.27,1.68.43.12.06.18.14.16.23,0,.06-.03.1-.07.2-.17.25-.21.39-.35.96-.13.57-.34,1.89-.38,2.38,1.53-1.41,2.87-1.96,4.71-1.96ZM123.89,197.18c.58.34.76.51.76.67,0,.14-.24.58-.5.96-.24.35-.33.42-.45.42-.07,0-.12-.03-.3-.17-1-.76-1.8-1.2-2.92-1.59-.22-.09-.27-.12-.27-.24,0-.15.12-.41.39-.79.24-.36.34-.45.51-.45.36,0,1.83.63,2.78,1.18Z"/>
        <path d="M134.35,200.6c-1.07-.21-1.88-.52-2.43-.92-.27-.18-.33-.25-.33-.39,0-.17.12-.46.54-1.3.73.46,1.56.79,2.5.99.21-1.05.3-1.92.31-2.89.77.13,1.44.36,1.82.57.17.09.22.18.21.3,0,.06-.03.12-.11.27-.22.46-.24.51-.55,1.98.15.01.34.01.46.01h.11c.36-.01.63-.01.76-.01h.04c.13,0,.18.06.18.25,0,.66-.04,1.2-.1,1.3-.04.08-.24.11-.87.11-.29,0-.51-.02-.93-.03q-.32,1.54-.45,2.35c.51.04.62.04.87.04h.84c.15-.01.22.02.27.09.06.09.11.57.11,1.11,0,.27-.02.34-.11.39-.07.03-.4.05-.97.05-.27,0-.67-.02-1.2-.05-.01.27-.01.45-.01.57,0,1.38.64,2.01,2.05,2.01,1.58,0,2.52-.76,2.52-2.05,0-.46-.1-.88-.34-1.35-.3-.57-.58-.9-1.3-1.47h.13c.24,0,.75-.07,1.2-.16.24-.05.33-.06.41-.06.22,0,.38.11.67.48.69.84,1.04,1.72,1.04,2.65,0,2.12-1.71,3.51-4.31,3.51-2.43,0-3.64-1.21-3.64-3.67,0-.21,0-.38.03-.63-1.49-.31-2.29-1.05-2.29-2.12,0-.55.17-.96.58-1.38.04-.06.1-.07.17-.07.09,0,.19.07.54.36.27.23.31.27.31.35q0,.06-.09.19c-.06.11-.12.27-.12.36,0,.19.12.36.35.46.21.1.27.12.75.22l.39-2.43Z"/>
        <path d="M146.45,197.3c0-.69-.01-1-.09-1.47h1.73c-.08.45-.09.79-.09,1.46v1.18h.79c.32,0,.5-.01.72-.04v1.49c-.25-.03-.48-.04-.75-.04h-.77v2.19c.44-.15.65-.22,1.26-.46v1.41q-.84.33-1.26.48v4.18c0,.63-.22,1.05-.64,1.19-.3.1-.86.17-1.39.17-.26,0-.45-.02-.87-.04-.06-.63-.12-.92-.35-1.5.54.08.93.1,1.28.1s.43-.08.43-.43v-3.13q-1.32.42-1.59.54l-.31-1.61c.62-.08.71-.09,1.9-.42v-2.65h-.73c-.36,0-.62.01-1.02.06v-1.53c.33.06.6.08,1.04.08h.72v-1.17ZM156.92,202.76q-.1.13-.38.58c-.75,1.25-1.3,1.98-2.1,2.75,1.11.71,2.07,1.08,3.55,1.36-.39.48-.67.99-.9,1.56-1.77-.54-2.82-1.04-3.93-1.86-1.17.86-2.38,1.41-4.05,1.89-.31-.64-.51-.97-.88-1.44,1.5-.32,2.45-.71,3.76-1.53-.84-.9-1.23-1.5-1.8-2.8-.27.01-.45.03-.69.06v-1.52c.31.06.66.08,1.15.08h4.54c.39,0,.66-.01.87-.06l.84.93ZM157.86,198.73c-.17,2.16-.33,2.34-2.22,2.34-.69,0-1.04-.03-1.26-.1-.44-.15-.57-.41-.57-1.08v-2.19h-1.74c-.06,2.12-.62,3.24-2.05,4.19-.34-.45-.63-.71-1.16-1.08,1.31-.72,1.73-1.67,1.73-3.92,0-.22-.02-.41-.04-.72.27.03.61.04.94.04h2.97c.32,0,.63-.02.9-.04-.03.18-.04.51-.04.92v2.2c0,.23.01.29.12.32.06.03.24.04.39.04.21,0,.42-.03.48-.08.13-.1.18-.39.18-1.17v-.17c0-.1,0-.27-.02-.48.83.45.96.51,1.41.66v.31ZM151.79,203.27c.38.74.83,1.33,1.44,1.91.69-.58,1.04-.99,1.6-1.91h-3.04Z"/>
        <path d="M164.85,198.02c-.42.45-.79.78-1.37,1.21-.33-.45-.58-.69-.97-.96,1.14-.75,2-1.72,2.31-2.58l1.52.27q-.11.15-.26.41c-.07.13-.18.29-.31.46h4.23c.62,0,.95-.01,1.2-.06l.85.68c-.12.15-.15.19-.25.36-.54.78-.73,1.04-1.33,1.62-.43-.24-.81-.39-1.33-.55.46-.32.63-.46.96-.86h-2.22c.45,1.42,1.95,2.21,4.54,2.34-.3.51-.43.83-.58,1.41-.6-.1-.83-.15-1.32-.27-.01.42-.01.81-.01,1.23v2.67q.01,1.28.06,1.53c-.31-.03-.91-.04-1.53-.04h-.67c1.15.54,2.13.78,3.99.96-.36.42-.52.67-.9,1.32-2.13-.36-3.17-.72-4.7-1.65l.84-.63h-3.94l.88.63c-1.5.92-2.46,1.26-4.56,1.65-.33-.6-.45-.76-.88-1.27,1.9-.23,2.86-.48,3.84-1h-.58c-.68,0-1.19.01-1.53.04.03-.27.06-.86.06-1.44v-2.85c0-.66-.01-1.07-.06-1.47.29.01.83.03,1.47.03h.75c-.17-.36-.33-.6-.6-.93-.77.36-.98.45-2.08.9-.21.09-.36.15-.62.29l-.57-1.49c.96-.18,2.24-.64,3.53-1.29l.43,1.26-.51.25c1-.13,1.63-.28,2.17-.52.9-.41,1.33-.87,1.53-1.65h-1.46ZM161.8,198.49c-.83-.66-1.33-.97-2.28-1.41l.93-1.1c1.07.5,1.49.74,2.34,1.32l-.99,1.18ZM162.36,202.79h6.63v-.54h-6.63v.54ZM162.36,204.29h6.63v-.57h-6.63v.57ZM162.36,205.76h6.63v-.54h-6.63v.54ZM169.08,201.2h.5c-1.2-.43-1.89-.99-2.46-1.9-.38.62-.71.93-1.33,1.3-.45.27-.88.44-1.62.6h4.92Z"/>
        <path d="M176.18,199.97c-.39.09-.53.13-1.07.33-.19.08-.3.1-.39.1-.33,0-.63-.61-.9-1.9.96-.04,1.31-.09,2.97-.34,1.8-.27,4.08-.62,5.28-.77,1.35-.18,2.43-.36,3-.48.1-.03.15-.03.22-.03.2,0,.27.09.41.46.12.32.21.76.21.97,0,.18-.06.24-.27.24-.32,0-.6.03-.89.08-2.53.42-4.56,2.64-4.56,4.98,0,1.75,1.38,2.91,3.72,3.12.21.01.29.09.29.27,0,.38-.15,1.09-.29,1.42-.08.17-.19.24-.39.24s-.65-.09-1.11-.22c-2.55-.75-3.88-2.37-3.88-4.67,0-1.25.41-2.4,1.19-3.39.42-.54.78-.84,1.63-1.42-1.96.33-4.04.72-5.17,1ZM183.86,200.36c.21,0,1.48,1.43,1.48,1.65,0,.08-.09.17-.36.41-.29.24-.3.24-.42.28q-.08.03-.11.03c-.06,0-.08-.01-.34-.43-.24-.38-.5-.71-.97-1.2-.03-.03-.08-.11-.08-.12.03-.08.04-.12.06-.12.04-.06.3-.27.36-.31.15-.08.24-.14.25-.15.01-.03.04-.03.04-.03h.08ZM186.42,201.4c-.22.17-.36.25-.43.25-.06,0-.09-.03-.17-.15-.45-.67-.67-.96-1.16-1.42-.03-.05-.06-.09-.06-.12,0-.08.09-.17.3-.32.21-.15.39-.24.46-.24.11,0,.29.14.6.45.44.45.84,1,.84,1.14,0,.09-.11.2-.39.41Z"/>
        <path d="M193.79,199.39c-1.29.22-2.62.38-3.43.38-.24,0-.34-.04-.38-.18-.06-.23-.12-.67-.15-1.23,1.22,0,2.15-.08,3.48-.29q-.08-.22-.27-.78c-.13-.36-.25-.66-.42-.98.65-.13,1.23-.21,1.77-.21.13,0,.21.09.21.24v.21c0,.27.06.63.21,1.21,1.12-.25,2.08-.57,2.85-.9.12-.04.15-.06.2-.06.07,0,.12.08.25.39.13.34.27.73.27.81s-.03.1-.12.15c-.88.38-1.29.51-3.03.94.21.53.27.66.52,1.2.83-.22,1.23-.36,1.53-.51l1.41-.71s.04-.03.04-.03c.01,0,.04.01.06.01.06,0,.12.09.25.38.18.36.33.77.33.86q0,.1-.31.27c-.83.45-1.47.71-2.55,1,.6.89,1.46,1.85,1.96,2.21.51.36.52.39.52.54,0,.13-.15.45-.43.95-.25.43-.38.55-.54.55-.09,0-.11,0-.33-.17-.76-.58-2.31-.99-3.79-.99-1.29,0-2.1.45-2.1,1.2,0,.46.36.84,1,1.08.58.21,1.88.34,3.27.34.33,0,.62-.01,1.2-.04-.27.39-.41.66-.58,1.29-.09.32-.2.38-.66.38-1.6,0-3.03-.18-3.99-.52-1.28-.45-1.95-1.29-1.95-2.42,0-1.61,1.32-2.58,3.51-2.58,1.35,0,2.21.15,3.15.57-.84-.79-1.29-1.33-1.72-2.04-.72.15-1.08.21-1.56.29-.86.12-2.42.24-3.04.24-.48,0-.5-.01-.63-1.42.33.02.58.02.73.02.96,0,2.79-.2,3.79-.41-.18-.38-.38-.81-.54-1.25Z"/>
        <path d="M210.62,201.13c2.12,0,3.62,1.44,3.62,3.48,0,1.39-.74,2.66-1.96,3.39-.86.51-1.91.77-3.09.77-1.91,0-3.02-.77-3.02-2.07,0-1.18.99-2.02,2.4-2.02,1.27,0,2.19.64,2.8,1.96.76-.56,1.08-1.14,1.08-1.95,0-1.29-.92-2.13-2.36-2.13s-3.04.73-4.35,2.04c-.24.24-.46.5-.73.84-.11.15-.18.21-.27.21-.27,0-1.33-1.05-1.33-1.32,0-.13.06-.21.39-.45.34-.27.84-.7,1.47-1.3,1.46-1.38,2.52-2.54,4.09-4.46-1.88.24-3.13.45-3.6.62-.08.02-.12.03-.17.03-.12,0-.2-.08-.29-.3-.18-.45-.27-.95-.32-1.61.41.06.69.08,1.02.08.72,0,1.93-.1,3.51-.29.55-.06.73-.1,1.15-.27.14-.06.21-.08.3-.08.21,0,.42.18.81.78.29.39.38.58.38.71,0,.19-.04.25-.38.46-.27.17-.43.3-.78.63-.75.72-.76.72-1.69,1.67-.66.67-.74.75-1.33,1.35.97-.54,1.74-.76,2.64-.76ZM209.18,206.32c-.23-.15-.48-.22-.77-.22-.46,0-.76.22-.76.58,0,.43.46.71,1.18.71.33,0,.62-.03.99-.14-.18-.5-.33-.72-.64-.93Z"/>
        <path d="M222.77,205.48c-.72,1.25-1.71,1.93-2.73,1.93-1.56,0-2.67-1.53-2.67-3.66,0-2.37,1.2-4.41,3.25-5.49,1-.54,2.08-.78,3.51-.78,3.14,0,5.46,2.22,5.46,5.19,0,2.62-1.29,4.51-3.78,5.58-.5.21-.89.33-1.08.33-.18,0-.25-.06-.45-.34-.25-.39-.54-.67-.95-.95,3.09-.79,4.49-2.25,4.49-4.68,0-1.25-.53-2.29-1.46-2.96-.53-.36-.95-.51-1.77-.64-.42,3.17-.92,4.89-1.83,6.46ZM220.61,200.17c-1,.88-1.58,2.14-1.58,3.55,0,1.16.38,1.83,1,1.83.75,0,1.52-1.04,2.08-2.82.36-1.12.54-1.98.77-3.64-1.07.22-1.59.48-2.28,1.08Z"/>
        <path d="M236.17,206.8c0,1.41-1.14,2.55-2.54,2.55s-2.53-1.14-2.53-2.55,1.14-2.54,2.53-2.54,2.54,1.14,2.54,2.54ZM232.27,206.8c0,.76.62,1.38,1.36,1.38s1.37-.62,1.37-1.38-.62-1.37-1.37-1.37-1.36.62-1.36,1.37Z"/>
        <path d="M15.22,225.83c1,.63,1.56,1.06,2.33,1.81l-1.02,1.19c-.79-.87-1.27-1.26-2.31-1.92l1-1.08ZM17.59,230.86c-.42,1.32-.69,2.05-1.25,3.31l-.55,1.19-1.37-1.14c.09-.09.18-.2.29-.39.55-.9,1.09-2.26,1.59-3.96l1.29.99ZM15.89,222.2c.9.63,1.5,1.12,2.21,1.88l-1.11,1.15c-.79-.92-1.35-1.42-2.18-1.98l1.08-1.05ZM25.46,223.36c1.06,0,1.53-.01,2.05-.09v1.54c-.39-.04-.86-.06-1.89-.06h-5.4c-.25.43-.38.62-.64,1.02h5.55c.69,0,1.12-.01,1.51-.04-.03.21-.04.34-.08.81-.01.39-.03.67-.04,1.51q-.01.46-.03.6c.72,0,.86-.01,1.28-.08v1.53c-.43-.06-.78-.08-1.2-.08h-.15c-.03.57-.09,1.37-.14,1.79.57,0,.78-.01,1.08-.08v1.52c-.34-.05-.61-.06-1.09-.06h-.17c-.29,1.77-.63,2.12-2.14,2.12-.24,0-.41-.02-1.29-.08-.02-.62-.09-.96-.32-1.47.57.09,1.05.13,1.47.13.53,0,.6-.08.77-.71h-4.88c-.11.46-.13.6-.27,1.12l-1.61-.15c.39-1.17.71-2.53.95-4.14h-.21c-.46,0-.74.02-1.12.08v-1.53c.39.06.71.08,1.35.08h.15c.1-.94.15-1.68.15-2.25-.25.32-.4.48-.87.95-.3-.48-.61-.83-1.08-1.17.91-.83,1.35-1.33,1.84-2.19.4-.7.72-1.48.81-2.05l1.65.3c-.06.17-.11.27-.15.36-.13.33-.15.36-.33.76h4.49ZM21.64,231.82c.11-.71.13-.88.22-1.79h-1.62c-.11.77-.14.96-.27,1.79h1.67ZM22,228.65q.03-.51.07-1.56h-1.56c-.04.76-.06.99-.12,1.56h1.61ZM24.81,231.82c.06-.57.12-1.11.17-1.79h-1.74c-.06.6-.13,1.19-.21,1.79h1.79ZM25.04,228.65q.03-.99.04-1.56h-1.62c-.03.54-.06,1.05-.11,1.56h1.68Z"/>
        <path d="M32.33,227.26c.69.55,1,.84,1.58,1.47.43-1.08.64-1.89.91-3.42h-2.1c-.64,1.65-1.53,3.08-2.76,4.44-.3-.63-.43-.82-.96-1.38,1.16-1.18,2.05-2.7,2.64-4.47.18-.57.38-1.46.41-1.88l1.67.29c-.11.25-.17.46-.27.83-.09.33-.12.46-.22.81h2.07c.52,0,.84-.01,1.17-.04-.06.32-.08.38-.14.98.39.84.63,1.21,1.41,2.08v-3.18c0-.73-.01-1.12-.09-1.66h1.75c-.08.55-.09.93-.09,1.66v4.67c.39.29.67.48,1.38.88,1.04.62,1.2.69,1.93.96-.31.45-.58.95-.84,1.58-1.17-.62-1.54-.85-2.47-1.53v3.12c0,.84.01,1.26.1,1.91h-1.78c.07-.6.1-1.12.1-1.91v-4.44c-.85-.86-1.25-1.3-1.74-2.08-.4,1.91-1.03,3.46-1.92,4.8-.88,1.3-2.13,2.55-3.6,3.6-.34-.55-.71-.97-1.15-1.3.75-.45,1.02-.65,1.71-1.28,1.05-.94,1.59-1.6,2.19-2.62-.53-.64-1.02-1.11-1.75-1.69l.87-1.17Z"/>
        <path d="M49.25,231.73c-.72,1.25-1.71,1.93-2.73,1.93-1.56,0-2.67-1.53-2.67-3.66,0-2.37,1.2-4.41,3.25-5.49,1-.54,2.08-.78,3.51-.78,3.14,0,5.46,2.22,5.46,5.19,0,2.62-1.29,4.51-3.78,5.58-.5.21-.89.33-1.08.33-.18,0-.25-.06-.45-.34-.25-.39-.54-.67-.95-.95,3.09-.79,4.49-2.25,4.49-4.68,0-1.25-.53-2.29-1.46-2.96-.53-.36-.95-.51-1.77-.64-.42,3.17-.92,4.89-1.83,6.46ZM47.09,226.42c-1,.88-1.58,2.14-1.58,3.55,0,1.16.38,1.83,1,1.83.75,0,1.52-1.04,2.08-2.82.36-1.12.54-1.98.77-3.64-1.07.22-1.59.48-2.28,1.08Z"/>
        <path d="M67.32,227.68h2.13c.68,0,1.1-.03,1.54-.09v1.63c-.48-.04-.93-.08-1.56-.08h-1.62c.86,1.5,2.1,2.75,3.58,3.58-.48.48-.69.78-.99,1.5-.61-.43-1.05-.86-1.62-1.5-.74-.85-1.05-1.32-1.53-2.22.03.54.04,1,.04,1.44v1.82c0,.67.03,1.2.09,1.67h-1.67c.06-.46.09-1,.09-1.68v-1.71c0-.4.02-.88.04-1.48-.91,1.65-1.93,2.76-3.39,3.73-.38-.71-.58-1-.9-1.36,1.54-.89,2.8-2.17,3.67-3.78h-.95c-.64,0-1.11.03-1.58.09v-.6c-.25.36-.43.69-.61,1.21-.38-.58-.6-1.05-.89-1.8.03.46.06,1.27.06,1.91v3.69c0,.76.03,1.32.09,1.77h-1.67c.06-.46.09-1.02.09-1.77v-3.1c0-.57.02-.93.11-1.86-.44,1.46-.87,2.43-1.51,3.41-.18-.68-.38-1.11-.68-1.61.72-.92,1.47-2.61,1.92-4.35h-.57c-.44,0-.69.01-.96.06v-1.53c.24.04.51.06.96.06h.72v-1.16c0-.76-.01-1.14-.08-1.5h1.65c-.06.39-.08.8-.08,1.5v1.16h.43c.36,0,.54-.01.78-.06v1.42c.57-1.02,1.05-2.52,1.09-3.5l1.46.38c-.06.17-.1.34-.21.79-.08.27-.1.41-.18.69h1.15v-.99c0-.62-.03-.99-.09-1.37h1.68c-.06.36-.09.77-.09,1.37v.99h1.7c.72,0,1.14-.03,1.54-.09v1.58c-.42-.04-.9-.08-1.54-.08h-1.7v1.82ZM64.19,225.86c-.25.62-.39.9-.81,1.61q-.36-.38-1.17-.95c.12-.17.17-.24.24-.34-.2-.03-.44-.04-.71-.04h-.38c.34.79.71,1.39,1.36,2.28v-.82c.45.06.87.09,1.56.09h1.53v-1.82h-1.63Z"/>
        <path d="M76.35,231.29c.04.06.06.11.06.17q0,.09-.25.78c-.32.92-.51,1.67-.57,2.25-.01.2-.08.27-.27.32-.21.06-.61.09-1,.09-.15,0-.22-.03-.27-.12-.13-.29-.38-1.32-.5-2.16-.1-.71-.15-1.44-.15-2.21,0-1.72.2-3.36.74-6.3.09-.48.12-.71.17-1.17.69.09,1.17.23,1.6.44.23.12.32.22.32.36,0,.09-.03.17-.11.29-.61,1.05-1.18,4.29-1.18,6.69,0,.36.01.93.06,1.65.36-.93.52-1.35.85-2.07.11.41.21.6.51,1ZM78.88,227.35c-.72,0-.87-.03-.92-.2-.04-.13-.09-.61-.09-.96,0-.12,0-.24.01-.51.41.03.64.04,1.14.04.81,0,1.32-.01,2.1-.08-.02-1.9-.03-2.14-.18-2.85.74.01,1.29.08,1.77.2.22.06.31.13.31.29,0,.06-.01.1-.06.22-.15.34-.23.93-.25,1.98.55-.07,1.03-.18,1.93-.39.08-.03.1-.03.15-.03.09,0,.13.04.17.15.03.13.07.71.07,1.02,0,.38-.01.44-.17.5-.24.12-.9.23-2.17.39,0,1.03.09,2.74.2,3.72.95.4,1.59.75,2.25,1.21.42.3.51.41.51.51,0,.17-.27.67-.58,1.11-.18.25-.27.33-.38.33s-.1,0-.45-.33c-.33-.33-.67-.58-1.33-1.02v.12c0,1.32-1.09,2.19-2.76,2.19s-2.8-.9-2.8-2.25,1.14-2.36,2.66-2.36c.55,0,.84.02,1.24.08q-.06-1.17-.1-3.18c-.65.04-1.67.09-2.26.09ZM80.1,231.76c-.75,0-1.25.34-1.25.87,0,.48.46.78,1.19.78.79,0,1.21-.36,1.21-1.05,0-.21-.02-.38-.02-.38-.39-.15-.73-.22-1.14-.22Z"/>
        <path d="M92.84,227.65c.01-.34.01-.55.01-1.11,0-.14,0-.54-.01-1.23-1.08.22-2.96.51-3.32.51-.15,0-.25-.07-.33-.25-.09-.22-.31-.62-.46-.84,0-.01-.12-.15-.36-.43,1.99-.02,3.93-.32,5.8-.9.85-.27,1.36-.51,2.07-.93.66.58,1.2,1.27,1.2,1.53,0,.14-.09.2-.29.23-.29.03-.46.08-.84.2-.78.25-.92.3-1.68.49.01.58.01.68.01,1.47v1.26c2.24-.03,3.88-.08,4.37-.12.06-.01.1-.01.15-.01.2,0,.24.15.24.79,0,.96-.01.99-.24.99-.03,0-.51-.03-.67-.04-.63-.04-1.51-.06-3.94-.06-.18,1.5-.62,2.76-1.31,3.81-.43.66-1.17,1.47-1.74,1.92-.09.06-.15.09-.23.09q-.13,0-.63-.3c-.3-.2-.67-.34-1.23-.54,1.09-.64,1.81-1.33,2.4-2.33.44-.75.78-1.72.9-2.62-2.79.03-3.93.07-4.63.19-.17.02-.23.03-.27.03-.13,0-.19-.04-.22-.15-.11-.34-.18-1-.21-1.72.64.08,1.6.11,3.54.11h.42l1.5-.02Z"/>
        <path d="M110.82,226.69c.15-.09.21-.1.32-.1.36,0,1.33.99,1.33,1.35,0,.11-.04.17-.15.25-.21.18-.29.25-.48.58-.39.65-.95,1.37-1.53,1.98-.24.25-.38.34-.5.34-.09,0-.18-.04-.29-.12-.4-.32-.61-.42-1.26-.65.84-.55,1.41-1.09,2.07-2.01q-1.95.46-3.12.77c.63,2.49.85,3.3,1.41,5.16.03.14.04.2.04.25,0,.14-.15.23-.55.33-.26.08-.77.17-.9.17-.18,0-.21-.06-.29-.5-.13-.79-.67-2.97-1.23-5.02-1.11.32-1.29.36-1.86.63-.17.08-.25.11-.33.11-.29,0-.62-.68-.87-1.73.75-.03,1.11-.09,2.67-.43-.31-1.17-.46-1.59-.82-2.25.81-.13,1.41-.2,1.8-.2.25,0,.36.08.36.24,0,.04,0,.08-.01.17-.03.09-.03.15-.03.22,0,.3.06.6.27,1.49,2.88-.64,3.58-.83,3.94-1.04Z"/>
        <path d="M128.03,226.61c.08.15.1.25.1.35,0,.15-.06.25-.25.52-.82,1.08-1.71,1.95-3.04,2.99-1.5,1.17-2.77,1.95-4.57,2.8-1.16.54-1.21.57-1.4.74-.12.12-.18.15-.27.15-.13,0-.25-.12-.48-.45-.3-.45-.58-1.06-.75-1.59,1.52-.34,3.33-1.15,5.08-2.26,2.31-1.46,3.76-2.89,4.89-4.86.17.55.3.85.69,1.62ZM118.04,224.09c.25-.29.36-.36.49-.36.29.02,1.41.74,2.34,1.49.57.46.75.66.75.81,0,.11-.27.51-.63.92-.33.38-.49.51-.61.51q-.11,0-.72-.58c-.39-.38-1.17-1-1.56-1.24q-.53-.35-.63-.41c-.06-.04-.09-.09-.09-.13,0-.14.29-.56.66-.99Z"/>
        <path d="M141.03,231.53c.96.87,1.54,1.5,1.54,1.67,0,.13-.2.38-.66.83-.34.33-.5.43-.6.43-.06,0-.13-.03-.22-.1q-.17-.2-.86-.98c-.83-.93-1.95-1.92-3.25-2.85-.99,1.04-2.33,2.16-3.4,2.9-.86.58-1.67,1.03-1.85,1.03-.15,0-.17-.01-.52-.42-.21-.24-.56-.54-.93-.81,1.73-.79,3-1.65,4.42-2.96,1.54-1.41,2.57-2.71,3.77-4.79q-5.07.03-5.9.12c-.18.02-.21.02-.24.02-.17,0-.25-.08-.29-.24-.08-.48-.11-.93-.11-1.72,1.02.13,2.61.19,4.79.19.88,0,1.81-.03,2.31-.09.2-.01.23-.03.54-.13.06-.03.09-.03.18-.03.25,0,.52.21.88.69.29.4.45.72.45.88,0,.18-.05.24-.44.6-.24.24-.34.36-.81,1.12-.45.75-1.14,1.7-1.71,2.38,1.17.78,1.96,1.38,2.89,2.25Z"/>
        <path d="M146.06,228.01c-.12.03-.18.06-.27.1-.08.04-.12.06-.18.06-.33,0-.57-.57-.75-1.68h.29c.63,0,2.24-.19,3.2-.39.31-1.3.48-2.31.48-3.01,0-.06,0-.15-.01-.25.64.06,1.26.19,1.68.38.24.09.36.21.36.36,0,.08-.02.14-.09.26q-.23.39-.69,2.04c.36-.04.76-.07,1.02-.07.62,0,1.1.12,1.44.36.6.44.9,1.32.9,2.69,0,2.23-.41,4.15-1.1,5.1-.48.66-1.11.97-2,.97-.54,0-1.05-.08-1.2-.17q-.12-.08-.17-.63c-.04-.41-.13-.76-.32-1.18.78.27.98.31,1.46.31.72,0,1.02-.34,1.35-1.56.23-.79.35-1.82.35-2.92,0-1.17-.29-1.59-1.08-1.59-.27,0-.71.04-1.05.09-.04.18-.06.19-.12.39-.42,1.54-1.19,3.55-1.95,5.17-.79,1.63-.99,1.96-1.18,1.96-.12,0-.53-.21-.96-.5-.35-.21-.44-.3-.44-.42q0-.07.62-1.05c.83-1.27,1.91-3.76,2.28-5.25-1.11.25-1.73.39-1.86.44ZM155.48,224.93c-.24.18-.41.25-.48.25-.04,0-.09-.03-.13-.1-.32-.51-.84-1.1-1.28-1.47-.03-.03-.04-.06-.04-.09,0-.06.11-.17.36-.36.25-.18.33-.23.43-.23.24,0,1.56,1.33,1.56,1.58,0,.09-.12.2-.42.42ZM153.89,226.52c0-.1.13-.24.57-.58.3-.22.45-.31.57-.31.2,0,.87.72,1.5,1.6.52.75,1.09,1.82,1.09,2.07,0,.15-.04.19-.52.58-.3.24-.65.43-.77.43-.1,0-.15-.04-.25-.3-.29-.72-.54-1.21-.95-1.86-.4-.64-.43-.67-1.15-1.45-.06-.08-.09-.12-.09-.18ZM155.85,221.92c.25,0,1.53,1.27,1.53,1.53,0,.07-.09.16-.39.38-.27.21-.41.28-.46.28q-.08,0-.38-.42c-.25-.34-.74-.85-1-1.08-.04-.04-.08-.07-.08-.12,0-.12.62-.57.78-.57Z"/>
        <path d="M166.49,227.09c.34,1.29,1.11,2.68,2.07,3.76,1.06,1.23,2.26,2.04,3.97,2.75-.5.57-.69.88-1.05,1.65-2.85-1.45-4.65-3.37-5.73-6.12-.43,1.47-1.2,2.73-2.35,3.85-.97.97-2.01,1.65-3.43,2.28-.24-.56-.54-1-1-1.52,1.75-.7,3-1.56,3.93-2.68.9-1.09,1.38-2.25,1.63-3.97h-3.39c-.92,0-1.33.01-1.82.09v-1.8c.45.06.98.09,1.82.09h3.54c.03-.66.04-1,.04-1.58,0-.72-.03-1.15-.11-1.57h1.91c-.08.51-.09.7-.11,1.69,0,.62-.01.95-.03,1.46h3.81c.81,0,1.33-.03,1.81-.09v1.8c-.55-.06-1-.09-1.8-.09h-3.72Z"/>
        <path d="M179.33,225.64c-1.29.22-2.62.38-3.43.38-.24,0-.34-.04-.38-.18-.06-.23-.12-.67-.15-1.23,1.22,0,2.15-.08,3.48-.29q-.08-.22-.27-.78c-.13-.36-.25-.66-.42-.98.65-.13,1.23-.21,1.77-.21.13,0,.21.09.21.24v.21c0,.27.06.63.21,1.21,1.12-.25,2.08-.57,2.85-.9.12-.04.15-.06.2-.06.07,0,.12.08.25.39.13.34.27.73.27.81s-.03.1-.12.15c-.88.38-1.29.51-3.03.94.21.53.27.66.52,1.2.83-.22,1.23-.36,1.53-.51l1.41-.71s.04-.03.04-.03c.01,0,.04.01.06.01.06,0,.12.09.25.38.18.36.33.77.33.86q0,.1-.31.27c-.83.45-1.47.71-2.55,1,.6.89,1.46,1.85,1.96,2.21.51.36.52.39.52.54,0,.13-.15.45-.43.95-.25.43-.38.55-.54.55-.09,0-.11,0-.33-.17-.76-.58-2.31-.99-3.79-.99-1.29,0-2.1.45-2.1,1.2,0,.46.36.84,1,1.08.58.21,1.88.34,3.27.34.33,0,.62-.01,1.2-.04-.27.39-.41.66-.58,1.29-.09.32-.2.38-.66.38-1.6,0-3.03-.18-3.99-.52-1.28-.45-1.95-1.29-1.95-2.42,0-1.61,1.32-2.58,3.51-2.58,1.35,0,2.21.15,3.15.57-.84-.79-1.29-1.33-1.72-2.04-.72.15-1.08.21-1.56.29-.86.12-2.42.24-3.04.24-.48,0-.5-.01-.63-1.42.33.02.58.02.73.02.96,0,2.79-.2,3.79-.41-.18-.38-.38-.81-.54-1.25Z"/>
        <path d="M189.01,225.28c0-.43-.02-1.02-.04-1.35.69.08,1.2.18,1.6.33.36.13.48.22.48.39q0,.09-.06.24c-.2.51-.25,1.08-.25,2.45,0,1.92.12,3.12.42,4.03.22.71.57,1.11.97,1.11.62,0,1.12-.72,1.68-2.38.28.76.39.99.81,1.53.08.11.12.21.12.32,0,.24-.22.75-.53,1.18-.58.86-1.33,1.32-2.13,1.32-1.15,0-2.02-.93-2.56-2.78-.34-1.2-.51-2.71-.51-4.81v-1.58ZM197.93,225.52c.09,0,.17.04.29.15.75.72,1.53,1.92,2.03,3.09.33.79.64,1.86.64,2.17,0,.15-.08.22-.39.39-.34.18-1.05.42-1.23.42-.13,0-.19-.08-.24-.34-.2-1.16-.46-2-.93-2.97-.42-.87-.45-.92-1.47-2.17.63-.46,1.12-.74,1.3-.74Z"/>
        <path d="M208.31,231.73c-.72,1.25-1.71,1.93-2.73,1.93-1.56,0-2.67-1.53-2.67-3.66,0-2.37,1.2-4.41,3.25-5.49,1-.54,2.08-.78,3.51-.78,3.14,0,5.46,2.22,5.46,5.19,0,2.62-1.29,4.51-3.78,5.58-.5.21-.89.33-1.08.33-.18,0-.25-.06-.45-.34-.25-.39-.54-.67-.95-.95,3.09-.79,4.49-2.25,4.49-4.68,0-1.25-.53-2.29-1.46-2.96-.53-.36-.95-.51-1.77-.64-.42,3.17-.92,4.89-1.83,6.46ZM206.15,226.42c-1,.88-1.58,2.14-1.58,3.55,0,1.16.38,1.83,1,1.83.75,0,1.52-1.04,2.08-2.82.36-1.12.54-1.98.77-3.64-1.07.22-1.59.48-2.28,1.08Z"/>
        <path d="M224.05,227.39c.03,1.12.06,1.71.21,3.21,1.26.41,1.86.66,2.75,1.14,1.18.67,1.79,1.12,1.79,1.33,0,.18-.2.53-.54,1.02-.23.33-.39.48-.51.48-.08,0-.14-.03-.24-.13-1.07-1.02-1.92-1.58-3.18-2.08-.03.92-.2,1.39-.63,1.84-.53.53-1.44.81-2.62.81-1.96,0-3.17-.87-3.17-2.29,0-1.52,1.32-2.48,3.38-2.48.5,0,.93.03,1.3.08-.15-2.46-.2-3.64-.21-5.85-.01-.87-.04-1.39-.13-2.1.69.01,1.38.09,1.79.19.24.08.33.15.33.32,0,.08-.01.12-.06.24-.17.39-.22.96-.25,2.62q.12,0,.58-.03c.72-.04,1.74-.23,2.88-.54.04-.01.08-.01.12-.01.09,0,.12.03.18.18.15.36.32,1.09.32,1.35,0,.12-.06.17-.2.21-1.16.27-2.77.5-3.66.5h-.21ZM221.11,231.71c-1.02,0-1.63.34-1.63.91,0,.53.51.8,1.46.8,1.15,0,1.66-.41,1.66-1.35v-.12c-.49-.18-.92-.24-1.48-.24Z"/>
        <path d="M239.17,233.84c0,.66-.52,1.18-1.18,1.18s-1.19-.53-1.19-1.18.53-1.19,1.19-1.19,1.18.53,1.18,1.19ZM238.64,231.62h-1.33l-.41-8.98h2.16l-.42,8.98Z"/>
      </g>
      <g>
        <path class="cls-1" d="M327.97,225.63c1.81.14,1.23,2.13.34,3.29-.19.24-.54.27-.77.08-1.57-1.34-1.02-3.48.43-3.36Z"/>
        <path class="cls-1" d="M327.87,226.42c-.31,0-.57-.25-.57-.57v-3.57l-.9-1.25c-.18-.25-.12-.61.13-.79.25-.18.61-.12.79.13l1,1.4c.07.1.11.21.11.33v3.75c0,.31-.25.57-.57.57Z"/>
        <polygon class="cls-6" points="325.03 216.69 318.9 216.12 321.63 221.63 327.87 222.29 325.03 216.69"/>
        <rect class="cls-6" x="318.32" y="219.79" width="6.67" height="2.9" transform="translate(207.36 -152.05) rotate(38.45)"/>
        <path class="cls-1" d="M323.39,225.48c-.12,0-.25-.04-.35-.12-.25-.19-.29-.55-.09-.8l2.25-2.85c.12-.15.31-.23.51-.21l1.19.13-2.23-4.39-4.8-.45.7,1.41c.1.19.07.42-.06.59l-1.81,2.4c-.19.25-.54.3-.79.11-.25-.19-.3-.54-.11-.79l1.6-2.12-.99-2.01c-.09-.18-.08-.4.04-.57.12-.17.31-.27.52-.24l6.12.57c.19.02.37.13.45.31l2.84,5.6c.09.19.08.41-.04.58-.12.17-.32.26-.53.24l-1.92-.2-2.06,2.61c-.11.14-.28.22-.45.22Z"/>
        <path class="cls-7" d="M319.35,248.43l4.18-1.62,2.02-5.47-.29-8.15-2.24-7.54-3.74-4.67-5.59-1.9-5.52-.3-7.14,3.84-3.23,5.74-3.98,4.71-1.8,4.98,1.36,4.52,9.81,4.92c2.84,1.15,12.97,1.45,16.17.94Z"/>
        <path class="cls-13" d="M292.44,234.78c4.88.32,7.71,5.48,5.9,11.02-4.77-2.59-7.43-5.23-5.9-11.02Z"/>
        <path class="cls-13" d="M325.62,238.53c-5.64-.78-9.96,4.07-9.08,10.38,5.99-1.67,9.58-3.87,9.08-10.38Z"/>
        <path class="cls-1" d="M303.92,227.67c1.6-.65,3.04-.03,3.72,1.21.16.29-.14.55-.45.39-1.01-.51-1.99-.76-3.07-.96-.36-.07-.49-.51-.19-.64Z"/>
        <path class="cls-1" d="M316.63,230.11c-1.18-1.26-2.75-1.29-3.88-.44-.27.2-.1.55.25.54,1.13-.04,2.13.14,3.2.4.36.09.66-.26.44-.5Z"/>
        <path class="cls-1" d="M312.63,239.15c-.14,0-.27-.05-.39-.14-.25-.21-.29-.59-.07-.85.68-.81,1.51-1.23,2.34-1.19.75.04,1.43.46,1.93,1.18.19.27.12.65-.15.84-.27.19-.65.12-.84-.15-.2-.29-.53-.64-1-.66-.44-.02-.92.25-1.36.77-.12.14-.29.21-.46.21Z"/>
        <path class="cls-1" d="M305.18,237.89c-.19,0-.37-.09-.49-.25-.37-.52-.72-.8-1-.81,0,0,0,0-.02,0-.33,0-.68.34-.92.64-.21.26-.59.29-.85.08-.26-.21-.29-.59-.08-.85.6-.74,1.23-1.1,1.9-1.08.7.02,1.33.45,1.94,1.31.19.27.13.65-.14.84-.11.08-.23.11-.35.11Z"/>
        <path class="cls-1" d="M315.41,249.48c-.31,0-.56-.25-.57-.56,0-.31.24-.57.56-.58,3.72-.08,6.39-.95,7.93-2.58,1.98-2.1,1.87-5.19,1.79-7.45l-.02-.46c-.13-4.27-1.4-18.26-12.21-18.99-9.16-.62-12.59,5.21-14.85,9.07-.46.78-.86,1.46-1.24,1.98-.11.15-.23.31-.37.48-1.58,2.06-4.51,5.88-3.4,9.55.8,2.64,3.61,4.79,8.34,6.41,1.43.49,2.87.87,4.3,1.14.31.06.51.35.45.66s-.36.51-.66.45c-1.48-.28-2.97-.67-4.45-1.18-5.1-1.74-8.15-4.15-9.07-7.16-1.28-4.23,2.01-8.51,3.59-10.57.13-.17.25-.33.36-.47.35-.47.73-1.12,1.17-1.87,2.26-3.85,6.04-10.29,15.91-9.63,5.1.34,8.83,3.35,11.1,8.93,1.72,4.24,2.1,8.81,2.17,11.16l.02.46c.09,2.46.21,5.83-2.1,8.27-1.78,1.89-4.64,2.85-8.73,2.94,0,0,0,0-.01,0Z"/>
        <path class="cls-1" d="M303.52,236.58c-.06,0-.12-.02-.18-.06-.75-.6-1.14-1.21-1.43-2.27-.04-.15.05-.31.2-.35.15-.04.31.05.35.2.29,1.07.66,1.52,1.23,1.97.12.1.14.28.05.4-.06.07-.14.11-.22.11Z"/>
        <path class="cls-1" d="M315.51,238.12c-.14,0-.26-.1-.28-.25-.02-.16.09-.3.24-.32.67-.09,1.43-.66,1.87-1.39.08-.13.25-.18.39-.1.13.08.18.25.1.39-.52.88-1.44,1.55-2.28,1.67-.01,0-.03,0-.04,0Z"/>
        <path class="cls-1" d="M316.85,238.65c-.37,0-.75-.07-1.12-.24-.14-.07-.21-.23-.14-.38.07-.14.23-.2.38-.14.86.39,1.83.09,2.49-.24.14-.07.31-.01.38.13.07.14.01.31-.13.38-.5.25-1.16.48-1.86.48Z"/>
        <path class="cls-1" d="M302.65,236.59c-.8,0-1.66-.46-2.34-1.26-.1-.12-.09-.3.03-.4.12-.1.3-.09.4.03.62.73,1.4,1.13,2.07,1.05.16-.02.3.09.31.25.02.16-.09.3-.25.31-.07,0-.15.01-.22.01Z"/>
        <g>
          <path class="cls-4" d="M312.82,242.31c-.67-1.83-3.64-3.8-5.16-3.59s-4.7,2.06-5.7,2-1.68-.73-1.8,1.59,1.7,3.51,4.13,2.66c3.37,1.92,9.68.49,8.53-2.66Z"/>
          <path class="cls-4" d="M312.82,244.69c-.75,3.68-4.93,5.84-6.2,5.3s-2.85-1.42-1.47-4.62c2.5.53,6.91-.12,7.03-1.63.12-1.52.63.96.63.96Z"/>
          <path class="cls-11" d="M306.4,245.69c-.73,1.35-.38,3.07,1.83,1.99s2.21-2.29,2.21-2.29c0,0,1.45-.73-.48,0-1.94.73-3.55.3-3.55.3Z"/>
          <path class="cls-1" d="M307.9,246.41c-1.06,0-2.19-.33-3.37-.99-2.29.66-3.56.04-4.23-.6-.84-.81-1.16-2.1-.83-3.37.34-1.28.9-1.38,1.8-1.41.65-.02,1.63-.04,3.22-.88,3.52-1.85,5.58-.79,7.59,1.38.19.2.18.52-.03.7-.2.19-.52.18-.7-.03-1.79-1.93-3.42-2.74-6.4-1.17-1.8.95-2.92.97-3.66.99-.69.02-.69.03-.86.67-.24.91-.02,1.85.55,2.4.71.68,1.91.79,3.46.3.13-.04.28-.02.4.05,1.93,1.13,4.69,1.81,6.88-1.38.13-.19.38-.27.6-.18,0,0,.72.29,1.36.43.27.06.44.32.38.59-.06.27-.33.44-.59.38-.42-.09-.85-.24-1.15-.34-1.22,1.63-2.73,2.45-4.41,2.45Z"/>
          <path class="cls-1" d="M307.21,250.54c-.6,0-1.18-.14-1.7-.42-.85-.46-1.39-1.1-1.6-1.92-.43-1.62.6-3.29.65-3.36.15-.23.45-.3.68-.16.23.15.3.45.16.68,0,.01-.85,1.39-.53,2.59.15.55.51.97,1.11,1.3.86.46,1.92.39,3-.19,1.51-.82,3.14-2.8,3.35-5.36.02-.27.26-.48.54-.45.27.02.48.26.45.54-.21,2.58-1.73,4.99-3.86,6.15-.76.41-1.52.62-2.25.62Z"/>
        </g>
      </g>
      <g>
        <path class="cls-8" d="M40.5,71.3c5.99-4.81,10.66-4.4,11.63-2.77.89,1.5-.2,9.39-9.11,4.98"/>
        <path class="cls-5" d="M44.74,73.88c2.15-3.69,6.52-2.97,7.64-2.44-1.95,3.62-3.96,4.96-7.64,2.44Z"/>
        <path class="cls-1" d="M47.73,75.46c-1.31,0-2.94-.38-4.99-1.39-.3-.15-.42-.51-.28-.82.15-.3.52-.42.82-.28,3.32,1.64,5.84,1.68,7.29.12,1.3-1.4,1.35-3.69,1.02-4.24-.21-.35-.72-.62-1.4-.75-.91-.16-4.27-.39-9.33,3.68-.26.21-.65.17-.86-.09-.21-.26-.17-.65.09-.86,3.68-2.96,7.53-4.43,10.31-3.92,1.04.19,1.83.66,2.23,1.32.64,1.09.43,3.95-1.18,5.69-.75.81-1.93,1.54-3.74,1.54Z"/>
        <path class="cls-8" d="M45.98,85.53c1.64-16.82-17.11-22.8-25.64-13.47-2.97,3.25-5.19,9.02-4.06,15.77-3.29,3.25-2.73,7.92,2.42,10.46,3.1,1.53,6.19,2.19,13.34,2.19,6.63,0,14.3-2.8,16.45-6.93,1.2-2.31.78-5.72-2.5-8.03Z"/>
        <path class="cls-2" d="M35.76,67.9c-.6-4.19-4.15-6.52-4.34-.47"/>
        <path class="cls-2" d="M24.08,68.97c-.51-4.2,2.31-7.38,4.07-1.58"/>
        <path class="cls-8" d="M19.62,72.03c-6.66-3.82-11.21-2.69-11.91-.92-.65,1.62,2.36,9.82,10.47,4.08"/>
        <ellipse class="cls-1" cx="35.24" cy="87.47" rx="1.44" ry="1.56" transform="translate(-13.18 6.55) rotate(-8.95)"/>
        <path class="cls-5" d="M16.35,75.84c-2.15-3.69-7.03-2.78-8.16-2.25,1.95,3.62,4.47,4.77,8.16,2.25Z"/>
        <path class="cls-5" d="M29.18,67.42c1.23,7.46-2.33,14.45-12.53,14.45,0-11.42,12.53-14.45,12.53-14.45Z"/>
        <path class="cls-5" d="M31.42,67.43c0,8.41,6.81,12.72,13.84,13.25,0-11.42-13.84-13.25-13.84-13.25Z"/>
        <path class="cls-5" d="M15.2,94.29c13.81-6.39,25.45-3.61,33.28-.74-3.13,7.57-29.25,10.15-33.28.74Z"/>
        <path class="cls-1" d="M32.04,101.1c-7.59,0-10.64-.79-13.61-2.26-2.68-1.33-4.37-3.31-4.74-5.59-.32-1.98.37-3.96,1.94-5.63-1.1-7.13,1.47-12.92,4.26-15.97,4.25-4.65,11.25-5.93,17.42-3.18,3.01,1.34,5.47,3.51,7.11,6.28,1.79,3.02,2.53,6.54,2.2,10.49,3.38,2.56,3.63,6.22,2.4,8.6-2.36,4.54-10.49,7.26-16.99,7.26ZM30.66,68.26c-3.76,0-7.35,1.46-9.87,4.22-2.64,2.89-5.06,8.42-3.91,15.26.03.2-.03.39-.17.53-1.44,1.42-2.08,3.13-1.81,4.79.3,1.88,1.75,3.54,4.07,4.69,2.8,1.38,5.71,2.13,13.07,2.13,6.88,0,14.01-2.96,15.91-6.6,1.03-1.98.75-5.1-2.31-7.25-.18-.13-.28-.34-.26-.56.71-7.25-2.49-13.19-8.56-15.89-2.01-.89-4.11-1.33-6.15-1.33Z"/>
        <ellipse cx="35.24" cy="87.47" rx="1.44" ry="1.56" transform="translate(-13.18 6.55) rotate(-8.95)"/>
        <ellipse class="cls-1" cx="27.57" cy="87.83" rx="1.56" ry="1.44" transform="translate(-61.54 110.93) rotate(-87.1)"/>
        <path class="cls-1" d="M12.97,77.81c-1.46,0-2.58-.54-3.4-1.18-2.09-1.64-2.9-4.58-2.43-5.75.29-.72.99-1.3,1.99-1.65,2.66-.93,6.69-.08,10.79,2.27.29.17.39.54.22.83-.17.29-.54.39-.83.22-5.62-3.23-8.91-2.48-9.78-2.18-.65.23-1.11.57-1.26.95-.21.53.31,2.97,2.06,4.35,1.89,1.49,4.48,1.14,7.49-.99.27-.19.65-.13.85.15.19.27.13.65-.15.85-2.23,1.58-4.07,2.14-5.55,2.14Z"/>
        <path class="cls-1" d="M35.76,68.51c-.3,0-.56-.22-.6-.52-.32-2.23-1.48-3.66-2.12-3.62-.31.02-.93.69-1,3.09-.01.34-.3.59-.63.59-.34-.01-.6-.29-.59-.63.11-3.61,1.4-4.22,2.15-4.27.03,0,.06,0,.09,0,1.46,0,2.94,2.06,3.31,4.67.05.33-.18.64-.52.69-.03,0-.06,0-.09,0Z"/>
        <path class="cls-1" d="M24.08,69.58c-.3,0-.57-.23-.6-.54-.32-2.66.61-5.08,2.07-5.39.74-.15,2.14.1,3.19,3.56.1.32-.08.66-.41.76-.32.1-.66-.08-.76-.41-.7-2.3-1.46-2.78-1.77-2.72-.62.13-1.38,1.81-1.11,4.05.04.33-.2.64-.53.68-.02,0-.05,0-.07,0Z"/>
        <path class="cls-1" d="M36.51,79.01c-.65-1.09-1.64-1.26-2.41-.7-.18.13-.11.42.12.44.71.07,1.33.3,1.98.61.22.1.44-.14.31-.35Z"/>
        <path class="cls-1" d="M25.61,79.41c.65-1.09,1.64-1.26,2.41-.7.18.13.11.42-.12.44-.71.07-1.33.3-1.98.61-.22.1-.44-.14-.31-.35Z"/>
        <circle class="cls-1" cx="32.89" cy="93.41" r=".57"/>
        <circle class="cls-1" cx="31.1" cy="93.41" r=".57"/>
        <ellipse class="cls-3" cx="31.64" cy="96.73" rx="1.19" ry="1.28" transform="translate(-68.38 115.52) rotate(-82.53)"/>
        <path class="cls-1" d="M31.67,98.35c-.08,0-.16,0-.24-.02-.94-.12-1.61-.94-1.49-1.83.12-.88.97-1.5,1.91-1.38h0c.94.12,1.61.94,1.49,1.83-.11.81-.83,1.4-1.67,1.4ZM31.62,95.97c-.41,0-.77.27-.82.64-.05.41.28.8.75.86.47.06.89-.22.94-.64.05-.41-.28-.8-.75-.86-.04,0-.08,0-.13,0Z"/>
      </g>
    </g>
  </g>
</svg>