<?xml version="1.0" encoding="UTF-8"?>
<svg id="_レイヤー_2" data-name="レイヤー 2" xmlns="http://www.w3.org/2000/svg" width="374" height="77.36" viewBox="0 0 374 77.36">
  <defs>
    <style>
      .cls-1 {
        fill: #fff;
      }

      .cls-2 {
        fill: #9abbbd;
      }

      .cls-3 {
        fill: #739b9e;
      }
    </style>
  </defs>
  <g id="_レイヤー_2-2" data-name="レイヤー 2">
    <g>
      <rect class="cls-2" x="0" y="0" width="374" height="77.36"/>
      <rect class="cls-1" x="7.58" y="14.39" width="358.85" height="51.32" rx="25.57" ry="25.57"/>
      <g>
        <path class="cls-3" d="M114.64,37.86c1,.63,1.56,1.06,2.33,1.81l-1.02,1.19c-.79-.87-1.28-1.26-2.31-1.92l1-1.08ZM117.01,42.89c-.42,1.32-.69,2.05-1.25,3.31l-.55,1.18-1.37-1.14c.09-.09.18-.2.29-.39.55-.9,1.09-2.27,1.59-3.96l1.29.99ZM115.31,34.23c.9.63,1.5,1.12,2.2,1.88l-1.11,1.15c-.79-.92-1.35-1.42-2.17-1.98l1.08-1.05ZM124.88,35.39c1.06,0,1.53-.01,2.05-.09v1.54c-.39-.04-.85-.06-1.89-.06h-5.4c-.25.44-.38.62-.64,1.02h5.55c.69,0,1.12-.02,1.51-.04-.03.21-.04.34-.08.81-.01.39-.03.67-.04,1.51q-.01.47-.03.6c.72,0,.85-.02,1.27-.08v1.53c-.43-.06-.78-.08-1.2-.08h-.15c-.03.57-.09,1.37-.13,1.79.57,0,.78-.02,1.08-.08v1.52c-.35-.04-.62-.06-1.1-.06h-.17c-.29,1.77-.63,2.11-2.14,2.11-.24,0-.41-.02-1.29-.07-.01-.62-.09-.96-.32-1.47.57.09,1.05.14,1.47.14.52,0,.6-.08.76-.71h-4.88c-.1.46-.13.6-.27,1.12l-1.61-.15c.39-1.17.71-2.54.95-4.14h-.21c-.46,0-.74.02-1.12.08v-1.53c.39.06.71.08,1.35.08h.15c.1-.94.15-1.68.15-2.25-.25.31-.4.48-.87.94-.3-.48-.62-.82-1.08-1.17.92-.82,1.35-1.33,1.84-2.19.41-.7.72-1.48.81-2.05l1.65.3c-.06.17-.11.27-.15.36-.13.33-.15.36-.33.76h4.49ZM121.06,43.85c.11-.71.13-.89.23-1.79h-1.62c-.11.77-.13.96-.27,1.79h1.67ZM121.42,40.68q.03-.51.08-1.56h-1.56c-.04.77-.06.99-.12,1.56h1.61ZM124.24,43.85c.06-.57.12-1.11.17-1.79h-1.74c-.06.6-.14,1.19-.21,1.79h1.78ZM124.46,40.68q.03-.99.04-1.56h-1.62c-.03.54-.06,1.05-.1,1.56h1.68Z"/>
        <path class="cls-3" d="M132.67,39.29c.69.56,1,.84,1.58,1.47.43-1.08.64-1.89.92-3.42h-2.1c-.64,1.65-1.53,3.07-2.76,4.44-.3-.63-.43-.82-.96-1.38,1.16-1.18,2.05-2.7,2.64-4.47.18-.57.38-1.46.41-1.88l1.67.29c-.1.25-.17.46-.27.82-.09.33-.12.47-.23.81h2.07c.52,0,.84-.01,1.17-.04-.06.31-.08.38-.13.98.39.84.63,1.21,1.41,2.08v-3.18c0-.73-.01-1.12-.09-1.66h1.75c-.08.55-.09.93-.09,1.66v4.67c.39.29.67.48,1.38.88,1.04.62,1.2.69,1.94.96-.32.45-.58.95-.84,1.58-1.17-.62-1.54-.85-2.47-1.53v3.12c0,.84.01,1.26.11,1.9h-1.79c.08-.6.1-1.12.1-1.9v-4.44c-.85-.85-1.24-1.3-1.74-2.08-.41,1.91-1.04,3.46-1.92,4.8-.88,1.31-2.13,2.55-3.6,3.6-.34-.56-.7-.98-1.15-1.31.75-.45,1.02-.65,1.71-1.27,1.05-.94,1.59-1.6,2.19-2.62-.52-.64-1.02-1.11-1.75-1.69l.87-1.17Z"/>
        <path class="cls-3" d="M152.08,34.25c.61.96,1.33,1.71,2.44,2.56,1.11.84,2.31,1.51,3.63,2.05-.33.46-.54.88-.79,1.59-1.23-.55-2.54-1.35-3.54-2.17-1.14-.92-1.74-1.53-2.53-2.58-.78,1.06-1.33,1.64-2.37,2.52-1.11.94-2.29,1.73-3.58,2.35-.25-.66-.42-.98-.81-1.53,1.24-.54,2.44-1.27,3.54-2.19,1-.81,1.74-1.64,2.36-2.61h1.67ZM152.39,45.41h3.58c.79,0,1.37-.03,1.82-.09v1.71c-.47-.06-1.05-.09-1.82-.09h-9.36c-.81,0-1.4.03-1.86.09v-1.71c.39.06.93.09,1.71.09h.65v-3.45c0-.67-.02-1.12-.08-1.65h1.75c-.06.44-.09.93-.09,1.65v3.45h2.08v-5.86c0-.72-.02-1.11-.09-1.6h1.78c-.06.44-.09.84-.09,1.56v1.42h2.38c.68,0,1.17-.03,1.58-.07v1.68c-.45-.06-.88-.07-1.56-.07h-2.4v2.95Z"/>
        <path class="cls-3" d="M162.16,39.89c-.67,0-.99.02-1.47.06v-1.37c.4.05.76.06,1.47.06h1.75c-.24-.54-.38-.79-.54-1.08h-1.54c-.69,0-1.26.03-1.71.07v-1.44c.45.06.9.09,1.63.09h.46c-.27-.49-.45-.73-.97-1.33l1.44-.54c.48.66.68.99,1.11,1.87h.81v-1c0-.44-.03-.84-.07-1.12h1.56c-.03.27-.04.58-.04,1.06v1.06h1.06v-1.06c0-.45-.01-.76-.06-1.06h1.58c-.04.27-.08.68-.08,1.12v1h.9c.5-.69.78-1.21,1.04-1.9l1.47.54c-.32.54-.59.96-.89,1.36h.41c.75,0,1.2-.03,1.63-.09v1.44c-.45-.04-1.02-.07-1.71-.07h-1.46c-.24.54-.34.76-.52,1.08h1.67c.71,0,1.06-.01,1.48-.06v1.37c-.46-.04-.79-.06-1.48-.06h-3.77v.69h3.03c.63,0,1.08-.02,1.47-.06v1.26c-.38-.04-.84-.06-1.47-.06h-3.03v.72h4.04c.81,0,1.32-.03,1.72-.09v1.44c-.52-.06-1.05-.09-1.71-.09h-2.89c.48.42,1.14.8,1.95,1.16.92.38,1.69.6,3,.82-.41.54-.58.85-.83,1.47-2.42-.66-4.05-1.53-5.33-2.86.03.51.03.69.03,1.02v.72c0,.61.03,1.05.09,1.46h-1.69c.06-.42.09-.89.09-1.47v-.69c0-.33,0-.45.03-.99-.66.7-1.19,1.11-2.07,1.59-.92.51-1.82.88-2.94,1.21-.21-.5-.49-.93-.87-1.4,2.08-.44,3.54-1.06,4.71-2.04h-2.67c-.71,0-1.22.03-1.76.09v-1.44c.45.06.95.09,1.74.09h3.81v-.72h-2.85c-.63,0-1.09.01-1.47.06v-1.26c.39.04.83.06,1.47.06h2.85v-.69h-3.61ZM167.81,38.64c.21-.39.35-.69.48-1.08h-3.29c.2.42.3.69.44,1.08h2.37Z"/>
        <path class="cls-3" d="M181.25,43.76c-.72,1.25-1.71,1.94-2.73,1.94-1.56,0-2.67-1.53-2.67-3.66,0-2.37,1.2-4.41,3.25-5.49,1-.54,2.08-.78,3.51-.78,3.13,0,5.46,2.22,5.46,5.19,0,2.62-1.29,4.51-3.78,5.58-.5.21-.88.33-1.08.33-.18,0-.25-.06-.45-.34-.25-.39-.54-.68-.94-.95,3.09-.79,4.48-2.25,4.48-4.68,0-1.25-.53-2.29-1.46-2.96-.52-.36-.94-.51-1.77-.64-.42,3.16-.92,4.89-1.83,6.46ZM179.09,38.45c-1,.88-1.58,2.15-1.58,3.55,0,1.16.38,1.83,1.01,1.83.75,0,1.51-1.04,2.08-2.82.36-1.12.54-1.98.76-3.65-1.07.23-1.59.48-2.28,1.08Z"/>
        <path class="cls-3" d="M200.24,39.71h2.13c.67,0,1.09-.03,1.54-.09v1.63c-.48-.04-.93-.07-1.56-.07h-1.62c.86,1.5,2.1,2.74,3.58,3.58-.48.48-.69.78-.99,1.5-.62-.43-1.05-.85-1.62-1.5-.74-.85-1.05-1.32-1.53-2.22.03.54.04,1,.04,1.44v1.81c0,.67.03,1.2.09,1.67h-1.67c.06-.46.09-1,.09-1.68v-1.71c0-.4.01-.88.04-1.48-.92,1.65-1.94,2.76-3.39,3.73-.37-.71-.58-1-.9-1.36,1.54-.89,2.8-2.17,3.67-3.78h-.95c-.64,0-1.11.03-1.57.09v-.6c-.26.36-.44.69-.62,1.21-.38-.58-.6-1.05-.88-1.8.03.47.06,1.27.06,1.91v3.69c0,.77.03,1.32.09,1.77h-1.67c.06-.46.09-1.02.09-1.77v-3.1c0-.57.01-.93.1-1.86-.43,1.46-.87,2.43-1.51,3.41-.18-.68-.38-1.11-.67-1.6.72-.92,1.47-2.61,1.92-4.35h-.57c-.44,0-.69.02-.96.06v-1.53c.24.04.51.06.96.06h.72v-1.16c0-.76-.01-1.14-.08-1.5h1.65c-.06.39-.08.8-.08,1.5v1.16h.44c.36,0,.54-.02.78-.06v1.42c.57-1.02,1.05-2.52,1.09-3.49l1.46.38c-.06.16-.1.34-.21.79-.08.27-.1.4-.18.69h1.16v-.99c0-.61-.03-.99-.09-1.36h1.68c-.06.36-.09.77-.09,1.36v.99h1.69c.72,0,1.14-.03,1.54-.09v1.58c-.42-.04-.9-.08-1.54-.08h-1.69v1.81ZM197.11,37.89c-.25.62-.39.9-.81,1.6q-.36-.38-1.17-.94c.12-.17.17-.24.24-.35-.2-.03-.44-.04-.71-.04h-.38c.34.79.71,1.4,1.37,2.28v-.83c.45.06.87.09,1.56.09h1.53v-1.81h-1.64Z"/>
        <path class="cls-3" d="M212.6,42.75c-1.48.87-1.9,1.31-1.9,1.96,0,.27.1.45.33.58.33.2,1.06.3,2.01.3.81,0,1.93-.08,2.7-.18.32-.04.5-.09,1.1-.24h.07c.11,0,.18.07.23.18.09.31.15.77.15,1.31,0,.23-.07.31-.27.36-.36.08-2.03.17-3.12.17-1.83,0-2.8-.12-3.52-.42-.87-.36-1.3-1.04-1.3-1.98,0-.87.4-1.63,1.21-2.28.64-.51.79-.62,2.17-1.4-.12-.5-.35-.71-.81-.71-.61,0-1.26.24-1.96.71-.43.3-.94.72-1.26,1.03-.45.47-.5.5-.62.5-.15,0-.46-.34-.78-.87-.15-.25-.24-.45-.24-.55,0-.14.03-.17.39-.39,1.23-.82,2.25-1.88,2.87-2.95-1.07.07-1.62.09-2.21.09-.22,0-.27-.04-.34-.3-.04-.2-.12-.99-.13-1.4.51.07.81.09,1.53.09.58,0,1.23-.02,1.91-.04.31-.85.42-1.4.43-2.1,1.33.23,1.95.45,1.95.71,0,.06-.01.09-.06.18-.11.19-.23.43-.42.9q-.03.06-.04.1c.86-.12,1.61-.27,2.13-.39.33-.09.41-.1.48-.1.12,0,.18.04.21.14.06.27.15.96.15,1.17,0,.16-.06.24-.26.28-.48.14-2.13.39-3.51.52-.45.83-.76,1.31-1.23,1.81.67-.31,1.18-.43,1.79-.43.67,0,1.12.39,1.42,1.23,1.48-.81,2.28-1.24,2.37-1.3.69-.4.97-.63,1.3-1,.62.63,1.27,1.57,1.27,1.83,0,.09-.06.15-.25.2-.73.19-2.1.78-4.38,1.89.02.27.04.96.04,1.44v.72c0,.18-.03.27-.1.31-.08.08-.48.12-.93.12-.51,0-.6-.04-.6-.29v-.06c.03-.44.04-1,.04-1.36v-.08Z"/>
        <path class="cls-3" d="M224.48,45.02c-.6,0-1.05.01-1.54.06.04-.41.06-.9.06-1.7v-3.31c0-.71-.01-1.19-.06-1.62.45.03.76.04,1.5.04h7.3c.84,0,1.17-.02,1.59-.04-.04.46-.06.87-.06,1.63v3.35c0,.79.02,1.32.06,1.65-.47-.05-.92-.06-1.53-.06h-1.07c1.02.57,2.37.93,4.12,1.12-.33.43-.51.75-.78,1.41-1.29-.19-1.92-.36-2.83-.72-.87-.36-1.35-.6-2.12-1.11l.85-.7h-4.03l.9.7c-.71.53-1.15.78-1.96,1.11-.92.38-1.54.55-2.64.76-.18-.51-.41-.84-.87-1.32,1.84-.29,3.13-.71,3.95-1.26h-.84ZM234.14,36.83c0,.54.01.81.06,1.16-.36-.03-.72-.05-1.48-.05h-9.19c-.72,0-1.19.02-1.5.05.04-.36.06-.62.06-1.16v-1.12c0-.55-.01-.81-.06-1.21.4.04.81.06,1.62.06h8.94c.81,0,1.21-.02,1.62-.06-.04.39-.06.66-.06,1.21v1.12ZM225.56,35.78h-1.99v.93h1.99v-.93ZM224.56,40.32h7.16v-.63h-7.16v.63ZM224.56,42.03h7.16v-.62h-7.16v.62ZM224.56,43.8h7.16v-.67h-7.16v.67ZM229.01,35.78h-2v.93h2v-.93ZM232.61,36.71v-.93h-2.14v.93h2.14Z"/>
        <path class="cls-3" d="M240.53,39.68c1.89-.52,3.25-.77,4.27-.77,2.12,0,3.42,1.16,3.42,3.03,0,1.12-.46,2.12-1.35,2.87-.58.49-1.46.91-2.61,1.26-.64.18-1.33.31-1.63.31-.18,0-.27-.04-.33-.19-.21-.52-.45-.9-.76-1.21,3.3-.35,4.98-1.4,4.98-3.1,0-.87-.72-1.54-1.65-1.54-1.62,0-3.39.54-5.25,1.57-.15.08-.24.12-.3.12-.25,0-.68-.75-1.02-1.83.74-.1.99-.17,2.24-.51Z"/>
        <path class="cls-3" d="M254.92,38.25c-.39.09-.53.13-1.06.33-.2.08-.3.1-.39.1-.33,0-.63-.61-.9-1.9.96-.04,1.3-.09,2.97-.34,1.8-.27,4.08-.62,5.28-.77,1.35-.18,2.43-.36,3-.48.11-.03.15-.03.23-.03.19,0,.27.09.4.47.12.31.21.76.21.98,0,.18-.06.24-.27.24-.32,0-.6.03-.88.08-2.54.42-4.56,2.64-4.56,4.98,0,1.75,1.38,2.91,3.72,3.12.21.01.29.09.29.27,0,.38-.15,1.09-.29,1.42-.07.17-.19.24-.39.24s-.64-.09-1.11-.22c-2.55-.75-3.89-2.37-3.89-4.67,0-1.25.41-2.4,1.19-3.39.42-.54.78-.84,1.63-1.43-1.96.33-4.04.72-5.17,1.01Z"/>
        <path class="cls-3" d="M273.5,41.51c-.54,1-1.16,1.99-1.71,2.8-.62.88-1.32,1.33-2.05,1.33-1.08,0-1.82-.89-1.82-2.21,0-1.14.57-2.11,1.63-2.74.71-.41,1.77-.69,2.62-.69h.15c.76-1.56.96-1.98,1.47-3.15-1.38.06-2.22.18-2.83.39-.03.02-.08.02-.1.02-.25,0-.5-.78-.57-1.9.33.06.65.09,1.05.09.51,0,1.38-.04,2.29-.13q.86-.08,1.05-.2c.12-.06.2-.09.27-.09.19,0,.5.24.83.65.24.31.39.57.39.67,0,.12-.06.23-.24.41-.22.24-.92,1.53-1.79,3.36,1.43.28,1.96.45,3,.9.08-.52.14-1.14.14-1.56,0-.19-.02-.42-.05-.67.65.09,1.19.19,1.62.3.27.08.36.15.36.27,0,.1-.03.21-.12.39-.13.28-.18.48-.29,1.09-.04.31-.09.52-.18.96.76.48,1.42.94,1.72,1.23.08.08.12.15.12.23,0,.42-.64,1.4-.92,1.4-.08,0-.15-.04-.27-.14-.41-.36-.9-.78-1.2-1-.51,1.08-1.04,1.77-1.86,2.48-.71.58-1.68,1.12-2.04,1.12-.12,0-.25-.06-.36-.15-.04-.04-.04-.06-.24-.33-.22-.35-.42-.51-.78-.68,1.2-.42,1.79-.72,2.43-1.27.64-.57,1.14-1.26,1.47-2.07-1.02-.56-2.03-.9-3.21-1.09ZM269.45,43.31c0,.36.13.58.38.58.33,0,.92-.73,1.86-2.35-1.42.15-2.23.79-2.23,1.77Z"/>
        <path class="cls-3" d="M290.15,39.42c.03,1.12.06,1.71.21,3.21,1.26.41,1.86.66,2.74,1.14,1.19.67,1.79,1.12,1.79,1.33,0,.18-.2.52-.54,1.02-.22.33-.39.48-.51.48-.08,0-.13-.03-.24-.14-1.06-1.02-1.92-1.57-3.18-2.08-.03.91-.2,1.39-.63,1.84-.53.52-1.44.81-2.62.81-1.96,0-3.17-.87-3.17-2.29,0-1.52,1.32-2.48,3.38-2.48.5,0,.93.03,1.3.08-.15-2.46-.19-3.65-.21-5.85-.01-.87-.04-1.39-.13-2.1.69.02,1.38.09,1.79.19.24.08.33.15.33.31,0,.08-.02.12-.06.24-.17.39-.22.96-.25,2.62q.12,0,.58-.03c.72-.04,1.74-.23,2.88-.54.04-.01.08-.01.12-.01.09,0,.12.03.18.18.15.36.32,1.1.32,1.35,0,.12-.06.17-.2.21-1.15.27-2.77.5-3.66.5h-.21ZM287.21,43.74c-1.02,0-1.63.34-1.63.91,0,.53.51.8,1.46.8,1.15,0,1.67-.41,1.67-1.35v-.12c-.5-.18-.92-.24-1.49-.24Z"/>
        <path class="cls-3" d="M303.17,38.24c.97-.25,1.62-.35,2.33-.35,2.13,0,3.36,1.26,3.36,3.42,0,1.88-.81,3.39-2.44,4.59-.87.65-2.19,1.29-2.62,1.29-.2,0-.24-.04-.55-.5-.23-.34-.45-.55-.83-.82,1.72-.58,2.44-.96,3.22-1.64.9-.79,1.35-1.75,1.35-2.89,0-1.22-.57-1.91-1.57-1.91-.81,0-1.86.31-3.23.98-.19.09-.3.17-.55.35-.06.03-.12.06-.18.06-.29,0-.77-.84-1.09-1.96.55-.04.84-.12,2.82-.61ZM304.18,34.58c.54.17,1.35.32,2.08.41.3.03.41.04,1.17.07.23,0,.29.06.29.23,0,.5-.11,1.31-.2,1.46-.03.09-.1.12-.21.12-.34,0-1.56-.17-2.26-.31-1.18-.24-2.22-.54-2.43-.71-.04-.04-.08-.1-.08-.17,0-.12.32-.93.46-1.21.08-.12.12-.15.21-.15q.08,0,.96.27Z"/>
        <path class="cls-3" d="M321.56,45.87c0,.66-.52,1.18-1.18,1.18s-1.18-.52-1.18-1.18.52-1.19,1.18-1.19,1.18.52,1.18,1.19ZM321.04,43.65h-1.33l-.41-8.98h2.16l-.42,8.98Z"/>
      </g>
      <g>
        <g>
          <path class="cls-3" d="M43.15,35.58c.02-1.97.63-3.49,1.83-4.55,1.13-1.05,2.47-1.58,4.03-1.58s2.98.53,4.1,1.58c1.15,1.06,1.74,2.58,1.78,4.56v9.42c-.04,1.96-.63,3.48-1.78,4.54-1.13,1.05-2.5,1.59-4.1,1.61-1.56-.02-2.91-.56-4.03-1.61-1.2-1.06-1.81-2.57-1.83-4.53v-9.44ZM51.94,35.77c-.06-2.14-1.03-3.23-2.92-3.27-1.9.04-2.87,1.13-2.91,3.27v9.07c.04,2.16,1.01,3.25,2.91,3.27,1.89-.02,2.87-1.11,2.92-3.27v-9.07Z"/>
          <path class="cls-3" d="M67.74,29.41s-.04.1-.14.31-.24.5-.42.86-.38.78-.62,1.25-.48.96-.74,1.48-.52,1.04-.79,1.57-.53,1.03-.78,1.51-.48.91-.68,1.3-.38.7-.51.94c.28-.17.6-.27.96-.3s.77-.04,1.24-.02c.67.02,1.26.14,1.76.35s.94.48,1.3.81.66.68.9,1.08.43.78.56,1.16.23.73.29,1.05.08.58.08.77v.84c0,.19,0,.38,0,.58s-.01.36-.02.5c0,.07-.04.25-.1.53s-.15.63-.29,1.03-.34.82-.61,1.27-.61.88-1.04,1.29-.95.75-1.57,1.05-1.35.47-2.2.54c-.89.08-1.67.02-2.36-.18s-1.27-.47-1.77-.83-.91-.78-1.25-1.25-.59-.96-.78-1.46-.32-.98-.38-1.44-.08-.85-.04-1.17c.06-.48.12-.91.19-1.28s.15-.73.24-1.08.2-.68.32-1.01.25-.69.41-1.08c.04-.1.15-.33.32-.7s.39-.82.65-1.35.55-1.13.87-1.77.64-1.3.97-1.96c.76-1.54,1.62-3.27,2.56-5.17h3.46ZM67.12,45.04c0-.37-.01-.78-.04-1.23s-.14-.88-.33-1.28-.5-.75-.93-1.05-1.04-.47-1.83-.53c-.37-.03-.71,0-1.01.12s-.57.25-.81.44-.44.4-.61.64-.31.48-.42.71-.19.45-.24.65-.07.35-.07.46c0,.24,0,.52.01.81s.04.6.09.89.14.59.27.86.31.52.54.74.53.39.9.53.82.21,1.37.21c.44,0,.82-.05,1.15-.17s.61-.28.83-.47.42-.4.56-.64.26-.46.34-.69.14-.43.17-.61.04-.31.04-.4Z"/>
        </g>
        <path class="cls-3" d="M33.72,42.84c-.76.79-1.8,1.41-3.01,1.81-.17-.32-.31-.52-.56-.82,1.2-.29,2.21-.79,2.94-1.47h-1.5c-.05.18-.06.22-.13.43l-1.01-.02c.24-.56.38-1.02.49-1.58.08-.39.14-.77.14-.95.17.02.4.03.82.03h1.78l-.02-.58h-1.93c-.34,0-.56,0-.8.04v-.83c-.1.08-.13.12-.26.23-.17-.29-.35-.5-.56-.69.74-.57,1.16-1.12,1.35-1.76l.93.17c-.11.23-.14.29-.25.47h1.11c.41,0,.64-.02.85-.04v.7c.34-.4.55-.78.7-1.3l.92.16q-.07.17-.22.49h1.65c.46,0,.67,0,.95-.05v.9c-.26-.04-.52-.05-.9-.05h-.68c.23.33.23.35.38.59l-.71.2h.41c.43,0,.59,0,.81-.03-.03.16-.04.3-.04.61v.91c0,.31,0,.45.04.63-.2-.02-.47-.03-.81-.03h-1.99v.57h2.47c.33,0,.52,0,.74-.03-.02.11-.02.17-.03.26t-.03.26s-.02.22-.05.55c-.09.86-.14,1.07-.31,1.27-.17.2-.43.26-1.02.26-.25,0-.43,0-.8-.03-.05-.36-.11-.56-.22-.85.33.04.74.08.95.08.47,0,.49-.05.55-1.01h-2.22l.02,1.45c0,.46.02.68.06.95h-1.02c.04-.25.05-.4.05-.75v-.22l-.02-.96ZM32.48,38.94c-.11-.29-.22-.5-.39-.8h-.48c-.21.29-.4.5-.68.77.21.03.38.04.79.04h.75ZM33.69,41.04h-1.77c-.03.19-.04.21-.12.57h1.9v-.57ZM34.18,38.94c-.13-.16-.31-.33-.56-.51.15-.12.2-.15.32-.27-.15,0-.32-.02-.49-.02h-.48c.11.17.17.26.34.58l-.71.22h1.58ZM36.01,38.94c-.1-.22-.26-.51-.44-.79h-.53c-.23.33-.42.55-.69.79h1.67ZM34.59,40.28h1.87v-.58h-1.88v.58Z"/>
        <path class="cls-3" d="M79.8,44.74v-.47h-5.38v.47h-1.01c.04-.28.05-.64.05-1.12v-5.46c0-.42-.02-.69-.05-1.04.32.04.59.05,1.02.05h5.36c.42,0,.7,0,1.02-.05-.04.32-.04.6-.04,1.04v5.47c0,.47.02.89.04,1.11h-1ZM74.42,43.42h5.38v-5.39h-5.38v5.39ZM78.02,39.01c.38,0,.6,0,.83-.03-.02.21-.03.41-.03.68v2.06c0,.29,0,.47.03.68-.26-.02-.47-.03-.83-.03h-1.85c-.43,0-.57,0-.84.03.03-.23.04-.42.04-.68v-2.06c0-.25,0-.45-.04-.68.22.02.46.03.84.03h1.85ZM76.29,41.58h1.63v-1.76h-1.63v1.76Z"/>
      </g>
      <rect class="cls-2" x="95.06" y="32.52" width="1.42" height="15.06"/>
    </g>
  </g>
</svg>